<svg width="2148" height="275" viewBox="0 0 2148 275" fill="none" xmlns="http://www.w3.org/2000/svg">
<g id="STATION">
<g id="MEZZANINE">
<g id="MEZZANINE BASE">
<rect id="MEZZANINE CENTRAL BOOTH" x="266.5" y="88" width="53" height="137" fill="#00FF73"/>
<rect id="MEZZANINE CENTRAL" x="319.5" y="88" width="54" height="137" fill="#00FF73"/>
<path id="MEZZANINE DOWNTOWN EXIT" d="M266.5 88H319.5V59L403.5 59V39L266.5 39V88Z" fill="#00FF73"/>
<path id="MEZZANINE DOWNTOWN" d="M373.5 59L319.5 59V88H373.5V82L379.5 82V59H373.5Z" fill="#00FF73"/>
<path id="MEZZANINE UPTOWN EXIT" d="M266.5 225H319.5V254L403.5 254V274H266.5V225Z" fill="#00FF73"/>
<path id="MEZZANINE UPTOWN" d="M373.5 254H319.5V225H373.5V231H379.5V254H373.5Z" fill="#00FF73"/>
<path id="MEZZANINE BASE OUTLINE" d="M379.5 59L319.5 59V88M379.5 59V82L373.5 82V88M379.5 59L403.5 59V39L266.5 39V88M379.5 254V231H373.5V225M379.5 254L319.5 254L319.5 225M379.5 254H403.5V274H266.5V225M266.5 88H319.5M266.5 88L266.5 225M319.5 88V225M319.5 88L373.5 88M319.5 225H266.5M319.5 225L373.5 225M373.5 225V88" stroke="black"/>
</g>
<g id="TRASH BINS">
<circle id="TRASH BIN" cx="361" cy="163.5" r="4.5" fill="black" stroke="black"/>
</g>
<g id="EXIT DOORS">
<path id="EXIT DOOR" d="M321.5 196L316.5 196L316.5 184L321.5 184L321.5 196Z" fill="#FF290C" stroke="black"/>
<path id="EXIT DOOR_2" d="M321.5 140L316.5 140L316.5 128L321.5 128L321.5 140Z" fill="#FF290C" stroke="black"/>
<path id="EXIT DOOR_3" d="M367.5 56L367.5 61L355.5 61L355.5 56L367.5 56Z" fill="#FF290C" stroke="black"/>
<path id="EXIT DOOR_4" d="M367.5 252L367.5 257L355.5 257L355.5 252L367.5 252Z" fill="#FF290C" stroke="black"/>
</g>
<g id="DOORS">
<path id="DOOR" d="M360.5 227.5L360.5 223.5L369.5 223.5L369.5 227.5L360.5 227.5Z" fill="#FFEE36" stroke="black"/>
<path id="DOOR_2" d="M351.5 227.5L351.5 223.5L360.5 223.5L360.5 227.5L351.5 227.5Z" fill="#FFEE36" stroke="black"/>
<path id="DOOR_3" d="M342.5 227.5L342.5 223.5L351.5 223.5L351.5 227.5L342.5 227.5Z" fill="#FFEE36" stroke="black"/>
<path id="DOOR_4" d="M360.5 90L360.5 86L369.5 86L369.5 90L360.5 90Z" fill="#FFEE36" stroke="black"/>
<path id="DOOR_5" d="M351.5 90L351.5 86L360.5 86L360.5 90L351.5 90Z" fill="#FFEE36" stroke="black"/>
<path id="DOOR_6" d="M342.5 90L342.5 86L351.5 86L351.5 90L342.5 90Z" fill="#FFEE36" stroke="black"/>
<path id="DOOR_7" d="M284.5 90L284.5 86L293.5 86L293.5 90L284.5 90Z" fill="#FFEE36" stroke="black"/>
<path id="DOOR_8" d="M275.5 90L275.5 86L284.5 86L284.5 90L275.5 90Z" fill="#FFEE36" stroke="black"/>
<path id="DOOR_9" d="M266.5 90L266.5 86L275.5 86L275.5 90L266.5 90Z" fill="#FFEE36" stroke="black"/>
<path id="DOOR_10" d="M284.5 227.5L284.5 223.5L293.5 223.5L293.5 227.5L284.5 227.5Z" fill="#FFEE36" stroke="black"/>
<path id="DOOR_11" d="M275.5 227.5L275.5 223.5L284.5 223.5L284.5 227.5L275.5 227.5Z" fill="#FFEE36" stroke="black"/>
<path id="DOOR_12" d="M266.5 227.5L266.5 223.5L275.5 223.5L275.5 227.5L266.5 227.5Z" fill="#FFEE36" stroke="black"/>
</g>
<g id="BOOTHS">
<path id="BOOTH" d="M266.5 139H284.5V175H266.5V139Z" fill="#FFB031" stroke="black"/>
</g>
<g id="TURNSTILES">
<path id="TURNSTILE" d="M301.5 150H319.5V158H301.5V150Z" fill="#FF8228" stroke="black"/>
<path id="TURNSTILE_2" d="M301.5 158H319.5V166H301.5V158Z" fill="#FF8228" stroke="black"/>
<path id="TURNSTILE_3" d="M301.5 166H319.5V174H301.5V166Z" fill="#FF8228" stroke="black"/>
</g>
<g id="KIOSKS">
<rect id="KIOSK" x="323.5" y="213" width="9" height="4" transform="rotate(90 323.5 213)" fill="#00FFFF" stroke="black"/>
</g>
<g id="MISC">
<g id="MISC_2">
<path d="M359.5 146H362.5V154H359.5V146Z" fill="#525252"/>
<path d="M362.5 154V146H359.5V154H362.5ZM359.5 146L360.98 150.12M362.5 146L360.98 150.12M362.5 154L360.98 150.12M359.5 154L360.98 150.12" stroke="black"/>
</g>
</g>
<g id="MEZZ_TO_DOWNTOWN_STAIRS">
<g id="STAIRS GRAPHIC">
<rect id="Rectangle 3" x="379.5" y="59" width="4" height="20" fill="#FF3538" stroke="black"/>
<rect id="Rectangle 4" x="383.5" y="59" width="4" height="20" fill="#FF3538" stroke="black"/>
<rect id="Rectangle 5" x="387.5" y="59" width="4" height="20" fill="#FF3538" stroke="black"/>
<rect id="Rectangle 6" x="391.5" y="59" width="4" height="20" fill="#FF3538" stroke="black"/>
<rect id="Rectangle 7" x="395.5" y="59" width="4" height="20" fill="#FF3538" stroke="black"/>
<rect id="Rectangle 8" x="399.5" y="59" width="4" height="20" fill="#FF3538" stroke="black"/>
<rect id="Rectangle 9" x="403.5" y="59" width="4" height="20" fill="#FF3538" stroke="black"/>
<rect id="Rectangle 10" x="407.5" y="59" width="4" height="20" fill="#FF3538" stroke="black"/>
<rect id="Rectangle 1" x="411.5" y="59" width="4" height="20" fill="#FF3538" stroke="black"/>
<rect id="Rectangle 2" x="415.5" y="59" width="4" height="20" fill="#FF3538" stroke="black"/>
<rect id="Rectangle 3_2" x="419.5" y="59" width="4" height="20" fill="#FF3538" stroke="black"/>
<rect id="Rectangle 4_2" x="423.5" y="59" width="4" height="20" fill="#FF3538" stroke="black"/>
<rect id="Rectangle 5_2" x="427.5" y="59" width="4" height="20" fill="#FF3538" stroke="black"/>
<rect id="Rectangle 6_2" x="431.5" y="59" width="4" height="20" fill="#FF3538" stroke="black"/>
<rect id="Rectangle 7_2" x="435.5" y="59" width="4" height="20" fill="#FF3538" stroke="black"/>
<rect id="Rectangle 8_2" x="439.5" y="59" width="4" height="20" fill="#FF3538" stroke="black"/>
<rect id="Rectangle 9_2" x="443.5" y="59" width="4" height="20" fill="#FF3538" stroke="black"/>
<rect id="Rectangle 10_2" x="447.5" y="59" width="4" height="20" fill="#FF3538" stroke="black"/>
</g>
<g id="MEZZ_TO_DOWNTOWN_STAIRS_DOWN">
<path id="ARROW GRAPHIC" d="M397.793 69.7071C397.402 69.3166 397.402 68.6834 397.793 68.2929L404.157 61.9289C404.547 61.5384 405.181 61.5384 405.571 61.9289C405.962 62.3195 405.962 62.9526 405.571 63.3431L399.914 69L405.571 74.6569C405.962 75.0474 405.962 75.6805 405.571 76.0711C405.181 76.4616 404.547 76.4616 404.157 76.0711L397.793 69.7071ZM428.5 69V70H398.5V69V68H428.5V69Z" fill="white"/>
<path id="DOWN" d="M414.47 66H413.181V62.3636H414.481C414.847 62.3636 415.162 62.4364 415.426 62.582C415.69 62.7264 415.893 62.9342 416.035 63.2053C416.178 63.4763 416.249 63.8007 416.249 64.1783C416.249 64.5571 416.178 64.8826 416.035 65.1548C415.893 65.4271 415.688 65.636 415.422 65.7816C415.157 65.9272 414.84 66 414.47 66ZM413.95 65.3413H414.438C414.666 65.3413 414.857 65.301 415.012 65.2205C415.168 65.1388 415.285 65.0128 415.363 64.8423C415.443 64.6707 415.482 64.4493 415.482 64.1783C415.482 63.9096 415.443 63.69 415.363 63.5195C415.285 63.3491 415.169 63.2236 415.014 63.1431C414.859 63.0626 414.667 63.0224 414.44 63.0224H413.95V65.3413ZM420.161 64.1818C420.161 64.5784 420.085 64.9157 419.935 65.1939C419.786 65.4721 419.582 65.6845 419.324 65.8313C419.067 65.9769 418.779 66.0497 418.458 66.0497C418.135 66.0497 417.845 65.9763 417.588 65.8295C417.331 65.6828 417.128 65.4703 416.979 65.1921C416.83 64.9139 416.755 64.5772 416.755 64.1818C416.755 63.7853 416.83 63.4479 416.979 63.1697C417.128 62.8916 417.331 62.6797 417.588 62.5341C417.845 62.3873 418.135 62.3139 418.458 62.3139C418.779 62.3139 419.067 62.3873 419.324 62.5341C419.582 62.6797 419.786 62.8916 419.935 63.1697C420.085 63.4479 420.161 63.7853 420.161 64.1818ZM419.381 64.1818C419.381 63.925 419.343 63.7083 419.266 63.532C419.19 63.3556 419.083 63.2218 418.944 63.1307C418.806 63.0395 418.644 62.994 418.458 62.994C418.272 62.994 418.11 63.0395 417.971 63.1307C417.833 63.2218 417.725 63.3556 417.648 63.532C417.572 63.7083 417.535 63.925 417.535 64.1818C417.535 64.4387 417.572 64.6553 417.648 64.8317C417.725 65.008 417.833 65.1418 417.971 65.233C418.11 65.3241 418.272 65.3697 418.458 65.3697C418.644 65.3697 418.806 65.3241 418.944 65.233C419.083 65.1418 419.19 65.008 419.266 64.8317C419.343 64.6553 419.381 64.4387 419.381 64.1818ZM421.412 66L420.371 62.3636H421.211L421.813 64.8903H421.843L422.507 62.3636H423.227L423.889 64.8956H423.921L424.523 62.3636H425.363L424.322 66H423.573L422.88 63.6225H422.852L422.161 66H421.412ZM428.816 62.3636V66H428.152L426.57 63.7113H426.543V66H425.774V62.3636H426.449L428.018 64.6506H428.05V62.3636H428.816Z" fill="white"/>
</g>
<g id="MEZZ_TO_DOWNTOWN_STAIRS_UP">
<path id="ARROW GRAPHIC_2" d="M429.207 69.7071C429.598 69.3166 429.598 68.6834 429.207 68.2929L422.843 61.9289C422.453 61.5384 421.819 61.5384 421.429 61.9289C421.038 62.3195 421.038 62.9526 421.429 63.3432L427.086 69L421.429 74.6569C421.038 75.0474 421.038 75.6806 421.429 76.0711C421.819 76.4616 422.453 76.4616 422.843 76.0711L429.207 69.7071ZM398.5 69V70H428.5V69V68H398.5V69Z" fill="white"/>
<path id="UP" d="M400.12 62.3636H400.889V64.7251C400.889 64.9903 400.825 65.2223 400.699 65.4212C400.573 65.62 400.397 65.7751 400.171 65.8864C399.945 65.9964 399.682 66.0515 399.381 66.0515C399.079 66.0515 398.815 65.9964 398.589 65.8864C398.363 65.7751 398.187 65.62 398.062 65.4212C397.936 65.2223 397.874 64.9903 397.874 64.7251V62.3636H398.642V64.6594C398.642 64.7979 398.673 64.921 398.733 65.0288C398.795 65.1365 398.881 65.2211 398.992 65.2827C399.104 65.3442 399.233 65.375 399.381 65.375C399.53 65.375 399.66 65.3442 399.77 65.2827C399.881 65.2211 399.967 65.1365 400.027 65.0288C400.089 64.921 400.12 64.7979 400.12 64.6594V62.3636ZM401.521 66V62.3636H402.956C403.232 62.3636 403.467 62.4163 403.661 62.5217C403.855 62.6258 404.003 62.7708 404.105 62.9567C404.208 63.1413 404.259 63.3544 404.259 63.5959C404.259 63.8374 404.207 64.0504 404.103 64.2351C403.999 64.4197 403.848 64.5636 403.65 64.6665C403.454 64.7695 403.216 64.821 402.936 64.821H402.022V64.2049H402.812C402.96 64.2049 403.082 64.1795 403.178 64.1286C403.275 64.0765 403.347 64.0049 403.394 63.9137C403.443 63.8214 403.467 63.7154 403.467 63.5959C403.467 63.4751 403.443 63.3698 403.394 63.2798C403.347 63.1887 403.275 63.1183 403.178 63.0685C403.081 63.0176 402.958 62.9922 402.808 62.9922H402.29V66H401.521Z" fill="white"/>
</g>
</g>
<g id="MEZZ_TO_UPTOWN_STAIRS">
<g id="STAIRS GRAPHIC_2">
<rect id="Rectangle 3_3" x="379.5" y="234" width="4" height="20" fill="#FF3538" stroke="black"/>
<rect id="Rectangle 4_3" x="383.5" y="234" width="4" height="20" fill="#FF3538" stroke="black"/>
<rect id="Rectangle 5_3" x="387.5" y="234" width="4" height="20" fill="#FF3538" stroke="black"/>
<rect id="Rectangle 6_3" x="391.5" y="234" width="4" height="20" fill="#FF3538" stroke="black"/>
<rect id="Rectangle 7_3" x="395.5" y="234" width="4" height="20" fill="#FF3538" stroke="black"/>
<rect id="Rectangle 8_3" x="399.5" y="234" width="4" height="20" fill="#FF3538" stroke="black"/>
<rect id="Rectangle 9_3" x="403.5" y="234" width="4" height="20" fill="#FF3538" stroke="black"/>
<rect id="Rectangle 10_3" x="407.5" y="234" width="4" height="20" fill="#FF3538" stroke="black"/>
<rect id="Rectangle 1_2" x="411.5" y="234" width="4" height="20" fill="#FF3538" stroke="black"/>
<rect id="Rectangle 2_2" x="415.5" y="234" width="4" height="20" fill="#FF3538" stroke="black"/>
<rect id="Rectangle 3_4" x="419.5" y="234" width="4" height="20" fill="#FF3538" stroke="black"/>
<rect id="Rectangle 4_4" x="423.5" y="234" width="4" height="20" fill="#FF3538" stroke="black"/>
<rect id="Rectangle 5_4" x="427.5" y="234" width="4" height="20" fill="#FF3538" stroke="black"/>
<rect id="Rectangle 6_4" x="431.5" y="234" width="4" height="20" fill="#FF3538" stroke="black"/>
<rect id="Rectangle 7_4" x="435.5" y="234" width="4" height="20" fill="#FF3538" stroke="black"/>
<rect id="Rectangle 8_4" x="439.5" y="234" width="4" height="20" fill="#FF3538" stroke="black"/>
<rect id="Rectangle 9_4" x="443.5" y="234" width="4" height="20" fill="#FF3538" stroke="black"/>
<rect id="Rectangle 10_4" x="447.5" y="234" width="4" height="20" fill="#FF3538" stroke="black"/>
</g>
<g id="MEZZ_TO_UPTOWN_STAIRS_DOWN">
<path id="ARROW GRAPHIC_3" d="M397.793 244.707C397.402 244.317 397.402 243.683 397.793 243.293L404.157 236.929C404.547 236.538 405.181 236.538 405.571 236.929C405.962 237.319 405.962 237.953 405.571 238.343L399.914 244L405.571 249.657C405.962 250.047 405.962 250.681 405.571 251.071C405.181 251.462 404.547 251.462 404.157 251.071L397.793 244.707ZM428.5 244V245H398.5V244V243H428.5V244Z" fill="white"/>
<path id="DOWN_2" d="M414.47 241H413.181V237.364H414.481C414.847 237.364 415.162 237.436 415.426 237.582C415.69 237.726 415.893 237.934 416.035 238.205C416.178 238.476 416.249 238.801 416.249 239.178C416.249 239.557 416.178 239.883 416.035 240.155C415.893 240.427 415.688 240.636 415.422 240.782C415.157 240.927 414.84 241 414.47 241ZM413.95 240.341H414.438C414.666 240.341 414.857 240.301 415.012 240.221C415.168 240.139 415.285 240.013 415.363 239.842C415.443 239.671 415.482 239.449 415.482 239.178C415.482 238.91 415.443 238.69 415.363 238.52C415.285 238.349 415.169 238.224 415.014 238.143C414.859 238.063 414.667 238.022 414.44 238.022H413.95V240.341ZM420.161 239.182C420.161 239.578 420.085 239.916 419.935 240.194C419.786 240.472 419.582 240.685 419.324 240.831C419.067 240.977 418.779 241.05 418.458 241.05C418.135 241.05 417.845 240.976 417.588 240.83C417.331 240.683 417.128 240.47 416.979 240.192C416.83 239.914 416.755 239.577 416.755 239.182C416.755 238.785 416.83 238.448 416.979 238.17C417.128 237.892 417.331 237.68 417.588 237.534C417.845 237.387 418.135 237.314 418.458 237.314C418.779 237.314 419.067 237.387 419.324 237.534C419.582 237.68 419.786 237.892 419.935 238.17C420.085 238.448 420.161 238.785 420.161 239.182ZM419.381 239.182C419.381 238.925 419.343 238.708 419.266 238.532C419.19 238.356 419.083 238.222 418.944 238.131C418.806 238.04 418.644 237.994 418.458 237.994C418.272 237.994 418.11 238.04 417.971 238.131C417.833 238.222 417.725 238.356 417.648 238.532C417.572 238.708 417.535 238.925 417.535 239.182C417.535 239.439 417.572 239.655 417.648 239.832C417.725 240.008 417.833 240.142 417.971 240.233C418.11 240.324 418.272 240.37 418.458 240.37C418.644 240.37 418.806 240.324 418.944 240.233C419.083 240.142 419.19 240.008 419.266 239.832C419.343 239.655 419.381 239.439 419.381 239.182ZM421.412 241L420.371 237.364H421.211L421.813 239.89H421.843L422.507 237.364H423.227L423.889 239.896H423.921L424.523 237.364H425.363L424.322 241H423.573L422.88 238.623H422.852L422.161 241H421.412ZM428.816 237.364V241H428.152L426.57 238.711H426.543V241H425.774V237.364H426.449L428.018 239.651H428.05V237.364H428.816Z" fill="white"/>
</g>
<g id="MEZZ_TO_UPTOWN_STAIRS_UP">
<path id="ARROW GRAPHIC_4" d="M429.207 244.707C429.598 244.317 429.598 243.683 429.207 243.293L422.843 236.929C422.453 236.538 421.819 236.538 421.429 236.929C421.038 237.319 421.038 237.953 421.429 238.343L427.086 244L421.429 249.657C421.038 250.047 421.038 250.681 421.429 251.071C421.819 251.462 422.453 251.462 422.843 251.071L429.207 244.707ZM398.5 244V245H428.5V244V243H398.5V244Z" fill="white"/>
<path id="UP_2" d="M400.12 237.364H400.889V239.725C400.889 239.99 400.825 240.222 400.699 240.421C400.573 240.62 400.397 240.775 400.171 240.886C399.945 240.996 399.682 241.051 399.381 241.051C399.079 241.051 398.815 240.996 398.589 240.886C398.363 240.775 398.187 240.62 398.062 240.421C397.936 240.222 397.874 239.99 397.874 239.725V237.364H398.642V239.659C398.642 239.798 398.673 239.921 398.733 240.029C398.795 240.136 398.881 240.221 398.992 240.283C399.104 240.344 399.233 240.375 399.381 240.375C399.53 240.375 399.66 240.344 399.77 240.283C399.881 240.221 399.967 240.136 400.027 240.029C400.089 239.921 400.12 239.798 400.12 239.659V237.364ZM401.521 241V237.364H402.956C403.232 237.364 403.467 237.416 403.661 237.522C403.855 237.626 404.003 237.771 404.105 237.957C404.208 238.141 404.259 238.354 404.259 238.596C404.259 238.837 404.207 239.05 404.103 239.235C403.999 239.42 403.848 239.564 403.65 239.667C403.454 239.77 403.216 239.821 402.936 239.821H402.022V239.205H402.812C402.96 239.205 403.082 239.179 403.178 239.129C403.275 239.076 403.347 239.005 403.394 238.914C403.443 238.821 403.467 238.715 403.467 238.596C403.467 238.475 403.443 238.37 403.394 238.28C403.347 238.189 403.275 238.118 403.178 238.069C403.081 238.018 402.958 237.992 402.808 237.992H402.29V241H401.521Z" fill="white"/>
</g>
</g>
<g id="BAY_50_ST_STILLWELL_AV_2_STAIRS">
<g id="STAIRS GRAPHIC_3">
<rect id="Rectangle 3_5" x="403.5" y="257" width="4" height="17" fill="#FF3538" stroke="black"/>
<rect id="Rectangle 4_5" x="407.5" y="257" width="4" height="17" fill="#FF3538" stroke="black"/>
<rect id="Rectangle 5_5" x="411.5" y="257" width="4" height="17" fill="#FF3538" stroke="black"/>
<rect id="Rectangle 6_5" x="415.5" y="257" width="4" height="17" fill="#FF3538" stroke="black"/>
<rect id="Rectangle 7_5" x="419.5" y="257" width="4" height="17" fill="#FF3538" stroke="black"/>
<rect id="Rectangle 8_5" x="423.5" y="257" width="4" height="17" fill="#FF3538" stroke="black"/>
<rect id="Rectangle 9_5" x="427.5" y="257" width="4" height="17" fill="#FF3538" stroke="black"/>
<rect id="Rectangle 10_5" x="431.5" y="257" width="4" height="17" fill="#FF3538" stroke="black"/>
<rect id="Rectangle 1_3" x="435.5" y="257" width="4" height="17" fill="#FF3538" stroke="black"/>
<rect id="Rectangle 2_3" x="439.5" y="257" width="4" height="17" fill="#FF3538" stroke="black"/>
<rect id="Rectangle 3_6" x="443.5" y="257" width="4" height="17" fill="#FF3538" stroke="black"/>
<rect id="Rectangle 4_6" x="447.5" y="257" width="4" height="17" fill="#FF3538" stroke="black"/>
<rect id="Rectangle 5_6" x="451.5" y="257" width="4" height="17" fill="#FF3538" stroke="black"/>
<rect id="Rectangle 6_6" x="455.5" y="257" width="4" height="17" fill="#FF3538" stroke="black"/>
<rect id="Rectangle 7_6" x="459.5" y="257" width="4" height="17" fill="#FF3538" stroke="black"/>
<rect id="Rectangle 8_6" x="463.5" y="257" width="4" height="17" fill="#FF3538" stroke="black"/>
<rect id="Rectangle 9_6" x="467.5" y="257" width="4" height="17" fill="#FF3538" stroke="black"/>
<rect id="Rectangle 10_6" x="471.5" y="257" width="4" height="17" fill="#FF3538" stroke="black"/>
</g>
<g id="BAY_50_ST_STILLWELL_AV_2_STAIRS_DOWN">
<path id="ARROW GRAPHIC_5" d="M453.207 266.207C453.598 265.817 453.598 265.183 453.207 264.793L446.843 258.429C446.453 258.038 445.819 258.038 445.429 258.429C445.038 258.819 445.038 259.453 445.429 259.843L451.086 265.5L445.429 271.157C445.038 271.547 445.038 272.181 445.429 272.571C445.819 272.962 446.453 272.962 446.843 272.571L453.207 266.207ZM422.5 265.5V266.5H452.5V265.5V264.5H422.5V265.5Z" fill="white"/>
<path id="DOWN_3" d="M424.47 262.7H423.181V259.064H424.481C424.847 259.064 425.162 259.136 425.426 259.282C425.69 259.426 425.893 259.634 426.035 259.905C426.178 260.176 426.249 260.501 426.249 260.878C426.249 261.257 426.178 261.583 426.035 261.855C425.893 262.127 425.688 262.336 425.422 262.482C425.157 262.627 424.84 262.7 424.47 262.7ZM423.95 262.041H424.438C424.666 262.041 424.857 262.001 425.012 261.921C425.168 261.839 425.285 261.713 425.363 261.542C425.443 261.371 425.482 261.149 425.482 260.878C425.482 260.61 425.443 260.39 425.363 260.22C425.285 260.049 425.169 259.924 425.014 259.843C424.859 259.763 424.667 259.722 424.44 259.722H423.95V262.041ZM430.161 260.882C430.161 261.278 430.085 261.616 429.935 261.894C429.786 262.172 429.582 262.385 429.324 262.531C429.067 262.677 428.779 262.75 428.458 262.75C428.135 262.75 427.845 262.676 427.588 262.53C427.331 262.383 427.128 262.17 426.979 261.892C426.83 261.614 426.755 261.277 426.755 260.882C426.755 260.485 426.83 260.148 426.979 259.87C427.128 259.592 427.331 259.38 427.588 259.234C427.845 259.087 428.135 259.014 428.458 259.014C428.779 259.014 429.067 259.087 429.324 259.234C429.582 259.38 429.786 259.592 429.935 259.87C430.085 260.148 430.161 260.485 430.161 260.882ZM429.381 260.882C429.381 260.625 429.343 260.408 429.266 260.232C429.19 260.056 429.083 259.922 428.944 259.831C428.806 259.74 428.644 259.694 428.458 259.694C428.272 259.694 428.11 259.74 427.971 259.831C427.833 259.922 427.725 260.056 427.648 260.232C427.572 260.408 427.535 260.625 427.535 260.882C427.535 261.139 427.572 261.355 427.648 261.532C427.725 261.708 427.833 261.842 427.971 261.933C428.11 262.024 428.272 262.07 428.458 262.07C428.644 262.07 428.806 262.024 428.944 261.933C429.083 261.842 429.19 261.708 429.266 261.532C429.343 261.355 429.381 261.139 429.381 260.882ZM431.412 262.7L430.371 259.064H431.211L431.813 261.59H431.843L432.507 259.064H433.227L433.889 261.596H433.921L434.523 259.064H435.363L434.322 262.7H433.573L432.88 260.322H432.852L432.161 262.7H431.412ZM438.816 259.064V262.7H438.152L436.57 260.411H436.543V262.7H435.774V259.064H436.449L438.018 261.351H438.05V259.064H438.816Z" fill="white"/>
</g>
<g id="BAY_50_ST_STILLWELL_AV_2_STAIRS_UP">
<path id="ARROW GRAPHIC_6" d="M421.793 266.207C421.402 265.817 421.402 265.183 421.793 264.793L428.157 258.429C428.547 258.038 429.181 258.038 429.571 258.429C429.962 258.819 429.962 259.453 429.571 259.843L423.914 265.5L429.571 271.157C429.962 271.547 429.962 272.181 429.571 272.571C429.181 272.962 428.547 272.962 428.157 272.571L421.793 266.207ZM452.5 265.5V266.5H422.5V265.5V264.5H452.5V265.5Z" fill="white"/>
<path id="UP_3" d="M448.12 259.364H448.889V261.725C448.889 261.99 448.825 262.222 448.699 262.421C448.573 262.62 448.397 262.775 448.171 262.886C447.945 262.996 447.682 263.051 447.381 263.051C447.079 263.051 446.815 262.996 446.589 262.886C446.363 262.775 446.187 262.62 446.062 262.421C445.936 262.222 445.874 261.99 445.874 261.725V259.364H446.642V261.659C446.642 261.798 446.673 261.921 446.733 262.029C446.795 262.136 446.881 262.221 446.992 262.283C447.104 262.344 447.233 262.375 447.381 262.375C447.53 262.375 447.66 262.344 447.77 262.283C447.881 262.221 447.967 262.136 448.027 262.029C448.089 261.921 448.12 261.798 448.12 261.659V259.364ZM449.521 263V259.364H450.956C451.232 259.364 451.467 259.416 451.661 259.522C451.855 259.626 452.003 259.771 452.105 259.957C452.208 260.141 452.259 260.354 452.259 260.596C452.259 260.837 452.207 261.05 452.103 261.235C451.999 261.42 451.848 261.564 451.65 261.667C451.454 261.77 451.216 261.821 450.936 261.821H450.022V261.205H450.812C450.96 261.205 451.082 261.179 451.178 261.129C451.275 261.076 451.347 261.005 451.394 260.914C451.443 260.821 451.467 260.715 451.467 260.596C451.467 260.475 451.443 260.37 451.394 260.28C451.347 260.189 451.275 260.118 451.178 260.069C451.081 260.018 450.958 259.992 450.808 259.992H450.29V263H449.521Z" fill="white"/>
</g>
</g>
<g id="BAY_50_ST_STILLWELL_AV_1_STAIRS">
<g id="STAIRS GRAPHIC_4">
<rect id="Rectangle 3_7" x="403.5" y="39" width="4" height="17" fill="#FF3538" stroke="black"/>
<rect id="Rectangle 4_7" x="407.5" y="39" width="4" height="17" fill="#FF3538" stroke="black"/>
<rect id="Rectangle 5_7" x="411.5" y="39" width="4" height="17" fill="#FF3538" stroke="black"/>
<rect id="Rectangle 6_7" x="415.5" y="39" width="4" height="17" fill="#FF3538" stroke="black"/>
<rect id="Rectangle 7_7" x="419.5" y="39" width="4" height="17" fill="#FF3538" stroke="black"/>
<rect id="Rectangle 8_7" x="423.5" y="39" width="4" height="17" fill="#FF3538" stroke="black"/>
<rect id="Rectangle 9_7" x="427.5" y="39" width="4" height="17" fill="#FF3538" stroke="black"/>
<rect id="Rectangle 10_7" x="431.5" y="39" width="4" height="17" fill="#FF3538" stroke="black"/>
<rect id="Rectangle 1_4" x="435.5" y="39" width="4" height="17" fill="#FF3538" stroke="black"/>
<rect id="Rectangle 2_4" x="439.5" y="39" width="4" height="17" fill="#FF3538" stroke="black"/>
<rect id="Rectangle 3_8" x="443.5" y="39" width="4" height="17" fill="#FF3538" stroke="black"/>
<rect id="Rectangle 4_8" x="447.5" y="39" width="4" height="17" fill="#FF3538" stroke="black"/>
<rect id="Rectangle 5_8" x="451.5" y="39" width="4" height="17" fill="#FF3538" stroke="black"/>
<rect id="Rectangle 6_8" x="455.5" y="39" width="4" height="17" fill="#FF3538" stroke="black"/>
<rect id="Rectangle 7_8" x="459.5" y="39" width="4" height="17" fill="#FF3538" stroke="black"/>
<rect id="Rectangle 8_8" x="463.5" y="39" width="4" height="17" fill="#FF3538" stroke="black"/>
<rect id="Rectangle 9_8" x="467.5" y="39" width="4" height="17" fill="#FF3538" stroke="black"/>
<rect id="Rectangle 10_8" x="471.5" y="39" width="4" height="17" fill="#FF3538" stroke="black"/>
</g>
<g id="BAY_50_ST_STILLWELL_AV_1_STAIRS_DOWN">
<path id="ARROW GRAPHIC_7" d="M453.207 48.2071C453.598 47.8166 453.598 47.1834 453.207 46.7929L446.843 40.4289C446.453 40.0384 445.819 40.0384 445.429 40.4289C445.038 40.8194 445.038 41.4526 445.429 41.8431L451.086 47.5L445.429 53.1568C445.038 53.5474 445.038 54.1805 445.429 54.571C445.819 54.9616 446.453 54.9616 446.843 54.571L453.207 48.2071ZM422.5 47.5V48.5L452.5 48.5V47.5V46.5L422.5 46.5V47.5Z" fill="white"/>
<path id="DOWN_4" d="M423.47 45H422.181V41.3636H423.481C423.847 41.3636 424.162 41.4364 424.426 41.582C424.69 41.7264 424.893 41.9342 425.035 42.2053C425.178 42.4763 425.249 42.8007 425.249 43.1783C425.249 43.5571 425.178 43.8826 425.035 44.1548C424.893 44.4271 424.688 44.636 424.422 44.7816C424.157 44.9272 423.84 45 423.47 45ZM422.95 44.3413H423.438C423.666 44.3413 423.857 44.301 424.012 44.2205C424.168 44.1388 424.285 44.0128 424.363 43.8423C424.443 43.6707 424.482 43.4493 424.482 43.1783C424.482 42.9096 424.443 42.69 424.363 42.5195C424.285 42.3491 424.169 42.2236 424.014 42.1431C423.859 42.0626 423.667 42.0224 423.44 42.0224H422.95V44.3413ZM429.161 43.1818C429.161 43.5784 429.085 43.9157 428.935 44.1939C428.786 44.4721 428.582 44.6845 428.324 44.8313C428.067 44.9769 427.779 45.0497 427.458 45.0497C427.135 45.0497 426.845 44.9763 426.588 44.8295C426.331 44.6828 426.128 44.4703 425.979 44.1921C425.83 43.9139 425.755 43.5772 425.755 43.1818C425.755 42.7853 425.83 42.4479 425.979 42.1697C426.128 41.8916 426.331 41.6797 426.588 41.5341C426.845 41.3873 427.135 41.3139 427.458 41.3139C427.779 41.3139 428.067 41.3873 428.324 41.5341C428.582 41.6797 428.786 41.8916 428.935 42.1697C429.085 42.4479 429.161 42.7853 429.161 43.1818ZM428.381 43.1818C428.381 42.925 428.343 42.7083 428.266 42.532C428.19 42.3556 428.083 42.2218 427.944 42.1307C427.806 42.0395 427.644 41.994 427.458 41.994C427.272 41.994 427.11 42.0395 426.971 42.1307C426.833 42.2218 426.725 42.3556 426.648 42.532C426.572 42.7083 426.535 42.925 426.535 43.1818C426.535 43.4387 426.572 43.6553 426.648 43.8317C426.725 44.008 426.833 44.1418 426.971 44.233C427.11 44.3241 427.272 44.3697 427.458 44.3697C427.644 44.3697 427.806 44.3241 427.944 44.233C428.083 44.1418 428.19 44.008 428.266 43.8317C428.343 43.6553 428.381 43.4387 428.381 43.1818ZM430.412 45L429.371 41.3636H430.211L430.813 43.8903H430.843L431.507 41.3636H432.227L432.889 43.8956H432.921L433.523 41.3636H434.363L433.322 45H432.573L431.88 42.6225H431.852L431.161 45H430.412ZM437.816 41.3636V45H437.152L435.57 42.7113H435.543V45H434.774V41.3636H435.449L437.018 43.6506H437.05V41.3636H437.816Z" fill="white"/>
</g>
<g id="BAY_50_ST_STILLWELL_AV_1_STAIRS_UP">
<path id="ARROW GRAPHIC_8" d="M421.793 48.2071C421.402 47.8166 421.402 47.1834 421.793 46.7929L428.157 40.4289C428.547 40.0384 429.181 40.0384 429.571 40.4289C429.962 40.8194 429.962 41.4526 429.571 41.8431L423.914 47.5L429.571 53.1568C429.962 53.5474 429.962 54.1805 429.571 54.571C429.181 54.9616 428.547 54.9616 428.157 54.571L421.793 48.2071ZM452.5 47.5V48.5L422.5 48.5V47.5V46.5L452.5 46.5V47.5Z" fill="white"/>
<path id="UP_4" d="M449.12 41.3636H449.889V43.7251C449.889 43.9903 449.825 44.2223 449.699 44.4212C449.573 44.62 449.397 44.7751 449.171 44.8864C448.945 44.9964 448.682 45.0515 448.381 45.0515C448.079 45.0515 447.815 44.9964 447.589 44.8864C447.363 44.7751 447.187 44.62 447.062 44.4212C446.936 44.2223 446.874 43.9903 446.874 43.7251V41.3636H447.642V43.6594C447.642 43.7979 447.673 43.921 447.733 44.0288C447.795 44.1365 447.881 44.2211 447.992 44.2827C448.104 44.3442 448.233 44.375 448.381 44.375C448.53 44.375 448.66 44.3442 448.77 44.2827C448.881 44.2211 448.967 44.1365 449.027 44.0288C449.089 43.921 449.12 43.7979 449.12 43.6594V41.3636ZM450.521 45V41.3636H451.956C452.232 41.3636 452.467 41.4163 452.661 41.5217C452.855 41.6258 453.003 41.7708 453.105 41.9567C453.208 42.1413 453.259 42.3544 453.259 42.5959C453.259 42.8374 453.207 43.0504 453.103 43.2351C452.999 43.4197 452.848 43.5636 452.65 43.6665C452.454 43.7695 452.216 43.821 451.936 43.821H451.022V43.2049H451.812C451.96 43.2049 452.082 43.1795 452.178 43.1286C452.275 43.0765 452.347 43.0049 452.394 42.9137C452.443 42.8214 452.467 42.7154 452.467 42.5959C452.467 42.4751 452.443 42.3698 452.394 42.2798C452.347 42.1887 452.275 42.1183 452.178 42.0685C452.081 42.0176 451.958 41.9922 451.808 41.9922H451.29V45H450.521Z" fill="white"/>
</g>
</g>
<g id="HARWAY_AV_STILLWELL_AV_1_STAIRS">
<g id="STAIRS GRAPHIC_5">
<rect id="Rectangle 3_9" x="194.5" y="39" width="4" height="17" fill="#FF3538" stroke="black"/>
<rect id="Rectangle 4_9" x="198.5" y="39" width="4" height="17" fill="#FF3538" stroke="black"/>
<rect id="Rectangle 5_9" x="202.5" y="39" width="4" height="17" fill="#FF3538" stroke="black"/>
<rect id="Rectangle 6_9" x="206.5" y="39" width="4" height="17" fill="#FF3538" stroke="black"/>
<rect id="Rectangle 7_9" x="210.5" y="39" width="4" height="17" fill="#FF3538" stroke="black"/>
<rect id="Rectangle 8_9" x="214.5" y="39" width="4" height="17" fill="#FF3538" stroke="black"/>
<rect id="Rectangle 9_9" x="218.5" y="39" width="4" height="17" fill="#FF3538" stroke="black"/>
<rect id="Rectangle 10_9" x="222.5" y="39" width="4" height="17" fill="#FF3538" stroke="black"/>
<rect id="Rectangle 1_5" x="226.5" y="39" width="4" height="17" fill="#FF3538" stroke="black"/>
<rect id="Rectangle 2_5" x="230.5" y="39" width="4" height="17" fill="#FF3538" stroke="black"/>
<rect id="Rectangle 3_10" x="234.5" y="39" width="4" height="17" fill="#FF3538" stroke="black"/>
<rect id="Rectangle 4_10" x="238.5" y="39" width="4" height="17" fill="#FF3538" stroke="black"/>
<rect id="Rectangle 5_10" x="242.5" y="39" width="4" height="17" fill="#FF3538" stroke="black"/>
<rect id="Rectangle 6_10" x="246.5" y="39" width="4" height="17" fill="#FF3538" stroke="black"/>
<rect id="Rectangle 7_10" x="250.5" y="39" width="4" height="17" fill="#FF3538" stroke="black"/>
<rect id="Rectangle 8_10" x="254.5" y="39" width="4" height="17" fill="#FF3538" stroke="black"/>
<rect id="Rectangle 9_10" x="258.5" y="39" width="4" height="17" fill="#FF3538" stroke="black"/>
<rect id="Rectangle 10_10" x="262.5" y="39" width="4" height="17" fill="#FF3538" stroke="black"/>
</g>
<g id="HARWAY_AV_STILLWELL_AV_1_STAIRS_DOWN">
<path id="ARROW GRAPHIC_9" d="M212.793 48.2071C212.402 47.8166 212.402 47.1834 212.793 46.7929L219.157 40.4289C219.547 40.0384 220.18 40.0384 220.571 40.4289C220.961 40.8194 220.961 41.4526 220.571 41.8431L214.914 47.5L220.571 53.1568C220.961 53.5474 220.961 54.1805 220.571 54.5711C220.18 54.9616 219.547 54.9616 219.157 54.5711L212.793 48.2071ZM243.5 47.5V48.5L213.5 48.5V47.5V46.5L243.5 46.5V47.5Z" fill="white"/>
<path id="DOWN_5" d="M229.47 44.7H228.181V41.0636H229.481C229.847 41.0636 230.162 41.1364 230.426 41.282C230.689 41.4264 230.892 41.6342 231.035 41.9052C231.178 42.1763 231.249 42.5007 231.249 42.8783C231.249 43.257 231.178 43.5826 231.035 43.8548C230.892 44.1271 230.688 44.336 230.422 44.4816C230.157 44.6272 229.84 44.7 229.47 44.7ZM228.95 44.0413H229.438C229.666 44.0413 229.857 44.001 230.012 43.9205C230.168 43.8388 230.285 43.7128 230.363 43.5423C230.443 43.3707 230.482 43.1493 230.482 42.8783C230.482 42.6096 230.443 42.39 230.363 42.2195C230.285 42.0491 230.169 41.9236 230.014 41.8431C229.859 41.7626 229.667 41.7224 229.44 41.7224H228.95V44.0413ZM235.161 42.8818C235.161 43.2784 235.085 43.6157 234.935 43.8939C234.786 44.1721 234.582 44.3845 234.324 44.5313C234.067 44.6769 233.779 44.7497 233.458 44.7497C233.135 44.7497 232.845 44.6763 232.588 44.5295C232.331 44.3828 232.128 44.1703 231.979 43.8921C231.83 43.6139 231.755 43.2772 231.755 42.8818C231.755 42.4853 231.83 42.1479 231.979 41.8697C232.128 41.5916 232.331 41.3797 232.588 41.2341C232.845 41.0873 233.135 41.0139 233.458 41.0139C233.779 41.0139 234.067 41.0873 234.324 41.2341C234.582 41.3797 234.786 41.5916 234.935 41.8697C235.085 42.1479 235.161 42.4853 235.161 42.8818ZM234.381 42.8818C234.381 42.6249 234.343 42.4083 234.266 42.2319C234.19 42.0556 234.083 41.9218 233.944 41.8307C233.806 41.7395 233.644 41.694 233.458 41.694C233.272 41.694 233.11 41.7395 232.971 41.8307C232.833 41.9218 232.725 42.0556 232.648 42.2319C232.572 42.4083 232.534 42.6249 232.534 42.8818C232.534 43.1387 232.572 43.3553 232.648 43.5317C232.725 43.708 232.833 43.8418 232.971 43.9329C233.11 44.0241 233.272 44.0697 233.458 44.0697C233.644 44.0697 233.806 44.0241 233.944 43.9329C234.083 43.8418 234.19 43.708 234.266 43.5317C234.343 43.3553 234.381 43.1387 234.381 42.8818ZM236.412 44.7L235.371 41.0636H236.211L236.813 43.5903H236.843L237.507 41.0636H238.226L238.889 43.5956H238.921L239.523 41.0636H240.362L239.322 44.7H238.573L237.88 42.3225H237.852L237.161 44.7H236.412ZM243.816 41.0636V44.7H243.151L241.569 42.4113H241.543V44.7H240.774V41.0636H241.449L243.018 43.3506H243.05V41.0636H243.816Z" fill="white"/>
</g>
<g id="HARWAY_AV_STILLWELL_AV_1_STAIRS_UP">
<path id="ARROW GRAPHIC_10" d="M245.207 48.2071C245.598 47.8166 245.598 47.1834 245.207 46.7929L238.843 40.4289C238.453 40.0384 237.819 40.0384 237.429 40.4289C237.038 40.8194 237.038 41.4526 237.429 41.8431L243.086 47.5L237.429 53.1568C237.038 53.5474 237.038 54.1805 237.429 54.5711C237.819 54.9616 238.453 54.9616 238.843 54.5711L245.207 48.2071ZM214.5 47.5V48.5L244.5 48.5V47.5V46.5L214.5 46.5V47.5Z" fill="white"/>
<path id="UP_5" d="M217.12 41.3636H217.888V43.7251C217.888 43.9903 217.825 44.2223 217.699 44.4212C217.573 44.62 217.397 44.7751 217.171 44.8864C216.945 44.9964 216.682 45.0515 216.381 45.0515C216.079 45.0515 215.815 44.9964 215.589 44.8864C215.363 44.7751 215.187 44.62 215.062 44.4212C214.936 44.2223 214.874 43.9903 214.874 43.7251V41.3636H215.642V43.6594C215.642 43.7979 215.673 43.921 215.733 44.0288C215.795 44.1365 215.881 44.2211 215.992 44.2827C216.103 44.3442 216.233 44.375 216.381 44.375C216.53 44.375 216.66 44.3442 216.77 44.2827C216.881 44.2211 216.967 44.1365 217.027 44.0288C217.089 43.921 217.12 43.7979 217.12 43.6594V41.3636ZM218.521 45V41.3636H219.956C220.232 41.3636 220.466 41.4163 220.661 41.5217C220.855 41.6258 221.003 41.7708 221.104 41.9567C221.207 42.1413 221.259 42.3544 221.259 42.5959C221.259 42.8373 221.207 43.0504 221.103 43.2351C220.999 43.4197 220.848 43.5636 220.65 43.6665C220.453 43.7695 220.216 43.821 219.936 43.821H219.022V43.2049H219.812C219.96 43.2049 220.082 43.1794 220.178 43.1285C220.275 43.0765 220.347 43.0048 220.394 42.9137C220.443 42.8214 220.467 42.7154 220.467 42.5959C220.467 42.4751 220.443 42.3698 220.394 42.2798C220.347 42.1887 220.275 42.1182 220.178 42.0685C220.081 42.0176 219.957 41.9922 219.808 41.9922H219.29V45H218.521Z" fill="white"/>
</g>
</g>
<g id="HARWAY_AV_STILLWELL_AV_2_STAIRS">
<g id="STAIRS GRAPHIC_6">
<rect id="Rectangle 3_11" x="194.5" y="257" width="4" height="17" fill="#FF3538" stroke="black"/>
<rect id="Rectangle 4_11" x="198.5" y="257" width="4" height="17" fill="#FF3538" stroke="black"/>
<rect id="Rectangle 5_11" x="202.5" y="257" width="4" height="17" fill="#FF3538" stroke="black"/>
<rect id="Rectangle 6_11" x="206.5" y="257" width="4" height="17" fill="#FF3538" stroke="black"/>
<rect id="Rectangle 7_11" x="210.5" y="257" width="4" height="17" fill="#FF3538" stroke="black"/>
<rect id="Rectangle 8_11" x="214.5" y="257" width="4" height="17" fill="#FF3538" stroke="black"/>
<rect id="Rectangle 9_11" x="218.5" y="257" width="4" height="17" fill="#FF3538" stroke="black"/>
<rect id="Rectangle 10_11" x="222.5" y="257" width="4" height="17" fill="#FF3538" stroke="black"/>
<rect id="Rectangle 1_6" x="226.5" y="257" width="4" height="17" fill="#FF3538" stroke="black"/>
<rect id="Rectangle 2_6" x="230.5" y="257" width="4" height="17" fill="#FF3538" stroke="black"/>
<rect id="Rectangle 3_12" x="234.5" y="257" width="4" height="17" fill="#FF3538" stroke="black"/>
<rect id="Rectangle 4_12" x="238.5" y="257" width="4" height="17" fill="#FF3538" stroke="black"/>
<rect id="Rectangle 5_12" x="242.5" y="257" width="4" height="17" fill="#FF3538" stroke="black"/>
<rect id="Rectangle 6_12" x="246.5" y="257" width="4" height="17" fill="#FF3538" stroke="black"/>
<rect id="Rectangle 7_12" x="250.5" y="257" width="4" height="17" fill="#FF3538" stroke="black"/>
<rect id="Rectangle 8_12" x="254.5" y="257" width="4" height="17" fill="#FF3538" stroke="black"/>
<rect id="Rectangle 9_12" x="258.5" y="257" width="4" height="17" fill="#FF3538" stroke="black"/>
<rect id="Rectangle 10_12" x="262.5" y="257" width="4" height="17" fill="#FF3538" stroke="black"/>
</g>
<g id="HARWAY_AV_STILLWELL_AV_2_STAIRS_DOWN">
<path id="ARROW GRAPHIC_11" d="M212.793 266.207C212.402 265.817 212.402 265.183 212.793 264.793L219.157 258.429C219.547 258.038 220.18 258.038 220.571 258.429C220.961 258.819 220.961 259.453 220.571 259.843L214.914 265.5L220.571 271.157C220.961 271.547 220.961 272.181 220.571 272.571C220.18 272.962 219.547 272.962 219.157 272.571L212.793 266.207ZM243.5 265.5V266.5H213.5V265.5V264.5H243.5V265.5Z" fill="white"/>
<path id="DOWN_6" d="M229.47 262.7H228.181V259.064H229.481C229.847 259.064 230.162 259.136 230.426 259.282C230.689 259.426 230.892 259.634 231.035 259.905C231.178 260.176 231.249 260.501 231.249 260.878C231.249 261.257 231.178 261.583 231.035 261.855C230.892 262.127 230.688 262.336 230.422 262.482C230.157 262.627 229.84 262.7 229.47 262.7ZM228.95 262.041H229.438C229.666 262.041 229.857 262.001 230.012 261.921C230.168 261.839 230.285 261.713 230.363 261.542C230.443 261.371 230.482 261.149 230.482 260.878C230.482 260.61 230.443 260.39 230.363 260.22C230.285 260.049 230.169 259.924 230.014 259.843C229.859 259.763 229.667 259.722 229.44 259.722H228.95V262.041ZM235.161 260.882C235.161 261.278 235.085 261.616 234.935 261.894C234.786 262.172 234.582 262.385 234.324 262.531C234.067 262.677 233.779 262.75 233.458 262.75C233.135 262.75 232.845 262.676 232.588 262.53C232.331 262.383 232.128 262.17 231.979 261.892C231.83 261.614 231.755 261.277 231.755 260.882C231.755 260.485 231.83 260.148 231.979 259.87C232.128 259.592 232.331 259.38 232.588 259.234C232.845 259.087 233.135 259.014 233.458 259.014C233.779 259.014 234.067 259.087 234.324 259.234C234.582 259.38 234.786 259.592 234.935 259.87C235.085 260.148 235.161 260.485 235.161 260.882ZM234.381 260.882C234.381 260.625 234.343 260.408 234.266 260.232C234.19 260.056 234.083 259.922 233.944 259.831C233.806 259.74 233.644 259.694 233.458 259.694C233.272 259.694 233.11 259.74 232.971 259.831C232.833 259.922 232.725 260.056 232.648 260.232C232.572 260.408 232.534 260.625 232.534 260.882C232.534 261.139 232.572 261.355 232.648 261.532C232.725 261.708 232.833 261.842 232.971 261.933C233.11 262.024 233.272 262.07 233.458 262.07C233.644 262.07 233.806 262.024 233.944 261.933C234.083 261.842 234.19 261.708 234.266 261.532C234.343 261.355 234.381 261.139 234.381 260.882ZM236.412 262.7L235.371 259.064H236.211L236.813 261.59H236.843L237.507 259.064H238.226L238.889 261.596H238.921L239.523 259.064H240.362L239.322 262.7H238.573L237.88 260.322H237.852L237.161 262.7H236.412ZM243.816 259.064V262.7H243.151L241.569 260.411H241.543V262.7H240.774V259.064H241.449L243.018 261.351H243.05V259.064H243.816Z" fill="white"/>
</g>
<g id="HARWAY_AV_STILLWELL_AV_2_STAIRS_UP">
<path id="ARROW GRAPHIC_12" d="M245.207 266.207C245.598 265.817 245.598 265.183 245.207 264.793L238.843 258.429C238.453 258.038 237.819 258.038 237.429 258.429C237.038 258.819 237.038 259.453 237.429 259.843L243.086 265.5L237.429 271.157C237.038 271.547 237.038 272.181 237.429 272.571C237.819 272.962 238.453 272.962 238.843 272.571L245.207 266.207ZM214.5 265.5V266.5H244.5V265.5V264.5H214.5V265.5Z" fill="white"/>
<path id="UP_6" d="M217.12 259.364H217.888V261.725C217.888 261.99 217.825 262.222 217.699 262.421C217.573 262.62 217.397 262.775 217.171 262.886C216.945 262.996 216.682 263.051 216.381 263.051C216.079 263.051 215.815 262.996 215.589 262.886C215.363 262.775 215.187 262.62 215.062 262.421C214.936 262.222 214.874 261.99 214.874 261.725V259.364H215.642V261.659C215.642 261.798 215.673 261.921 215.733 262.029C215.795 262.136 215.881 262.221 215.992 262.283C216.103 262.344 216.233 262.375 216.381 262.375C216.53 262.375 216.66 262.344 216.77 262.283C216.881 262.221 216.967 262.136 217.027 262.029C217.089 261.921 217.12 261.798 217.12 261.659V259.364ZM218.521 263V259.364H219.956C220.232 259.364 220.466 259.416 220.661 259.522C220.855 259.626 221.003 259.771 221.104 259.957C221.207 260.141 221.259 260.354 221.259 260.596C221.259 260.837 221.207 261.05 221.103 261.235C220.999 261.42 220.848 261.564 220.65 261.667C220.453 261.77 220.216 261.821 219.936 261.821H219.022V261.205H219.812C219.96 261.205 220.082 261.179 220.178 261.129C220.275 261.076 220.347 261.005 220.394 260.914C220.443 260.821 220.467 260.715 220.467 260.596C220.467 260.475 220.443 260.37 220.394 260.28C220.347 260.189 220.275 260.118 220.178 260.069C220.081 260.018 219.957 259.992 219.808 259.992H219.29V263H218.521Z" fill="white"/>
</g>
</g>
<path id="HARWAY AV &#38; STILLWELL AV" d="M156.547 46V42.3636H157.316V43.864H158.877V42.3636H159.644V46H158.877V44.4979H157.316V46H156.547ZM160.905 46H160.081L161.336 42.3636H162.327L163.581 46H162.757L161.846 43.1946H161.817L160.905 46ZM160.853 44.5707H162.799V45.1708H160.853V44.5707ZM164.018 46V42.3636H165.453C165.727 42.3636 165.962 42.4128 166.156 42.511C166.351 42.6081 166.5 42.746 166.602 42.9247C166.705 43.1023 166.756 43.3112 166.756 43.5515C166.756 43.793 166.704 44.0007 166.6 44.1747C166.496 44.3475 166.345 44.4801 166.147 44.5724C165.951 44.6648 165.713 44.7109 165.433 44.7109H164.473V44.093H165.309C165.456 44.093 165.578 44.0729 165.675 44.0327C165.772 43.9924 165.844 43.9321 165.891 43.8516C165.94 43.7711 165.964 43.671 165.964 43.5515C165.964 43.4308 165.94 43.329 165.891 43.2461C165.844 43.1632 165.771 43.1005 165.673 43.0579C165.576 43.0141 165.453 42.9922 165.305 42.9922H164.787V46H164.018ZM165.982 44.3452L166.886 46H166.037L165.153 44.3452H165.982ZM168.118 46L167.078 42.3636H167.917L168.519 44.8903H168.549L169.214 42.3636H169.933L170.595 44.8956H170.627L171.229 42.3636H172.069L171.028 46H170.279L169.586 43.6225H169.558L168.867 46H168.118ZM172.741 46H171.917L173.172 42.3636H174.163L175.416 46H174.593L173.682 43.1946H173.653L172.741 46ZM172.689 44.5707H174.635V45.1708H172.689V44.5707ZM175.27 42.3636H176.131L176.96 43.9297H176.996L177.825 42.3636L178.686 42.3636L177.36 44.7145V46H176.596V44.7145L175.27 42.3636ZM180.89 46L180.066 46L181.322 42.3636H182.312L183.566 46H182.742L181.831 43.1946H181.803L180.89 46ZM180.839 44.5707H182.785V45.1708H180.839V44.5707ZM184.206 42.3636L185.085 45.1264H185.119L186 42.3636H186.852L185.598 46H184.608L183.352 42.3636H184.206ZM189.548 46.0533C189.297 46.0533 189.08 46.0083 188.898 45.9183C188.716 45.8284 188.575 45.7064 188.477 45.5526C188.38 45.3975 188.331 45.2247 188.331 45.0341C188.331 44.892 188.36 44.766 188.417 44.6559C188.474 44.5458 188.553 44.4446 188.655 44.3523C188.756 44.2588 188.875 44.1658 189.01 44.0735L189.715 43.6101C189.806 43.5521 189.873 43.4911 189.915 43.4272C189.958 43.3621 189.979 43.2917 189.979 43.2159C189.979 43.1437 189.95 43.0768 189.892 43.0153C189.834 42.9537 189.752 42.9235 189.645 42.9247C189.574 42.9247 189.513 42.9407 189.461 42.9727C189.409 43.0034 189.368 43.0443 189.338 43.0952C189.31 43.1449 189.296 43.2005 189.296 43.2621C189.296 43.3378 189.317 43.4148 189.36 43.4929C189.402 43.571 189.459 43.6539 189.53 43.7415C189.601 43.8279 189.679 43.9214 189.763 44.022L191.487 46H190.698L189.26 44.3984C189.165 44.2907 189.071 44.1783 188.976 44.0611C188.883 43.9427 188.804 43.8172 188.742 43.6847C188.679 43.5509 188.648 43.4059 188.648 43.2496C188.648 43.0733 188.688 42.9147 188.77 42.7738C188.853 42.6329 188.969 42.5217 189.118 42.44C189.267 42.3571 189.441 42.3157 189.64 42.3157C189.834 42.3157 190.002 42.3554 190.143 42.4347C190.285 42.5128 190.394 42.617 190.469 42.7472C190.546 42.8762 190.585 43.0182 190.585 43.1733C190.585 43.3449 190.542 43.5006 190.457 43.6403C190.373 43.7788 190.254 43.9031 190.102 44.0131L189.36 44.5476C189.259 44.621 189.184 44.6961 189.136 44.7731C189.088 44.8488 189.065 44.9216 189.065 44.9915C189.065 45.0779 189.086 45.1554 189.129 45.2241C189.171 45.2927 189.232 45.3472 189.31 45.3874C189.388 45.4265 189.48 45.446 189.585 45.446C189.713 45.446 189.839 45.417 189.963 45.359C190.089 45.2998 190.202 45.2164 190.304 45.1087C190.407 44.9998 190.489 44.8707 190.551 44.7216C190.613 44.5724 190.643 44.4073 190.643 44.2262H191.27C191.27 44.4487 191.246 44.6494 191.197 44.8281C191.149 45.0057 191.081 45.1607 190.995 45.2933C190.908 45.4247 190.81 45.5324 190.698 45.6165C190.663 45.639 190.628 45.6603 190.595 45.6804C190.562 45.7005 190.528 45.7218 190.492 45.7443C190.357 45.8532 190.206 45.9319 190.04 45.9805C189.874 46.029 189.71 46.0533 189.548 46.0533ZM158.203 49.4094C158.189 49.2662 158.128 49.1549 158.02 49.0756C157.912 48.9963 157.766 48.9567 157.581 48.9567C157.456 48.9567 157.35 48.9744 157.263 49.0099C157.177 49.0443 157.111 49.0922 157.065 49.1538C157.02 49.2153 156.997 49.2852 156.997 49.3633C156.995 49.4284 157.008 49.4852 157.038 49.5337C157.069 49.5823 157.111 49.6243 157.164 49.6598C157.217 49.6941 157.279 49.7243 157.349 49.7504C157.419 49.7752 157.493 49.7965 157.572 49.8143L157.899 49.8924C158.058 49.9279 158.203 49.9753 158.336 50.0344C158.469 50.0936 158.583 50.1664 158.68 50.2528C158.777 50.3393 158.853 50.4411 158.906 50.5582C158.96 50.6754 158.988 50.8098 158.989 50.9613C158.988 51.1838 158.931 51.3768 158.819 51.5401C158.708 51.7023 158.547 51.8284 158.336 51.9183C158.126 52.0071 157.874 52.0515 157.578 52.0515C157.284 52.0515 157.029 52.0065 156.811 51.9165C156.594 51.8266 156.425 51.6934 156.303 51.517C156.182 51.3395 156.119 51.1199 156.113 50.8583H156.857C156.865 50.9802 156.9 51.082 156.962 51.1637C157.024 51.2442 157.108 51.3052 157.212 51.3466C157.317 51.3868 157.436 51.407 157.569 51.407C157.699 51.407 157.812 51.388 157.908 51.3501C158.005 51.3123 158.08 51.2596 158.134 51.1921C158.187 51.1246 158.213 51.0471 158.213 50.9595C158.213 50.8778 158.189 50.8092 158.141 50.7536C158.093 50.6979 158.023 50.6506 157.931 50.6115C157.84 50.5724 157.728 50.5369 157.596 50.505L157.2 50.4055C156.893 50.331 156.651 50.2144 156.473 50.0558C156.296 49.8971 156.208 49.6835 156.209 49.4148C156.208 49.1946 156.266 49.0022 156.385 48.8377C156.504 48.6732 156.668 48.5447 156.876 48.4524C157.085 48.3601 157.321 48.3139 157.587 48.3139C157.857 48.3139 158.092 48.3601 158.293 48.4524C158.496 48.5447 158.653 48.6732 158.766 48.8377C158.878 49.0022 158.936 49.1928 158.94 49.4094H158.203ZM159.368 48.9975V48.3636H162.354V48.9975H161.241V52H160.481V48.9975H159.368ZM163.615 48.3636V52H162.846V48.3636H163.615ZM164.248 52V48.3636H165.017V51.3661H166.575V52H164.248ZM167.085 52V48.3636H167.853V51.3661H169.412V52H167.085ZM170.535 52L169.494 48.3636H170.334L170.936 50.8903H170.966L171.631 48.3636H172.35L173.012 50.8956H173.044L173.646 48.3636H174.486L173.445 52H172.696L172.003 49.6225H171.975L171.284 52H170.535ZM174.897 52V48.3636H177.347V48.9975H175.666V49.864H177.221V50.4979H175.666V51.3661H177.354V52H174.897ZM177.959 52V48.3636H178.727V51.3661H180.286V52H177.959ZM180.796 52V48.3636H181.564V51.3661L183.123 51.3661V52L180.796 52ZM185.416 52H184.593L185.848 48.3636H186.839L188.092 52H187.268L186.358 49.1946H186.329L185.416 52ZM185.365 50.5707H187.311V51.1708H185.365V50.5707ZM188.733 48.3636L189.612 51.1264H189.645L190.526 48.3636H191.378L190.125 52H189.134L187.879 48.3636H188.733Z" fill="white"/>
<path id="HARWAY AV &#38; STILLWELL AV_2" d="M156.547 264V260.364H157.316V261.864H158.877V260.364H159.644V264H158.877V262.498H157.316V264H156.547ZM160.905 264H160.081L161.336 260.364H162.327L163.581 264H162.757L161.846 261.195H161.817L160.905 264ZM160.853 262.571H162.799V263.171H160.853V262.571ZM164.018 264V260.364H165.453C165.727 260.364 165.962 260.413 166.156 260.511C166.351 260.608 166.5 260.746 166.602 260.925C166.705 261.102 166.756 261.311 166.756 261.551C166.756 261.793 166.704 262.001 166.6 262.175C166.496 262.348 166.345 262.48 166.147 262.572C165.951 262.665 165.713 262.711 165.433 262.711H164.473V262.093H165.309C165.456 262.093 165.578 262.073 165.675 262.033C165.772 261.992 165.844 261.932 165.891 261.852C165.94 261.771 165.964 261.671 165.964 261.551C165.964 261.431 165.94 261.329 165.891 261.246C165.844 261.163 165.771 261.1 165.673 261.058C165.576 261.014 165.453 260.992 165.305 260.992H164.787V264H164.018ZM165.982 262.345L166.886 264H166.037L165.153 262.345H165.982ZM168.118 264L167.078 260.364H167.917L168.519 262.89H168.549L169.214 260.364H169.933L170.595 262.896H170.627L171.229 260.364H172.069L171.028 264H170.279L169.586 261.623H169.558L168.867 264H168.118ZM172.741 264H171.917L173.172 260.364H174.163L175.416 264H174.593L173.682 261.195H173.653L172.741 264ZM172.689 262.571H174.635V263.171H172.689V262.571ZM175.27 260.364H176.131L176.96 261.93H176.996L177.825 260.364H178.686L177.36 262.714V264H176.596V262.714L175.27 260.364ZM180.89 264H180.066L181.322 260.364H182.312L183.566 264H182.742L181.831 261.195H181.803L180.89 264ZM180.839 262.571H182.785V263.171H180.839V262.571ZM184.206 260.364L185.085 263.126H185.119L186 260.364H186.852L185.598 264H184.608L183.352 260.364H184.206ZM189.548 264.053C189.297 264.053 189.08 264.008 188.898 263.918C188.716 263.828 188.575 263.706 188.477 263.553C188.38 263.397 188.331 263.225 188.331 263.034C188.331 262.892 188.36 262.766 188.417 262.656C188.474 262.546 188.553 262.445 188.655 262.352C188.756 262.259 188.875 262.166 189.01 262.074L189.715 261.61C189.806 261.552 189.873 261.491 189.915 261.427C189.958 261.362 189.979 261.292 189.979 261.216C189.979 261.144 189.95 261.077 189.892 261.015C189.834 260.954 189.752 260.924 189.645 260.925C189.574 260.925 189.513 260.941 189.461 260.973C189.409 261.003 189.368 261.044 189.338 261.095C189.31 261.145 189.296 261.201 189.296 261.262C189.296 261.338 189.317 261.415 189.36 261.493C189.402 261.571 189.459 261.654 189.53 261.741C189.601 261.828 189.679 261.921 189.763 262.022L191.487 264H190.698L189.26 262.398C189.165 262.291 189.071 262.178 188.976 262.061C188.883 261.943 188.804 261.817 188.742 261.685C188.679 261.551 188.648 261.406 188.648 261.25C188.648 261.073 188.688 260.915 188.77 260.774C188.853 260.633 188.969 260.522 189.118 260.44C189.267 260.357 189.441 260.316 189.64 260.316C189.834 260.316 190.002 260.355 190.143 260.435C190.285 260.513 190.394 260.617 190.469 260.747C190.546 260.876 190.585 261.018 190.585 261.173C190.585 261.345 190.542 261.501 190.457 261.64C190.373 261.779 190.254 261.903 190.102 262.013L189.36 262.548C189.259 262.621 189.184 262.696 189.136 262.773C189.088 262.849 189.065 262.922 189.065 262.991C189.065 263.078 189.086 263.155 189.129 263.224C189.171 263.293 189.232 263.347 189.31 263.387C189.388 263.426 189.48 263.446 189.585 263.446C189.713 263.446 189.839 263.417 189.963 263.359C190.089 263.3 190.202 263.216 190.304 263.109C190.407 263 190.489 262.871 190.551 262.722C190.613 262.572 190.643 262.407 190.643 262.226H191.27C191.27 262.449 191.246 262.649 191.197 262.828C191.149 263.006 191.081 263.161 190.995 263.293C190.908 263.425 190.81 263.532 190.698 263.616C190.663 263.639 190.628 263.66 190.595 263.68C190.562 263.701 190.528 263.722 190.492 263.744C190.357 263.853 190.206 263.932 190.04 263.98C189.874 264.029 189.71 264.053 189.548 264.053ZM158.203 267.409C158.189 267.266 158.128 267.155 158.02 267.076C157.912 266.996 157.766 266.957 157.581 266.957C157.456 266.957 157.35 266.974 157.263 267.01C157.177 267.044 157.111 267.092 157.065 267.154C157.02 267.215 156.997 267.285 156.997 267.363C156.995 267.428 157.008 267.485 157.038 267.534C157.069 267.582 157.111 267.624 157.164 267.66C157.217 267.694 157.279 267.724 157.349 267.75C157.419 267.775 157.493 267.797 157.572 267.814L157.899 267.892C158.058 267.928 158.203 267.975 158.336 268.034C158.469 268.094 158.583 268.166 158.68 268.253C158.777 268.339 158.853 268.441 158.906 268.558C158.96 268.675 158.988 268.81 158.989 268.961C158.988 269.184 158.931 269.377 158.819 269.54C158.708 269.702 158.547 269.828 158.336 269.918C158.126 270.007 157.874 270.051 157.578 270.051C157.284 270.051 157.029 270.007 156.811 269.917C156.594 269.827 156.425 269.693 156.303 269.517C156.182 269.339 156.119 269.12 156.113 268.858H156.857C156.865 268.98 156.9 269.082 156.962 269.164C157.024 269.244 157.108 269.305 157.212 269.347C157.317 269.387 157.436 269.407 157.569 269.407C157.699 269.407 157.812 269.388 157.908 269.35C158.005 269.312 158.08 269.26 158.134 269.192C158.187 269.125 158.213 269.047 158.213 268.96C158.213 268.878 158.189 268.809 158.141 268.754C158.093 268.698 158.023 268.651 157.931 268.612C157.84 268.572 157.728 268.537 157.596 268.505L157.2 268.406C156.893 268.331 156.651 268.214 156.473 268.056C156.296 267.897 156.208 267.683 156.209 267.415C156.208 267.195 156.266 267.002 156.385 266.838C156.504 266.673 156.668 266.545 156.876 266.452C157.085 266.36 157.321 266.314 157.587 266.314C157.857 266.314 158.092 266.36 158.293 266.452C158.496 266.545 158.653 266.673 158.766 266.838C158.878 267.002 158.936 267.193 158.94 267.409H158.203ZM159.368 266.998V266.364H162.354V266.998H161.241V270H160.481V266.998H159.368ZM163.615 266.364V270H162.846V266.364H163.615ZM164.248 270V266.364H165.017V269.366H166.575V270H164.248ZM167.085 270V266.364H167.853V269.366H169.412V270H167.085ZM170.535 270L169.494 266.364H170.334L170.936 268.89H170.966L171.631 266.364H172.35L173.012 268.896H173.044L173.646 266.364H174.486L173.445 270H172.696L172.003 267.623H171.975L171.284 270H170.535ZM174.897 270V266.364H177.347V266.998H175.666V267.864H177.221V268.498H175.666V269.366H177.354V270H174.897ZM177.959 270V266.364H178.727V269.366H180.286V270H177.959ZM180.796 270V266.364H181.564V269.366H183.123V270H180.796ZM185.416 270H184.593L185.848 266.364H186.839L188.092 270H187.268L186.358 267.195H186.329L185.416 270ZM185.365 268.571H187.311V269.171H185.365V268.571ZM188.733 266.364L189.612 269.126H189.645L190.526 266.364H191.378L190.125 270H189.134L187.879 266.364H188.733Z" fill="white"/>
<path id="BAY 50 ST &#38; STILLWELL AV" d="M478.816 46V42.3636H480.272C480.54 42.3636 480.763 42.4033 480.941 42.4826C481.12 42.5619 481.254 42.672 481.344 42.8129C481.434 42.9525 481.479 43.1135 481.479 43.2958C481.479 43.4379 481.451 43.5627 481.394 43.6705C481.337 43.777 481.259 43.8646 481.16 43.9332C481.062 44.0007 480.949 44.0487 480.822 44.0771V44.1126C480.961 44.1185 481.091 44.1576 481.211 44.2298C481.333 44.302 481.432 44.4032 481.508 44.5334C481.584 44.6624 481.621 44.8163 481.621 44.995C481.621 45.188 481.574 45.3602 481.478 45.5117C481.383 45.6621 481.243 45.781 481.057 45.8686C480.871 45.9562 480.642 46 480.37 46H478.816ZM479.585 45.3714H480.212C480.426 45.3714 480.582 45.3306 480.68 45.2489C480.779 45.1661 480.828 45.056 480.828 44.9187C480.828 44.8181 480.804 44.7293 480.755 44.6523C480.706 44.5754 480.637 44.515 480.547 44.4712C480.458 44.4274 480.353 44.4055 480.229 44.4055H479.585V45.3714ZM479.585 43.8853H480.155C480.26 43.8853 480.354 43.867 480.435 43.8303C480.518 43.7924 480.583 43.7391 480.631 43.6705C480.679 43.6018 480.703 43.5195 480.703 43.4237C480.703 43.2923 480.657 43.1863 480.563 43.1058C480.471 43.0253 480.339 42.9851 480.169 42.9851H479.585V43.8853ZM482.748 46H481.925L483.18 42.3636H484.171L485.424 46H484.6L483.69 43.1946H483.661L482.748 46ZM482.697 44.5707H484.643V45.1708H482.697V44.5707ZM485.278 42.3636H486.139L486.968 43.9297H487.004L487.833 42.3636H488.694L487.368 44.7145V46H486.604V44.7145L485.278 42.3636ZM491.578 46.0497C491.327 46.0497 491.103 46.0036 490.907 45.9112C490.711 45.8189 490.556 45.6916 490.442 45.5295C490.327 45.3673 490.267 45.1815 490.262 44.9719H491.008C491.016 45.1128 491.075 45.227 491.186 45.3146C491.296 45.4022 491.426 45.446 491.578 45.446C491.699 45.446 491.805 45.4194 491.898 45.3661C491.991 45.3117 492.064 45.2365 492.116 45.1406C492.169 45.0436 492.196 44.9323 492.196 44.8068C492.196 44.679 492.169 44.5665 492.114 44.4695C492.061 44.3724 491.987 44.2966 491.892 44.2422C491.798 44.1877 491.689 44.1599 491.567 44.1587C491.461 44.1587 491.357 44.1806 491.257 44.2244C491.157 44.2682 491.08 44.328 491.024 44.4038L490.34 44.2812L490.513 42.3636H492.736V42.9922H491.146L491.052 43.9031H491.074C491.138 43.8131 491.234 43.7385 491.363 43.6793C491.492 43.6201 491.637 43.5906 491.796 43.5906C492.015 43.5906 492.211 43.642 492.382 43.745C492.554 43.848 492.689 43.9895 492.789 44.1694C492.888 44.3481 492.937 44.5541 492.936 44.7873C492.937 45.0323 492.881 45.2501 492.766 45.4407C492.652 45.6301 492.493 45.7792 492.288 45.8881C492.085 45.9959 491.848 46.0497 491.578 46.0497ZM494.898 46.0799C494.593 46.0787 494.33 46.0036 494.11 45.8544C493.891 45.7053 493.722 45.4892 493.604 45.2063C493.487 44.9234 493.429 44.5831 493.43 44.1854C493.43 43.7888 493.488 43.4509 493.606 43.1715C493.724 42.8922 493.893 42.6797 494.112 42.5341C494.332 42.3873 494.594 42.3139 494.898 42.3139C495.202 42.3139 495.464 42.3873 495.683 42.5341C495.903 42.6809 496.073 42.8939 496.191 43.1733C496.309 43.4515 496.368 43.7888 496.367 44.1854C496.367 44.5843 496.307 44.9252 496.189 45.2081C496.072 45.491 495.904 45.707 495.685 45.8562C495.466 46.0053 495.204 46.0799 494.898 46.0799ZM494.898 45.4425C495.107 45.4425 495.273 45.3377 495.397 45.1282C495.521 44.9187 495.583 44.6044 495.582 44.1854C495.582 43.9096 495.553 43.6799 495.497 43.4964C495.441 43.313 495.362 43.1751 495.259 43.0827C495.157 42.9904 495.037 42.9442 494.898 42.9442C494.691 42.9442 494.525 43.0478 494.401 43.255C494.277 43.4621 494.214 43.7723 494.213 44.1854C494.213 44.4647 494.241 44.6979 494.296 44.8849C494.353 45.0708 494.433 45.2105 494.536 45.304C494.639 45.3963 494.76 45.4425 494.898 45.4425ZM500.066 43.4094C500.052 43.2662 499.991 43.1549 499.883 43.0756C499.775 42.9963 499.629 42.9567 499.445 42.9567C499.319 42.9567 499.213 42.9744 499.127 43.0099C499.04 43.0443 498.974 43.0922 498.928 43.1538C498.883 43.2153 498.86 43.2852 498.86 43.3633C498.858 43.4284 498.872 43.4852 498.901 43.5337C498.932 43.5823 498.974 43.6243 499.027 43.6598C499.081 43.6941 499.142 43.7243 499.212 43.7504C499.282 43.7752 499.356 43.7965 499.436 43.8143L499.762 43.8924C499.921 43.9279 500.067 43.9753 500.199 44.0344C500.332 44.0936 500.447 44.1664 500.544 44.2528C500.641 44.3393 500.716 44.4411 500.769 44.5582C500.824 44.6754 500.851 44.8098 500.853 44.9613C500.851 45.1838 500.795 45.3768 500.682 45.5401C500.571 45.7023 500.41 45.8284 500.199 45.9183C499.99 46.0071 499.737 46.0515 499.441 46.0515C499.147 46.0515 498.892 46.0065 498.674 45.9165C498.457 45.8266 498.288 45.6934 498.166 45.517C498.045 45.3395 497.982 45.1199 497.976 44.8583H498.72C498.728 44.9802 498.763 45.082 498.825 45.1637C498.888 45.2442 498.971 45.3052 499.075 45.3466C499.181 45.3868 499.3 45.407 499.432 45.407C499.562 45.407 499.675 45.388 499.771 45.3501C499.868 45.3123 499.944 45.2596 499.997 45.1921C500.05 45.1246 500.077 45.0471 500.077 44.9595C500.077 44.8778 500.052 44.8092 500.004 44.7536C499.957 44.6979 499.887 44.6506 499.794 44.6115C499.703 44.5724 499.591 44.5369 499.459 44.505L499.063 44.4055C498.756 44.331 498.514 44.2144 498.337 44.0558C498.159 43.8971 498.071 43.6835 498.072 43.4148C498.071 43.1946 498.129 43.0022 498.248 42.8377C498.367 42.6732 498.531 42.5447 498.74 42.4524C498.948 42.3601 499.185 42.3139 499.45 42.3139C499.72 42.3139 499.955 42.3601 500.157 42.4524C500.359 42.5447 500.516 42.6732 500.629 42.8377C500.741 43.0022 500.799 43.1928 500.803 43.4094H500.066ZM501.231 42.9975V42.3636L504.218 42.3636V42.9975H503.104V46H502.345V42.9975L501.231 42.9975ZM506.968 46.0533C506.717 46.0533 506.5 46.0083 506.318 45.9183C506.136 45.8284 505.995 45.7064 505.897 45.5526C505.8 45.3975 505.751 45.2247 505.751 45.0341C505.751 44.892 505.78 44.766 505.837 44.6559C505.893 44.5458 505.973 44.4446 506.075 44.3523C506.176 44.2588 506.295 44.1658 506.43 44.0735L507.135 43.6101C507.226 43.5521 507.293 43.4911 507.335 43.4272C507.378 43.3621 507.399 43.2917 507.399 43.2159C507.399 43.1437 507.37 43.0768 507.312 43.0153C507.254 42.9537 507.172 42.9235 507.065 42.9247C506.994 42.9247 506.933 42.9407 506.881 42.9727C506.829 43.0034 506.788 43.0443 506.758 43.0952C506.73 43.1449 506.716 43.2005 506.716 43.2621C506.716 43.3378 506.737 43.4148 506.779 43.4929C506.822 43.571 506.879 43.6539 506.95 43.7415C507.021 43.8279 507.098 43.9214 507.183 44.022L508.907 46H508.118L506.68 44.3984C506.585 44.2907 506.491 44.1783 506.396 44.0611C506.302 43.9427 506.224 43.8172 506.162 43.6847C506.099 43.5509 506.067 43.4059 506.067 43.2496C506.067 43.0733 506.108 42.9147 506.19 42.7738C506.273 42.6329 506.389 42.5217 506.538 42.44C506.687 42.3571 506.861 42.3157 507.06 42.3157C507.254 42.3157 507.422 42.3554 507.562 42.4347C507.705 42.5128 507.813 42.617 507.889 42.7472C507.966 42.8762 508.005 43.0182 508.005 43.1733C508.005 43.3449 507.962 43.5006 507.877 43.6403C507.793 43.7788 507.674 43.9031 507.522 44.0131L506.779 44.5476C506.679 44.621 506.604 44.6961 506.556 44.7731C506.508 44.8488 506.485 44.9216 506.485 44.9915C506.485 45.0779 506.506 45.1554 506.549 45.2241C506.591 45.2927 506.652 45.3472 506.73 45.3874C506.808 45.4265 506.9 45.446 507.005 45.446C507.133 45.446 507.259 45.417 507.383 45.359C507.509 45.2998 507.622 45.2164 507.724 45.1087C507.827 44.9998 507.909 44.8707 507.971 44.7216C508.032 44.5724 508.063 44.4073 508.063 44.2262H508.69C508.69 44.4487 508.666 44.6494 508.617 44.8281C508.569 45.0057 508.501 45.1607 508.415 45.2933C508.328 45.4247 508.23 45.5324 508.118 45.6165C508.083 45.639 508.048 45.6603 508.015 45.6804C507.982 45.7005 507.948 45.7218 507.912 45.7443C507.777 45.8532 507.626 45.9319 507.46 45.9805C507.294 46.029 507.13 46.0533 506.968 46.0533ZM480.789 49.4094C480.775 49.2662 480.714 49.1549 480.606 49.0756C480.498 48.9963 480.352 48.9567 480.167 48.9567C480.042 48.9567 479.936 48.9744 479.849 49.0099C479.763 49.0443 479.697 49.0922 479.651 49.1538C479.606 49.2153 479.583 49.2852 479.583 49.3633C479.581 49.4284 479.594 49.4852 479.624 49.5337C479.655 49.5823 479.697 49.6243 479.75 49.6598C479.803 49.6941 479.865 49.7243 479.935 49.7504C480.004 49.7752 480.079 49.7965 480.158 49.8143L480.485 49.8924C480.644 49.9279 480.789 49.9753 480.922 50.0344C481.054 50.0936 481.169 50.1664 481.266 50.2528C481.363 50.3393 481.439 50.4411 481.492 50.5582C481.546 50.6754 481.574 50.8098 481.575 50.9613C481.574 51.1838 481.517 51.3768 481.405 51.5401C481.294 51.7023 481.133 51.8284 480.922 51.9183C480.712 52.0071 480.46 52.0515 480.164 52.0515C479.87 52.0515 479.614 52.0065 479.397 51.9165C479.18 51.8266 479.011 51.6934 478.889 51.517C478.768 51.3395 478.705 51.1199 478.699 50.8583H479.443C479.451 50.9802 479.486 51.082 479.548 51.1637C479.61 51.2442 479.694 51.3052 479.798 51.3466C479.903 51.3868 480.022 51.407 480.155 51.407C480.285 51.407 480.398 51.388 480.494 51.3501C480.591 51.3123 480.666 51.2596 480.719 51.1921C480.773 51.1246 480.799 51.0471 480.799 50.9595C480.799 50.8778 480.775 50.8092 480.727 50.7536C480.679 50.6979 480.609 50.6506 480.517 50.6115C480.426 50.5724 480.314 50.5369 480.181 50.505L479.786 50.4055C479.479 50.331 479.237 50.2144 479.059 50.0558C478.882 49.8971 478.794 49.6835 478.795 49.4148C478.794 49.1946 478.852 49.0022 478.971 48.8377C479.09 48.6732 479.254 48.5447 479.462 48.4524C479.671 48.3601 479.907 48.3139 480.173 48.3139C480.442 48.3139 480.678 48.3601 480.879 48.4524C481.082 48.5447 481.239 48.6732 481.352 48.8377C481.464 49.0022 481.522 49.1928 481.526 49.4094H480.789ZM481.954 48.9975V48.3636H484.94V48.9975H483.827V52H483.067V48.9975H481.954ZM486.201 48.3636V52H485.432V48.3636H486.201ZM486.834 52V48.3636H487.602V51.3661H489.161V52H486.834ZM489.671 52V48.3636H490.439V51.3661H491.998V52H489.671ZM493.121 52L492.08 48.3636H492.92L493.522 50.8903H493.552L494.216 48.3636H494.936L495.598 50.8956H495.63L496.232 48.3636H497.072L496.031 52H495.282L494.589 49.6225H494.561L493.87 52H493.121ZM497.483 52V48.3636H499.933V48.9975H498.252V49.864H499.807V50.4979H498.252V51.3661H499.94V52H497.483ZM500.545 52V48.3636H501.313V51.3661H502.872V52H500.545ZM503.381 52V48.3636H504.15V51.3661H505.709V52H503.381ZM508.002 52H507.179L508.434 48.3636H509.425L510.678 52H509.854L508.943 49.1946H508.915L508.002 52ZM507.951 50.5707H509.897V51.1708H507.951V50.5707ZM511.319 48.3636L512.198 51.1264H512.231L513.112 48.3636H513.964L512.711 52H511.72L510.465 48.3636H511.319Z" fill="white"/>
<path id="BAY 50 ST &#38; STILLWELL AV_2" d="M478.816 264V260.364H480.272C480.54 260.364 480.763 260.403 480.941 260.483C481.12 260.562 481.254 260.672 481.344 260.813C481.434 260.953 481.479 261.114 481.479 261.296C481.479 261.438 481.451 261.563 481.394 261.67C481.337 261.777 481.259 261.865 481.16 261.933C481.062 262.001 480.949 262.049 480.822 262.077V262.113C480.961 262.118 481.091 262.158 481.211 262.23C481.333 262.302 481.432 262.403 481.508 262.533C481.584 262.662 481.621 262.816 481.621 262.995C481.621 263.188 481.574 263.36 481.478 263.512C481.383 263.662 481.243 263.781 481.057 263.869C480.871 263.956 480.642 264 480.37 264H478.816ZM479.585 263.371H480.212C480.426 263.371 480.582 263.331 480.68 263.249C480.779 263.166 480.828 263.056 480.828 262.919C480.828 262.818 480.804 262.729 480.755 262.652C480.706 262.575 480.637 262.515 480.547 262.471C480.458 262.427 480.353 262.406 480.229 262.406H479.585V263.371ZM479.585 261.885H480.155C480.26 261.885 480.354 261.867 480.435 261.83C480.518 261.792 480.583 261.739 480.631 261.67C480.679 261.602 480.703 261.52 480.703 261.424C480.703 261.292 480.657 261.186 480.563 261.106C480.471 261.025 480.339 260.985 480.169 260.985H479.585V261.885ZM482.748 264H481.925L483.18 260.364H484.171L485.424 264H484.6L483.69 261.195H483.661L482.748 264ZM482.697 262.571H484.643V263.171H482.697V262.571ZM485.278 260.364H486.139L486.968 261.93H487.004L487.833 260.364H488.694L487.368 262.714V264H486.604V262.714L485.278 260.364ZM491.578 264.05C491.327 264.05 491.103 264.004 490.907 263.911C490.711 263.819 490.556 263.692 490.442 263.529C490.327 263.367 490.267 263.181 490.262 262.972H491.008C491.016 263.113 491.075 263.227 491.186 263.315C491.296 263.402 491.426 263.446 491.578 263.446C491.699 263.446 491.805 263.419 491.898 263.366C491.991 263.312 492.064 263.237 492.116 263.141C492.169 263.044 492.196 262.932 492.196 262.807C492.196 262.679 492.169 262.567 492.114 262.469C492.061 262.372 491.987 262.297 491.892 262.242C491.798 262.188 491.689 262.16 491.567 262.159C491.461 262.159 491.357 262.181 491.257 262.224C491.157 262.268 491.08 262.328 491.024 262.404L490.34 262.281L490.513 260.364H492.736V260.992H491.146L491.052 261.903H491.074C491.138 261.813 491.234 261.739 491.363 261.679C491.492 261.62 491.637 261.591 491.796 261.591C492.015 261.591 492.211 261.642 492.382 261.745C492.554 261.848 492.689 261.989 492.789 262.169C492.888 262.348 492.937 262.554 492.936 262.787C492.937 263.032 492.881 263.25 492.766 263.441C492.652 263.63 492.493 263.779 492.288 263.888C492.085 263.996 491.848 264.05 491.578 264.05ZM494.898 264.08C494.593 264.079 494.33 264.004 494.11 263.854C493.891 263.705 493.722 263.489 493.604 263.206C493.487 262.923 493.429 262.583 493.43 262.185C493.43 261.789 493.488 261.451 493.606 261.172C493.724 260.892 493.893 260.68 494.112 260.534C494.332 260.387 494.594 260.314 494.898 260.314C495.202 260.314 495.464 260.387 495.683 260.534C495.903 260.681 496.073 260.894 496.191 261.173C496.309 261.451 496.368 261.789 496.367 262.185C496.367 262.584 496.307 262.925 496.189 263.208C496.072 263.491 495.904 263.707 495.685 263.856C495.466 264.005 495.204 264.08 494.898 264.08ZM494.898 263.442C495.107 263.442 495.273 263.338 495.397 263.128C495.521 262.919 495.583 262.604 495.582 262.185C495.582 261.91 495.553 261.68 495.497 261.496C495.441 261.313 495.362 261.175 495.259 261.083C495.157 260.99 495.037 260.944 494.898 260.944C494.691 260.944 494.525 261.048 494.401 261.255C494.277 261.462 494.214 261.772 494.213 262.185C494.213 262.465 494.241 262.698 494.296 262.885C494.353 263.071 494.433 263.21 494.536 263.304C494.639 263.396 494.76 263.442 494.898 263.442ZM500.066 261.409C500.052 261.266 499.991 261.155 499.883 261.076C499.775 260.996 499.629 260.957 499.445 260.957C499.319 260.957 499.213 260.974 499.127 261.01C499.04 261.044 498.974 261.092 498.928 261.154C498.883 261.215 498.86 261.285 498.86 261.363C498.858 261.428 498.872 261.485 498.901 261.534C498.932 261.582 498.974 261.624 499.027 261.66C499.081 261.694 499.142 261.724 499.212 261.75C499.282 261.775 499.356 261.797 499.436 261.814L499.762 261.892C499.921 261.928 500.067 261.975 500.199 262.034C500.332 262.094 500.447 262.166 500.544 262.253C500.641 262.339 500.716 262.441 500.769 262.558C500.824 262.675 500.851 262.81 500.853 262.961C500.851 263.184 500.795 263.377 500.682 263.54C500.571 263.702 500.41 263.828 500.199 263.918C499.99 264.007 499.737 264.051 499.441 264.051C499.147 264.051 498.892 264.007 498.674 263.917C498.457 263.827 498.288 263.693 498.166 263.517C498.045 263.339 497.982 263.12 497.976 262.858H498.72C498.728 262.98 498.763 263.082 498.825 263.164C498.888 263.244 498.971 263.305 499.075 263.347C499.181 263.387 499.3 263.407 499.432 263.407C499.562 263.407 499.675 263.388 499.771 263.35C499.868 263.312 499.944 263.26 499.997 263.192C500.05 263.125 500.077 263.047 500.077 262.96C500.077 262.878 500.052 262.809 500.004 262.754C499.957 262.698 499.887 262.651 499.794 262.612C499.703 262.572 499.591 262.537 499.459 262.505L499.063 262.406C498.756 262.331 498.514 262.214 498.337 262.056C498.159 261.897 498.071 261.683 498.072 261.415C498.071 261.195 498.129 261.002 498.248 260.838C498.367 260.673 498.531 260.545 498.74 260.452C498.948 260.36 499.185 260.314 499.45 260.314C499.72 260.314 499.955 260.36 500.157 260.452C500.359 260.545 500.516 260.673 500.629 260.838C500.741 261.002 500.799 261.193 500.803 261.409H500.066ZM501.231 260.998V260.364H504.218V260.998H503.104V264H502.345V260.998H501.231ZM506.968 264.053C506.717 264.053 506.5 264.008 506.318 263.918C506.136 263.828 505.995 263.706 505.897 263.553C505.8 263.397 505.751 263.225 505.751 263.034C505.751 262.892 505.78 262.766 505.837 262.656C505.893 262.546 505.973 262.445 506.075 262.352C506.176 262.259 506.295 262.166 506.43 262.074L507.135 261.61C507.226 261.552 507.293 261.491 507.335 261.427C507.378 261.362 507.399 261.292 507.399 261.216C507.399 261.144 507.37 261.077 507.312 261.015C507.254 260.954 507.172 260.924 507.065 260.925C506.994 260.925 506.933 260.941 506.881 260.973C506.829 261.003 506.788 261.044 506.758 261.095C506.73 261.145 506.716 261.201 506.716 261.262C506.716 261.338 506.737 261.415 506.779 261.493C506.822 261.571 506.879 261.654 506.95 261.741C507.021 261.828 507.098 261.921 507.183 262.022L508.907 264H508.118L506.68 262.398C506.585 262.291 506.491 262.178 506.396 262.061C506.302 261.943 506.224 261.817 506.162 261.685C506.099 261.551 506.067 261.406 506.067 261.25C506.067 261.073 506.108 260.915 506.19 260.774C506.273 260.633 506.389 260.522 506.538 260.44C506.687 260.357 506.861 260.316 507.06 260.316C507.254 260.316 507.422 260.355 507.562 260.435C507.705 260.513 507.813 260.617 507.889 260.747C507.966 260.876 508.005 261.018 508.005 261.173C508.005 261.345 507.962 261.501 507.877 261.64C507.793 261.779 507.674 261.903 507.522 262.013L506.779 262.548C506.679 262.621 506.604 262.696 506.556 262.773C506.508 262.849 506.485 262.922 506.485 262.991C506.485 263.078 506.506 263.155 506.549 263.224C506.591 263.293 506.652 263.347 506.73 263.387C506.808 263.426 506.9 263.446 507.005 263.446C507.133 263.446 507.259 263.417 507.383 263.359C507.509 263.3 507.622 263.216 507.724 263.109C507.827 263 507.909 262.871 507.971 262.722C508.032 262.572 508.063 262.407 508.063 262.226H508.69C508.69 262.449 508.666 262.649 508.617 262.828C508.569 263.006 508.501 263.161 508.415 263.293C508.328 263.425 508.23 263.532 508.118 263.616C508.083 263.639 508.048 263.66 508.015 263.68C507.982 263.701 507.948 263.722 507.912 263.744C507.777 263.853 507.626 263.932 507.46 263.98C507.294 264.029 507.13 264.053 506.968 264.053ZM480.789 267.409C480.775 267.266 480.714 267.155 480.606 267.076C480.498 266.996 480.352 266.957 480.167 266.957C480.042 266.957 479.936 266.974 479.849 267.01C479.763 267.044 479.697 267.092 479.651 267.154C479.606 267.215 479.583 267.285 479.583 267.363C479.581 267.428 479.594 267.485 479.624 267.534C479.655 267.582 479.697 267.624 479.75 267.66C479.803 267.694 479.865 267.724 479.935 267.75C480.004 267.775 480.079 267.797 480.158 267.814L480.485 267.892C480.644 267.928 480.789 267.975 480.922 268.034C481.054 268.094 481.169 268.166 481.266 268.253C481.363 268.339 481.439 268.441 481.492 268.558C481.546 268.675 481.574 268.81 481.575 268.961C481.574 269.184 481.517 269.377 481.405 269.54C481.294 269.702 481.133 269.828 480.922 269.918C480.712 270.007 480.46 270.051 480.164 270.051C479.87 270.051 479.614 270.007 479.397 269.917C479.18 269.827 479.011 269.693 478.889 269.517C478.768 269.339 478.705 269.12 478.699 268.858H479.443C479.451 268.98 479.486 269.082 479.548 269.164C479.61 269.244 479.694 269.305 479.798 269.347C479.903 269.387 480.022 269.407 480.155 269.407C480.285 269.407 480.398 269.388 480.494 269.35C480.591 269.312 480.666 269.26 480.719 269.192C480.773 269.125 480.799 269.047 480.799 268.96C480.799 268.878 480.775 268.809 480.727 268.754C480.679 268.698 480.609 268.651 480.517 268.612C480.426 268.572 480.314 268.537 480.181 268.505L479.786 268.406C479.479 268.331 479.237 268.214 479.059 268.056C478.882 267.897 478.794 267.683 478.795 267.415C478.794 267.195 478.852 267.002 478.971 266.838C479.09 266.673 479.254 266.545 479.462 266.452C479.671 266.36 479.907 266.314 480.173 266.314C480.442 266.314 480.678 266.36 480.879 266.452C481.082 266.545 481.239 266.673 481.352 266.838C481.464 267.002 481.522 267.193 481.526 267.409H480.789ZM481.954 266.998V266.364H484.94V266.998H483.827V270H483.067V266.998H481.954ZM486.201 266.364V270H485.432V266.364H486.201ZM486.834 270V266.364H487.602V269.366H489.161V270H486.834ZM489.671 270V266.364H490.439V269.366H491.998V270H489.671ZM493.121 270L492.08 266.364H492.92L493.522 268.89H493.552L494.216 266.364H494.936L495.598 268.896H495.63L496.232 266.364H497.072L496.031 270H495.282L494.589 267.623H494.561L493.87 270H493.121ZM497.483 270V266.364H499.933V266.998H498.252V267.864H499.807V268.498H498.252V269.366H499.94V270H497.483ZM500.545 270V266.364H501.313V269.366H502.872V270H500.545ZM503.381 270V266.364H504.15V269.366H505.709V270H503.381ZM508.002 270H507.179L508.434 266.364H509.425L510.678 270H509.854L508.943 267.195H508.915L508.002 270ZM507.951 268.571H509.897V269.171H507.951V268.571ZM511.319 266.364L512.198 269.126H512.231L513.112 266.364H513.964L512.711 270H511.72L510.465 266.364H511.319Z" fill="white"/>
</g>
<g id="PLATFORMS">
<g id="UPTOWN PLATFORM">
<g id="UPTOWN PLATFORM BASE">
<rect id="UPTOWN PLATFORM REAR" x="300.5" y="224" width="616" height="30" fill="#00C8FF"/>
<rect id="UPTOWN PLATFORM MIDDLE" x="915.5" y="224" width="616" height="30" fill="#00C8FF"/>
<path id="UPTOWN PLATFORM HEAD" d="M1530.5 224L2145.5 224V242L2024.25 254L1881 254L1530.5 254V224Z" fill="#00C8FF"/>
<path id="UPTOWN PLATFORM BASE OUTLINE" d="M300.5 224L2145.5 224V242L2024.25 254L1881 254L300.5 254V224Z" stroke="black"/>
</g>
<g id="UPTOWN_TO_MEZZ_STAIRS">
<g id="STAIRS GRAPHIC_7">
<rect id="Rectangle 1_7" x="411.5" y="234" width="4" height="20" fill="#FF3538" stroke="black"/>
<rect id="Rectangle 2_7" x="415.5" y="234" width="4" height="20" fill="#FF3538" stroke="black"/>
<rect id="Rectangle 3_13" x="419.5" y="234" width="4" height="20" fill="#FF3538" stroke="black"/>
<rect id="Rectangle 4_13" x="423.5" y="234" width="4" height="20" fill="#FF3538" stroke="black"/>
<rect id="Rectangle 5_13" x="427.5" y="234" width="4" height="20" fill="#FF3538" stroke="black"/>
<rect id="Rectangle 6_13" x="431.5" y="234" width="4" height="20" fill="#FF3538" stroke="black"/>
<rect id="Rectangle 7_13" x="435.5" y="234" width="4" height="20" fill="#FF3538" stroke="black"/>
<rect id="Rectangle 8_13" x="439.5" y="234" width="4" height="20" fill="#FF3538" stroke="black"/>
<rect id="Rectangle 9_13" x="443.5" y="234" width="4" height="20" fill="#FF3538" stroke="black"/>
<rect id="Rectangle 10_13" x="447.5" y="234" width="4" height="20" fill="#FF3538" stroke="black"/>
</g>
<g id="UPTOWN_TO_MEZZ_STAIRS_DOWN">
<path id="ARROW GRAPHIC_13" d="M414.793 244.707C414.402 244.317 414.402 243.683 414.793 243.293L421.157 236.929C421.547 236.538 422.181 236.538 422.571 236.929C422.962 237.319 422.962 237.953 422.571 238.343L416.914 244L422.571 249.657C422.962 250.047 422.962 250.681 422.571 251.071C422.181 251.462 421.547 251.462 421.157 251.071L414.793 244.707ZM445.5 244V245H415.5V244V243H445.5V244Z" fill="white"/>
<path id="DOWN_7" d="M431.47 241H430.181V237.364H431.481C431.847 237.364 432.162 237.436 432.426 237.582C432.69 237.726 432.893 237.934 433.035 238.205C433.178 238.476 433.249 238.801 433.249 239.178C433.249 239.557 433.178 239.883 433.035 240.155C432.893 240.427 432.688 240.636 432.422 240.782C432.157 240.927 431.84 241 431.47 241ZM430.95 240.341H431.438C431.666 240.341 431.857 240.301 432.012 240.221C432.168 240.139 432.285 240.013 432.363 239.842C432.443 239.671 432.482 239.449 432.482 239.178C432.482 238.91 432.443 238.69 432.363 238.52C432.285 238.349 432.169 238.224 432.014 238.143C431.859 238.063 431.667 238.022 431.44 238.022H430.95V240.341ZM437.161 239.182C437.161 239.578 437.085 239.916 436.935 240.194C436.786 240.472 436.582 240.685 436.324 240.831C436.067 240.977 435.779 241.05 435.458 241.05C435.135 241.05 434.845 240.976 434.588 240.83C434.331 240.683 434.128 240.47 433.979 240.192C433.83 239.914 433.755 239.577 433.755 239.182C433.755 238.785 433.83 238.448 433.979 238.17C434.128 237.892 434.331 237.68 434.588 237.534C434.845 237.387 435.135 237.314 435.458 237.314C435.779 237.314 436.067 237.387 436.324 237.534C436.582 237.68 436.786 237.892 436.935 238.17C437.085 238.448 437.161 238.785 437.161 239.182ZM436.381 239.182C436.381 238.925 436.343 238.708 436.266 238.532C436.19 238.356 436.083 238.222 435.944 238.131C435.806 238.04 435.644 237.994 435.458 237.994C435.272 237.994 435.11 238.04 434.971 238.131C434.833 238.222 434.725 238.356 434.648 238.532C434.572 238.708 434.535 238.925 434.535 239.182C434.535 239.439 434.572 239.655 434.648 239.832C434.725 240.008 434.833 240.142 434.971 240.233C435.11 240.324 435.272 240.37 435.458 240.37C435.644 240.37 435.806 240.324 435.944 240.233C436.083 240.142 436.19 240.008 436.266 239.832C436.343 239.655 436.381 239.439 436.381 239.182ZM438.412 241L437.371 237.364H438.211L438.813 239.89H438.843L439.507 237.364H440.227L440.889 239.896H440.921L441.523 237.364H442.363L441.322 241H440.573L439.88 238.623H439.852L439.161 241H438.412ZM445.816 237.364V241H445.152L443.57 238.711H443.543V241H442.774V237.364H443.449L445.018 239.651H445.05V237.364H445.816Z" fill="white"/>
</g>
<g id="UPTOWN_TO_MEZZ_STAIRS_UP">
<path id="ARROW GRAPHIC_14" d="M445.707 244.707C446.098 244.317 446.098 243.683 445.707 243.293L439.343 236.929C438.953 236.538 438.319 236.538 437.929 236.929C437.538 237.319 437.538 237.953 437.929 238.343L443.586 244L437.929 249.657C437.538 250.047 437.538 250.681 437.929 251.071C438.319 251.462 438.953 251.462 439.343 251.071L445.707 244.707ZM415 244V245H445V244V243H415V244Z" fill="white"/>
<path id="UP_7" d="M417.12 237.364H417.889V239.725C417.889 239.99 417.825 240.222 417.699 240.421C417.573 240.62 417.397 240.775 417.171 240.886C416.945 240.996 416.682 241.051 416.381 241.051C416.079 241.051 415.815 240.996 415.589 240.886C415.363 240.775 415.187 240.62 415.062 240.421C414.936 240.222 414.874 239.99 414.874 239.725V237.364H415.642V239.659C415.642 239.798 415.673 239.921 415.733 240.029C415.795 240.136 415.881 240.221 415.992 240.283C416.104 240.344 416.233 240.375 416.381 240.375C416.53 240.375 416.66 240.344 416.77 240.283C416.881 240.221 416.967 240.136 417.027 240.029C417.089 239.921 417.12 239.798 417.12 239.659V237.364ZM418.521 241V237.364H419.956C420.232 237.364 420.467 237.416 420.661 237.522C420.855 237.626 421.003 237.771 421.105 237.957C421.208 238.141 421.259 238.354 421.259 238.596C421.259 238.837 421.207 239.05 421.103 239.235C420.999 239.42 420.848 239.564 420.65 239.667C420.454 239.77 420.216 239.821 419.936 239.821H419.022V239.205H419.812C419.96 239.205 420.082 239.179 420.178 239.129C420.275 239.076 420.347 239.005 420.394 238.914C420.443 238.821 420.467 238.715 420.467 238.596C420.467 238.475 420.443 238.37 420.394 238.28C420.347 238.189 420.275 238.118 420.178 238.069C420.081 238.018 419.958 237.992 419.808 237.992H419.29V241H418.521Z" fill="white"/>
</g>
</g>
<g id="MINI KIOSKS">
<circle id="MINI KIOSK" cx="584.5" cy="252" r="2" fill="#00FFFF" stroke="black"/>
<circle id="MINI KIOSK_2" cx="1519.5" cy="252" r="2" fill="#00FFFF" stroke="black"/>
</g>
<g id="BENCHES">
<rect id="BENCH" x="600.5" y="248" width="32" height="6" fill="#FF731C" stroke="black"/>
<rect id="BENCH_2" x="784.5" y="248" width="32" height="6" fill="#FF731C" stroke="black"/>
<rect id="BENCH_3" x="869.5" y="248" width="32" height="6" fill="#FF731C" stroke="black"/>
</g>
<g id="TRASH BINS_2">
<circle id="TRASH BIN_2" cx="566" cy="249.5" r="4.5" fill="black" stroke="black"/>
<circle id="TRASH BIN_3" cx="836" cy="249.5" r="4.5" fill="black" stroke="black"/>
<circle id="TRASH BIN_4" cx="1173" cy="249.5" r="4.5" fill="black" stroke="black"/>
</g>
<g id="KIOSKS_2">
<rect id="KIOSK_2" x="484.5" y="250" width="9" height="4" fill="#00FFFF" stroke="black"/>
<rect id="KIOSK_3" x="751.5" y="250" width="9" height="4" fill="#00FFFF" stroke="black"/>
<rect id="KIOSK_4" x="495.5" y="250" width="9" height="4" fill="#00FFFF" stroke="black"/>
<rect id="KIOSK_5" x="518.5" y="250" width="9" height="4" fill="#00FFFF" stroke="black"/>
</g>
<g id="MISC_3">
<g id="MISC_4">
<path d="M256.5 228H300.5V252H256.5V228Z" fill="#525252"/>
<path d="M300.5 252V228H256.5V252H300.5ZM256.5 228L278.211 240.36M300.5 228L278.211 240.36M300.5 252L278.211 240.36M256.5 252L278.211 240.36" stroke="black"/>
</g>
<g id="MISC_5">
<path d="M342.5 234H369.5V254H342.5V234Z" fill="#525252"/>
<path d="M369.5 254V234H342.5V254H369.5ZM342.5 234L355.822 244.3M369.5 234L355.822 244.3M369.5 254L355.822 244.3M342.5 254L355.822 244.3" stroke="black"/>
</g>
<g id="MISC_6">
<path d="M392.5 250H403.5V254H392.5V250Z" fill="#525252"/>
<path d="M403.5 254V250H392.5V254H403.5ZM392.5 250L397.928 252.06M403.5 250L397.928 252.06M403.5 254L397.928 252.06M392.5 254L397.928 252.06" stroke="black"/>
</g>
<g id="MISC_7">
<path d="M1529.5 245H1544.5V254H1529.5V245Z" fill="#525252"/>
<path d="M1544.5 254V245H1529.5V254H1544.5ZM1529.5 245L1536.9 249.635M1544.5 245L1536.9 249.635M1544.5 254L1536.9 249.635M1529.5 254L1536.9 249.635" stroke="black"/>
</g>
<g id="MISC_8">
<path d="M850.5 249H856.5V254H850.5V249Z" fill="#525252"/>
<path d="M856.5 254V249H850.5V254H856.5ZM850.5 249L853.461 251.575M856.5 249L853.461 251.575M856.5 254L853.461 251.575M850.5 254L853.461 251.575" stroke="black"/>
</g>
</g>
<g id="DIRECTION LABEL">
<path id="Arrow 1" d="M2147.27 186.768C2148.24 185.791 2148.24 184.209 2147.27 183.232L2131.36 167.322C2130.38 166.346 2128.8 166.346 2127.82 167.322C2126.85 168.299 2126.85 169.882 2127.82 170.858L2141.96 185L2127.82 199.142C2126.85 200.118 2126.85 201.701 2127.82 202.678C2128.8 203.654 2130.38 203.654 2131.36 202.678L2147.27 186.768ZM2145.5 185V182.5H2095.5V185V187.5H2145.5V185Z" fill="white"/>
<path id="UPTOWN" d="M1944.34 172.727H1949.95V187.739C1949.95 189.473 1949.54 190.985 1948.72 192.273C1947.89 193.553 1946.74 194.545 1945.26 195.25C1943.78 195.947 1942.07 196.295 1940.11 196.295C1938.14 196.295 1936.41 195.947 1934.93 195.25C1933.45 194.545 1932.31 193.553 1931.49 192.273C1930.67 190.985 1930.26 189.473 1930.26 187.739V172.727H1935.89V187.25C1935.89 188.053 1936.06 188.769 1936.41 189.398C1936.77 190.027 1937.26 190.519 1937.9 190.875C1938.53 191.231 1939.27 191.409 1940.11 191.409C1940.95 191.409 1941.69 191.231 1942.32 190.875C1942.95 190.519 1943.45 190.027 1943.81 189.398C1944.16 188.769 1944.34 188.053 1944.34 187.25V172.727ZM1953.48 196V172.727H1963.09C1964.84 172.727 1966.34 173.068 1967.61 173.75C1968.88 174.424 1969.86 175.367 1970.55 176.58C1971.24 177.784 1971.58 179.186 1971.58 180.784C1971.58 182.39 1971.23 183.795 1970.53 185C1969.83 186.197 1968.83 187.125 1967.54 187.784C1966.24 188.443 1964.7 188.773 1962.92 188.773H1956.99V184.341H1961.88C1962.73 184.341 1963.43 184.193 1964 183.898C1964.58 183.602 1965.01 183.189 1965.31 182.659C1965.61 182.121 1965.75 181.496 1965.75 180.784C1965.75 180.064 1965.61 179.443 1965.31 178.92C1965.01 178.39 1964.58 177.981 1964 177.693C1963.43 177.405 1962.72 177.261 1961.88 177.261H1959.11V196H1953.48ZM1973.59 177.295V172.727H1993.26V177.295H1986.21V196H1980.66V177.295H1973.59ZM2016.91 184.364C2016.91 186.924 2016.42 189.095 2015.44 190.875C2014.45 192.655 2013.12 194.008 2011.44 194.932C2009.76 195.856 2007.88 196.318 2005.8 196.318C2003.71 196.318 2001.83 195.852 2000.15 194.92C1998.48 193.989 1997.15 192.636 1996.16 190.864C1995.19 189.083 1994.7 186.917 1994.7 184.364C1994.7 181.803 1995.19 179.633 1996.16 177.852C1997.15 176.072 1998.48 174.72 2000.15 173.795C2001.83 172.871 2003.71 172.409 2005.8 172.409C2007.88 172.409 2009.76 172.871 2011.44 173.795C2013.12 174.72 2014.45 176.072 2015.44 177.852C2016.42 179.633 2016.91 181.803 2016.91 184.364ZM2011.16 184.364C2011.16 182.848 2010.95 181.568 2010.52 180.523C2010.09 179.477 2009.48 178.686 2008.68 178.148C2007.88 177.61 2006.92 177.341 2005.8 177.341C2004.69 177.341 2003.73 177.61 2002.93 178.148C2002.12 178.686 2001.51 179.477 2001.07 180.523C2000.65 181.568 2000.44 182.848 2000.44 184.364C2000.44 185.879 2000.65 187.159 2001.07 188.205C2001.51 189.25 2002.12 190.042 2002.93 190.58C2003.73 191.117 2004.69 191.386 2005.8 191.386C2006.92 191.386 2007.88 191.117 2008.68 190.58C2009.48 190.042 2010.09 189.25 2010.52 188.205C2010.95 187.159 2011.16 185.879 2011.16 184.364ZM2024.62 196L2017.85 172.727H2024.07L2027.58 187.977H2027.77L2031.78 172.727H2036.85L2040.86 188.011H2041.05L2044.58 172.727H2050.78L2044.02 196H2038.6L2034.41 181.886H2034.22L2030.03 196H2024.62ZM2072.91 172.727V196H2068.14L2058.88 182.568H2058.73V196H2053.11V172.727H2057.95L2067.11 186.136H2067.3V172.727H2072.91Z" fill="white"/>
</g>
</g>
<g id="DOWNTOWN PLATFORM">
<g id="DOWNTOWN PLATFORM BASE">
<path id="DOWNTOWN PLATFORM REAR" d="M1845.5 89.0003V65.8574L1802.5 59.0003L1230.5 59.0003V89.0003L1845.5 89.0003Z" fill="#00C8FF"/>
<rect id="DOWNTOWN PLATFORM MIDDLE" x="616.5" y="59.0003" width="615" height="30" fill="#00C8FF"/>
<rect id="DOWNTOWN PLATFORM HEAD" x="0.5" y="59.0003" width="617" height="30" fill="#00C8FF"/>
<path id="DOWNTOWN PLATFORM BASE OUTLINE" d="M1845.5 89.0003V65.8574L1801.5 59.0003L1749.5 59.0003L0.5 59.0003L0.5 89.0003L1845.5 89.0003Z" stroke="black"/>
</g>
<g id="DOWNTOWN_TO_MEZZ_STAIRS">
<g id="STAIRS GRAPHIC_8">
<rect id="Rectangle 1_8" x="411.5" y="59.0003" width="4" height="20" fill="#FF3538" stroke="black"/>
<rect id="Rectangle 2_8" x="415.5" y="59.0003" width="4" height="20" fill="#FF3538" stroke="black"/>
<rect id="Rectangle 3_14" x="419.5" y="59.0003" width="4" height="20" fill="#FF3538" stroke="black"/>
<rect id="Rectangle 4_14" x="423.5" y="59.0003" width="4" height="20" fill="#FF3538" stroke="black"/>
<rect id="Rectangle 5_14" x="427.5" y="59.0003" width="4" height="20" fill="#FF3538" stroke="black"/>
<rect id="Rectangle 6_14" x="431.5" y="59.0003" width="4" height="20" fill="#FF3538" stroke="black"/>
<rect id="Rectangle 7_14" x="435.5" y="59.0003" width="4" height="20" fill="#FF3538" stroke="black"/>
<rect id="Rectangle 8_14" x="439.5" y="59.0003" width="4" height="20" fill="#FF3538" stroke="black"/>
<rect id="Rectangle 9_14" x="443.5" y="59.0003" width="4" height="20" fill="#FF3538" stroke="black"/>
<rect id="Rectangle 10_14" x="447.5" y="59.0003" width="4" height="20" fill="#FF3538" stroke="black"/>
</g>
<g id="DOWNTOWN_TO_MEZZ_STAIRS_DOWN">
<path id="ARROW GRAPHIC_15" d="M414.793 69.7074C414.402 69.3169 414.402 68.6837 414.793 68.2932L421.157 61.9292C421.547 61.5387 422.181 61.5387 422.571 61.9292C422.962 62.3198 422.962 62.9529 422.571 63.3435L416.914 69.0003L422.571 74.6572C422.962 75.0477 422.962 75.6809 422.571 76.0714C422.181 76.4619 421.547 76.4619 421.157 76.0714L414.793 69.7074ZM445.5 69.0003V70.0003H415.5V69.0003V68.0003H445.5V69.0003Z" fill="white"/>
<path id="DOWN_8" d="M430.97 66H429.681V62.3636H430.981C431.347 62.3636 431.662 62.4364 431.926 62.582C432.19 62.7264 432.393 62.9342 432.535 63.2053C432.678 63.4763 432.75 63.8007 432.75 64.1783C432.75 64.5571 432.678 64.8826 432.535 65.1548C432.393 65.4271 432.188 65.636 431.922 65.7816C431.657 65.9272 431.34 66 430.97 66ZM430.45 65.3413H430.938C431.166 65.3413 431.357 65.301 431.512 65.2205C431.668 65.1388 431.785 65.0128 431.864 64.8423C431.943 64.6707 431.982 64.4493 431.982 64.1783C431.982 63.9096 431.943 63.69 431.864 63.5195C431.785 63.3491 431.669 63.2236 431.514 63.1431C431.359 63.0626 431.168 63.0224 430.94 63.0224H430.45V65.3413ZM436.661 64.1818C436.661 64.5784 436.586 64.9157 436.435 65.1939C436.286 65.4721 436.082 65.6845 435.824 65.8313C435.568 65.9769 435.279 66.0497 434.958 66.0497C434.635 66.0497 434.345 65.9763 434.088 65.8295C433.831 65.6828 433.628 65.4703 433.479 65.1921C433.33 64.9139 433.255 64.5772 433.255 64.1818C433.255 63.7853 433.33 63.4479 433.479 63.1697C433.628 62.8916 433.831 62.6797 434.088 62.5341C434.345 62.3873 434.635 62.3139 434.958 62.3139C435.279 62.3139 435.568 62.3873 435.824 62.5341C436.082 62.6797 436.286 62.8916 436.435 63.1697C436.586 63.4479 436.661 63.7853 436.661 64.1818ZM435.881 64.1818C435.881 63.925 435.843 63.7083 435.766 63.532C435.69 63.3556 435.583 63.2218 435.444 63.1307C435.306 63.0395 435.144 62.994 434.958 62.994C434.772 62.994 434.61 63.0395 434.471 63.1307C434.333 63.2218 434.225 63.3556 434.148 63.532C434.072 63.7083 434.035 63.925 434.035 64.1818C434.035 64.4387 434.072 64.6553 434.148 64.8317C434.225 65.008 434.333 65.1418 434.471 65.233C434.61 65.3241 434.772 65.3697 434.958 65.3697C435.144 65.3697 435.306 65.3241 435.444 65.233C435.583 65.1418 435.69 65.008 435.766 64.8317C435.843 64.6553 435.881 64.4387 435.881 64.1818ZM437.912 66L436.872 62.3636H437.711L438.313 64.8903H438.343L439.008 62.3636H439.727L440.389 64.8956H440.421L441.023 62.3636H441.863L440.822 66H440.073L439.38 63.6225H439.352L438.661 66H437.912ZM445.316 62.3636V66H444.652L443.07 63.7113H443.043V66H442.274V62.3636H442.949L444.518 64.6506H444.55V62.3636H445.316Z" fill="white"/>
</g>
<g id="DOWNTOWN_TO_MEZZ_STAIRS_UP">
<path id="ARROW GRAPHIC_16" d="M446.207 69.7074C446.598 69.3169 446.598 68.6837 446.207 68.2932L439.843 61.9292C439.453 61.5387 438.819 61.5387 438.429 61.9292C438.038 62.3197 438.038 62.9529 438.429 63.3434L444.086 69.0003L438.429 74.6571C438.038 75.0477 438.038 75.6808 438.429 76.0714C438.819 76.4619 439.453 76.4619 439.843 76.0714L446.207 69.7074ZM415.5 69.0003V70.0003H445.5V69.0003V68.0003H415.5V69.0003Z" fill="white"/>
<path id="UP_8" d="M418.12 62.3636H418.889V64.7251C418.889 64.9903 418.825 65.2223 418.699 65.4212C418.573 65.62 418.397 65.7751 418.171 65.8864C417.945 65.9964 417.682 66.0515 417.381 66.0515C417.079 66.0515 416.815 65.9964 416.589 65.8864C416.363 65.7751 416.187 65.62 416.062 65.4212C415.936 65.2223 415.874 64.9903 415.874 64.7251V62.3636H416.642V64.6594C416.642 64.7979 416.673 64.921 416.733 65.0288C416.795 65.1365 416.881 65.2211 416.992 65.2827C417.104 65.3442 417.233 65.375 417.381 65.375C417.53 65.375 417.66 65.3442 417.77 65.2827C417.881 65.2211 417.967 65.1365 418.027 65.0288C418.089 64.921 418.12 64.7979 418.12 64.6594V62.3636ZM419.521 66V62.3636H420.956C421.232 62.3636 421.467 62.4163 421.661 62.5217C421.855 62.6258 422.003 62.7708 422.105 62.9567C422.208 63.1413 422.259 63.3544 422.259 63.5959C422.259 63.8374 422.207 64.0504 422.103 64.2351C421.999 64.4197 421.848 64.5636 421.65 64.6665C421.454 64.7695 421.216 64.821 420.936 64.821H420.022V64.2049H420.812C420.96 64.2049 421.082 64.1795 421.178 64.1286C421.275 64.0765 421.347 64.0049 421.394 63.9137C421.443 63.8214 421.467 63.7154 421.467 63.5959C421.467 63.4751 421.443 63.3698 421.394 63.2798C421.347 63.1887 421.275 63.1183 421.178 63.0685C421.081 63.0176 420.958 62.9922 420.808 62.9922H420.29V66H419.521Z" fill="white"/>
</g>
</g>
<g id="MINI KIOSKS_2">
<circle id="MINI KIOSK_3" cx="1383.5" cy="61.0003" r="2" fill="#00FFFF" stroke="black"/>
</g>
<g id="BENCHES_2">
<rect id="BENCH_4" x="600.5" y="59.0003" width="32" height="6" fill="#FF731C" stroke="black"/>
<rect id="BENCH_5" x="810.5" y="59.0003" width="32" height="6" fill="#FF731C" stroke="black"/>
</g>
<g id="TRASH BINS_3">
<circle id="TRASH BIN_5" cx="582" cy="63.5003" r="4.5" fill="black" stroke="black"/>
<circle id="TRASH BIN_6" cx="765" cy="64.5003" r="4.5" fill="black" stroke="black"/>
<circle id="TRASH BIN_7" cx="1173" cy="64.5003" r="4.5" fill="black" stroke="black"/>
</g>
<g id="KIOSKS_3">
<rect id="KIOSK_6" x="484.5" y="59.0003" width="9" height="4" fill="#00FFFF" stroke="black"/>
<rect id="KIOSK_7" x="495.5" y="59.0003" width="9" height="4" fill="#00FFFF" stroke="black"/>
<rect id="KIOSK_8" x="516.5" y="59.0003" width="9" height="4" fill="#00FFFF" stroke="black"/>
<rect id="KIOSK_9" x="784.5" y="59.0003" width="9" height="4" fill="#00FFFF" stroke="black"/>
</g>
<g id="MISC_9">
<g id="MISC_10">
<path d="M386.5 59.0003H403.5V71.0003H386.5V59.0003Z" fill="#525252"/>
<path d="M403.5 71.0003V59.0003H386.5V71.0003H403.5ZM386.5 59.0003L394.888 65.1803M403.5 59.0003L394.888 65.1803M403.5 71.0003L394.888 65.1803M386.5 71.0003L394.888 65.1803" stroke="black"/>
</g>
<g id="MISC_11">
<path d="M1779.5 59.0003H1796.5V73.0003H1779.5V59.0003Z" fill="#525252"/>
<path d="M1796.5 73.0003V59.0003H1779.5V73.0003H1796.5ZM1779.5 59.0003L1787.89 66.2103M1796.5 59.0003L1787.89 66.2103M1796.5 73.0003L1787.89 66.2103M1779.5 73.0003L1787.89 66.2103" stroke="black"/>
</g>
</g>
<g id="DIRECTION LABEL_2">
<path id="Arrow 1_2" d="M1566.73 17.2322C1565.76 18.2085 1565.76 19.7915 1566.73 20.7678L1582.64 36.6777C1583.62 37.654 1585.2 37.654 1586.18 36.6777C1587.15 35.7014 1587.15 34.1184 1586.18 33.1421L1572.04 19L1586.18 4.85786C1587.15 3.88155 1587.15 2.29864 1586.18 1.32233C1585.2 0.34602 1583.62 0.34602 1582.64 1.32233L1566.73 17.2322ZM1618.5 19V16.5L1568.5 16.5V19V21.5L1618.5 21.5V19Z" fill="white"/>
<path id="DOWNTOWN" d="M1648.86 31H1640.26V7.72727H1648.85C1651.22 7.72727 1653.27 8.19318 1654.98 9.125C1656.7 10.0492 1658.02 11.3826 1658.95 13.125C1659.89 14.8598 1660.35 16.9356 1660.35 19.3523C1660.35 21.7765 1659.89 23.8598 1658.95 25.6023C1658.03 27.3447 1656.71 28.6818 1654.99 29.6136C1653.27 30.5379 1651.23 31 1648.86 31ZM1645.89 26.2045H1648.65C1649.95 26.2045 1651.05 25.9848 1651.95 25.5455C1652.86 25.0985 1653.55 24.375 1654.01 23.375C1654.48 22.3674 1654.72 21.0265 1654.72 19.3523C1654.72 17.678 1654.48 16.3447 1654.01 15.3523C1653.54 14.3523 1652.85 13.6326 1651.93 13.1932C1651.02 12.7462 1649.9 12.5227 1648.57 12.5227H1645.89V26.2045ZM1685.6 19.3636C1685.6 21.9242 1685.11 24.0947 1684.12 25.875C1683.14 27.6553 1681.81 29.0076 1680.12 29.9318C1678.45 30.8561 1676.57 31.3182 1674.49 31.3182C1672.4 31.3182 1670.52 30.8523 1668.84 29.9205C1667.17 28.9886 1665.84 27.6364 1664.85 25.8636C1663.88 24.0833 1663.39 21.9167 1663.39 19.3636C1663.39 16.803 1663.88 14.6326 1664.85 12.8523C1665.84 11.072 1667.17 9.7197 1668.84 8.79545C1670.52 7.87121 1672.4 7.40909 1674.49 7.40909C1676.57 7.40909 1678.45 7.87121 1680.12 8.79545C1681.81 9.7197 1683.14 11.072 1684.12 12.8523C1685.11 14.6326 1685.6 16.803 1685.6 19.3636ZM1679.85 19.3636C1679.85 17.8485 1679.64 16.5682 1679.2 15.5227C1678.78 14.4773 1678.17 13.6856 1677.36 13.1477C1676.57 12.6098 1675.61 12.3409 1674.49 12.3409C1673.38 12.3409 1672.42 12.6098 1671.61 13.1477C1670.81 13.6856 1670.19 14.4773 1669.76 15.5227C1669.34 16.5682 1669.12 17.8485 1669.12 19.3636C1669.12 20.8788 1669.34 22.1591 1669.76 23.2045C1670.19 24.25 1670.81 25.0417 1671.61 25.5795C1672.42 26.1174 1673.38 26.3864 1674.49 26.3864C1675.61 26.3864 1676.57 26.1174 1677.36 25.5795C1678.17 25.0417 1678.78 24.25 1679.2 23.2045C1679.64 22.1591 1679.85 20.8788 1679.85 19.3636ZM1693.31 31L1686.54 7.72727H1692.75L1696.26 22.9773H1696.46L1700.47 7.72727H1705.54L1709.55 23.0114H1709.74L1713.26 7.72727H1719.47L1712.71 31H1707.29L1703.09 16.8864H1702.91L1698.72 31H1693.31ZM1741.6 7.72727V31H1736.83L1727.57 17.5682H1727.42V31H1721.79V7.72727H1726.63L1735.79 21.1364H1735.99V7.72727H1741.6ZM1744.38 12.2955V7.72727H1764.05V12.2955H1756.99V31H1751.44V12.2955H1744.38ZM1787.7 19.3636C1787.7 21.9242 1787.2 24.0947 1786.22 25.875C1785.23 27.6553 1783.9 29.0076 1782.22 29.9318C1780.54 30.8561 1778.67 31.3182 1776.58 31.3182C1774.49 31.3182 1772.61 30.8523 1770.93 29.9205C1769.26 28.9886 1767.93 27.6364 1766.95 25.8636C1765.97 24.0833 1765.48 21.9167 1765.48 19.3636C1765.48 16.803 1765.97 14.6326 1766.95 12.8523C1767.93 11.072 1769.26 9.7197 1770.93 8.79545C1772.61 7.87121 1774.49 7.40909 1776.58 7.40909C1778.67 7.40909 1780.54 7.87121 1782.22 8.79545C1783.9 9.7197 1785.23 11.072 1786.22 12.8523C1787.2 14.6326 1787.7 16.803 1787.7 19.3636ZM1781.95 19.3636C1781.95 17.8485 1781.73 16.5682 1781.3 15.5227C1780.87 14.4773 1780.26 13.6856 1779.46 13.1477C1778.66 12.6098 1777.7 12.3409 1776.58 12.3409C1775.47 12.3409 1774.51 12.6098 1773.71 13.1477C1772.9 13.6856 1772.29 14.4773 1771.86 15.5227C1771.43 16.5682 1771.22 17.8485 1771.22 19.3636C1771.22 20.8788 1771.43 22.1591 1771.86 23.2045C1772.29 24.25 1772.9 25.0417 1773.71 25.5795C1774.51 26.1174 1775.47 26.3864 1776.58 26.3864C1777.7 26.3864 1778.66 26.1174 1779.46 25.5795C1780.26 25.0417 1780.87 24.25 1781.3 23.2045C1781.73 22.1591 1781.95 20.8788 1781.95 19.3636ZM1795.4 31L1788.63 7.72727H1794.85L1798.36 22.9773H1798.55L1802.56 7.72727H1807.63L1811.64 23.0114H1811.84L1815.36 7.72727H1821.56L1814.8 31H1809.38L1805.19 16.8864H1805.01L1800.81 31H1795.4ZM1843.69 7.72727V31H1838.92L1829.66 17.5682H1829.51V31H1823.89V7.72727H1828.73L1837.89 21.1364H1838.08V7.72727H1843.69Z" fill="white"/>
</g>
</g>
</g>
</g>
</svg>
