<svg width="1317" height="143" viewBox="0 0 1317 143" fill="none" xmlns="http://www.w3.org/2000/svg">
<g id="DOWNTOWN PLATFORM">
<path id="PLATFORM BASE" d="M1 69H952H1038L1087 90.5V142H1V69Z" fill="#C8E6FF" stroke="black" stroke-width="2"/>
<g id="STAIRS">
<g id="GRAPHIC">
<path d="M94 69H108.375H122.75H137.125H151.5H165.875H180.25H194.625H209V119H194.625H180.25H165.875H151.5H137.125H122.75H108.375H94V69Z" fill="#8E8E8E"/>
<path d="M151.5 69H137.125M151.5 69H165.875M151.5 69V119M151.5 119H137.125M151.5 119H165.875M122.75 69H108.375M122.75 69H137.125M122.75 69V119M122.75 119H108.375M122.75 119H137.125M180.25 69H165.875M180.25 69H194.625M180.25 69V119M180.25 119H165.875M180.25 119H194.625M108.375 69H94V119H108.375M108.375 69V119M137.125 69V119M165.875 69V119M194.625 69H209V119H194.625M194.625 69V119" stroke="black" stroke-width="2"/>
</g>
<g id="ARROW">
<path id="GRAPHIC_2" d="M155 94.5L169 84V88.75H199V98.25H169V103L155 94.5Z" fill="white" stroke="black" stroke-width="3"/>
<path id="DIRECTION TEXT" d="M107.411 99H103.544V88.0909H107.443C108.54 88.0909 109.485 88.3093 110.277 88.7461C111.069 89.1793 111.678 89.8026 112.104 90.6158C112.534 91.429 112.748 92.402 112.748 93.5348C112.748 94.6712 112.534 95.6477 112.104 96.4645C111.678 97.2812 111.065 97.908 110.266 98.3448C109.471 98.7816 108.519 99 107.411 99ZM105.85 97.0238H107.315C107.997 97.0238 108.57 96.9031 109.036 96.6616C109.504 96.4165 109.856 96.0384 110.09 95.527C110.328 95.0121 110.447 94.348 110.447 93.5348C110.447 92.7287 110.328 92.07 110.09 91.5586C109.856 91.0472 109.506 90.6708 109.041 90.4293C108.576 90.1879 108.002 90.0671 107.32 90.0671H105.85V97.0238ZM124.482 93.5455C124.482 94.7351 124.256 95.7472 123.805 96.5817C123.358 97.4162 122.747 98.0536 121.973 98.494C121.202 98.9308 120.336 99.1491 119.373 99.1491C118.404 99.1491 117.534 98.929 116.763 98.4886C115.993 98.0483 115.384 97.4109 114.936 96.5763C114.489 95.7418 114.265 94.7315 114.265 93.5455C114.265 92.3558 114.489 91.3438 114.936 90.5092C115.384 89.6747 115.993 89.0391 116.763 88.6023C117.534 88.1619 118.404 87.9418 119.373 87.9418C120.336 87.9418 121.202 88.1619 121.973 88.6023C122.747 89.0391 123.358 89.6747 123.805 90.5092C124.256 91.3438 124.482 92.3558 124.482 93.5455ZM122.143 93.5455C122.143 92.7749 122.028 92.125 121.797 91.5959C121.57 91.0668 121.248 90.6655 120.833 90.392C120.418 90.1186 119.931 89.9819 119.373 89.9819C118.816 89.9819 118.329 90.1186 117.914 90.392C117.498 90.6655 117.175 91.0668 116.945 91.5959C116.717 92.125 116.604 92.7749 116.604 93.5455C116.604 94.3161 116.717 94.9659 116.945 95.495C117.175 96.0241 117.498 96.4254 117.914 96.6989C118.329 96.9723 118.816 97.109 119.373 97.109C119.931 97.109 120.418 96.9723 120.833 96.6989C121.248 96.4254 121.57 96.0241 121.797 95.495C122.028 94.9659 122.143 94.3161 122.143 93.5455ZM128.236 99L125.114 88.0909H127.634L129.44 95.6708H129.53L131.522 88.0909H133.68L135.667 95.6868H135.762L137.568 88.0909H140.088L136.966 99H134.718L132.641 91.8675H132.556L130.484 99H128.236ZM150.447 88.0909V99H148.455L143.709 92.1339H143.629V99H141.322V88.0909H143.346L148.055 94.9517H148.151V88.0909H150.447Z" fill="white"/>
</g>
</g>
<g id="MISC">
<path d="M52 69H87V94H52V69Z" fill="#525252"/>
<path d="M87 94V69H52V94H87ZM52 69L69.2697 81.875M87 69L69.2697 81.875M87 94L69.2697 81.875M52 94L69.2697 81.875" stroke="black" stroke-width="2"/>
</g>
<g id="MISC_2">
<path d="M974 70H999V89H974V70Z" fill="#525252"/>
<path d="M999 89V70H974V89H999ZM974 70L986.336 79.785M999 70L986.336 79.785M999 89L986.336 79.785M974 89L986.336 79.785" stroke="black" stroke-width="2"/>
</g>
<rect id="KIOSK" x="225" y="69" width="30" height="10" fill="#D9D9D9" stroke="black" stroke-width="2"/>
<rect id="KIOSK_2" x="253" y="69" width="30" height="10" fill="#D9D9D9" stroke="black" stroke-width="2"/>
<rect id="KIOSK_3" x="301" y="69" width="30" height="10" fill="#D9D9D9" stroke="black" stroke-width="2"/>
<rect id="KIOSK_4" x="525" y="69" width="30" height="10" fill="#D9D9D9" stroke="black" stroke-width="2"/>
<circle id="TRASH BIN" cx="358" cy="81" r="11" fill="#151515" stroke="black" stroke-width="2"/>
<circle id="TRASH BIN_2" cx="508" cy="81" r="11" fill="#151515" stroke="black" stroke-width="2"/>
<circle id="TRASH BIN_3" cx="716" cy="81" r="11" fill="#151515" stroke="black" stroke-width="2"/>
<rect id="BENCH" x="380" y="69" width="65" height="20" fill="#979797" stroke="black" stroke-width="2"/>
<rect id="BENCH_2" x="566" y="69" width="65" height="20" fill="#979797" stroke="black" stroke-width="2"/>
<circle id="MINI KIOSK" cx="832" cy="78" r="8" fill="#D9D9D9" stroke="black" stroke-width="2"/>
<path id="DOWNTOWN PLATFORM_2" d="M850.438 35H841.156V8.81818H850.514C853.148 8.81818 855.415 9.34233 857.316 10.3906C859.216 11.4304 860.678 12.9261 861.7 14.8778C862.732 16.8295 863.247 19.1648 863.247 21.8835C863.247 24.6108 862.732 26.9545 861.7 28.9148C860.678 30.875 859.208 32.3793 857.29 33.4276C855.381 34.4759 853.097 35 850.438 35ZM846.692 30.2571H850.208C851.844 30.2571 853.22 29.9673 854.337 29.3878C855.462 28.7997 856.306 27.892 856.868 26.6648C857.439 25.429 857.725 23.8352 857.725 21.8835C857.725 19.9489 857.439 18.3679 856.868 17.1406C856.306 15.9134 855.466 15.0099 854.35 14.4304C853.233 13.8509 851.857 13.5611 850.22 13.5611H846.692V30.2571ZM891.407 21.9091C891.407 24.7642 890.866 27.1932 889.784 29.196C888.71 31.1989 887.244 32.7287 885.386 33.7855C883.537 34.8338 881.457 35.358 879.148 35.358C876.821 35.358 874.733 34.8295 872.883 33.7727C871.034 32.7159 869.572 31.1861 868.498 29.1832C867.425 27.1804 866.888 24.7557 866.888 21.9091C866.888 19.054 867.425 16.625 868.498 14.6222C869.572 12.6193 871.034 11.0937 872.883 10.0455C874.733 8.98864 876.821 8.46023 879.148 8.46023C881.457 8.46023 883.537 8.98864 885.386 10.0455C887.244 11.0937 888.71 12.6193 889.784 14.6222C890.866 16.625 891.407 19.054 891.407 21.9091ZM885.795 21.9091C885.795 20.0597 885.518 18.5 884.964 17.2301C884.419 15.9602 883.648 14.9972 882.65 14.3409C881.653 13.6847 880.486 13.3565 879.148 13.3565C877.809 13.3565 876.642 13.6847 875.645 14.3409C874.648 14.9972 873.872 15.9602 873.318 17.2301C872.773 18.5 872.5 20.0597 872.5 21.9091C872.5 23.7585 872.773 25.3182 873.318 26.5881C873.872 27.858 874.648 28.821 875.645 29.4773C876.642 30.1335 877.809 30.4616 879.148 30.4616C880.486 30.4616 881.653 30.1335 882.65 29.4773C883.648 28.821 884.419 27.858 884.964 26.5881C885.518 25.3182 885.795 23.7585 885.795 21.9091ZM900.417 35L892.926 8.81818H898.972L903.306 27.0099H903.524L908.305 8.81818H913.482L918.251 27.0483H918.481L922.815 8.81818H928.862L921.37 35H915.975L910.99 17.8821H910.785L905.812 35H900.417ZM953.724 8.81818V35H948.942L937.552 18.5213H937.36V35H931.824V8.81818H936.682L947.983 25.2841H948.214V8.81818H953.724ZM957.3 13.3821V8.81818H978.803V13.3821H970.787V35H965.316V13.3821H957.3ZM1005.21 21.9091C1005.21 24.7642 1004.67 27.1932 1003.58 29.196C1002.51 31.1989 1001.04 32.7287 999.187 33.7855C997.338 34.8338 995.258 35.358 992.948 35.358C990.622 35.358 988.534 34.8295 986.684 33.7727C984.835 32.7159 983.373 31.1861 982.299 29.1832C981.225 27.1804 980.688 24.7557 980.688 21.9091C980.688 19.054 981.225 16.625 982.299 14.6222C983.373 12.6193 984.835 11.0937 986.684 10.0455C988.534 8.98864 990.622 8.46023 992.948 8.46023C995.258 8.46023 997.338 8.98864 999.187 10.0455C1001.04 11.0937 1002.51 12.6193 1003.58 14.6222C1004.67 16.625 1005.21 19.054 1005.21 21.9091ZM999.596 21.9091C999.596 20.0597 999.319 18.5 998.765 17.2301C998.22 15.9602 997.448 14.9972 996.451 14.3409C995.454 13.6847 994.286 13.3565 992.948 13.3565C991.61 13.3565 990.443 13.6847 989.445 14.3409C988.448 14.9972 987.673 15.9602 987.119 17.2301C986.573 18.5 986.301 20.0597 986.301 21.9091C986.301 23.7585 986.573 25.3182 987.119 26.5881C987.673 27.858 988.448 28.821 989.445 29.4773C990.443 30.1335 991.61 30.4616 992.948 30.4616C994.286 30.4616 995.454 30.1335 996.451 29.4773C997.448 28.821 998.22 27.858 998.765 26.5881C999.319 25.3182 999.596 23.7585 999.596 21.9091ZM1014.22 35L1006.73 8.81818H1012.77L1017.11 27.0099H1017.32L1022.11 8.81818H1027.28L1032.05 27.0483H1032.28L1036.62 8.81818H1042.66L1035.17 35H1029.78L1024.79 17.8821H1024.59L1019.61 35H1014.22ZM1067.52 8.81818V35H1062.74L1051.35 18.5213H1051.16V35H1045.63V8.81818H1050.48L1061.78 25.2841H1062.01V8.81818H1067.52ZM1080.43 35V8.81818H1090.76C1092.75 8.81818 1094.44 9.19744 1095.83 9.95597C1097.23 10.706 1098.3 11.75 1099.03 13.0881C1099.77 14.4176 1100.14 15.9517 1100.14 17.6903C1100.14 19.429 1099.77 20.9631 1099.02 22.2926C1098.27 23.6222 1097.18 24.6577 1095.76 25.3991C1094.34 26.1406 1092.63 26.5114 1090.62 26.5114H1084.03V22.0753H1089.72C1090.79 22.0753 1091.67 21.892 1092.36 21.5256C1093.06 21.1506 1093.58 20.6349 1093.92 19.9787C1094.27 19.3139 1094.44 18.5511 1094.44 17.6903C1094.44 16.821 1094.27 16.0625 1093.92 15.4148C1093.58 14.7585 1093.06 14.2514 1092.36 13.8935C1091.66 13.527 1090.77 13.3438 1089.7 13.3438H1085.97V35H1080.43ZM1103.74 35V8.81818H1109.27V30.4361H1120.5V35H1103.74ZM1129.34 35H1123.41L1132.45 8.81818H1139.59L1148.61 35H1142.68L1136.12 14.8011H1135.92L1129.34 35ZM1128.97 24.7088H1142.99V29.0298H1128.97V24.7088ZM1147.57 13.3821V8.81818H1169.07V13.3821H1161.05V35H1155.58V13.3821H1147.57ZM1172.61 35V8.81818H1189.94V13.3821H1178.15V19.6207H1188.79V24.1847H1178.15V35H1172.61ZM1217.73 21.9091C1217.73 24.7642 1217.19 27.1932 1216.1 29.196C1215.03 31.1989 1213.56 32.7287 1211.71 33.7855C1209.86 34.8338 1207.78 35.358 1205.47 35.358C1203.14 35.358 1201.05 34.8295 1199.2 33.7727C1197.35 32.7159 1195.89 31.1861 1194.82 29.1832C1193.74 27.1804 1193.21 24.7557 1193.21 21.9091C1193.21 19.054 1193.74 16.625 1194.82 14.6222C1195.89 12.6193 1197.35 11.0937 1199.2 10.0455C1201.05 8.98864 1203.14 8.46023 1205.47 8.46023C1207.78 8.46023 1209.86 8.98864 1211.71 10.0455C1213.56 11.0937 1215.03 12.6193 1216.1 14.6222C1217.19 16.625 1217.73 19.054 1217.73 21.9091ZM1212.12 21.9091C1212.12 20.0597 1211.84 18.5 1211.28 17.2301C1210.74 15.9602 1209.97 14.9972 1208.97 14.3409C1207.97 13.6847 1206.81 13.3565 1205.47 13.3565C1204.13 13.3565 1202.96 13.6847 1201.97 14.3409C1200.97 14.9972 1200.19 15.9602 1199.64 17.2301C1199.09 18.5 1198.82 20.0597 1198.82 21.9091C1198.82 23.7585 1199.09 25.3182 1199.64 26.5881C1200.19 27.858 1200.97 28.821 1201.97 29.4773C1202.96 30.1335 1204.13 30.4616 1205.47 30.4616C1206.81 30.4616 1207.97 30.1335 1208.97 29.4773C1209.97 28.821 1210.74 27.858 1211.28 26.5881C1211.84 25.3182 1212.12 23.7585 1212.12 21.9091ZM1221.83 35V8.81818H1232.16C1234.14 8.81818 1235.82 9.17187 1237.22 9.87926C1238.63 10.5781 1239.7 11.571 1240.43 12.858C1241.17 14.1364 1241.54 15.6406 1241.54 17.3707C1241.54 19.1094 1241.17 20.6051 1240.42 21.858C1239.67 23.1023 1238.58 24.0568 1237.16 24.7216C1235.74 25.3864 1234.03 25.7188 1232.02 25.7188H1225.1V21.2699H1231.12C1232.18 21.2699 1233.06 21.125 1233.76 20.8352C1234.45 20.5455 1234.97 20.1108 1235.32 19.5312C1235.66 18.9517 1235.84 18.2315 1235.84 17.3707C1235.84 16.5014 1235.66 15.7685 1235.32 15.1719C1234.97 14.5753 1234.45 14.1236 1233.74 13.8168C1233.04 13.5014 1232.16 13.3438 1231.1 13.3438H1227.36V35H1221.83ZM1235.97 23.0852L1242.47 35H1236.36L1230 23.0852H1235.97ZM1245.45 8.81818H1252.28L1259.49 26.4091H1259.8L1267.01 8.81818H1273.83V35H1268.46V17.9588H1268.25L1261.47 34.8722H1257.82L1251.04 17.8949H1250.82V35H1245.45V8.81818Z" fill="black"/>
</g>
</svg>
