<svg width="900" height="468" viewBox="0 0 900 468" fill="none" xmlns="http://www.w3.org/2000/svg">
<g id="MEZZANINE">
<g id="MEZZANINE BASE">
<path d="M275 362V305V111V53L275 1L542 1.00001V53L474 53V103H458V111V305V312H483V362H542V414L275 414L275 362Z" fill="#B4F8CA"/>
<path d="M483 362H542V414L275 414L275 362V53M356 111V53H474L542 53V1.00001L275 1L275 53V111H356ZM474 53V103H458V312H483V362M483 362H356V305M275 362V305H356M356 111H416H458M356 111V208V305M356 305H416H458M458 111V305M458 111V103M458 305V312" stroke="black" stroke-width="2"/>
</g>
<g id="STAIRS">
<g id="GRAPHIC">
<path d="M584 53H598.375H612.75H627.125H641.5H655.875H670.25H684.625H699V103H684.625H670.25H655.875H641.5H627.125H612.75H598.375H584V53Z" fill="#8E8E8E"/>
<path d="M469 53H483.375H497.75H512.125H526.5H540.875H555.25H569.625H584V103H569.625H555.25H540.875H526.5H512.125H497.75H483.375H469V53Z" fill="#8E8E8E"/>
<path d="M584 53V103M584 53H598.375M584 53H569.625M584 103H598.375M584 103H569.625M641.5 53H627.125M641.5 53H655.875M641.5 53V103M641.5 103H627.125M641.5 103H655.875M612.75 53H598.375M612.75 53H627.125M612.75 53V103M612.75 103H598.375M612.75 103H627.125M670.25 53H655.875M670.25 53H684.625M670.25 53V103M670.25 103H655.875M670.25 103H684.625M598.375 53V103M627.125 53V103M655.875 53V103M684.625 53H699V103H684.625M684.625 53V103M526.5 53H512.125M526.5 53H540.875M526.5 53V103M526.5 103H512.125M526.5 103H540.875M497.75 53H483.375M497.75 53H512.125M497.75 53V103M497.75 103H483.375M497.75 103H512.125M555.25 53H540.875M555.25 53H569.625M555.25 53V103M555.25 103H540.875M555.25 103H569.625M483.375 53H469V103H483.375M483.375 53V103M512.125 53V103M540.875 53V103M569.625 53V103" stroke="black" stroke-width="2"/>
</g>
<g id="ARROW">
<path id="GRAPHIC_2" d="M612 76.5L598 66V70.75H568V80.25H598V85L612 76.5Z" fill="white" stroke="black" stroke-width="3"/>
<path id="DIRECTION TEXT" d="M624.359 70.0909H626.666V77.1754C626.666 77.9709 626.476 78.6669 626.096 79.2635C625.719 79.8601 625.192 80.3253 624.514 80.6591C623.835 80.9893 623.045 81.1545 622.143 81.1545C621.238 81.1545 620.446 80.9893 619.768 80.6591C619.089 80.3253 618.562 79.8601 618.186 79.2635C617.809 78.6669 617.621 77.9709 617.621 77.1754V70.0909H619.927V76.9783C619.927 77.3938 620.018 77.7631 620.199 78.0863C620.384 78.4094 620.643 78.6634 620.977 78.848C621.311 79.0327 621.699 79.125 622.143 79.125C622.591 79.125 622.98 79.0327 623.31 78.848C623.644 78.6634 623.901 78.4094 624.082 78.0863C624.267 77.7631 624.359 77.3938 624.359 76.9783V70.0909ZM628.563 81V70.0909H632.867C633.695 70.0909 634.4 70.2489 634.982 70.565C635.564 70.8775 636.008 71.3125 636.314 71.87C636.623 72.424 636.777 73.0632 636.777 73.7876C636.777 74.5121 636.621 75.1513 636.308 75.7053C635.996 76.2592 635.543 76.6907 634.95 76.9996C634.361 77.3086 633.647 77.4631 632.809 77.4631H630.066V75.6147H632.436C632.88 75.6147 633.246 75.5384 633.533 75.3857C633.824 75.2294 634.041 75.0146 634.183 74.7411C634.329 74.4641 634.401 74.1463 634.401 73.7876C634.401 73.4254 634.329 73.1094 634.183 72.8395C634.041 72.5661 633.824 72.3548 633.533 72.2056C633.242 72.0529 632.873 71.9766 632.425 71.9766H630.87V81H628.563Z" fill="white"/>
</g>
</g>
<g id="STAIRS_2">
<g id="GRAPHIC_3">
<path d="M542 1H556.375H570.75H585.125H599.5H613.875H628.25H642.625H657V45H642.625H628.25H613.875H599.5H585.125H570.75H556.375H542V1Z" fill="#8E8E8E"/>
<path d="M599.5 1H585.125M599.5 1H613.875M599.5 1V45M599.5 45H585.125M599.5 45H613.875M570.75 1H556.375M570.75 1H585.125M570.75 1V45M570.75 45H556.375M570.75 45H585.125M628.25 1H613.875M628.25 1H642.625M628.25 1V45M628.25 45H613.875M628.25 45H642.625M556.375 1H542V45H556.375M556.375 1V45M585.125 1V45M613.875 1V45M642.625 1H657V45H642.625M642.625 1V45" stroke="black" stroke-width="2"/>
</g>
<g id="ARROW_2">
<path id="GRAPHIC_4" d="M596 23.5L582 13V17.75H552V27.25H582V32L596 23.5Z" fill="white" stroke="black" stroke-width="3"/>
<path id="DIRECTION TEXT_2" d="M607.411 28H603.544V17.0909H607.443C608.54 17.0909 609.485 17.3093 610.277 17.7461C611.069 18.1793 611.678 18.8026 612.104 19.6158C612.534 20.429 612.748 21.402 612.748 22.5348C612.748 23.6712 612.534 24.6477 612.104 25.4645C611.678 26.2812 611.065 26.908 610.266 27.3448C609.471 27.7816 608.519 28 607.411 28ZM605.85 26.0238H607.315C607.997 26.0238 608.57 25.9031 609.036 25.6616C609.504 25.4165 609.856 25.0384 610.09 24.527C610.328 24.0121 610.447 23.348 610.447 22.5348C610.447 21.7287 610.328 21.07 610.09 20.5586C609.856 20.0472 609.506 19.6708 609.041 19.4293C608.576 19.1879 608.002 19.0671 607.32 19.0671H605.85V26.0238ZM624.482 22.5455C624.482 23.7351 624.256 24.7472 623.805 25.5817C623.358 26.4162 622.747 27.0536 621.973 27.494C621.202 27.9308 620.336 28.1491 619.373 28.1491C618.404 28.1491 617.534 27.929 616.763 27.4886C615.993 27.0483 615.384 26.4109 614.936 25.5763C614.489 24.7418 614.265 23.7315 614.265 22.5455C614.265 21.3558 614.489 20.3438 614.936 19.5092C615.384 18.6747 615.993 18.0391 616.763 17.6023C617.534 17.1619 618.404 16.9418 619.373 16.9418C620.336 16.9418 621.202 17.1619 621.973 17.6023C622.747 18.0391 623.358 18.6747 623.805 19.5092C624.256 20.3438 624.482 21.3558 624.482 22.5455ZM622.143 22.5455C622.143 21.7749 622.028 21.125 621.797 20.5959C621.57 20.0668 621.248 19.6655 620.833 19.392C620.418 19.1186 619.931 18.9819 619.373 18.9819C618.816 18.9819 618.329 19.1186 617.914 19.392C617.498 19.6655 617.175 20.0668 616.945 20.5959C616.717 21.125 616.604 21.7749 616.604 22.5455C616.604 23.3161 616.717 23.9659 616.945 24.495C617.175 25.0241 617.498 25.4254 617.914 25.6989C618.329 25.9723 618.816 26.109 619.373 26.109C619.931 26.109 620.418 25.9723 620.833 25.6989C621.248 25.4254 621.57 25.0241 621.797 24.495C622.028 23.9659 622.143 23.3161 622.143 22.5455ZM628.236 28L625.114 17.0909H627.634L629.44 24.6708H629.53L631.522 17.0909H633.68L635.667 24.6868H635.762L637.568 17.0909H640.088L636.966 28H634.718L632.641 20.8675H632.556L630.484 28H628.236ZM650.447 17.0909V28H648.455L643.709 21.1339H643.629V28H641.322V17.0909H643.346L648.055 23.9517H648.151V17.0909H650.447Z" fill="white"/>
</g>
</g>
<g id="STAIRS_3">
<g id="GRAPHIC_5">
<path d="M542 370H556.375H570.75H585.125H599.5H613.875H628.25H642.625H657V414H642.625H628.25H613.875H599.5H585.125H570.75H556.375H542V370Z" fill="#8E8E8E"/>
<path d="M599.5 370H585.125M599.5 370H613.875M599.5 370V414M599.5 414H585.125M599.5 414H613.875M570.75 370H556.375M570.75 370H585.125M570.75 370V414M570.75 414H556.375M570.75 414H585.125M628.25 370H613.875M628.25 370H642.625M628.25 370V414M628.25 414H613.875M628.25 414H642.625M556.375 370H542V414H556.375M556.375 370V414M585.125 370V414M613.875 370V414M642.625 370H657V414H642.625M642.625 370V414" stroke="black" stroke-width="2"/>
</g>
<g id="ARROW_3">
<path id="GRAPHIC_6" d="M596 393.5L582 383V387.75H552V397.25H582V402L596 393.5Z" fill="white" stroke="black" stroke-width="3"/>
<path id="DIRECTION TEXT_3" d="M607.411 398H603.544V387.091H607.443C608.54 387.091 609.485 387.309 610.277 387.746C611.069 388.179 611.678 388.803 612.104 389.616C612.534 390.429 612.748 391.402 612.748 392.535C612.748 393.671 612.534 394.648 612.104 395.464C611.678 396.281 611.065 396.908 610.266 397.345C609.471 397.782 608.519 398 607.411 398ZM605.85 396.024H607.315C607.997 396.024 608.57 395.903 609.036 395.662C609.504 395.417 609.856 395.038 610.09 394.527C610.328 394.012 610.447 393.348 610.447 392.535C610.447 391.729 610.328 391.07 610.09 390.559C609.856 390.047 609.506 389.671 609.041 389.429C608.576 389.188 608.002 389.067 607.32 389.067H605.85V396.024ZM624.482 392.545C624.482 393.735 624.256 394.747 623.805 395.582C623.358 396.416 622.747 397.054 621.973 397.494C621.202 397.931 620.336 398.149 619.373 398.149C618.404 398.149 617.534 397.929 616.763 397.489C615.993 397.048 615.384 396.411 614.936 395.576C614.489 394.742 614.265 393.732 614.265 392.545C614.265 391.356 614.489 390.344 614.936 389.509C615.384 388.675 615.993 388.039 616.763 387.602C617.534 387.162 618.404 386.942 619.373 386.942C620.336 386.942 621.202 387.162 621.973 387.602C622.747 388.039 623.358 388.675 623.805 389.509C624.256 390.344 624.482 391.356 624.482 392.545ZM622.143 392.545C622.143 391.775 622.028 391.125 621.797 390.596C621.57 390.067 621.248 389.665 620.833 389.392C620.418 389.119 619.931 388.982 619.373 388.982C618.816 388.982 618.329 389.119 617.914 389.392C617.498 389.665 617.175 390.067 616.945 390.596C616.717 391.125 616.604 391.775 616.604 392.545C616.604 393.316 616.717 393.966 616.945 394.495C617.175 395.024 617.498 395.425 617.914 395.699C618.329 395.972 618.816 396.109 619.373 396.109C619.931 396.109 620.418 395.972 620.833 395.699C621.248 395.425 621.57 395.024 621.797 394.495C622.028 393.966 622.143 393.316 622.143 392.545ZM628.236 398L625.114 387.091H627.634L629.44 394.671H629.53L631.522 387.091H633.68L635.667 394.687H635.762L637.568 387.091H640.088L636.966 398H634.718L632.641 390.868H632.556L630.484 398H628.236ZM650.447 387.091V398H648.455L643.709 391.134H643.629V398H641.322V387.091H643.346L648.055 393.952H648.151V387.091H650.447Z" fill="white"/>
</g>
</g>
<g id="STAIRS_4">
<g id="GRAPHIC_7">
<path d="M160 1.00001H174.375H188.75H203.125H217.5H231.875H246.25H260.625H275V45H260.625H246.25H231.875H217.5H203.125H188.75H174.375H160V1.00001Z" fill="#8E8E8E"/>
<path d="M217.5 1.00001H203.125M217.5 1.00001H231.875M217.5 1.00001V45M217.5 45H203.125M217.5 45H231.875M188.75 1.00001H174.375M188.75 1.00001H203.125M188.75 1.00001V45M188.75 45H174.375M188.75 45H203.125M246.25 1.00001H231.875M246.25 1.00001H260.625M246.25 1.00001V45M246.25 45H231.875M246.25 45H260.625M174.375 1.00001H160V45H174.375M174.375 1.00001V45M203.125 1.00001V45M231.875 1.00001V45M260.625 1.00001H275V45H260.625M260.625 1.00001V45" stroke="black" stroke-width="2"/>
</g>
<g id="ARROW_4">
<path id="GRAPHIC_8" d="M221 23.5L235 13V17.75H265V27.25H235V32L221 23.5Z" fill="white" stroke="black" stroke-width="3"/>
<path id="DIRECTION TEXT_4" d="M173.411 28H169.544V17.0909H173.443C174.54 17.0909 175.485 17.3093 176.277 17.7461C177.069 18.1793 177.678 18.8026 178.104 19.6158C178.534 20.429 178.748 21.402 178.748 22.5348C178.748 23.6712 178.534 24.6477 178.104 25.4645C177.678 26.2813 177.065 26.908 176.266 27.3448C175.471 27.7816 174.519 28 173.411 28ZM171.85 26.0238H173.315C173.997 26.0238 174.57 25.9031 175.036 25.6616C175.504 25.4166 175.856 25.0384 176.09 24.527C176.328 24.0121 176.447 23.348 176.447 22.5348C176.447 21.7287 176.328 21.07 176.09 20.5586C175.856 20.0472 175.506 19.6708 175.041 19.4293C174.576 19.1879 174.002 19.0671 173.32 19.0671H171.85V26.0238ZM190.482 22.5455C190.482 23.7351 190.256 24.7472 189.805 25.5817C189.358 26.4162 188.747 27.0536 187.973 27.494C187.202 27.9308 186.336 28.1492 185.373 28.1492C184.404 28.1492 183.534 27.929 182.763 27.4886C181.993 27.0483 181.384 26.4109 180.936 25.5764C180.489 24.7418 180.265 23.7315 180.265 22.5455C180.265 21.3558 180.489 20.3438 180.936 19.5092C181.384 18.6747 181.993 18.0391 182.763 17.6023C183.534 17.1619 184.404 16.9418 185.373 16.9418C186.336 16.9418 187.202 17.1619 187.973 17.6023C188.747 18.0391 189.358 18.6747 189.805 19.5092C190.256 20.3438 190.482 21.3558 190.482 22.5455ZM188.143 22.5455C188.143 21.7749 188.028 21.125 187.797 20.5959C187.57 20.0668 187.248 19.6655 186.833 19.3921C186.418 19.1186 185.931 18.9819 185.373 18.9819C184.816 18.9819 184.329 19.1186 183.914 19.3921C183.498 19.6655 183.175 20.0668 182.945 20.5959C182.717 21.125 182.604 21.7749 182.604 22.5455C182.604 23.3161 182.717 23.9659 182.945 24.495C183.175 25.0242 183.498 25.4254 183.914 25.6989C184.329 25.9723 184.816 26.109 185.373 26.109C185.931 26.109 186.418 25.9723 186.833 25.6989C187.248 25.4254 187.57 25.0242 187.797 24.495C188.028 23.9659 188.143 23.3161 188.143 22.5455ZM194.236 28L191.114 17.0909H193.634L195.44 24.6708H195.53L197.522 17.0909H199.68L201.667 24.6868H201.762L203.568 17.0909H206.088L202.966 28H200.718L198.641 20.8676H198.556L196.484 28H194.236ZM216.447 17.0909V28H214.455L209.709 21.1339H209.629V28H207.322V17.0909H209.346L214.055 23.9517H214.151V17.0909H216.447Z" fill="white"/>
</g>
</g>
<g id="STAIRS_5">
<g id="GRAPHIC_9">
<path d="M160 370H174.375H188.75H203.125H217.5H231.875H246.25H260.625H275V414H260.625H246.25H231.875H217.5H203.125H188.75H174.375H160V370Z" fill="#8E8E8E"/>
<path d="M217.5 370H203.125M217.5 370H231.875M217.5 370V414M217.5 414H203.125M217.5 414H231.875M188.75 370H174.375M188.75 370H203.125M188.75 370V414M188.75 414H174.375M188.75 414H203.125M246.25 370H231.875M246.25 370H260.625M246.25 370V414M246.25 414H231.875M246.25 414H260.625M174.375 370H160V414H174.375M174.375 370V414M203.125 370V414M231.875 370V414M260.625 370H275V414H260.625M260.625 370V414" stroke="black" stroke-width="2"/>
</g>
<g id="ARROW_5">
<path id="GRAPHIC_10" d="M221 392.5L235 382V386.75H265V396.25H235V401L221 392.5Z" fill="white" stroke="black" stroke-width="3"/>
<path id="DIRECTION TEXT_5" d="M173.411 397H169.544V386.091H173.443C174.54 386.091 175.485 386.309 176.277 386.746C177.069 387.179 177.678 387.803 178.104 388.616C178.534 389.429 178.748 390.402 178.748 391.535C178.748 392.671 178.534 393.648 178.104 394.464C177.678 395.281 177.065 395.908 176.266 396.345C175.471 396.782 174.519 397 173.411 397ZM171.85 395.024H173.315C173.997 395.024 174.57 394.903 175.036 394.662C175.504 394.417 175.856 394.038 176.09 393.527C176.328 393.012 176.447 392.348 176.447 391.535C176.447 390.729 176.328 390.07 176.09 389.559C175.856 389.047 175.506 388.671 175.041 388.429C174.576 388.188 174.002 388.067 173.32 388.067H171.85V395.024ZM190.482 391.545C190.482 392.735 190.256 393.747 189.805 394.582C189.358 395.416 188.747 396.054 187.973 396.494C187.202 396.931 186.336 397.149 185.373 397.149C184.404 397.149 183.534 396.929 182.763 396.489C181.993 396.048 181.384 395.411 180.936 394.576C180.489 393.742 180.265 392.732 180.265 391.545C180.265 390.356 180.489 389.344 180.936 388.509C181.384 387.675 181.993 387.039 182.763 386.602C183.534 386.162 184.404 385.942 185.373 385.942C186.336 385.942 187.202 386.162 187.973 386.602C188.747 387.039 189.358 387.675 189.805 388.509C190.256 389.344 190.482 390.356 190.482 391.545ZM188.143 391.545C188.143 390.775 188.028 390.125 187.797 389.596C187.57 389.067 187.248 388.665 186.833 388.392C186.418 388.119 185.931 387.982 185.373 387.982C184.816 387.982 184.329 388.119 183.914 388.392C183.498 388.665 183.175 389.067 182.945 389.596C182.717 390.125 182.604 390.775 182.604 391.545C182.604 392.316 182.717 392.966 182.945 393.495C183.175 394.024 183.498 394.425 183.914 394.699C184.329 394.972 184.816 395.109 185.373 395.109C185.931 395.109 186.418 394.972 186.833 394.699C187.248 394.425 187.57 394.024 187.797 393.495C188.028 392.966 188.143 392.316 188.143 391.545ZM194.236 397L191.114 386.091H193.634L195.44 393.671H195.53L197.522 386.091H199.68L201.667 393.687H201.762L203.568 386.091H206.088L202.966 397H200.718L198.641 389.868H198.556L196.484 397H194.236ZM216.447 386.091V397H214.455L209.709 390.134H209.629V397H207.322V386.091H209.346L214.055 392.952H214.151V386.091H216.447Z" fill="white"/>
</g>
</g>
<g id="STAIRS_6">
<g id="GRAPHIC_11">
<path d="M584 312H598.375H612.75H627.125H641.5H655.875H670.25H684.625H699V362H684.625H670.25H655.875H641.5H627.125H612.75H598.375H584V312Z" fill="#8E8E8E"/>
<path d="M469 312H483.375H497.75H512.125H526.5H540.875H555.25H569.625H584V362H569.625H555.25H540.875H526.5H512.125H497.75H483.375H469V312Z" fill="#8E8E8E"/>
<path d="M584 312V362M584 312H598.375M584 312H569.625M584 362H598.375M584 362H569.625M641.5 312H627.125M641.5 312H655.875M641.5 312V362M641.5 362H627.125M641.5 362H655.875M612.75 312H598.375M612.75 312H627.125M612.75 312V362M612.75 362H598.375M612.75 362H627.125M670.25 312H655.875M670.25 312H684.625M670.25 312V362M670.25 362H655.875M670.25 362H684.625M598.375 312V362M627.125 312V362M655.875 312V362M684.625 312H699V362H684.625M684.625 312V362M526.5 312H512.125M526.5 312H540.875M526.5 312V362M526.5 362H512.125M526.5 362H540.875M497.75 312H483.375M497.75 312H512.125M497.75 312V362M497.75 362H483.375M497.75 362H512.125M555.25 312H540.875M555.25 312H569.625M555.25 312V362M555.25 362H540.875M555.25 362H569.625M483.375 312H469V362H483.375M483.375 312V362M512.125 312V362M540.875 312V362M569.625 312V362" stroke="black" stroke-width="2"/>
</g>
<g id="ARROW_6">
<path id="GRAPHIC_12" d="M612 337.5L598 327V331.75H568V341.25H598V346L612 337.5Z" fill="white" stroke="black" stroke-width="3"/>
<path id="DIRECTION TEXT_6" d="M624.359 331.091H626.666V338.175C626.666 338.971 626.476 339.667 626.096 340.263C625.719 340.86 625.192 341.325 624.514 341.659C623.835 341.989 623.045 342.154 622.143 342.154C621.238 342.154 620.446 341.989 619.768 341.659C619.089 341.325 618.562 340.86 618.186 340.263C617.809 339.667 617.621 338.971 617.621 338.175V331.091H619.927V337.978C619.927 338.394 620.018 338.763 620.199 339.086C620.384 339.409 620.643 339.663 620.977 339.848C621.311 340.033 621.699 340.125 622.143 340.125C622.591 340.125 622.98 340.033 623.31 339.848C623.644 339.663 623.901 339.409 624.082 339.086C624.267 338.763 624.359 338.394 624.359 337.978V331.091ZM628.563 342V331.091H632.867C633.695 331.091 634.4 331.249 634.982 331.565C635.564 331.877 636.008 332.312 636.314 332.87C636.623 333.424 636.777 334.063 636.777 334.788C636.777 335.512 636.621 336.151 636.308 336.705C635.996 337.259 635.543 337.691 634.95 338C634.361 338.309 633.647 338.463 632.809 338.463H630.066V336.615H632.436C632.88 336.615 633.246 336.538 633.533 336.386C633.824 336.229 634.041 336.015 634.183 335.741C634.329 335.464 634.401 335.146 634.401 334.788C634.401 334.425 634.329 334.109 634.183 333.839C634.041 333.566 633.824 333.355 633.533 333.206C633.242 333.053 632.873 332.977 632.425 332.977H630.87V342H628.563Z" fill="white"/>
</g>
</g>
<rect id="KIOSK" x="356" y="304" width="30" height="10" transform="rotate(-90 356 304)" fill="#D9D9D9" stroke="black" stroke-width="2"/>
<g id="MISC">
<path d="M432 190H439V216H432V190Z" fill="#525252"/>
<path d="M439 216V190H432V216H439ZM432 190L435.454 203.39M439 190L435.454 203.39M439 216L435.454 203.39M432 216L435.454 203.39" stroke="black" stroke-width="2"/>
</g>
<circle id="TRASH BIN" cx="437" cy="232" r="11" fill="#151515" stroke="black" stroke-width="2"/>
<rect id="TURNSTILE" x="331" y="183" width="40" height="20" fill="#B8B8B8" stroke="black" stroke-width="2"/>
<path id="TURNSTILE_2" d="M331 201H371V221H331V201Z" fill="#B8B8B8" stroke="black" stroke-width="2"/>
<rect id="TURNSTILE_3" x="331" y="219" width="40" height="20" fill="#B8B8B8" stroke="black" stroke-width="2"/>
<path id="BOOTH" d="M275 165H297V235H275V165Z" fill="#929292" stroke="black" stroke-width="2"/>
<path id="DOOR" d="M388 308L388 303L408 303L408 308L388 308Z" fill="#D9D9D9" stroke="black" stroke-width="2"/>
<path id="DOOR_2" d="M408 308L408 303L428 303L428 308L408 308Z" fill="#D9D9D9" stroke="black" stroke-width="2"/>
<path id="DOOR_3" d="M428 308L428 303L448 303L448 308L428 308Z" fill="#D9D9D9" stroke="black" stroke-width="2"/>
<path id="DOOR_4" d="M389 113L389 108L409 108L409 113L389 113Z" fill="#D9D9D9" stroke="black" stroke-width="2"/>
<path id="DOOR_5" d="M409 113L409 108L429 108L429 113L409 113Z" fill="#D9D9D9" stroke="black" stroke-width="2"/>
<path id="DOOR_6" d="M429 113L429 108L449 108L449 113L429 113Z" fill="#D9D9D9" stroke="black" stroke-width="2"/>
<path id="DOOR_7" d="M275 114L275 109L295 109L295 114L275 114Z" fill="#D9D9D9" stroke="black" stroke-width="2"/>
<path id="DOOR_8" d="M295 114L295 109L315 109L315 114L295 114Z" fill="#D9D9D9" stroke="black" stroke-width="2"/>
<path id="DOOR_9" d="M315 114L315 109L335 109L335 114L315 114Z" fill="#D9D9D9" stroke="black" stroke-width="2"/>
<path id="DOOR_10" d="M275 308L275 303L295 303L295 308L275 308Z" fill="#D9D9D9" stroke="black" stroke-width="2"/>
<path id="DOOR_11" d="M295 308L295 303L315 303L315 308L295 308Z" fill="#D9D9D9" stroke="black" stroke-width="2"/>
<path id="DOOR_12" d="M315 308L315 303L335 303L335 308L315 308Z" fill="#D9D9D9" stroke="black" stroke-width="2"/>
<path id="EXIT DOOR" d="M353 152H360V177H353V152Z" fill="#6D6D6D" stroke="black" stroke-width="2"/>
<path id="EXIT DOOR_2" d="M419 56L419 49L444 49L444 56L419 56Z" fill="#6D6D6D" stroke="black" stroke-width="2"/>
<path id="EXIT DOOR_3" d="M419 365L419 358L444 358L444 365L419 365Z" fill="#6D6D6D" stroke="black" stroke-width="2"/>
<path id="EXIT DOOR_4" d="M353 245H360V270H353V245Z" fill="#6D6D6D" stroke="black" stroke-width="2"/>
<path id="DOWNTOWN PLATFORM" d="M718.815 74H714.948V63.0909H718.847C719.945 63.0909 720.889 63.3093 721.681 63.7461C722.473 64.1793 723.082 64.8026 723.508 65.6158C723.938 66.429 724.153 67.402 724.153 68.5348C724.153 69.6712 723.938 70.6477 723.508 71.4645C723.082 72.2812 722.469 72.908 721.67 73.3448C720.875 73.7816 719.923 74 718.815 74ZM717.255 72.0238H718.719C719.401 72.0238 719.975 71.9031 720.44 71.6616C720.909 71.4165 721.26 71.0384 721.495 70.527C721.733 70.0121 721.852 69.348 721.852 68.5348C721.852 67.7287 721.733 67.07 721.495 66.5586C721.26 66.0472 720.911 65.6708 720.445 65.4293C719.98 65.1879 719.407 65.0671 718.725 65.0671H717.255V72.0238ZM735.886 68.5455C735.886 69.7351 735.661 70.7472 735.21 71.5817C734.762 72.4162 734.151 73.0536 733.377 73.494C732.607 73.9308 731.74 74.1491 730.778 74.1491C729.808 74.1491 728.938 73.929 728.168 73.4886C727.397 73.0483 726.788 72.4109 726.341 71.5763C725.893 70.7418 725.669 69.7315 725.669 68.5455C725.669 67.3558 725.893 66.3438 726.341 65.5092C726.788 64.6747 727.397 64.0391 728.168 63.6023C728.938 63.1619 729.808 62.9418 730.778 62.9418C731.74 62.9418 732.607 63.1619 733.377 63.6023C734.151 64.0391 734.762 64.6747 735.21 65.5092C735.661 66.3438 735.886 67.3558 735.886 68.5455ZM733.548 68.5455C733.548 67.7749 733.432 67.125 733.201 66.5959C732.974 66.0668 732.653 65.6655 732.237 65.392C731.822 65.1186 731.335 64.9819 730.778 64.9819C730.22 64.9819 729.734 65.1186 729.318 65.392C728.903 65.6655 728.58 66.0668 728.349 66.5959C728.122 67.125 728.008 67.7749 728.008 68.5455C728.008 69.3161 728.122 69.9659 728.349 70.495C728.58 71.0241 728.903 71.4254 729.318 71.6989C729.734 71.9723 730.22 72.109 730.778 72.109C731.335 72.109 731.822 71.9723 732.237 71.6989C732.653 71.4254 732.974 71.0241 733.201 70.495C733.432 69.9659 733.548 69.3161 733.548 68.5455ZM739.64 74L736.519 63.0909H739.038L740.844 70.6708H740.934L742.927 63.0909H745.084L747.071 70.6868H747.167L748.972 63.0909H751.492L748.371 74H746.123L744.045 66.8675H743.96L741.888 74H739.64ZM761.851 63.0909V74H759.859L755.113 67.1339H755.033V74H752.726V63.0909H754.751L759.459 69.9517H759.555V63.0909H761.851ZM763.341 64.9925V63.0909H772.301V64.9925H768.961V74H766.681V64.9925H763.341ZM783.303 68.5455C783.303 69.7351 783.078 70.7472 782.627 71.5817C782.179 72.4162 781.568 73.0536 780.794 73.494C780.024 73.9308 779.157 74.1491 778.195 74.1491C777.225 74.1491 776.355 73.929 775.585 73.4886C774.814 73.0483 774.205 72.4109 773.758 71.5763C773.31 70.7418 773.086 69.7315 773.086 68.5455C773.086 67.3558 773.31 66.3438 773.758 65.5092C774.205 64.6747 774.814 64.0391 775.585 63.6023C776.355 63.1619 777.225 62.9418 778.195 62.9418C779.157 62.9418 780.024 63.1619 780.794 63.6023C781.568 64.0391 782.179 64.6747 782.627 65.5092C783.078 66.3438 783.303 67.3558 783.303 68.5455ZM780.965 68.5455C780.965 67.7749 780.849 67.125 780.618 66.5959C780.391 66.0668 780.07 65.6655 779.654 65.392C779.239 65.1186 778.752 64.9819 778.195 64.9819C777.637 64.9819 777.151 65.1186 776.735 65.392C776.32 65.6655 775.997 66.0668 775.766 66.5959C775.539 67.125 775.425 67.7749 775.425 68.5455C775.425 69.3161 775.539 69.9659 775.766 70.495C775.997 71.0241 776.32 71.4254 776.735 71.6989C777.151 71.9723 777.637 72.109 778.195 72.109C778.752 72.109 779.239 71.9723 779.654 71.6989C780.07 71.4254 780.391 71.0241 780.618 70.495C780.849 69.9659 780.965 69.3161 780.965 68.5455ZM787.057 74L783.936 63.0909H786.455L788.261 70.6708H788.351L790.344 63.0909H792.501L794.488 70.6868H794.584L796.389 63.0909H798.909L795.788 74H793.54L791.462 66.8675H791.377L789.305 74H787.057ZM809.268 63.0909V74H807.276L802.53 67.1339H802.45V74H800.143V63.0909H802.168L806.876 69.9517H806.972V63.0909H809.268ZM714.948 92V81.0909H719.252C720.08 81.0909 720.784 81.2489 721.367 81.565C721.949 81.8775 722.393 82.3125 722.699 82.87C723.007 83.424 723.162 84.0632 723.162 84.7876C723.162 85.5121 723.006 86.1513 722.693 86.7053C722.381 87.2592 721.928 87.6907 721.335 87.9996C720.745 88.3086 720.032 88.4631 719.194 88.4631H716.45V86.6147H718.821C719.265 86.6147 719.63 86.5384 719.918 86.3857C720.209 86.2294 720.426 86.0146 720.568 85.7411C720.713 85.4641 720.786 85.1463 720.786 84.7876C720.786 84.4254 720.713 84.1094 720.568 83.8395C720.426 83.5661 720.209 83.3548 719.918 83.2056C719.627 83.0529 719.257 82.9766 718.81 82.9766H717.255V92H714.948ZM724.66 92V81.0909H726.967V90.0984H731.643V92H724.66ZM735.329 92H732.858L736.624 81.0909H739.596L743.357 92H740.885L738.153 83.5838H738.067L735.329 92ZM735.175 87.712H741.013V89.5124H735.175V87.712ZM742.921 82.9925V81.0909H751.881V82.9925H748.541V92H746.261V82.9925H742.921ZM753.356 92V81.0909H760.579V82.9925H755.663V85.592H760.1V87.4936H755.663V92H753.356ZM772.156 86.5455C772.156 87.7351 771.93 88.7472 771.479 89.5817C771.032 90.4162 770.421 91.0536 769.647 91.494C768.876 91.9308 768.01 92.1491 767.047 92.1491C766.078 92.1491 765.208 91.929 764.437 91.4886C763.667 91.0483 763.058 90.4109 762.61 89.5763C762.163 88.7418 761.939 87.7315 761.939 86.5455C761.939 85.3558 762.163 84.3438 762.61 83.5092C763.058 82.6747 763.667 82.0391 764.437 81.6023C765.208 81.1619 766.078 80.9418 767.047 80.9418C768.01 80.9418 768.876 81.1619 769.647 81.6023C770.421 82.0391 771.032 82.6747 771.479 83.5092C771.93 84.3438 772.156 85.3558 772.156 86.5455ZM769.817 86.5455C769.817 85.7749 769.702 85.125 769.471 84.5959C769.244 84.0668 768.922 83.6655 768.507 83.392C768.091 83.1186 767.605 82.9819 767.047 82.9819C766.49 82.9819 766.003 83.1186 765.588 83.392C765.172 83.6655 764.849 84.0668 764.618 84.5959C764.391 85.125 764.277 85.7749 764.277 86.5455C764.277 87.3161 764.391 87.9659 764.618 88.495C764.849 89.0241 765.172 89.4254 765.588 89.6989C766.003 89.9723 766.49 90.109 767.047 90.109C767.605 90.109 768.091 89.9723 768.507 89.6989C768.922 89.4254 769.244 89.0241 769.471 88.495C769.702 87.9659 769.817 87.3161 769.817 86.5455ZM773.864 92V81.0909H778.168C778.992 81.0909 779.695 81.2383 780.278 81.533C780.863 81.8242 781.309 82.2379 781.615 82.7741C781.923 83.3068 782.078 83.9336 782.078 84.6545C782.078 85.3789 781.922 86.0021 781.609 86.5241C781.297 87.0426 780.844 87.4403 780.251 87.7173C779.661 87.9943 778.948 88.1328 778.11 88.1328H775.228V86.2791H777.737C778.177 86.2791 778.543 86.2187 778.834 86.098C779.125 85.9773 779.342 85.7962 779.484 85.5547C779.629 85.3132 779.702 85.0131 779.702 84.6545C779.702 84.2923 779.629 83.9869 779.484 83.7383C779.342 83.4897 779.123 83.3015 778.829 83.1737C778.537 83.0423 778.17 82.9766 777.726 82.9766H776.171V92H773.864ZM779.756 87.0355L782.467 92H779.921L777.268 87.0355H779.756ZM783.708 81.0909H786.552L789.557 88.4205H789.684L792.689 81.0909H795.533V92H793.296V84.8995H793.205L790.382 91.9467H788.859L786.036 84.8729H785.945V92H783.708V81.0909Z" fill="black"/>
<path id="UPTOWN PLATFORM" d="M721.686 322.091H723.993V329.175C723.993 329.971 723.803 330.667 723.423 331.263C723.047 331.86 722.519 332.325 721.841 332.659C721.163 332.989 720.373 333.154 719.471 333.154C718.565 333.154 717.773 332.989 717.095 332.659C716.417 332.325 715.889 331.86 715.513 331.263C715.136 330.667 714.948 329.971 714.948 329.175V322.091H717.255V328.978C717.255 329.394 717.345 329.763 717.526 330.086C717.711 330.409 717.97 330.663 718.304 330.848C718.638 331.033 719.027 331.125 719.471 331.125C719.918 331.125 720.307 331.033 720.637 330.848C720.971 330.663 721.228 330.409 721.409 330.086C721.594 329.763 721.686 329.394 721.686 328.978V322.091ZM725.891 333V322.091H730.195C731.022 322.091 731.727 322.249 732.309 322.565C732.892 322.877 733.335 323.312 733.641 323.87C733.95 324.424 734.104 325.063 734.104 325.788C734.104 326.512 733.948 327.151 733.636 327.705C733.323 328.259 732.87 328.691 732.277 329C731.688 329.309 730.974 329.463 730.136 329.463H727.393V327.615H729.763C730.207 327.615 730.573 327.538 730.86 327.386C731.152 327.229 731.368 327.015 731.51 326.741C731.656 326.464 731.729 326.146 731.729 325.788C731.729 325.425 731.656 325.109 731.51 324.839C731.368 324.566 731.152 324.355 730.86 324.206C730.569 324.053 730.2 323.977 729.752 323.977H728.197V333H725.891ZM735.187 323.993V322.091H744.146V323.993H740.807V333H738.527V323.993H735.187ZM755.149 327.545C755.149 328.735 754.923 329.747 754.472 330.582C754.025 331.416 753.414 332.054 752.64 332.494C751.869 332.931 751.003 333.149 750.04 333.149C749.071 333.149 748.201 332.929 747.43 332.489C746.66 332.048 746.051 331.411 745.603 330.576C745.156 329.742 744.932 328.732 744.932 327.545C744.932 326.356 745.156 325.344 745.603 324.509C746.051 323.675 746.66 323.039 747.43 322.602C748.201 322.162 749.071 321.942 750.04 321.942C751.003 321.942 751.869 322.162 752.64 322.602C753.414 323.039 754.025 323.675 754.472 324.509C754.923 325.344 755.149 326.356 755.149 327.545ZM752.81 327.545C752.81 326.775 752.695 326.125 752.464 325.596C752.237 325.067 751.915 324.665 751.5 324.392C751.085 324.119 750.598 323.982 750.04 323.982C749.483 323.982 748.996 324.119 748.581 324.392C748.165 324.665 747.842 325.067 747.612 325.596C747.384 326.125 747.271 326.775 747.271 327.545C747.271 328.316 747.384 328.966 747.612 329.495C747.842 330.024 748.165 330.425 748.581 330.699C748.996 330.972 749.483 331.109 750.04 331.109C750.598 331.109 751.085 330.972 751.5 330.699C751.915 330.425 752.237 330.024 752.464 329.495C752.695 328.966 752.81 328.316 752.81 327.545ZM758.903 333L755.781 322.091H758.301L760.107 329.671H760.197L762.189 322.091H764.347L766.334 329.687H766.429L768.235 322.091H770.755L767.633 333H765.385L763.308 325.868H763.223L761.151 333H758.903ZM781.114 322.091V333H779.122L774.376 326.134H774.296V333H771.989V322.091H774.013L778.722 328.952H778.818V322.091H781.114ZM714.948 351V340.091H719.252C720.08 340.091 720.784 340.249 721.367 340.565C721.949 340.877 722.393 341.312 722.699 341.87C723.007 342.424 723.162 343.063 723.162 343.788C723.162 344.512 723.006 345.151 722.693 345.705C722.381 346.259 721.928 346.691 721.335 347C720.745 347.309 720.032 347.463 719.194 347.463H716.45V345.615H718.821C719.265 345.615 719.63 345.538 719.918 345.386C720.209 345.229 720.426 345.015 720.568 344.741C720.713 344.464 720.786 344.146 720.786 343.788C720.786 343.425 720.713 343.109 720.568 342.839C720.426 342.566 720.209 342.355 719.918 342.206C719.627 342.053 719.257 341.977 718.81 341.977H717.255V351H714.948ZM724.66 351V340.091H726.967V349.098H731.643V351H724.66ZM735.329 351H732.858L736.624 340.091H739.596L743.357 351H740.885L738.153 342.584H738.067L735.329 351ZM735.175 346.712H741.013V348.512H735.175V346.712ZM742.921 341.993V340.091H751.881V341.993H748.541V351H746.261V341.993H742.921ZM753.356 351V340.091H760.579V341.993H755.663V344.592H760.1V346.494H755.663V351H753.356ZM772.156 345.545C772.156 346.735 771.93 347.747 771.479 348.582C771.032 349.416 770.421 350.054 769.647 350.494C768.876 350.931 768.01 351.149 767.047 351.149C766.078 351.149 765.208 350.929 764.437 350.489C763.667 350.048 763.058 349.411 762.61 348.576C762.163 347.742 761.939 346.732 761.939 345.545C761.939 344.356 762.163 343.344 762.61 342.509C763.058 341.675 763.667 341.039 764.437 340.602C765.208 340.162 766.078 339.942 767.047 339.942C768.01 339.942 768.876 340.162 769.647 340.602C770.421 341.039 771.032 341.675 771.479 342.509C771.93 343.344 772.156 344.356 772.156 345.545ZM769.817 345.545C769.817 344.775 769.702 344.125 769.471 343.596C769.244 343.067 768.922 342.665 768.507 342.392C768.091 342.119 767.605 341.982 767.047 341.982C766.49 341.982 766.003 342.119 765.588 342.392C765.172 342.665 764.849 343.067 764.618 343.596C764.391 344.125 764.277 344.775 764.277 345.545C764.277 346.316 764.391 346.966 764.618 347.495C764.849 348.024 765.172 348.425 765.588 348.699C766.003 348.972 766.49 349.109 767.047 349.109C767.605 349.109 768.091 348.972 768.507 348.699C768.922 348.425 769.244 348.024 769.471 347.495C769.702 346.966 769.817 346.316 769.817 345.545ZM773.864 351V340.091H778.168C778.992 340.091 779.695 340.238 780.278 340.533C780.863 340.824 781.309 341.238 781.615 341.774C781.923 342.307 782.078 342.934 782.078 343.654C782.078 344.379 781.922 345.002 781.609 345.524C781.297 346.043 780.844 346.44 780.251 346.717C779.661 346.994 778.948 347.133 778.11 347.133H775.228V345.279H777.737C778.177 345.279 778.543 345.219 778.834 345.098C779.125 344.977 779.342 344.796 779.484 344.555C779.629 344.313 779.702 344.013 779.702 343.654C779.702 343.292 779.629 342.987 779.484 342.738C779.342 342.49 779.123 342.301 778.829 342.174C778.537 342.042 778.17 341.977 777.726 341.977H776.171V351H773.864ZM779.756 346.036L782.467 351H779.921L777.268 346.036H779.756ZM783.708 340.091H786.552L789.557 347.42H789.684L792.689 340.091H795.533V351H793.296V343.9H793.205L790.382 350.947H788.859L786.036 343.873H785.945V351H783.708V340.091Z" fill="black"/>
<path id="HARWAY AV &#38; STILWELL AV EXIT" d="M27.6708 19V8.09091H29.9773V12.592H34.6594V8.09091H36.9606V19H34.6594V14.4936H29.9773V19H27.6708ZM40.7425 19H38.271L42.0369 8.09091H45.0092L48.7699 19H46.2983L43.5657 10.5838H43.4805L40.7425 19ZM40.5881 14.712H46.4261V16.5124H40.5881V14.712ZM50.0829 19V8.09091H54.3869C55.2108 8.09091 55.9139 8.23828 56.4963 8.53303C57.0822 8.82422 57.5279 9.23793 57.8333 9.77415C58.1422 10.3068 58.2967 10.9336 58.2967 11.6545C58.2967 12.3789 58.1404 13.0021 57.8279 13.5241C57.5154 14.0426 57.0627 14.4403 56.4696 14.7173C55.8801 14.9943 55.1664 15.1328 54.3283 15.1328H51.4466V13.2791H53.9554C54.3958 13.2791 54.7615 13.2187 55.0527 13.098C55.3439 12.9773 55.5605 12.7962 55.7026 12.5547C55.8482 12.3132 55.921 12.0131 55.921 11.6545C55.921 11.2923 55.8482 10.9869 55.7026 10.7383C55.5605 10.4897 55.3422 10.3015 55.0474 10.1737C54.7562 10.0423 54.3887 9.97656 53.9448 9.97656H52.3894V19H50.0829ZM55.9743 14.0355L58.6855 19H56.1394L53.4867 14.0355H55.9743ZM62.3823 19L59.2608 8.09091H61.7804L63.5861 15.6708H63.6767L65.6689 8.09091H67.8262L69.813 15.6868H69.9089L71.7147 8.09091H74.2342L71.1127 19H68.8649L66.7875 11.8675H66.7022L64.6301 19H62.3823ZM76.2504 19H73.7788L77.5447 8.09091H80.517L84.2777 19H81.8061L79.0735 10.5838H78.9883L76.2504 19ZM76.0959 14.712H81.9339V16.5124H76.0959V14.712ZM83.8382 8.09091H86.4217L88.9093 12.7891H89.0158L91.5034 8.09091H94.0868L90.1078 15.1435V19H87.8173V15.1435L83.8382 8.09091ZM100.699 19H98.227L101.993 8.09091H104.965L108.726 19H106.254L103.522 10.5838H103.437L100.699 19ZM100.544 14.712H106.382V16.5124H100.544V14.712ZM110.648 8.09091L113.284 16.3793H113.385L116.028 8.09091H118.584L114.824 19H111.851L108.085 8.09091H110.648ZM126.672 19.1598C125.919 19.1598 125.269 19.0249 124.722 18.755C124.175 18.4851 123.754 18.1193 123.46 17.6577C123.168 17.1925 123.023 16.674 123.023 16.1023C123.023 15.6761 123.108 15.2979 123.278 14.9677C123.449 14.6374 123.687 14.3338 123.992 14.0568C124.298 13.7763 124.653 13.4975 125.058 13.2205L127.172 11.8303C127.446 11.6562 127.646 11.4734 127.774 11.2816C127.902 11.0863 127.966 10.875 127.966 10.6477C127.966 10.4311 127.879 10.2305 127.705 10.0458C127.531 9.86115 127.284 9.7706 126.965 9.77415C126.752 9.77415 126.567 9.82209 126.411 9.91797C126.254 10.0103 126.132 10.1328 126.043 10.2855C125.958 10.4347 125.915 10.6016 125.915 10.7862C125.915 11.0135 125.979 11.2443 126.107 11.4787C126.235 11.7131 126.405 11.9616 126.618 12.2244C126.831 12.4837 127.064 12.7642 127.316 13.0661L132.488 19H130.123L125.809 14.1953C125.525 13.8722 125.241 13.5348 124.956 13.1832C124.676 12.8281 124.441 12.4517 124.253 12.054C124.065 11.6527 123.971 11.2177 123.971 10.7489C123.971 10.2198 124.093 9.74396 124.339 9.32138C124.587 8.89879 124.935 8.56499 125.383 8.31996C125.83 8.07138 126.352 7.94709 126.949 7.94709C127.531 7.94709 128.033 8.06605 128.456 8.30398C128.882 8.53835 129.209 8.85085 129.436 9.24148C129.667 9.62855 129.782 10.0547 129.782 10.5199C129.782 11.0348 129.655 11.5018 129.399 11.9208C129.147 12.3363 128.792 12.7092 128.334 13.0394L126.107 14.6428C125.805 14.8629 125.581 15.0884 125.436 15.3192C125.294 15.5465 125.223 15.7649 125.223 15.9744C125.223 16.2337 125.287 16.4663 125.415 16.6722C125.542 16.8782 125.723 17.0415 125.958 17.1623C126.192 17.2795 126.467 17.3381 126.783 17.3381C127.167 17.3381 127.545 17.2511 127.918 17.0771C128.294 16.8995 128.635 16.6491 128.941 16.326C129.25 15.9993 129.497 15.6122 129.681 15.1648C129.866 14.7173 129.958 14.2219 129.958 13.6786H131.839C131.839 14.3462 131.766 14.9482 131.62 15.4844C131.475 16.017 131.272 16.4822 131.013 16.88C130.754 17.2741 130.457 17.5973 130.123 17.8494C130.017 17.9169 129.914 17.9808 129.814 18.0412C129.715 18.1016 129.612 18.1655 129.505 18.233C129.101 18.5597 128.648 18.7958 128.147 18.9414C127.65 19.087 127.158 19.1598 126.672 19.1598ZM7.01651 29.2283C6.9739 28.7987 6.79102 28.4648 6.46786 28.2269C6.14471 27.989 5.70614 27.87 5.15217 27.87C4.77575 27.87 4.45792 27.9233 4.19869 28.0298C3.93945 28.1328 3.74059 28.2766 3.6021 28.4613C3.46715 28.646 3.39968 28.8555 3.39968 29.0898C3.39258 29.2852 3.43342 29.4556 3.52219 29.6012C3.61452 29.7468 3.74059 29.8729 3.90039 29.9794C4.06019 30.0824 4.24485 30.1729 4.45437 30.2511C4.66388 30.3256 4.88761 30.3896 5.12553 30.4428L6.10565 30.6772C6.5815 30.7837 7.01829 30.9258 7.41602 31.1033C7.81374 31.2809 8.1582 31.4993 8.4494 31.7585C8.74059 32.0178 8.96609 32.3232 9.12589 32.6747C9.28924 33.0263 9.37269 33.4293 9.37624 33.8839C9.37269 34.5515 9.20224 35.1303 8.86488 35.6204C8.53107 36.1069 8.04812 36.4851 7.41602 36.755C6.78746 37.0213 6.0293 37.1545 5.14151 37.1545C4.26083 37.1545 3.49379 37.0195 2.84038 36.7496C2.19052 36.4798 1.68271 36.0803 1.31694 35.5511C0.954723 35.0185 0.764737 34.3597 0.746982 33.5749H2.97887C3.00373 33.9407 3.10849 34.2461 3.29315 34.4911C3.48136 34.7326 3.73171 34.9155 4.04421 35.0398C4.36026 35.1605 4.71715 35.2209 5.11488 35.2209C5.5055 35.2209 5.84464 35.1641 6.13228 35.0504C6.42347 34.9368 6.64897 34.7788 6.80877 34.5763C6.96857 34.3739 7.04847 34.1413 7.04847 33.8786C7.04847 33.6335 6.97567 33.4276 6.83008 33.2607C6.68803 33.0937 6.47852 32.9517 6.20153 32.8345C5.92809 32.7173 5.59251 32.6108 5.19478 32.5149L4.00692 32.2166C3.08718 31.9929 2.36097 31.6431 1.8283 31.1673C1.29563 30.6914 1.03107 30.0504 1.03462 29.2443C1.03107 28.5838 1.20685 28.0067 1.56197 27.5131C1.92063 27.0195 2.41246 26.6342 3.03746 26.3572C3.66246 26.0803 4.37269 25.9418 5.16815 25.9418C5.97781 25.9418 6.68448 26.0803 7.28817 26.3572C7.89542 26.6342 8.36772 27.0195 8.70508 27.5131C9.04244 28.0067 9.21644 28.5785 9.2271 29.2283H7.01651ZM10.5122 27.9925V26.0909H19.4717V27.9925H16.1318V37H13.852V27.9925H10.5122ZM23.2536 26.0909V37H20.9472V26.0909H23.2536ZM25.1513 37V26.0909H27.4577V35.0984H32.1346V37H25.1513ZM35.5024 37L32.3809 26.0909H34.9005L36.7062 33.6708H36.7968L38.789 26.0909H40.9463L42.9332 33.6868H43.029L44.8348 26.0909H47.3543L44.2329 37H41.985L39.9076 29.8675H39.8224L37.7503 37H35.5024ZM48.5888 37V26.0909H55.9396V27.9925H50.8952V30.592H55.5614V32.4936H50.8952V35.0984H55.9609V37H48.5888ZM57.7733 37V26.0909H60.0798V35.0984H64.7567V37H57.7733ZM66.2841 37V26.0909H68.5906V35.0984H73.2674V37H66.2841ZM80.1468 37H77.6752L81.4412 26.0909H84.4135L88.1742 37H85.7026L82.97 28.5838H82.8848L80.1468 37ZM79.9924 32.712H85.8304V34.5124H79.9924V32.712ZM90.0958 26.0909L92.7325 34.3793H92.8337L95.4758 26.0909H98.0326L94.2719 37H91.2996L87.5336 26.0909H90.0958ZM102.817 37V26.0909H110.168V27.9925H105.124V30.592H109.79V32.4936H105.124V35.0984H110.189V37H102.817ZM114.165 26.0909L116.364 29.8089H116.45L118.66 26.0909H121.265L117.936 31.5455L121.34 37H118.687L116.45 33.2766H116.364L114.127 37H111.485L114.9 31.5455L111.549 26.0909H114.165ZM125.031 26.0909V37H122.725V26.0909H125.031ZM126.513 27.9925V26.0909H135.473V27.9925H132.133V37H129.853V27.9925H126.513Z" fill="black"/>
<path id="HARWAY AV &#38; STILWELL AV EXIT_2" d="M27.6708 388V377.091H29.9773V381.592H34.6594V377.091H36.9606V388H34.6594V383.494H29.9773V388H27.6708ZM40.7425 388H38.271L42.0369 377.091H45.0092L48.7699 388H46.2983L43.5657 379.584H43.4805L40.7425 388ZM40.5881 383.712H46.4261V385.512H40.5881V383.712ZM50.0829 388V377.091H54.3869C55.2108 377.091 55.9139 377.238 56.4963 377.533C57.0822 377.824 57.5279 378.238 57.8333 378.774C58.1422 379.307 58.2967 379.934 58.2967 380.654C58.2967 381.379 58.1404 382.002 57.8279 382.524C57.5154 383.043 57.0627 383.44 56.4696 383.717C55.8801 383.994 55.1664 384.133 54.3283 384.133H51.4466V382.279H53.9554C54.3958 382.279 54.7615 382.219 55.0527 382.098C55.3439 381.977 55.5605 381.796 55.7026 381.555C55.8482 381.313 55.921 381.013 55.921 380.654C55.921 380.292 55.8482 379.987 55.7026 379.738C55.5605 379.49 55.3422 379.301 55.0474 379.174C54.7562 379.042 54.3887 378.977 53.9448 378.977H52.3894V388H50.0829ZM55.9743 383.036L58.6855 388H56.1394L53.4867 383.036H55.9743ZM62.3823 388L59.2608 377.091H61.7804L63.5861 384.671H63.6767L65.6689 377.091H67.8262L69.813 384.687H69.9089L71.7147 377.091H74.2342L71.1127 388H68.8649L66.7875 380.868H66.7022L64.6301 388H62.3823ZM76.2504 388H73.7788L77.5447 377.091H80.517L84.2777 388H81.8061L79.0735 379.584H78.9883L76.2504 388ZM76.0959 383.712H81.9339V385.512H76.0959V383.712ZM83.8382 377.091H86.4217L88.9093 381.789H89.0158L91.5034 377.091H94.0868L90.1078 384.143V388H87.8173V384.143L83.8382 377.091ZM100.699 388H98.227L101.993 377.091H104.965L108.726 388H106.254L103.522 379.584H103.437L100.699 388ZM100.544 383.712H106.382V385.512H100.544V383.712ZM110.648 377.091L113.284 385.379H113.385L116.028 377.091H118.584L114.824 388H111.851L108.085 377.091H110.648ZM126.672 388.16C125.919 388.16 125.269 388.025 124.722 387.755C124.175 387.485 123.754 387.119 123.46 386.658C123.168 386.192 123.023 385.674 123.023 385.102C123.023 384.676 123.108 384.298 123.278 383.968C123.449 383.637 123.687 383.334 123.992 383.057C124.298 382.776 124.653 382.498 125.058 382.221L127.172 380.83C127.446 380.656 127.646 380.473 127.774 380.282C127.902 380.086 127.966 379.875 127.966 379.648C127.966 379.431 127.879 379.23 127.705 379.046C127.531 378.861 127.284 378.771 126.965 378.774C126.752 378.774 126.567 378.822 126.411 378.918C126.254 379.01 126.132 379.133 126.043 379.286C125.958 379.435 125.915 379.602 125.915 379.786C125.915 380.013 125.979 380.244 126.107 380.479C126.235 380.713 126.405 380.962 126.618 381.224C126.831 381.484 127.064 381.764 127.316 382.066L132.488 388H130.123L125.809 383.195C125.525 382.872 125.241 382.535 124.956 382.183C124.676 381.828 124.441 381.452 124.253 381.054C124.065 380.653 123.971 380.218 123.971 379.749C123.971 379.22 124.093 378.744 124.339 378.321C124.587 377.899 124.935 377.565 125.383 377.32C125.83 377.071 126.352 376.947 126.949 376.947C127.531 376.947 128.033 377.066 128.456 377.304C128.882 377.538 129.209 377.851 129.436 378.241C129.667 378.629 129.782 379.055 129.782 379.52C129.782 380.035 129.655 380.502 129.399 380.921C129.147 381.336 128.792 381.709 128.334 382.039L126.107 383.643C125.805 383.863 125.581 384.088 125.436 384.319C125.294 384.547 125.223 384.765 125.223 384.974C125.223 385.234 125.287 385.466 125.415 385.672C125.542 385.878 125.723 386.042 125.958 386.162C126.192 386.279 126.467 386.338 126.783 386.338C127.167 386.338 127.545 386.251 127.918 386.077C128.294 385.9 128.635 385.649 128.941 385.326C129.25 384.999 129.497 384.612 129.681 384.165C129.866 383.717 129.958 383.222 129.958 382.679H131.839C131.839 383.346 131.766 383.948 131.62 384.484C131.475 385.017 131.272 385.482 131.013 385.88C130.754 386.274 130.457 386.597 130.123 386.849C130.017 386.917 129.914 386.981 129.814 387.041C129.715 387.102 129.612 387.165 129.505 387.233C129.101 387.56 128.648 387.796 128.147 387.941C127.65 388.087 127.158 388.16 126.672 388.16ZM7.01651 398.228C6.9739 397.799 6.79102 397.465 6.46786 397.227C6.14471 396.989 5.70614 396.87 5.15217 396.87C4.77575 396.87 4.45792 396.923 4.19869 397.03C3.93945 397.133 3.74059 397.277 3.6021 397.461C3.46715 397.646 3.39968 397.855 3.39968 398.09C3.39258 398.285 3.43342 398.456 3.52219 398.601C3.61452 398.747 3.74059 398.873 3.90039 398.979C4.06019 399.082 4.24485 399.173 4.45437 399.251C4.66388 399.326 4.88761 399.39 5.12553 399.443L6.10565 399.677C6.5815 399.784 7.01829 399.926 7.41602 400.103C7.81374 400.281 8.1582 400.499 8.4494 400.759C8.74059 401.018 8.96609 401.323 9.12589 401.675C9.28924 402.026 9.37269 402.429 9.37624 402.884C9.37269 403.551 9.20224 404.13 8.86488 404.62C8.53107 405.107 8.04812 405.485 7.41602 405.755C6.78746 406.021 6.0293 406.154 5.14151 406.154C4.26083 406.154 3.49379 406.02 2.84038 405.75C2.19052 405.48 1.68271 405.08 1.31694 404.551C0.954723 404.018 0.764737 403.36 0.746982 402.575H2.97887C3.00373 402.941 3.10849 403.246 3.29315 403.491C3.48136 403.733 3.73171 403.915 4.04421 404.04C4.36026 404.161 4.71715 404.221 5.11488 404.221C5.5055 404.221 5.84464 404.164 6.13228 404.05C6.42347 403.937 6.64897 403.779 6.80877 403.576C6.96857 403.374 7.04847 403.141 7.04847 402.879C7.04847 402.634 6.97567 402.428 6.83008 402.261C6.68803 402.094 6.47852 401.952 6.20153 401.835C5.92809 401.717 5.59251 401.611 5.19478 401.515L4.00692 401.217C3.08718 400.993 2.36097 400.643 1.8283 400.167C1.29563 399.691 1.03107 399.05 1.03462 398.244C1.03107 397.584 1.20685 397.007 1.56197 396.513C1.92063 396.02 2.41246 395.634 3.03746 395.357C3.66246 395.08 4.37269 394.942 5.16815 394.942C5.97781 394.942 6.68448 395.08 7.28817 395.357C7.89542 395.634 8.36772 396.02 8.70508 396.513C9.04244 397.007 9.21644 397.578 9.2271 398.228H7.01651ZM10.5122 396.993V395.091H19.4717V396.993H16.1318V406H13.852V396.993H10.5122ZM23.2536 395.091V406H20.9472V395.091H23.2536ZM25.1513 406V395.091H27.4577V404.098H32.1346V406H25.1513ZM35.5024 406L32.3809 395.091H34.9005L36.7062 402.671H36.7968L38.789 395.091H40.9463L42.9332 402.687H43.029L44.8348 395.091H47.3543L44.2329 406H41.985L39.9076 398.868H39.8224L37.7503 406H35.5024ZM48.5888 406V395.091H55.9396V396.993H50.8952V399.592H55.5614V401.494H50.8952V404.098H55.9609V406H48.5888ZM57.7733 406V395.091H60.0798V404.098H64.7567V406H57.7733ZM66.2841 406V395.091H68.5906V404.098H73.2674V406H66.2841ZM80.1468 406H77.6752L81.4412 395.091H84.4135L88.1742 406H85.7026L82.97 397.584H82.8848L80.1468 406ZM79.9924 401.712H85.8304V403.512H79.9924V401.712ZM90.0958 395.091L92.7325 403.379H92.8337L95.4758 395.091H98.0326L94.2719 406H91.2996L87.5336 395.091H90.0958ZM102.817 406V395.091H110.168V396.993H105.124V399.592H109.79V401.494H105.124V404.098H110.189V406H102.817ZM114.165 395.091L116.364 398.809H116.45L118.66 395.091H121.265L117.936 400.545L121.34 406H118.687L116.45 402.277H116.364L114.127 406H111.485L114.9 400.545L111.549 395.091H114.165ZM125.031 395.091V406H122.725V395.091H125.031ZM126.513 396.993V395.091H135.473V396.993H132.133V406H129.853V396.993H126.513Z" fill="black"/>
<path id="BAY 50 ST &#38; STILLWELL AV EXIT" d="M678.948 19V8.09091H683.316C684.119 8.09091 684.788 8.20987 685.324 8.4478C685.86 8.68572 686.263 9.01598 686.533 9.43857C686.803 9.8576 686.938 10.3406 686.938 10.8874C686.938 11.3136 686.853 11.6882 686.683 12.0114C686.512 12.331 686.278 12.5937 685.979 12.7997C685.685 13.0021 685.347 13.146 684.967 13.2312V13.3377C685.383 13.3555 685.772 13.4727 686.134 13.6893C686.5 13.9059 686.796 14.2095 687.023 14.6001C687.251 14.9872 687.364 15.4489 687.364 15.9851C687.364 16.5639 687.221 17.0806 686.933 17.5352C686.649 17.9862 686.228 18.343 685.67 18.6058C685.113 18.8686 684.426 19 683.609 19H678.948ZM681.255 17.1143H683.135C683.778 17.1143 684.246 16.9918 684.541 16.7468C684.836 16.4982 684.983 16.168 684.983 15.756C684.983 15.4542 684.911 15.1879 684.765 14.957C684.619 14.7262 684.412 14.5451 684.142 14.4137C683.875 14.2823 683.558 14.2166 683.188 14.2166H681.255V17.1143ZM681.255 12.6559H682.964C683.281 12.6559 683.561 12.6009 683.806 12.4908C684.055 12.3771 684.25 12.2173 684.392 12.0114C684.538 11.8054 684.61 11.5586 684.61 11.271C684.61 10.8768 684.47 10.5589 684.19 10.3175C683.913 10.076 683.518 9.95526 683.007 9.95526H681.255V12.6559ZM690.745 19H688.274L692.04 8.09091H695.012L698.773 19H696.301L693.569 10.5838H693.483L690.745 19ZM690.591 14.712H696.429V16.5124H690.591V14.712ZM698.333 8.09091H700.917L703.404 12.7891H703.511L705.998 8.09091H708.582L704.603 15.1435V19H702.312V15.1435L698.333 8.09091ZM717.234 19.1491C716.481 19.1491 715.81 19.0107 715.22 18.7337C714.634 18.4567 714.169 18.0749 713.825 17.5884C713.48 17.1019 713.301 16.5444 713.287 15.9158H715.524C715.549 16.3384 715.726 16.6811 716.057 16.9439C716.387 17.2067 716.779 17.3381 717.234 17.3381C717.596 17.3381 717.916 17.2582 718.193 17.0984C718.473 16.935 718.692 16.7095 718.848 16.4219C719.008 16.1307 719.088 15.7969 719.088 15.4205C719.088 15.0369 719.006 14.6996 718.843 14.4084C718.683 14.1172 718.461 13.8899 718.177 13.7266C717.893 13.5632 717.568 13.4798 717.202 13.4762C716.882 13.4762 716.572 13.5419 716.27 13.6733C715.971 13.8047 715.739 13.984 715.572 14.2113L713.521 13.8438L714.038 8.09091H720.707V9.97656H715.939L715.657 12.7092H715.721C715.913 12.4393 716.202 12.2156 716.589 12.038C716.976 11.8604 717.41 11.7717 717.889 11.7717C718.546 11.7717 719.132 11.9261 719.647 12.2351C720.162 12.544 720.568 12.9684 720.867 13.5082C721.165 14.0444 721.312 14.6623 721.309 15.3619C721.312 16.0969 721.142 16.7504 720.797 17.3221C720.456 17.8903 719.979 18.3377 719.365 18.6644C718.754 18.9876 718.044 19.1491 717.234 19.1491ZM727.195 19.2397C726.279 19.2362 725.49 19.0107 724.83 18.5632C724.173 18.1158 723.667 17.4677 723.312 16.619C722.96 15.7702 722.786 14.7493 722.79 13.5561C722.79 12.3665 722.965 11.3526 723.317 10.5146C723.672 9.67649 724.178 9.03906 724.835 8.60227C725.496 8.16193 726.282 7.94176 727.195 7.94176C728.107 7.94176 728.892 8.16193 729.549 8.60227C730.21 9.04261 730.718 9.68182 731.073 10.5199C731.428 11.3544 731.604 12.3665 731.6 13.5561C731.6 14.7528 731.422 15.7756 731.067 16.6243C730.716 17.473 730.211 18.1211 729.555 18.5685C728.898 19.016 728.111 19.2397 727.195 19.2397ZM727.195 17.3274C727.82 17.3274 728.319 17.0131 728.692 16.3846C729.064 15.756 729.249 14.8132 729.246 13.5561C729.246 12.7287 729.16 12.0398 728.99 11.4893C728.823 10.9389 728.585 10.5252 728.276 10.2482C727.971 9.97124 727.61 9.83274 727.195 9.83274C726.573 9.83274 726.076 10.1435 725.703 10.7649C725.33 11.3864 725.142 12.3168 725.139 13.5561C725.139 14.3942 725.222 15.0938 725.389 15.6548C725.559 16.2124 725.799 16.6314 726.108 16.9119C726.417 17.1889 726.779 17.3274 727.195 17.3274ZM742.698 11.2283C742.656 10.7987 742.473 10.4648 742.15 10.2269C741.826 9.98899 741.388 9.87003 740.834 9.87003C740.457 9.87003 740.14 9.9233 739.88 10.0298C739.621 10.1328 739.422 10.2766 739.284 10.4613C739.149 10.646 739.081 10.8555 739.081 11.0898C739.074 11.2852 739.115 11.4556 739.204 11.6012C739.296 11.7468 739.422 11.8729 739.582 11.9794C739.742 12.0824 739.926 12.1729 740.136 12.2511C740.346 12.3256 740.569 12.3896 740.807 12.4428L741.787 12.6772C742.263 12.7837 742.7 12.9258 743.098 13.1033C743.495 13.2809 743.84 13.4993 744.131 13.7585C744.422 14.0178 744.648 14.3232 744.808 14.6747C744.971 15.0263 745.054 15.4293 745.058 15.8839C745.054 16.5515 744.884 17.1303 744.547 17.6204C744.213 18.1069 743.73 18.4851 743.098 18.755C742.469 19.0213 741.711 19.1545 740.823 19.1545C739.942 19.1545 739.175 19.0195 738.522 18.7496C737.872 18.4798 737.364 18.0803 736.999 17.5511C736.636 17.0185 736.446 16.3597 736.429 15.5749H738.661C738.685 15.9407 738.79 16.2461 738.975 16.4911C739.163 16.7326 739.413 16.9155 739.726 17.0398C740.042 17.1605 740.399 17.2209 740.797 17.2209C741.187 17.2209 741.526 17.1641 741.814 17.0504C742.105 16.9368 742.331 16.7788 742.49 16.5763C742.65 16.3739 742.73 16.1413 742.73 15.8786C742.73 15.6335 742.657 15.4276 742.512 15.2607C742.37 15.0937 742.16 14.9517 741.883 14.8345C741.61 14.7173 741.274 14.6108 740.876 14.5149L739.689 14.2166C738.769 13.9929 738.043 13.6431 737.51 13.1673C736.977 12.6914 736.713 12.0504 736.716 11.2443C736.713 10.5838 736.888 10.0067 737.244 9.51314C737.602 9.01953 738.094 8.63423 738.719 8.35724C739.344 8.08026 740.054 7.94176 740.85 7.94176C741.659 7.94176 742.366 8.08026 742.97 8.35724C743.577 8.63423 744.049 9.01953 744.387 9.51314C744.724 10.0067 744.898 10.5785 744.909 11.2283H742.698ZM746.194 9.99254V8.09091H755.153V9.99254H751.813V19H749.534V9.99254H746.194ZM763.403 19.1598C762.65 19.1598 762 19.0249 761.453 18.755C760.907 18.4851 760.486 18.1193 760.191 17.6577C759.9 17.1925 759.754 16.674 759.754 16.1023C759.754 15.6761 759.839 15.2979 760.01 14.9677C760.18 14.6374 760.418 14.3338 760.724 14.0568C761.029 13.7763 761.384 13.4975 761.789 13.2205L763.904 11.8303C764.177 11.6562 764.378 11.4734 764.506 11.2816C764.634 11.0863 764.697 10.875 764.697 10.6477C764.697 10.4311 764.61 10.2305 764.436 10.0458C764.262 9.86115 764.016 9.7706 763.696 9.77415C763.483 9.77415 763.298 9.82209 763.142 9.91797C762.986 10.0103 762.863 10.1328 762.775 10.2855C762.689 10.4347 762.647 10.6016 762.647 10.7862C762.647 11.0135 762.711 11.2443 762.838 11.4787C762.966 11.7131 763.137 11.9616 763.35 12.2244C763.563 12.4837 763.795 12.7642 764.048 13.0661L769.22 19H766.855L762.54 14.1953C762.256 13.8722 761.972 13.5348 761.688 13.1832C761.407 12.8281 761.173 12.4517 760.985 12.054C760.797 11.6527 760.702 11.2177 760.702 10.7489C760.702 10.2198 760.825 9.74396 761.07 9.32138C761.319 8.89879 761.667 8.56499 762.114 8.31996C762.561 8.07138 763.083 7.94709 763.68 7.94709C764.262 7.94709 764.765 8.06605 765.188 8.30398C765.614 8.53835 765.94 8.85085 766.168 9.24148C766.398 9.62855 766.514 10.0547 766.514 10.5199C766.514 11.0348 766.386 11.5018 766.13 11.9208C765.878 12.3363 765.523 12.7092 765.065 13.0394L762.838 14.6428C762.537 14.8629 762.313 15.0884 762.167 15.3192C762.025 15.5465 761.954 15.7649 761.954 15.9744C761.954 16.2337 762.018 16.4663 762.146 16.6722C762.274 16.8782 762.455 17.0415 762.689 17.1623C762.924 17.2795 763.199 17.3381 763.515 17.3381C763.898 17.3381 764.277 17.2511 764.65 17.0771C765.026 16.8995 765.367 16.6491 765.672 16.326C765.981 15.9993 766.228 15.6122 766.413 15.1648C766.597 14.7173 766.69 14.2219 766.69 13.6786H768.57C768.57 14.3462 768.497 14.9482 768.352 15.4844C768.206 16.017 768.004 16.4822 767.744 16.88C767.485 17.2741 767.189 17.5973 766.855 17.8494C766.748 17.9169 766.645 17.9808 766.546 18.0412C766.446 18.1016 766.343 18.1655 766.237 18.233C765.832 18.5597 765.379 18.7958 764.879 18.9414C764.381 19.087 763.89 19.1598 763.403 19.1598ZM684.866 29.2283C684.824 28.7987 684.641 28.4648 684.317 28.2269C683.994 27.989 683.556 27.87 683.002 27.87C682.625 27.87 682.308 27.9233 682.048 28.0298C681.789 28.1328 681.59 28.2766 681.452 28.4613C681.317 28.646 681.249 28.8555 681.249 29.0898C681.242 29.2852 681.283 29.4556 681.372 29.6012C681.464 29.7468 681.59 29.8729 681.75 29.9794C681.91 30.0824 682.094 30.1729 682.304 30.2511C682.513 30.3256 682.737 30.3896 682.975 30.4428L683.955 30.6772C684.431 30.7837 684.868 30.9258 685.266 31.1033C685.663 31.2809 686.008 31.4993 686.299 31.7585C686.59 32.0178 686.816 32.3232 686.975 32.6747C687.139 33.0263 687.222 33.4293 687.226 33.8839C687.222 34.5515 687.052 35.1303 686.714 35.6204C686.381 36.1069 685.898 36.4851 685.266 36.755C684.637 37.0213 683.879 37.1545 682.991 37.1545C682.11 37.1545 681.343 37.0195 680.69 36.7496C680.04 36.4798 679.532 36.0803 679.167 35.5511C678.804 35.0185 678.614 34.3597 678.597 33.5749H680.828C680.853 33.9407 680.958 34.2461 681.143 34.4911C681.331 34.7326 681.581 34.9155 681.894 35.0398C682.21 35.1605 682.567 35.2209 682.964 35.2209C683.355 35.2209 683.694 35.1641 683.982 35.0504C684.273 34.9368 684.499 34.7788 684.658 34.5763C684.818 34.3739 684.898 34.1413 684.898 33.8786C684.898 33.6335 684.825 33.4276 684.68 33.2607C684.538 33.0937 684.328 32.9517 684.051 32.8345C683.778 32.7173 683.442 32.6108 683.044 32.5149L681.857 32.2166C680.937 31.9929 680.211 31.6431 679.678 31.1673C679.145 30.6914 678.881 30.0504 678.884 29.2443C678.881 28.5838 679.056 28.0067 679.412 27.5131C679.77 27.0195 680.262 26.6342 680.887 26.3572C681.512 26.0803 682.222 25.9418 683.018 25.9418C683.827 25.9418 684.534 26.0803 685.138 26.3572C685.745 26.6342 686.217 27.0195 686.555 27.5131C686.892 28.0067 687.066 28.5785 687.077 29.2283H684.866ZM688.362 27.9925V26.0909H697.321V27.9925H693.981V37H691.702V27.9925H688.362ZM701.103 26.0909V37H698.797V26.0909H701.103ZM703.001 37V26.0909H705.307V35.0984H709.984V37H703.001ZM711.512 37V26.0909H713.818V35.0984H718.495V37H711.512ZM721.863 37L718.741 26.0909H721.261L723.067 33.6708H723.157L725.149 26.0909H727.307L729.294 33.6868H729.389L731.195 26.0909H733.715L730.593 37H728.345L726.268 29.8675H726.183L724.111 37H721.863ZM734.949 37V26.0909H742.3V27.9925H737.256V30.592H741.922V32.4936H737.256V35.0984H742.321V37H734.949ZM744.134 37V26.0909H746.44V35.0984H751.117V37H744.134ZM752.644 37V26.0909H754.951V35.0984H759.628V37H752.644ZM766.507 37H764.036L767.802 26.0909H770.774L774.535 37H772.063L769.33 28.5838H769.245L766.507 37ZM766.353 32.712H772.191V34.5124H766.353V32.712ZM776.456 26.0909L779.093 34.3793H779.194L781.836 26.0909H784.393L780.632 37H777.66L773.894 26.0909H776.456ZM789.178 37V26.0909H796.528V27.9925H791.484V30.592H796.15V32.4936H791.484V35.0984H796.55V37H789.178ZM800.525 26.0909L802.725 29.8089H802.81L805.021 26.0909H807.625L804.296 31.5455L807.7 37H805.047L802.81 33.2766H802.725L800.488 37H797.846L801.26 31.5455L797.909 26.0909H800.525ZM811.391 26.0909V37H809.085V26.0909H811.391ZM812.873 27.9925V26.0909H821.833V27.9925H818.493V37H816.213V27.9925H812.873Z" fill="black"/>
<path id="BAY 50 ST &#38; STILLWELL AV EXIT_2" d="M674.948 389V378.091H679.316C680.119 378.091 680.788 378.21 681.324 378.448C681.86 378.686 682.263 379.016 682.533 379.439C682.803 379.858 682.938 380.341 682.938 380.887C682.938 381.314 682.853 381.688 682.683 382.011C682.512 382.331 682.278 382.594 681.979 382.8C681.685 383.002 681.347 383.146 680.967 383.231V383.338C681.383 383.355 681.772 383.473 682.134 383.689C682.5 383.906 682.796 384.21 683.023 384.6C683.251 384.987 683.364 385.449 683.364 385.985C683.364 386.564 683.221 387.081 682.933 387.535C682.649 387.986 682.228 388.343 681.67 388.606C681.113 388.869 680.426 389 679.609 389H674.948ZM677.255 387.114H679.135C679.778 387.114 680.246 386.992 680.541 386.747C680.836 386.498 680.983 386.168 680.983 385.756C680.983 385.454 680.911 385.188 680.765 384.957C680.619 384.726 680.412 384.545 680.142 384.414C679.875 384.282 679.558 384.217 679.188 384.217H677.255V387.114ZM677.255 382.656H678.964C679.281 382.656 679.561 382.601 679.806 382.491C680.055 382.377 680.25 382.217 680.392 382.011C680.538 381.805 680.61 381.559 680.61 381.271C680.61 380.877 680.47 380.559 680.19 380.317C679.913 380.076 679.518 379.955 679.007 379.955H677.255V382.656ZM686.745 389H684.274L688.04 378.091H691.012L694.773 389H692.301L689.569 380.584H689.483L686.745 389ZM686.591 384.712H692.429V386.512H686.591V384.712ZM694.333 378.091H696.917L699.404 382.789H699.511L701.998 378.091H704.582L700.603 385.143V389H698.312V385.143L694.333 378.091ZM713.234 389.149C712.481 389.149 711.81 389.011 711.22 388.734C710.634 388.457 710.169 388.075 709.825 387.588C709.48 387.102 709.301 386.544 709.287 385.916H711.524C711.549 386.338 711.726 386.681 712.057 386.944C712.387 387.207 712.779 387.338 713.234 387.338C713.596 387.338 713.916 387.258 714.193 387.098C714.473 386.935 714.692 386.71 714.848 386.422C715.008 386.131 715.088 385.797 715.088 385.42C715.088 385.037 715.006 384.7 714.843 384.408C714.683 384.117 714.461 383.89 714.177 383.727C713.893 383.563 713.568 383.48 713.202 383.476C712.882 383.476 712.572 383.542 712.27 383.673C711.971 383.805 711.739 383.984 711.572 384.211L709.521 383.844L710.038 378.091H716.707V379.977H711.939L711.657 382.709H711.721C711.913 382.439 712.202 382.216 712.589 382.038C712.976 381.86 713.41 381.772 713.889 381.772C714.546 381.772 715.132 381.926 715.647 382.235C716.162 382.544 716.568 382.968 716.867 383.508C717.165 384.044 717.312 384.662 717.309 385.362C717.312 386.097 717.142 386.75 716.797 387.322C716.456 387.89 715.979 388.338 715.365 388.664C714.754 388.988 714.044 389.149 713.234 389.149ZM723.195 389.24C722.279 389.236 721.49 389.011 720.83 388.563C720.173 388.116 719.667 387.468 719.312 386.619C718.96 385.77 718.786 384.749 718.79 383.556C718.79 382.366 718.965 381.353 719.317 380.515C719.672 379.676 720.178 379.039 720.835 378.602C721.496 378.162 722.282 377.942 723.195 377.942C724.107 377.942 724.892 378.162 725.549 378.602C726.21 379.043 726.718 379.682 727.073 380.52C727.428 381.354 727.604 382.366 727.6 383.556C727.6 384.753 727.422 385.776 727.067 386.624C726.716 387.473 726.211 388.121 725.555 388.569C724.898 389.016 724.111 389.24 723.195 389.24ZM723.195 387.327C723.82 387.327 724.319 387.013 724.692 386.385C725.064 385.756 725.249 384.813 725.246 383.556C725.246 382.729 725.16 382.04 724.99 381.489C724.823 380.939 724.585 380.525 724.276 380.248C723.971 379.971 723.61 379.833 723.195 379.833C722.573 379.833 722.076 380.143 721.703 380.765C721.33 381.386 721.142 382.317 721.139 383.556C721.139 384.394 721.222 385.094 721.389 385.655C721.559 386.212 721.799 386.631 722.108 386.912C722.417 387.189 722.779 387.327 723.195 387.327ZM738.698 381.228C738.656 380.799 738.473 380.465 738.15 380.227C737.826 379.989 737.388 379.87 736.834 379.87C736.457 379.87 736.14 379.923 735.88 380.03C735.621 380.133 735.422 380.277 735.284 380.461C735.149 380.646 735.081 380.855 735.081 381.09C735.074 381.285 735.115 381.456 735.204 381.601C735.296 381.747 735.422 381.873 735.582 381.979C735.742 382.082 735.926 382.173 736.136 382.251C736.346 382.326 736.569 382.39 736.807 382.443L737.787 382.677C738.263 382.784 738.7 382.926 739.098 383.103C739.495 383.281 739.84 383.499 740.131 383.759C740.422 384.018 740.648 384.323 740.808 384.675C740.971 385.026 741.054 385.429 741.058 385.884C741.054 386.551 740.884 387.13 740.547 387.62C740.213 388.107 739.73 388.485 739.098 388.755C738.469 389.021 737.711 389.154 736.823 389.154C735.942 389.154 735.175 389.02 734.522 388.75C733.872 388.48 733.364 388.08 732.999 387.551C732.636 387.018 732.446 386.36 732.429 385.575H734.661C734.685 385.941 734.79 386.246 734.975 386.491C735.163 386.733 735.413 386.915 735.726 387.04C736.042 387.161 736.399 387.221 736.797 387.221C737.187 387.221 737.526 387.164 737.814 387.05C738.105 386.937 738.331 386.779 738.49 386.576C738.65 386.374 738.73 386.141 738.73 385.879C738.73 385.634 738.657 385.428 738.512 385.261C738.37 385.094 738.16 384.952 737.883 384.835C737.61 384.717 737.274 384.611 736.876 384.515L735.689 384.217C734.769 383.993 734.043 383.643 733.51 383.167C732.977 382.691 732.713 382.05 732.716 381.244C732.713 380.584 732.888 380.007 733.244 379.513C733.602 379.02 734.094 378.634 734.719 378.357C735.344 378.08 736.054 377.942 736.85 377.942C737.659 377.942 738.366 378.08 738.97 378.357C739.577 378.634 740.049 379.02 740.387 379.513C740.724 380.007 740.898 380.578 740.909 381.228H738.698ZM742.194 379.993V378.091H751.153V379.993H747.813V389H745.534V379.993H742.194ZM759.403 389.16C758.65 389.16 758 389.025 757.453 388.755C756.907 388.485 756.486 388.119 756.191 387.658C755.9 387.192 755.754 386.674 755.754 386.102C755.754 385.676 755.839 385.298 756.01 384.968C756.18 384.637 756.418 384.334 756.724 384.057C757.029 383.776 757.384 383.498 757.789 383.221L759.904 381.83C760.177 381.656 760.378 381.473 760.506 381.282C760.634 381.086 760.697 380.875 760.697 380.648C760.697 380.431 760.61 380.23 760.436 380.046C760.262 379.861 760.016 379.771 759.696 379.774C759.483 379.774 759.298 379.822 759.142 379.918C758.986 380.01 758.863 380.133 758.775 380.286C758.689 380.435 758.647 380.602 758.647 380.786C758.647 381.013 758.711 381.244 758.838 381.479C758.966 381.713 759.137 381.962 759.35 382.224C759.563 382.484 759.795 382.764 760.048 383.066L765.22 389H762.855L758.54 384.195C758.256 383.872 757.972 383.535 757.688 383.183C757.407 382.828 757.173 382.452 756.985 382.054C756.797 381.653 756.702 381.218 756.702 380.749C756.702 380.22 756.825 379.744 757.07 379.321C757.319 378.899 757.667 378.565 758.114 378.32C758.561 378.071 759.083 377.947 759.68 377.947C760.262 377.947 760.765 378.066 761.188 378.304C761.614 378.538 761.94 378.851 762.168 379.241C762.398 379.629 762.514 380.055 762.514 380.52C762.514 381.035 762.386 381.502 762.13 381.921C761.878 382.336 761.523 382.709 761.065 383.039L758.838 384.643C758.537 384.863 758.313 385.088 758.167 385.319C758.025 385.547 757.954 385.765 757.954 385.974C757.954 386.234 758.018 386.466 758.146 386.672C758.274 386.878 758.455 387.042 758.689 387.162C758.924 387.279 759.199 387.338 759.515 387.338C759.898 387.338 760.277 387.251 760.65 387.077C761.026 386.9 761.367 386.649 761.672 386.326C761.981 385.999 762.228 385.612 762.413 385.165C762.597 384.717 762.69 384.222 762.69 383.679H764.57C764.57 384.346 764.497 384.948 764.352 385.484C764.206 386.017 764.004 386.482 763.744 386.88C763.485 387.274 763.189 387.597 762.855 387.849C762.748 387.917 762.645 387.981 762.546 388.041C762.446 388.102 762.343 388.165 762.237 388.233C761.832 388.56 761.379 388.796 760.879 388.941C760.381 389.087 759.89 389.16 759.403 389.16ZM680.866 399.228C680.824 398.799 680.641 398.465 680.317 398.227C679.994 397.989 679.556 397.87 679.002 397.87C678.625 397.87 678.308 397.923 678.048 398.03C677.789 398.133 677.59 398.277 677.452 398.461C677.317 398.646 677.249 398.855 677.249 399.09C677.242 399.285 677.283 399.456 677.372 399.601C677.464 399.747 677.59 399.873 677.75 399.979C677.91 400.082 678.094 400.173 678.304 400.251C678.513 400.326 678.737 400.39 678.975 400.443L679.955 400.677C680.431 400.784 680.868 400.926 681.266 401.103C681.663 401.281 682.008 401.499 682.299 401.759C682.59 402.018 682.816 402.323 682.975 402.675C683.139 403.026 683.222 403.429 683.226 403.884C683.222 404.551 683.052 405.13 682.714 405.62C682.381 406.107 681.898 406.485 681.266 406.755C680.637 407.021 679.879 407.154 678.991 407.154C678.11 407.154 677.343 407.02 676.69 406.75C676.04 406.48 675.532 406.08 675.167 405.551C674.804 405.018 674.614 404.36 674.597 403.575H676.828C676.853 403.941 676.958 404.246 677.143 404.491C677.331 404.733 677.581 404.915 677.894 405.04C678.21 405.161 678.567 405.221 678.964 405.221C679.355 405.221 679.694 405.164 679.982 405.05C680.273 404.937 680.499 404.779 680.658 404.576C680.818 404.374 680.898 404.141 680.898 403.879C680.898 403.634 680.825 403.428 680.68 403.261C680.538 403.094 680.328 402.952 680.051 402.835C679.778 402.717 679.442 402.611 679.044 402.515L677.857 402.217C676.937 401.993 676.211 401.643 675.678 401.167C675.145 400.691 674.881 400.05 674.884 399.244C674.881 398.584 675.056 398.007 675.412 397.513C675.77 397.02 676.262 396.634 676.887 396.357C677.512 396.08 678.222 395.942 679.018 395.942C679.827 395.942 680.534 396.08 681.138 396.357C681.745 396.634 682.217 397.02 682.555 397.513C682.892 398.007 683.066 398.578 683.077 399.228H680.866ZM684.362 397.993V396.091H693.321V397.993H689.981V407H687.702V397.993H684.362ZM697.103 396.091V407H694.797V396.091H697.103ZM699.001 407V396.091H701.307V405.098H705.984V407H699.001ZM707.512 407V396.091H709.818V405.098H714.495V407H707.512ZM717.863 407L714.741 396.091H717.261L719.067 403.671H719.157L721.149 396.091H723.307L725.294 403.687H725.389L727.195 396.091H729.715L726.593 407H724.345L722.268 399.868H722.183L720.111 407H717.863ZM730.949 407V396.091H738.3V397.993H733.256V400.592H737.922V402.494H733.256V405.098H738.321V407H730.949ZM740.134 407V396.091H742.44V405.098H747.117V407H740.134ZM748.644 407V396.091H750.951V405.098H755.628V407H748.644ZM762.507 407H760.036L763.802 396.091H766.774L770.535 407H768.063L765.33 398.584H765.245L762.507 407ZM762.353 402.712H768.191V404.512H762.353V402.712ZM772.456 396.091L775.093 404.379H775.194L777.836 396.091H780.393L776.632 407H773.66L769.894 396.091H772.456ZM785.178 407V396.091H792.528V397.993H787.484V400.592H792.15V402.494H787.484V405.098H792.55V407H785.178ZM796.525 396.091L798.725 399.809H798.81L801.021 396.091H803.625L800.296 401.545L803.7 407H801.047L798.81 403.277H798.725L796.488 407H793.846L797.26 401.545L793.909 396.091H796.525ZM807.391 396.091V407H805.085V396.091H807.391ZM808.873 397.993V396.091H817.833V397.993H814.493V407H812.213V397.993H808.873Z" fill="black"/>
<path id="MEZZANINE_2" d="M535.268 433.818H542.094L549.305 451.409H549.612L556.822 433.818H563.648V460H558.279V442.959H558.062L551.286 459.872H547.63L540.854 442.895H540.637V460H535.268V433.818ZM568.209 460V433.818H585.851V438.382H573.745V444.621H584.944V449.185H573.745V455.436H585.902V460H568.209ZM589.971 460V456.714L603.036 438.382H589.945V433.818H609.991V437.104L596.913 455.436H610.016V460H589.971ZM613.983 460V456.714L627.048 438.382H613.957V433.818H634.002V437.104L620.924 455.436H634.028V460H613.983ZM642.788 460H636.857L645.895 433.818H653.028L662.054 460H656.122L649.564 439.801H649.359L642.788 460ZM642.418 449.709H656.429V454.03H642.418V449.709ZM687.104 433.818V460H682.323L670.933 443.521H670.741V460H665.205V433.818H670.063L681.364 450.284H681.594V433.818H687.104ZM697.213 433.818V460H691.678V433.818H697.213ZM723.667 433.818V460H718.886L707.495 443.521H707.303V460H701.768V433.818H706.626L717.927 450.284H718.157V433.818H723.667ZM728.24 460V433.818H745.882V438.382H733.776V444.621H744.975V449.185H733.776V455.436H745.934V460H728.24Z" fill="black"/>
</g>
</svg>
