<svg width="2146" height="236" viewBox="0 0 2146 236" fill="none" xmlns="http://www.w3.org/2000/svg">
<g id="STATION">
<g id="MEZZANINE">
<g id="MEZZANINE BASE">
<rect id="MEZZANINE CENTRAL BOOTH" x="266.5" y="49.5" width="53" height="137" fill="#00FF73"/>
<rect id="MEZZANINE CENTRAL" x="319.5" y="49.5" width="54" height="137" fill="#00FF73"/>
<path id="MEZZANINE DOWNTOWN EXIT" d="M266.5 49.5H319.5V20.5H403.5V0.5H266.5V49.5Z" fill="#00FF73"/>
<path id="MEZZANINE DOWNTOWN" d="M373.5 20.5H319.5V49.5H373.5V43.5H379.5V20.5H373.5Z" fill="#00FF73"/>
<path id="MEZZANINE UPTOWN EXIT" d="M266.5 186.5H319.5V215.5H403.5V235.5H266.5V186.5Z" fill="#00FF73"/>
<path id="MEZZANINE UPTOWN" d="M373.5 215.5H319.5V186.5H373.5V192.5H379.5V215.5H373.5Z" fill="#00FF73"/>
<path id="MEZZANINE BASE OUTLINE" d="M379.5 20.5H319.5V49.5M379.5 20.5V43.5H373.5V49.5M379.5 20.5H403.5V0.5H266.5V49.5M379.5 215.5V192.5H373.5V186.5M379.5 215.5H319.5V186.5M379.5 215.5H403.5V235.5H266.5V186.5M266.5 49.5H319.5M266.5 49.5V186.5M319.5 49.5V186.5M319.5 49.5H373.5M319.5 186.5H266.5M319.5 186.5H373.5M373.5 186.5V49.5" stroke="black"/>
</g>
<g id="TRASH BINS">
<circle id="TRASH BIN" cx="361" cy="125" r="4.5" fill="black" stroke="black"/>
</g>
<g id="EXIT DOORS">
<path id="EXIT DOOR" d="M321.5 157.5L316.5 157.5L316.5 145.5L321.5 145.5L321.5 157.5Z" fill="#FF290C" stroke="black"/>
<path id="EXIT DOOR_2" d="M321.5 101.5L316.5 101.5L316.5 89.5L321.5 89.5L321.5 101.5Z" fill="#FF290C" stroke="black"/>
<path id="EXIT DOOR_3" d="M367.5 17.5L367.5 22.5L355.5 22.5L355.5 17.5L367.5 17.5Z" fill="#FF290C" stroke="black"/>
<path id="EXIT DOOR_4" d="M367.5 213.5L367.5 218.5L355.5 218.5L355.5 213.5L367.5 213.5Z" fill="#FF290C" stroke="black"/>
</g>
<g id="DOORS">
<path id="DOOR" d="M360.5 189L360.5 185L369.5 185L369.5 189L360.5 189Z" fill="#FFEE36" stroke="black"/>
<path id="DOOR_2" d="M351.5 189L351.5 185L360.5 185L360.5 189L351.5 189Z" fill="#FFEE36" stroke="black"/>
<path id="DOOR_3" d="M342.5 189L342.5 185L351.5 185L351.5 189L342.5 189Z" fill="#FFEE36" stroke="black"/>
<path id="DOOR_4" d="M360.5 51.5L360.5 47.5L369.5 47.5L369.5 51.5L360.5 51.5Z" fill="#FFEE36" stroke="black"/>
<path id="DOOR_5" d="M351.5 51.5L351.5 47.5L360.5 47.5L360.5 51.5L351.5 51.5Z" fill="#FFEE36" stroke="black"/>
<path id="DOOR_6" d="M342.5 51.5L342.5 47.5L351.5 47.5L351.5 51.5L342.5 51.5Z" fill="#FFEE36" stroke="black"/>
<path id="DOOR_7" d="M284.5 51.5L284.5 47.5L293.5 47.5L293.5 51.5L284.5 51.5Z" fill="#FFEE36" stroke="black"/>
<path id="DOOR_8" d="M275.5 51.5L275.5 47.5L284.5 47.5L284.5 51.5L275.5 51.5Z" fill="#FFEE36" stroke="black"/>
<path id="DOOR_9" d="M266.5 51.5L266.5 47.5L275.5 47.5L275.5 51.5L266.5 51.5Z" fill="#FFEE36" stroke="black"/>
<path id="DOOR_10" d="M284.5 189L284.5 185L293.5 185L293.5 189L284.5 189Z" fill="#FFEE36" stroke="black"/>
<path id="DOOR_11" d="M275.5 189L275.5 185L284.5 185L284.5 189L275.5 189Z" fill="#FFEE36" stroke="black"/>
<path id="DOOR_12" d="M266.5 189L266.5 185L275.5 185L275.5 189L266.5 189Z" fill="#FFEE36" stroke="black"/>
</g>
<g id="BOOTHS">
<path id="BOOTH" d="M266.5 100.5H284.5V136.5H266.5V100.5Z" fill="#FFB031" stroke="black"/>
</g>
<g id="TURNSTILES">
<path id="TURNSTILE" d="M301.5 111.5H319.5V119.5H301.5V111.5Z" fill="#FF8228" stroke="black"/>
<path id="TURNSTILE_2" d="M301.5 119.5H319.5V127.5H301.5V119.5Z" fill="#FF8228" stroke="black"/>
<path id="TURNSTILE_3" d="M301.5 127.5H319.5V135.5H301.5V127.5Z" fill="#FF8228" stroke="black"/>
</g>
<g id="KIOSKS">
<rect id="KIOSK" x="323.5" y="174.5" width="9" height="4" transform="rotate(90 323.5 174.5)" fill="#00FFFF" stroke="black"/>
</g>
<g id="MISC">
<g id="MISC_2">
<path d="M359.5 107.5H362.5V115.5H359.5V107.5Z" fill="#525252"/>
<path d="M362.5 115.5V107.5H359.5V115.5H362.5ZM359.5 107.5L360.98 111.62M362.5 107.5L360.98 111.62M362.5 115.5L360.98 111.62M359.5 115.5L360.98 111.62" stroke="black"/>
</g>
</g>
<g id="MEZZ_TO_DOWNTOWN_STAIRS">
<g id="STAIRS GRAPHIC">
<rect id="Rectangle 3" x="379.5" y="20.5" width="4" height="20" fill="#FF3538" stroke="black"/>
<rect id="Rectangle 4" x="383.5" y="20.5" width="4" height="20" fill="#FF3538" stroke="black"/>
<rect id="Rectangle 5" x="387.5" y="20.5" width="4" height="20" fill="#FF3538" stroke="black"/>
<rect id="Rectangle 6" x="391.5" y="20.5" width="4" height="20" fill="#FF3538" stroke="black"/>
<rect id="Rectangle 7" x="395.5" y="20.5" width="4" height="20" fill="#FF3538" stroke="black"/>
<rect id="Rectangle 8" x="399.5" y="20.5" width="4" height="20" fill="#FF3538" stroke="black"/>
<rect id="Rectangle 9" x="403.5" y="20.5" width="4" height="20" fill="#FF3538" stroke="black"/>
<rect id="Rectangle 10" x="407.5" y="20.5" width="4" height="20" fill="#FF3538" stroke="black"/>
<rect id="Rectangle 1" x="411.5" y="20.5" width="4" height="20" fill="#FF3538" stroke="black"/>
<rect id="Rectangle 2" x="415.5" y="20.5" width="4" height="20" fill="#FF3538" stroke="black"/>
<rect id="Rectangle 3_2" x="419.5" y="20.5" width="4" height="20" fill="#FF3538" stroke="black"/>
<rect id="Rectangle 4_2" x="423.5" y="20.5" width="4" height="20" fill="#FF3538" stroke="black"/>
<rect id="Rectangle 5_2" x="427.5" y="20.5" width="4" height="20" fill="#FF3538" stroke="black"/>
<rect id="Rectangle 6_2" x="431.5" y="20.5" width="4" height="20" fill="#FF3538" stroke="black"/>
<rect id="Rectangle 7_2" x="435.5" y="20.5" width="4" height="20" fill="#FF3538" stroke="black"/>
<rect id="Rectangle 8_2" x="439.5" y="20.5" width="4" height="20" fill="#FF3538" stroke="black"/>
<rect id="Rectangle 9_2" x="443.5" y="20.5" width="4" height="20" fill="#FF3538" stroke="black"/>
<rect id="Rectangle 10_2" x="447.5" y="20.5" width="4" height="20" fill="#FF3538" stroke="black"/>
</g>
<g id="ARROW">
<path id="ARROW GRAPHIC" d="M429.207 31.2071C429.598 30.8166 429.598 30.1834 429.207 29.7929L422.843 23.4289C422.453 23.0384 421.819 23.0384 421.429 23.4289C421.038 23.8195 421.038 24.4526 421.429 24.8431L427.086 30.5L421.429 36.1569C421.038 36.5474 421.038 37.1805 421.429 37.5711C421.819 37.9616 422.453 37.9616 422.843 37.5711L429.207 31.2071ZM398.5 30.5V31.5H428.5V30.5V29.5H398.5V30.5Z" fill="white"/>
<path id="UP" d="M401.12 23.8636H401.889V26.2251C401.889 26.4903 401.825 26.7223 401.699 26.9212C401.573 27.12 401.397 27.2751 401.171 27.3864C400.945 27.4964 400.682 27.5515 400.381 27.5515C400.079 27.5515 399.815 27.4964 399.589 27.3864C399.363 27.2751 399.187 27.12 399.062 26.9212C398.936 26.7223 398.874 26.4903 398.874 26.2251V23.8636H399.642V26.1594C399.642 26.2979 399.673 26.421 399.733 26.5288C399.795 26.6365 399.881 26.7211 399.992 26.7827C400.104 26.8442 400.233 26.875 400.381 26.875C400.53 26.875 400.66 26.8442 400.77 26.7827C400.881 26.7211 400.967 26.6365 401.027 26.5288C401.089 26.421 401.12 26.2979 401.12 26.1594V23.8636ZM402.521 27.5V23.8636H403.956C404.232 23.8636 404.467 23.9163 404.661 24.0217C404.855 24.1258 405.003 24.2708 405.105 24.4567C405.208 24.6413 405.259 24.8544 405.259 25.0959C405.259 25.3374 405.207 25.5504 405.103 25.7351C404.999 25.9197 404.848 26.0636 404.65 26.1665C404.454 26.2695 404.216 26.321 403.936 26.321H403.022V25.7049H403.812C403.96 25.7049 404.082 25.6795 404.178 25.6286C404.275 25.5765 404.347 25.5049 404.394 25.4137C404.443 25.3214 404.467 25.2154 404.467 25.0959C404.467 24.9751 404.443 24.8698 404.394 24.7798C404.347 24.6887 404.275 24.6183 404.178 24.5685C404.081 24.5176 403.958 24.4922 403.808 24.4922H403.29V27.5H402.521Z" fill="white"/>
</g>
</g>
<g id="MEZZ_TO_UPTOWN_STAIRS">
<g id="STAIRS GRAPHIC_2">
<rect id="Rectangle 3_3" x="379.5" y="195.5" width="4" height="20" fill="#FF3538" stroke="black"/>
<rect id="Rectangle 4_3" x="383.5" y="195.5" width="4" height="20" fill="#FF3538" stroke="black"/>
<rect id="Rectangle 5_3" x="387.5" y="195.5" width="4" height="20" fill="#FF3538" stroke="black"/>
<rect id="Rectangle 6_3" x="391.5" y="195.5" width="4" height="20" fill="#FF3538" stroke="black"/>
<rect id="Rectangle 7_3" x="395.5" y="195.5" width="4" height="20" fill="#FF3538" stroke="black"/>
<rect id="Rectangle 8_3" x="399.5" y="195.5" width="4" height="20" fill="#FF3538" stroke="black"/>
<rect id="Rectangle 9_3" x="403.5" y="195.5" width="4" height="20" fill="#FF3538" stroke="black"/>
<rect id="Rectangle 10_3" x="407.5" y="195.5" width="4" height="20" fill="#FF3538" stroke="black"/>
<rect id="Rectangle 1_2" x="411.5" y="195.5" width="4" height="20" fill="#FF3538" stroke="black"/>
<rect id="Rectangle 2_2" x="415.5" y="195.5" width="4" height="20" fill="#FF3538" stroke="black"/>
<rect id="Rectangle 3_4" x="419.5" y="195.5" width="4" height="20" fill="#FF3538" stroke="black"/>
<rect id="Rectangle 4_4" x="423.5" y="195.5" width="4" height="20" fill="#FF3538" stroke="black"/>
<rect id="Rectangle 5_4" x="427.5" y="195.5" width="4" height="20" fill="#FF3538" stroke="black"/>
<rect id="Rectangle 6_4" x="431.5" y="195.5" width="4" height="20" fill="#FF3538" stroke="black"/>
<rect id="Rectangle 7_4" x="435.5" y="195.5" width="4" height="20" fill="#FF3538" stroke="black"/>
<rect id="Rectangle 8_4" x="439.5" y="195.5" width="4" height="20" fill="#FF3538" stroke="black"/>
<rect id="Rectangle 9_4" x="443.5" y="195.5" width="4" height="20" fill="#FF3538" stroke="black"/>
<rect id="Rectangle 10_4" x="447.5" y="195.5" width="4" height="20" fill="#FF3538" stroke="black"/>
</g>
<g id="ARROW_2">
<path id="ARROW GRAPHIC_2" d="M429.207 206.207C429.598 205.817 429.598 205.183 429.207 204.793L422.843 198.429C422.453 198.038 421.819 198.038 421.429 198.429C421.038 198.819 421.038 199.453 421.429 199.843L427.086 205.5L421.429 211.157C421.038 211.547 421.038 212.181 421.429 212.571C421.819 212.962 422.453 212.962 422.843 212.571L429.207 206.207ZM398.5 205.5V206.5H428.5V205.5V204.5H398.5V205.5Z" fill="white"/>
<path id="UP_2" d="M401.12 198.864H401.889V201.225C401.889 201.49 401.825 201.722 401.699 201.921C401.573 202.12 401.397 202.275 401.171 202.386C400.945 202.496 400.682 202.551 400.381 202.551C400.079 202.551 399.815 202.496 399.589 202.386C399.363 202.275 399.187 202.12 399.062 201.921C398.936 201.722 398.874 201.49 398.874 201.225V198.864H399.642V201.159C399.642 201.298 399.673 201.421 399.733 201.529C399.795 201.636 399.881 201.721 399.992 201.783C400.104 201.844 400.233 201.875 400.381 201.875C400.53 201.875 400.66 201.844 400.77 201.783C400.881 201.721 400.967 201.636 401.027 201.529C401.089 201.421 401.12 201.298 401.12 201.159V198.864ZM402.521 202.5V198.864H403.956C404.232 198.864 404.467 198.916 404.661 199.022C404.855 199.126 405.003 199.271 405.105 199.457C405.208 199.641 405.259 199.854 405.259 200.096C405.259 200.337 405.207 200.55 405.103 200.735C404.999 200.92 404.848 201.064 404.65 201.167C404.454 201.27 404.216 201.321 403.936 201.321H403.022V200.705H403.812C403.96 200.705 404.082 200.679 404.178 200.629C404.275 200.576 404.347 200.505 404.394 200.414C404.443 200.321 404.467 200.215 404.467 200.096C404.467 199.975 404.443 199.87 404.394 199.78C404.347 199.689 404.275 199.618 404.178 199.569C404.081 199.518 403.958 199.492 403.808 199.492H403.29V202.5H402.521Z" fill="white"/>
</g>
</g>
<g id="BAY_50_ST_STILLWELL_AV_2_STAIRS">
<g id="STAIRS GRAPHIC_3">
<rect id="Rectangle 3_5" x="403.5" y="218.5" width="4" height="17" fill="#FF3538" stroke="black"/>
<rect id="Rectangle 4_5" x="407.5" y="218.5" width="4" height="17" fill="#FF3538" stroke="black"/>
<rect id="Rectangle 5_5" x="411.5" y="218.5" width="4" height="17" fill="#FF3538" stroke="black"/>
<rect id="Rectangle 6_5" x="415.5" y="218.5" width="4" height="17" fill="#FF3538" stroke="black"/>
<rect id="Rectangle 7_5" x="419.5" y="218.5" width="4" height="17" fill="#FF3538" stroke="black"/>
<rect id="Rectangle 8_5" x="423.5" y="218.5" width="4" height="17" fill="#FF3538" stroke="black"/>
<rect id="Rectangle 9_5" x="427.5" y="218.5" width="4" height="17" fill="#FF3538" stroke="black"/>
<rect id="Rectangle 10_5" x="431.5" y="218.5" width="4" height="17" fill="#FF3538" stroke="black"/>
<rect id="Rectangle 1_3" x="435.5" y="218.5" width="4" height="17" fill="#FF3538" stroke="black"/>
<rect id="Rectangle 2_3" x="439.5" y="218.5" width="4" height="17" fill="#FF3538" stroke="black"/>
<rect id="Rectangle 3_6" x="443.5" y="218.5" width="4" height="17" fill="#FF3538" stroke="black"/>
<rect id="Rectangle 4_6" x="447.5" y="218.5" width="4" height="17" fill="#FF3538" stroke="black"/>
<rect id="Rectangle 5_6" x="451.5" y="218.5" width="4" height="17" fill="#FF3538" stroke="black"/>
<rect id="Rectangle 6_6" x="455.5" y="218.5" width="4" height="17" fill="#FF3538" stroke="black"/>
<rect id="Rectangle 7_6" x="459.5" y="218.5" width="4" height="17" fill="#FF3538" stroke="black"/>
<rect id="Rectangle 8_6" x="463.5" y="218.5" width="4" height="17" fill="#FF3538" stroke="black"/>
<rect id="Rectangle 9_6" x="467.5" y="218.5" width="4" height="17" fill="#FF3538" stroke="black"/>
<rect id="Rectangle 10_6" x="471.5" y="218.5" width="4" height="17" fill="#FF3538" stroke="black"/>
</g>
<g id="ARROW_3">
<path id="ARROW GRAPHIC_3" d="M453.207 227.707C453.598 227.317 453.598 226.683 453.207 226.293L446.843 219.929C446.453 219.538 445.819 219.538 445.429 219.929C445.038 220.319 445.038 220.953 445.429 221.343L451.086 227L445.429 232.657C445.038 233.047 445.038 233.681 445.429 234.071C445.819 234.462 446.453 234.462 446.843 234.071L453.207 227.707ZM422.5 227V228H452.5V227V226H422.5V227Z" fill="white"/>
<path id="DOWN" d="M424.47 224.2H423.181V220.564H424.481C424.847 220.564 425.162 220.636 425.426 220.782C425.69 220.926 425.893 221.134 426.035 221.405C426.178 221.676 426.249 222.001 426.249 222.378C426.249 222.757 426.178 223.083 426.035 223.355C425.893 223.627 425.688 223.836 425.422 223.982C425.157 224.127 424.84 224.2 424.47 224.2ZM423.95 223.541H424.438C424.666 223.541 424.857 223.501 425.012 223.421C425.168 223.339 425.285 223.213 425.363 223.042C425.443 222.871 425.482 222.649 425.482 222.378C425.482 222.11 425.443 221.89 425.363 221.72C425.285 221.549 425.169 221.424 425.014 221.343C424.859 221.263 424.667 221.222 424.44 221.222H423.95V223.541ZM430.161 222.382C430.161 222.778 430.085 223.116 429.935 223.394C429.786 223.672 429.582 223.885 429.324 224.031C429.067 224.177 428.779 224.25 428.458 224.25C428.135 224.25 427.845 224.176 427.588 224.03C427.331 223.883 427.128 223.67 426.979 223.392C426.83 223.114 426.755 222.777 426.755 222.382C426.755 221.985 426.83 221.648 426.979 221.37C427.128 221.092 427.331 220.88 427.588 220.734C427.845 220.587 428.135 220.514 428.458 220.514C428.779 220.514 429.067 220.587 429.324 220.734C429.582 220.88 429.786 221.092 429.935 221.37C430.085 221.648 430.161 221.985 430.161 222.382ZM429.381 222.382C429.381 222.125 429.343 221.908 429.266 221.732C429.19 221.556 429.083 221.422 428.944 221.331C428.806 221.24 428.644 221.194 428.458 221.194C428.272 221.194 428.11 221.24 427.971 221.331C427.833 221.422 427.725 221.556 427.648 221.732C427.572 221.908 427.535 222.125 427.535 222.382C427.535 222.639 427.572 222.855 427.648 223.032C427.725 223.208 427.833 223.342 427.971 223.433C428.11 223.524 428.272 223.57 428.458 223.57C428.644 223.57 428.806 223.524 428.944 223.433C429.083 223.342 429.19 223.208 429.266 223.032C429.343 222.855 429.381 222.639 429.381 222.382ZM431.412 224.2L430.371 220.564H431.211L431.813 223.09H431.843L432.507 220.564H433.227L433.889 223.096H433.921L434.523 220.564H435.363L434.322 224.2H433.573L432.88 221.823H432.852L432.161 224.2H431.412ZM438.816 220.564V224.2H438.152L436.57 221.911H436.543V224.2H435.774V220.564H436.449L438.018 222.851H438.05V220.564H438.816Z" fill="white"/>
</g>
</g>
<g id="BAY_50_ST_STILLWELL_AV_1_STAIRS">
<g id="STAIRS GRAPHIC_4">
<rect id="Rectangle 3_7" x="403.5" y="0.5" width="4" height="17" fill="#FF3538" stroke="black"/>
<rect id="Rectangle 4_7" x="407.5" y="0.5" width="4" height="17" fill="#FF3538" stroke="black"/>
<rect id="Rectangle 5_7" x="411.5" y="0.5" width="4" height="17" fill="#FF3538" stroke="black"/>
<rect id="Rectangle 6_7" x="415.5" y="0.5" width="4" height="17" fill="#FF3538" stroke="black"/>
<rect id="Rectangle 7_7" x="419.5" y="0.5" width="4" height="17" fill="#FF3538" stroke="black"/>
<rect id="Rectangle 8_7" x="423.5" y="0.5" width="4" height="17" fill="#FF3538" stroke="black"/>
<rect id="Rectangle 9_7" x="427.5" y="0.5" width="4" height="17" fill="#FF3538" stroke="black"/>
<rect id="Rectangle 10_7" x="431.5" y="0.5" width="4" height="17" fill="#FF3538" stroke="black"/>
<rect id="Rectangle 1_4" x="435.5" y="0.5" width="4" height="17" fill="#FF3538" stroke="black"/>
<rect id="Rectangle 2_4" x="439.5" y="0.5" width="4" height="17" fill="#FF3538" stroke="black"/>
<rect id="Rectangle 3_8" x="443.5" y="0.5" width="4" height="17" fill="#FF3538" stroke="black"/>
<rect id="Rectangle 4_8" x="447.5" y="0.5" width="4" height="17" fill="#FF3538" stroke="black"/>
<rect id="Rectangle 5_8" x="451.5" y="0.5" width="4" height="17" fill="#FF3538" stroke="black"/>
<rect id="Rectangle 6_8" x="455.5" y="0.5" width="4" height="17" fill="#FF3538" stroke="black"/>
<rect id="Rectangle 7_8" x="459.5" y="0.5" width="4" height="17" fill="#FF3538" stroke="black"/>
<rect id="Rectangle 8_8" x="463.5" y="0.5" width="4" height="17" fill="#FF3538" stroke="black"/>
<rect id="Rectangle 9_8" x="467.5" y="0.5" width="4" height="17" fill="#FF3538" stroke="black"/>
<rect id="Rectangle 10_8" x="471.5" y="0.5" width="4" height="17" fill="#FF3538" stroke="black"/>
</g>
<g id="ARROW_4">
<path id="ARROW GRAPHIC_4" d="M453.207 9.70711C453.598 9.31658 453.598 8.68342 453.207 8.29289L446.843 1.92893C446.453 1.53841 445.819 1.53841 445.429 1.92893C445.038 2.31946 445.038 2.95262 445.429 3.34315L451.086 9L445.429 14.6569C445.038 15.0474 445.038 15.6805 445.429 16.0711C445.819 16.4616 446.453 16.4616 446.843 16.0711L453.207 9.70711ZM422.5 9V10H452.5V9V8H422.5V9Z" fill="white"/>
<path id="DOWN_2" d="M424.47 6.2H423.181V2.56364H424.481C424.847 2.56364 425.162 2.63644 425.426 2.78203C425.69 2.92644 425.893 3.13419 426.035 3.40526C426.178 3.67633 426.249 4.00066 426.249 4.37827C426.249 4.75706 426.178 5.08258 426.035 5.35483C425.893 5.62708 425.688 5.83601 425.422 5.98161C425.157 6.1272 424.84 6.2 424.47 6.2ZM423.95 5.54126H424.438C424.666 5.54126 424.857 5.50102 425.012 5.42053C425.168 5.33885 425.285 5.21278 425.363 5.04233C425.443 4.87069 425.482 4.64934 425.482 4.37827C425.482 4.10957 425.443 3.88999 425.363 3.71953C425.285 3.54908 425.169 3.4236 425.014 3.34311C424.859 3.26262 424.667 3.22237 424.44 3.22237H423.95V5.54126ZM430.161 4.38182C430.161 4.77836 430.085 5.11572 429.935 5.39389C429.786 5.67207 429.582 5.88454 429.324 6.03132C429.067 6.17692 428.779 6.24972 428.458 6.24972C428.135 6.24972 427.845 6.17633 427.588 6.02955C427.331 5.88277 427.128 5.67029 426.979 5.39212C426.83 5.11394 426.755 4.77718 426.755 4.38182C426.755 3.98528 426.83 3.64792 426.979 3.36975C427.128 3.09157 427.331 2.87969 427.588 2.73409C427.845 2.58731 428.135 2.51392 428.458 2.51392C428.779 2.51392 429.067 2.58731 429.324 2.73409C429.582 2.87969 429.786 3.09157 429.935 3.36975C430.085 3.64792 430.161 3.98528 430.161 4.38182ZM429.381 4.38182C429.381 4.12495 429.343 3.90833 429.266 3.73196C429.19 3.55559 429.083 3.42183 428.944 3.33068C428.806 3.23954 428.644 3.19396 428.458 3.19396C428.272 3.19396 428.11 3.23954 427.971 3.33068C427.833 3.42183 427.725 3.55559 427.648 3.73196C427.572 3.90833 427.535 4.12495 427.535 4.38182C427.535 4.63868 427.572 4.8553 427.648 5.03168C427.725 5.20805 427.833 5.34181 427.971 5.43296C428.11 5.5241 428.272 5.56967 428.458 5.56967C428.644 5.56967 428.806 5.5241 428.944 5.43296C429.083 5.34181 429.19 5.20805 429.266 5.03168C429.343 4.8553 429.381 4.63868 429.381 4.38182ZM431.412 6.2L430.371 2.56364H431.211L431.813 5.09027H431.843L432.507 2.56364H433.227L433.889 5.0956H433.921L434.523 2.56364H435.363L434.322 6.2H433.573L432.88 3.82251H432.852L432.161 6.2H431.412ZM438.816 2.56364V6.2H438.152L436.57 3.91129H436.543V6.2H435.774V2.56364H436.449L438.018 4.85057H438.05V2.56364H438.816Z" fill="white"/>
</g>
</g>
<g id="HARWAY_AV_STILLWELL_AV_1_STAIRS">
<g id="STAIRS GRAPHIC_5">
<rect id="Rectangle 3_9" x="194.5" y="0.5" width="4" height="17" fill="#FF3538" stroke="black"/>
<rect id="Rectangle 4_9" x="198.5" y="0.5" width="4" height="17" fill="#FF3538" stroke="black"/>
<rect id="Rectangle 5_9" x="202.5" y="0.5" width="4" height="17" fill="#FF3538" stroke="black"/>
<rect id="Rectangle 6_9" x="206.5" y="0.5" width="4" height="17" fill="#FF3538" stroke="black"/>
<rect id="Rectangle 7_9" x="210.5" y="0.5" width="4" height="17" fill="#FF3538" stroke="black"/>
<rect id="Rectangle 8_9" x="214.5" y="0.5" width="4" height="17" fill="#FF3538" stroke="black"/>
<rect id="Rectangle 9_9" x="218.5" y="0.5" width="4" height="17" fill="#FF3538" stroke="black"/>
<rect id="Rectangle 10_9" x="222.5" y="0.5" width="4" height="17" fill="#FF3538" stroke="black"/>
<rect id="Rectangle 1_5" x="226.5" y="0.5" width="4" height="17" fill="#FF3538" stroke="black"/>
<rect id="Rectangle 2_5" x="230.5" y="0.5" width="4" height="17" fill="#FF3538" stroke="black"/>
<rect id="Rectangle 3_10" x="234.5" y="0.5" width="4" height="17" fill="#FF3538" stroke="black"/>
<rect id="Rectangle 4_10" x="238.5" y="0.5" width="4" height="17" fill="#FF3538" stroke="black"/>
<rect id="Rectangle 5_10" x="242.5" y="0.5" width="4" height="17" fill="#FF3538" stroke="black"/>
<rect id="Rectangle 6_10" x="246.5" y="0.5" width="4" height="17" fill="#FF3538" stroke="black"/>
<rect id="Rectangle 7_10" x="250.5" y="0.5" width="4" height="17" fill="#FF3538" stroke="black"/>
<rect id="Rectangle 8_10" x="254.5" y="0.5" width="4" height="17" fill="#FF3538" stroke="black"/>
<rect id="Rectangle 9_10" x="258.5" y="0.5" width="4" height="17" fill="#FF3538" stroke="black"/>
<rect id="Rectangle 10_10" x="262.5" y="0.5" width="4" height="17" fill="#FF3538" stroke="black"/>
</g>
<g id="ARROW_5">
<path id="ARROW GRAPHIC_5" d="M212.793 9.70711C212.402 9.31658 212.402 8.68342 212.793 8.29289L219.157 1.92893C219.547 1.53841 220.181 1.53841 220.571 1.92893C220.962 2.31946 220.962 2.95262 220.571 3.34315L214.914 9L220.571 14.6569C220.962 15.0474 220.962 15.6805 220.571 16.0711C220.181 16.4616 219.547 16.4616 219.157 16.0711L212.793 9.70711ZM243.5 9V10H213.5V9V8H243.5V9Z" fill="white"/>
<path id="DOWN_3" d="M229.47 6.2H228.181V2.56364H229.481C229.847 2.56364 230.162 2.63644 230.426 2.78203C230.69 2.92644 230.893 3.13419 231.035 3.40526C231.178 3.67633 231.249 4.00066 231.249 4.37827C231.249 4.75706 231.178 5.08258 231.035 5.35483C230.893 5.62708 230.688 5.83601 230.422 5.98161C230.157 6.1272 229.84 6.2 229.47 6.2ZM228.95 5.54126H229.438C229.666 5.54126 229.857 5.50102 230.012 5.42053C230.168 5.33885 230.285 5.21278 230.363 5.04233C230.443 4.87069 230.482 4.64934 230.482 4.37827C230.482 4.10957 230.443 3.88999 230.363 3.71953C230.285 3.54908 230.169 3.4236 230.014 3.34311C229.859 3.26262 229.667 3.22237 229.44 3.22237H228.95V5.54126ZM235.161 4.38182C235.161 4.77836 235.085 5.11572 234.935 5.39389C234.786 5.67207 234.582 5.88454 234.324 6.03132C234.067 6.17692 233.779 6.24972 233.458 6.24972C233.135 6.24972 232.845 6.17633 232.588 6.02955C232.331 5.88277 232.128 5.67029 231.979 5.39212C231.83 5.11394 231.755 4.77718 231.755 4.38182C231.755 3.98528 231.83 3.64792 231.979 3.36975C232.128 3.09157 232.331 2.87969 232.588 2.73409C232.845 2.58731 233.135 2.51392 233.458 2.51392C233.779 2.51392 234.067 2.58731 234.324 2.73409C234.582 2.87969 234.786 3.09157 234.935 3.36975C235.085 3.64792 235.161 3.98528 235.161 4.38182ZM234.381 4.38182C234.381 4.12495 234.343 3.90833 234.266 3.73196C234.19 3.55559 234.083 3.42183 233.944 3.33068C233.806 3.23954 233.644 3.19396 233.458 3.19396C233.272 3.19396 233.11 3.23954 232.971 3.33068C232.833 3.42183 232.725 3.55559 232.648 3.73196C232.572 3.90833 232.535 4.12495 232.535 4.38182C232.535 4.63868 232.572 4.8553 232.648 5.03168C232.725 5.20805 232.833 5.34181 232.971 5.43296C233.11 5.5241 233.272 5.56967 233.458 5.56967C233.644 5.56967 233.806 5.5241 233.944 5.43296C234.083 5.34181 234.19 5.20805 234.266 5.03168C234.343 4.8553 234.381 4.63868 234.381 4.38182ZM236.412 6.2L235.371 2.56364H236.211L236.813 5.09027H236.843L237.507 2.56364H238.227L238.889 5.0956H238.921L239.523 2.56364H240.363L239.322 6.2H238.573L237.88 3.82251H237.852L237.161 6.2H236.412ZM243.816 2.56364V6.2H243.152L241.57 3.91129H241.543V6.2H240.774V2.56364H241.449L243.018 4.85057H243.05V2.56364H243.816Z" fill="white"/>
</g>
</g>
<g id="HARWAY_AV_STILLWELL_AV_2_STAIRS">
<g id="STAIRS GRAPHIC_6">
<rect id="Rectangle 3_11" x="194.5" y="218.5" width="4" height="17" fill="#FF3538" stroke="black"/>
<rect id="Rectangle 4_11" x="198.5" y="218.5" width="4" height="17" fill="#FF3538" stroke="black"/>
<rect id="Rectangle 5_11" x="202.5" y="218.5" width="4" height="17" fill="#FF3538" stroke="black"/>
<rect id="Rectangle 6_11" x="206.5" y="218.5" width="4" height="17" fill="#FF3538" stroke="black"/>
<rect id="Rectangle 7_11" x="210.5" y="218.5" width="4" height="17" fill="#FF3538" stroke="black"/>
<rect id="Rectangle 8_11" x="214.5" y="218.5" width="4" height="17" fill="#FF3538" stroke="black"/>
<rect id="Rectangle 9_11" x="218.5" y="218.5" width="4" height="17" fill="#FF3538" stroke="black"/>
<rect id="Rectangle 10_11" x="222.5" y="218.5" width="4" height="17" fill="#FF3538" stroke="black"/>
<rect id="Rectangle 1_6" x="226.5" y="218.5" width="4" height="17" fill="#FF3538" stroke="black"/>
<rect id="Rectangle 2_6" x="230.5" y="218.5" width="4" height="17" fill="#FF3538" stroke="black"/>
<rect id="Rectangle 3_12" x="234.5" y="218.5" width="4" height="17" fill="#FF3538" stroke="black"/>
<rect id="Rectangle 4_12" x="238.5" y="218.5" width="4" height="17" fill="#FF3538" stroke="black"/>
<rect id="Rectangle 5_12" x="242.5" y="218.5" width="4" height="17" fill="#FF3538" stroke="black"/>
<rect id="Rectangle 6_12" x="246.5" y="218.5" width="4" height="17" fill="#FF3538" stroke="black"/>
<rect id="Rectangle 7_12" x="250.5" y="218.5" width="4" height="17" fill="#FF3538" stroke="black"/>
<rect id="Rectangle 8_12" x="254.5" y="218.5" width="4" height="17" fill="#FF3538" stroke="black"/>
<rect id="Rectangle 9_12" x="258.5" y="218.5" width="4" height="17" fill="#FF3538" stroke="black"/>
<rect id="Rectangle 10_12" x="262.5" y="218.5" width="4" height="17" fill="#FF3538" stroke="black"/>
</g>
<g id="ARROW_6">
<path id="ARROW GRAPHIC_6" d="M212.793 227.707C212.402 227.317 212.402 226.683 212.793 226.293L219.157 219.929C219.547 219.538 220.181 219.538 220.571 219.929C220.962 220.319 220.962 220.953 220.571 221.343L214.914 227L220.571 232.657C220.962 233.047 220.962 233.681 220.571 234.071C220.181 234.462 219.547 234.462 219.157 234.071L212.793 227.707ZM243.5 227V228H213.5V227V226H243.5V227Z" fill="white"/>
<path id="DOWN_4" d="M229.47 224.2H228.181V220.564H229.481C229.847 220.564 230.162 220.636 230.426 220.782C230.69 220.926 230.893 221.134 231.035 221.405C231.178 221.676 231.249 222.001 231.249 222.378C231.249 222.757 231.178 223.083 231.035 223.355C230.893 223.627 230.688 223.836 230.422 223.982C230.157 224.127 229.84 224.2 229.47 224.2ZM228.95 223.541H229.438C229.666 223.541 229.857 223.501 230.012 223.421C230.168 223.339 230.285 223.213 230.363 223.042C230.443 222.871 230.482 222.649 230.482 222.378C230.482 222.11 230.443 221.89 230.363 221.72C230.285 221.549 230.169 221.424 230.014 221.343C229.859 221.263 229.667 221.222 229.44 221.222H228.95V223.541ZM235.161 222.382C235.161 222.778 235.085 223.116 234.935 223.394C234.786 223.672 234.582 223.885 234.324 224.031C234.067 224.177 233.779 224.25 233.458 224.25C233.135 224.25 232.845 224.176 232.588 224.03C232.331 223.883 232.128 223.67 231.979 223.392C231.83 223.114 231.755 222.777 231.755 222.382C231.755 221.985 231.83 221.648 231.979 221.37C232.128 221.092 232.331 220.88 232.588 220.734C232.845 220.587 233.135 220.514 233.458 220.514C233.779 220.514 234.067 220.587 234.324 220.734C234.582 220.88 234.786 221.092 234.935 221.37C235.085 221.648 235.161 221.985 235.161 222.382ZM234.381 222.382C234.381 222.125 234.343 221.908 234.266 221.732C234.19 221.556 234.083 221.422 233.944 221.331C233.806 221.24 233.644 221.194 233.458 221.194C233.272 221.194 233.11 221.24 232.971 221.331C232.833 221.422 232.725 221.556 232.648 221.732C232.572 221.908 232.535 222.125 232.535 222.382C232.535 222.639 232.572 222.855 232.648 223.032C232.725 223.208 232.833 223.342 232.971 223.433C233.11 223.524 233.272 223.57 233.458 223.57C233.644 223.57 233.806 223.524 233.944 223.433C234.083 223.342 234.19 223.208 234.266 223.032C234.343 222.855 234.381 222.639 234.381 222.382ZM236.412 224.2L235.371 220.564H236.211L236.813 223.09H236.843L237.507 220.564H238.227L238.889 223.096H238.921L239.523 220.564H240.363L239.322 224.2H238.573L237.88 221.823H237.852L237.161 224.2H236.412ZM243.816 220.564V224.2H243.152L241.57 221.911H241.543V224.2H240.774V220.564H241.449L243.018 222.851H243.05V220.564H243.816Z" fill="white"/>
</g>
</g>
<path id="HARWAY AV &#38; STILLWELL AV" d="M155.547 7.5V3.86364H156.316V5.36399H157.877V3.86364H158.644V7.5H157.877V5.99787H156.316V7.5H155.547ZM159.905 7.5H159.081L160.336 3.86364H161.327L162.581 7.5H161.757L160.846 4.6946H160.817L159.905 7.5ZM159.853 6.07067H161.799V6.67081H159.853V6.07067ZM163.018 7.5V3.86364H164.453C164.727 3.86364 164.962 3.91276 165.156 4.01101C165.351 4.10807 165.5 4.24598 165.602 4.42472C165.705 4.60227 165.756 4.8112 165.756 5.05149C165.756 5.29297 165.704 5.50071 165.6 5.67472C165.496 5.84754 165.345 5.98011 165.147 6.07244C164.951 6.16477 164.713 6.21094 164.433 6.21094H163.473V5.59304H164.309C164.456 5.59304 164.578 5.57292 164.675 5.53267C164.772 5.49242 164.844 5.43205 164.891 5.35156C164.94 5.27107 164.964 5.17105 164.964 5.05149C164.964 4.93075 164.94 4.82895 164.891 4.74609C164.844 4.66323 164.771 4.6005 164.673 4.55788C164.576 4.51409 164.453 4.49219 164.305 4.49219H163.787V7.5H163.018ZM164.982 5.84517L165.886 7.5H165.037L164.153 5.84517H164.982ZM167.118 7.5L166.078 3.86364H166.917L167.519 6.39027H167.549L168.214 3.86364H168.933L169.595 6.3956H169.627L170.229 3.86364H171.069L170.028 7.5H169.279L168.586 5.12251H168.558L167.867 7.5H167.118ZM171.741 7.5H170.917L172.172 3.86364H173.163L174.416 7.5H173.593L172.682 4.6946H172.653L171.741 7.5ZM171.689 6.07067H173.635V6.67081H171.689V6.07067ZM174.27 3.86364H175.131L175.96 5.42969H175.996L176.825 3.86364H177.686L176.36 6.21449V7.5H175.596V6.21449L174.27 3.86364ZM179.89 7.5H179.066L180.322 3.86364H181.312L182.566 7.5H181.742L180.831 4.6946H180.803L179.89 7.5ZM179.839 6.07067H181.785V6.67081H179.839V6.07067ZM183.206 3.86364L184.085 6.62642H184.119L185 3.86364H185.852L184.598 7.5H183.608L182.352 3.86364H183.206ZM188.548 7.55327C188.297 7.55327 188.08 7.50829 187.898 7.41832C187.716 7.32836 187.575 7.20644 187.477 7.05256C187.38 6.89749 187.331 6.72467 187.331 6.53409C187.331 6.39205 187.36 6.26598 187.417 6.15589C187.474 6.04581 187.553 5.9446 187.655 5.85227C187.756 5.75876 187.875 5.66584 188.01 5.57351L188.715 5.11009C188.806 5.05208 188.873 4.99112 188.915 4.9272C188.958 4.8621 188.979 4.79167 188.979 4.71591C188.979 4.6437 188.95 4.57682 188.892 4.51527C188.834 4.45372 188.752 4.42353 188.645 4.42472C188.574 4.42472 188.513 4.4407 188.461 4.47266C188.409 4.50343 188.368 4.54427 188.338 4.59517C188.31 4.64489 188.296 4.70052 188.296 4.76207C188.296 4.83783 188.317 4.91477 188.36 4.9929C188.402 5.07102 188.459 5.15388 188.53 5.24148C188.601 5.32789 188.679 5.4214 188.763 5.52202L190.487 7.5H189.698L188.26 5.89844C188.165 5.79072 188.071 5.67827 187.976 5.56108C187.883 5.44271 187.804 5.31723 187.742 5.18466C187.679 5.0509 187.648 4.90589 187.648 4.74964C187.648 4.57327 187.688 4.41465 187.77 4.27379C187.853 4.13293 187.969 4.02166 188.118 3.93999C188.267 3.85713 188.441 3.8157 188.64 3.8157C188.834 3.8157 189.002 3.85535 189.143 3.93466C189.285 4.01278 189.394 4.11695 189.469 4.24716C189.546 4.37618 189.585 4.51823 189.585 4.6733C189.585 4.84493 189.542 5.00059 189.457 5.14027C189.373 5.27876 189.254 5.40305 189.102 5.51314L188.36 6.04759C188.259 6.12098 188.184 6.19614 188.136 6.27308C188.088 6.34884 188.065 6.42164 188.065 6.49148C188.065 6.57789 188.086 6.65542 188.129 6.72408C188.171 6.79273 188.232 6.84718 188.31 6.88743C188.388 6.92649 188.48 6.94602 188.585 6.94602C188.713 6.94602 188.839 6.91702 188.963 6.85902C189.089 6.79983 189.202 6.71638 189.304 6.60866C189.407 6.49976 189.489 6.37074 189.551 6.22159C189.613 6.07244 189.643 5.90732 189.643 5.72621H190.27C190.27 5.94875 190.246 6.14938 190.197 6.32812C190.149 6.50568 190.081 6.66075 189.995 6.79332C189.908 6.92472 189.81 7.03243 189.698 7.11648C189.663 7.13897 189.628 7.16027 189.595 7.1804C189.562 7.20052 189.528 7.22183 189.492 7.24432C189.357 7.35322 189.206 7.43194 189.04 7.48047C188.874 7.529 188.71 7.55327 188.548 7.55327ZM157.203 10.9094C157.189 10.7662 157.128 10.6549 157.02 10.5756C156.912 10.4963 156.766 10.4567 156.581 10.4567C156.456 10.4567 156.35 10.4744 156.263 10.5099C156.177 10.5443 156.111 10.5922 156.065 10.6538C156.02 10.7153 155.997 10.7852 155.997 10.8633C155.995 10.9284 156.008 10.9852 156.038 11.0337C156.069 11.0823 156.111 11.1243 156.164 11.1598C156.217 11.1941 156.279 11.2243 156.349 11.2504C156.419 11.2752 156.493 11.2965 156.572 11.3143L156.899 11.3924C157.058 11.4279 157.203 11.4753 157.336 11.5344C157.469 11.5936 157.583 11.6664 157.68 11.7528C157.777 11.8393 157.853 11.9411 157.906 12.0582C157.96 12.1754 157.988 12.3098 157.989 12.4613C157.988 12.6838 157.931 12.8768 157.819 13.0401C157.708 13.2023 157.547 13.3284 157.336 13.4183C157.126 13.5071 156.874 13.5515 156.578 13.5515C156.284 13.5515 156.029 13.5065 155.811 13.4165C155.594 13.3266 155.425 13.1934 155.303 13.017C155.182 12.8395 155.119 12.6199 155.113 12.3583H155.857C155.865 12.4802 155.9 12.582 155.962 12.6637C156.024 12.7442 156.108 12.8052 156.212 12.8466C156.317 12.8868 156.436 12.907 156.569 12.907C156.699 12.907 156.812 12.888 156.908 12.8501C157.005 12.8123 157.08 12.7596 157.134 12.6921C157.187 12.6246 157.213 12.5471 157.213 12.4595C157.213 12.3778 157.189 12.3092 157.141 12.2536C157.093 12.1979 157.023 12.1506 156.931 12.1115C156.84 12.0724 156.728 12.0369 156.596 12.005L156.2 11.9055C155.893 11.831 155.651 11.7144 155.473 11.5558C155.296 11.3971 155.208 11.1835 155.209 10.9148C155.208 10.6946 155.266 10.5022 155.385 10.3377C155.504 10.1732 155.668 10.0447 155.876 9.95241C156.085 9.86009 156.321 9.81392 156.587 9.81392C156.857 9.81392 157.092 9.86009 157.293 9.95241C157.496 10.0447 157.653 10.1732 157.766 10.3377C157.878 10.5022 157.936 10.6928 157.94 10.9094H157.203ZM158.368 10.4975V9.86364H161.354V10.4975H160.241V13.5H159.481V10.4975H158.368ZM162.615 9.86364V13.5H161.846V9.86364H162.615ZM163.248 13.5V9.86364H164.017V12.8661H165.575V13.5H163.248ZM166.085 13.5V9.86364H166.853V12.8661H168.412V13.5H166.085ZM169.535 13.5L168.494 9.86364H169.334L169.936 12.3903H169.966L170.631 9.86364H171.35L172.012 12.3956H172.044L172.646 9.86364H173.486L172.445 13.5H171.696L171.003 11.1225H170.975L170.284 13.5H169.535ZM173.897 13.5V9.86364H176.347V10.4975H174.666V11.364H176.221V11.9979H174.666V12.8661H176.354V13.5H173.897ZM176.959 13.5V9.86364H177.727V12.8661H179.286V13.5H176.959ZM179.796 13.5V9.86364H180.564V12.8661H182.123V13.5H179.796ZM184.416 13.5H183.593L184.848 9.86364H185.839L187.092 13.5H186.268L185.358 10.6946H185.329L184.416 13.5ZM184.365 12.0707H186.311V12.6708H184.365V12.0707ZM187.733 9.86364L188.612 12.6264H188.645L189.526 9.86364H190.378L189.125 13.5H188.134L186.879 9.86364H187.733Z" fill="white"/>
<path id="HARWAY AV &#38; STILLWELL AV_2" d="M155.547 226.5V222.864H156.316V224.364H157.877V222.864H158.644V226.5H157.877V224.998H156.316V226.5H155.547ZM159.905 226.5H159.081L160.336 222.864H161.327L162.581 226.5H161.757L160.846 223.695H160.817L159.905 226.5ZM159.853 225.071H161.799V225.671H159.853V225.071ZM163.018 226.5V222.864H164.453C164.727 222.864 164.962 222.913 165.156 223.011C165.351 223.108 165.5 223.246 165.602 223.425C165.705 223.602 165.756 223.811 165.756 224.051C165.756 224.293 165.704 224.501 165.6 224.675C165.496 224.848 165.345 224.98 165.147 225.072C164.951 225.165 164.713 225.211 164.433 225.211H163.473V224.593H164.309C164.456 224.593 164.578 224.573 164.675 224.533C164.772 224.492 164.844 224.432 164.891 224.352C164.94 224.271 164.964 224.171 164.964 224.051C164.964 223.931 164.94 223.829 164.891 223.746C164.844 223.663 164.771 223.6 164.673 223.558C164.576 223.514 164.453 223.492 164.305 223.492H163.787V226.5H163.018ZM164.982 224.845L165.886 226.5H165.037L164.153 224.845H164.982ZM167.118 226.5L166.078 222.864H166.917L167.519 225.39H167.549L168.214 222.864H168.933L169.595 225.396H169.627L170.229 222.864H171.069L170.028 226.5H169.279L168.586 224.123H168.558L167.867 226.5H167.118ZM171.741 226.5H170.917L172.172 222.864H173.163L174.416 226.5H173.593L172.682 223.695H172.653L171.741 226.5ZM171.689 225.071H173.635V225.671H171.689V225.071ZM174.27 222.864H175.131L175.96 224.43H175.996L176.825 222.864H177.686L176.36 225.214V226.5H175.596V225.214L174.27 222.864ZM179.89 226.5H179.066L180.322 222.864H181.312L182.566 226.5H181.742L180.831 223.695H180.803L179.89 226.5ZM179.839 225.071H181.785V225.671H179.839V225.071ZM183.206 222.864L184.085 225.626H184.119L185 222.864H185.852L184.598 226.5H183.608L182.352 222.864H183.206ZM188.548 226.553C188.297 226.553 188.08 226.508 187.898 226.418C187.716 226.328 187.575 226.206 187.477 226.053C187.38 225.897 187.331 225.725 187.331 225.534C187.331 225.392 187.36 225.266 187.417 225.156C187.474 225.046 187.553 224.945 187.655 224.852C187.756 224.759 187.875 224.666 188.01 224.574L188.715 224.11C188.806 224.052 188.873 223.991 188.915 223.927C188.958 223.862 188.979 223.792 188.979 223.716C188.979 223.644 188.95 223.577 188.892 223.515C188.834 223.454 188.752 223.424 188.645 223.425C188.574 223.425 188.513 223.441 188.461 223.473C188.409 223.503 188.368 223.544 188.338 223.595C188.31 223.645 188.296 223.701 188.296 223.762C188.296 223.838 188.317 223.915 188.36 223.993C188.402 224.071 188.459 224.154 188.53 224.241C188.601 224.328 188.679 224.421 188.763 224.522L190.487 226.5H189.698L188.26 224.898C188.165 224.791 188.071 224.678 187.976 224.561C187.883 224.443 187.804 224.317 187.742 224.185C187.679 224.051 187.648 223.906 187.648 223.75C187.648 223.573 187.688 223.415 187.77 223.274C187.853 223.133 187.969 223.022 188.118 222.94C188.267 222.857 188.441 222.816 188.64 222.816C188.834 222.816 189.002 222.855 189.143 222.935C189.285 223.013 189.394 223.117 189.469 223.247C189.546 223.376 189.585 223.518 189.585 223.673C189.585 223.845 189.542 224.001 189.457 224.14C189.373 224.279 189.254 224.403 189.102 224.513L188.36 225.048C188.259 225.121 188.184 225.196 188.136 225.273C188.088 225.349 188.065 225.422 188.065 225.491C188.065 225.578 188.086 225.655 188.129 225.724C188.171 225.793 188.232 225.847 188.31 225.887C188.388 225.926 188.48 225.946 188.585 225.946C188.713 225.946 188.839 225.917 188.963 225.859C189.089 225.8 189.202 225.716 189.304 225.609C189.407 225.5 189.489 225.371 189.551 225.222C189.613 225.072 189.643 224.907 189.643 224.726H190.27C190.27 224.949 190.246 225.149 190.197 225.328C190.149 225.506 190.081 225.661 189.995 225.793C189.908 225.925 189.81 226.032 189.698 226.116C189.663 226.139 189.628 226.16 189.595 226.18C189.562 226.201 189.528 226.222 189.492 226.244C189.357 226.353 189.206 226.432 189.04 226.48C188.874 226.529 188.71 226.553 188.548 226.553ZM157.203 229.909C157.189 229.766 157.128 229.655 157.02 229.576C156.912 229.496 156.766 229.457 156.581 229.457C156.456 229.457 156.35 229.474 156.263 229.51C156.177 229.544 156.111 229.592 156.065 229.654C156.02 229.715 155.997 229.785 155.997 229.863C155.995 229.928 156.008 229.985 156.038 230.034C156.069 230.082 156.111 230.124 156.164 230.16C156.217 230.194 156.279 230.224 156.349 230.25C156.419 230.275 156.493 230.297 156.572 230.314L156.899 230.392C157.058 230.428 157.203 230.475 157.336 230.534C157.469 230.594 157.583 230.666 157.68 230.753C157.777 230.839 157.853 230.941 157.906 231.058C157.96 231.175 157.988 231.31 157.989 231.461C157.988 231.684 157.931 231.877 157.819 232.04C157.708 232.202 157.547 232.328 157.336 232.418C157.126 232.507 156.874 232.551 156.578 232.551C156.284 232.551 156.029 232.507 155.811 232.417C155.594 232.327 155.425 232.193 155.303 232.017C155.182 231.839 155.119 231.62 155.113 231.358H155.857C155.865 231.48 155.9 231.582 155.962 231.664C156.024 231.744 156.108 231.805 156.212 231.847C156.317 231.887 156.436 231.907 156.569 231.907C156.699 231.907 156.812 231.888 156.908 231.85C157.005 231.812 157.08 231.76 157.134 231.692C157.187 231.625 157.213 231.547 157.213 231.46C157.213 231.378 157.189 231.309 157.141 231.254C157.093 231.198 157.023 231.151 156.931 231.112C156.84 231.072 156.728 231.037 156.596 231.005L156.2 230.906C155.893 230.831 155.651 230.714 155.473 230.556C155.296 230.397 155.208 230.183 155.209 229.915C155.208 229.695 155.266 229.502 155.385 229.338C155.504 229.173 155.668 229.045 155.876 228.952C156.085 228.86 156.321 228.814 156.587 228.814C156.857 228.814 157.092 228.86 157.293 228.952C157.496 229.045 157.653 229.173 157.766 229.338C157.878 229.502 157.936 229.693 157.94 229.909H157.203ZM158.368 229.498V228.864H161.354V229.498H160.241V232.5H159.481V229.498H158.368ZM162.615 228.864V232.5H161.846V228.864H162.615ZM163.248 232.5V228.864H164.017V231.866H165.575V232.5H163.248ZM166.085 232.5V228.864H166.853V231.866H168.412V232.5H166.085ZM169.535 232.5L168.494 228.864H169.334L169.936 231.39H169.966L170.631 228.864H171.35L172.012 231.396H172.044L172.646 228.864H173.486L172.445 232.5H171.696L171.003 230.123H170.975L170.284 232.5H169.535ZM173.897 232.5V228.864H176.347V229.498H174.666V230.364H176.221V230.998H174.666V231.866H176.354V232.5H173.897ZM176.959 232.5V228.864H177.727V231.866H179.286V232.5H176.959ZM179.796 232.5V228.864H180.564V231.866H182.123V232.5H179.796ZM184.416 232.5H183.593L184.848 228.864H185.839L187.092 232.5H186.268L185.358 229.695H185.329L184.416 232.5ZM184.365 231.071H186.311V231.671H184.365V231.071ZM187.733 228.864L188.612 231.626H188.645L189.526 228.864H190.378L189.125 232.5H188.134L186.879 228.864H187.733Z" fill="white"/>
<path id="BAY 50 ST &#38; STILLWELL AV" d="M479.816 7.5V3.86364H481.272C481.54 3.86364 481.763 3.90329 481.941 3.9826C482.12 4.06191 482.254 4.17199 482.344 4.31286C482.434 4.45253 482.479 4.61352 482.479 4.79581C482.479 4.93786 482.451 5.06274 482.394 5.17045C482.337 5.27699 482.259 5.36458 482.16 5.43324C482.062 5.50071 481.949 5.54865 481.822 5.57706V5.61257C481.961 5.61849 482.091 5.65755 482.211 5.72976C482.333 5.80196 482.432 5.90317 482.508 6.03338C482.584 6.16241 482.621 6.31629 482.621 6.49503C482.621 6.68797 482.574 6.8602 482.478 7.01172C482.383 7.16205 482.243 7.28101 482.057 7.36861C481.871 7.4562 481.642 7.5 481.37 7.5H479.816ZM480.585 6.87145H481.212C481.426 6.87145 481.582 6.83061 481.68 6.74893C481.779 6.66607 481.828 6.55599 481.828 6.41868C481.828 6.31806 481.804 6.22929 481.755 6.15234C481.706 6.0754 481.637 6.01503 481.547 5.97124C481.458 5.92744 481.353 5.90554 481.229 5.90554H480.585V6.87145ZM480.585 5.3853H481.155C481.26 5.3853 481.354 5.36695 481.435 5.33026C481.518 5.29238 481.583 5.23911 481.631 5.17045C481.679 5.1018 481.703 5.01953 481.703 4.92365C481.703 4.79226 481.657 4.68632 481.563 4.60582C481.471 4.52533 481.339 4.48509 481.169 4.48509H480.585V5.3853ZM483.748 7.5H482.925L484.18 3.86364H485.171L486.424 7.5H485.6L484.69 4.6946H484.661L483.748 7.5ZM483.697 6.07067H485.643V6.67081H483.697V6.07067ZM486.278 3.86364H487.139L487.968 5.42969H488.004L488.833 3.86364H489.694L488.368 6.21449V7.5H487.604V6.21449L486.278 3.86364ZM492.578 7.54972C492.327 7.54972 492.103 7.50355 491.907 7.41122C491.711 7.31889 491.556 7.19164 491.442 7.02947C491.327 6.86731 491.267 6.68146 491.262 6.47195H492.008C492.016 6.61281 492.075 6.72704 492.186 6.81463C492.296 6.90223 492.426 6.94602 492.578 6.94602C492.699 6.94602 492.805 6.91939 492.898 6.86612C492.991 6.81167 493.064 6.73651 493.116 6.64062C493.169 6.54356 493.196 6.43229 493.196 6.30682C493.196 6.17898 493.169 6.06652 493.114 5.96946C493.061 5.8724 492.987 5.79664 492.892 5.74219C492.798 5.68774 492.689 5.65992 492.567 5.65874C492.461 5.65874 492.357 5.68063 492.257 5.72443C492.157 5.76823 492.08 5.82801 492.024 5.90376L491.34 5.78125L491.513 3.86364H493.736V4.49219H492.146L492.052 5.40305H492.074C492.138 5.31309 492.234 5.23852 492.363 5.17933C492.492 5.12015 492.637 5.09055 492.796 5.09055C493.015 5.09055 493.211 5.14205 493.382 5.24503C493.554 5.34801 493.689 5.48946 493.789 5.66939C493.888 5.84813 493.937 6.0541 493.936 6.28729C493.937 6.53232 493.881 6.75012 493.766 6.9407C493.652 7.13009 493.493 7.27924 493.288 7.38814C493.085 7.49586 492.848 7.54972 492.578 7.54972ZM495.898 7.5799C495.593 7.57872 495.33 7.50355 495.11 7.3544C494.891 7.20526 494.722 6.98923 494.604 6.70632C494.487 6.42341 494.429 6.0831 494.43 5.68537C494.43 5.28883 494.488 4.95088 494.606 4.67152C494.724 4.39216 494.893 4.17969 495.112 4.03409C495.332 3.88731 495.594 3.81392 495.898 3.81392C496.202 3.81392 496.464 3.88731 496.683 4.03409C496.903 4.18087 497.073 4.39394 497.191 4.6733C497.309 4.95147 497.368 5.28883 497.367 5.68537C497.367 6.08428 497.307 6.42519 497.189 6.7081C497.072 6.991 496.904 7.20703 496.685 7.35618C496.466 7.50533 496.204 7.5799 495.898 7.5799ZM495.898 6.94247C496.107 6.94247 496.273 6.83771 496.397 6.6282C496.521 6.41868 496.583 6.1044 496.582 5.68537C496.582 5.40956 496.553 5.17992 496.497 4.99645C496.441 4.81297 496.362 4.67507 496.259 4.58274C496.157 4.49041 496.037 4.44425 495.898 4.44425C495.691 4.44425 495.525 4.54782 495.401 4.75497C495.277 4.96212 495.214 5.27225 495.213 5.68537C495.213 5.96473 495.241 6.19792 495.296 6.38494C495.353 6.57079 495.433 6.71046 495.536 6.80398C495.639 6.89631 495.76 6.94247 495.898 6.94247ZM501.066 4.90945C501.052 4.76622 500.991 4.65495 500.883 4.57564C500.775 4.49633 500.629 4.45668 500.445 4.45668C500.319 4.45668 500.213 4.47443 500.127 4.50994C500.04 4.54427 499.974 4.59221 499.928 4.65376C499.883 4.71532 499.86 4.78516 499.86 4.86328C499.858 4.92839 499.872 4.9852 499.901 5.03374C499.932 5.08227 499.974 5.12429 500.027 5.1598C500.081 5.19413 500.142 5.22431 500.212 5.25036C500.282 5.27521 500.356 5.29652 500.436 5.31428L500.762 5.3924C500.921 5.42791 501.067 5.47526 501.199 5.53445C501.332 5.59363 501.447 5.66643 501.544 5.75284C501.641 5.83925 501.716 5.94105 501.769 6.05824C501.824 6.17543 501.851 6.30978 501.853 6.46129C501.851 6.68383 501.795 6.87678 501.682 7.04013C501.571 7.2023 501.41 7.32836 501.199 7.41832C500.99 7.5071 500.737 7.55149 500.441 7.55149C500.147 7.55149 499.892 7.50651 499.674 7.41655C499.457 7.32659 499.288 7.19342 499.166 7.01705C499.045 6.83949 498.982 6.61991 498.976 6.35831H499.72C499.728 6.48023 499.763 6.58203 499.825 6.66371C499.888 6.7442 499.971 6.80516 500.075 6.84659C500.181 6.88684 500.3 6.90696 500.432 6.90696C500.562 6.90696 500.675 6.88802 500.771 6.85014C500.868 6.81226 500.944 6.75959 500.997 6.69212C501.05 6.62464 501.077 6.54711 501.077 6.45952C501.077 6.37784 501.052 6.30919 501.004 6.25355C500.957 6.19792 500.887 6.15057 500.794 6.11151C500.703 6.07244 500.591 6.03693 500.459 6.00497L500.063 5.90554C499.756 5.83097 499.514 5.71437 499.337 5.55575C499.159 5.39714 499.071 5.18348 499.072 4.91477C499.071 4.6946 499.129 4.50225 499.248 4.33771C499.367 4.17318 499.531 4.04474 499.74 3.95241C499.948 3.86009 500.185 3.81392 500.45 3.81392C500.72 3.81392 500.955 3.86009 501.157 3.95241C501.359 4.04474 501.516 4.17318 501.629 4.33771C501.741 4.50225 501.799 4.69283 501.803 4.90945H501.066ZM502.231 4.49751V3.86364H505.218V4.49751H504.104V7.5H503.345V4.49751H502.231ZM507.968 7.55327C507.717 7.55327 507.5 7.50829 507.318 7.41832C507.136 7.32836 506.995 7.20644 506.897 7.05256C506.8 6.89749 506.751 6.72467 506.751 6.53409C506.751 6.39205 506.78 6.26598 506.837 6.15589C506.893 6.04581 506.973 5.9446 507.075 5.85227C507.176 5.75876 507.295 5.66584 507.43 5.57351L508.135 5.11009C508.226 5.05208 508.293 4.99112 508.335 4.9272C508.378 4.8621 508.399 4.79167 508.399 4.71591C508.399 4.6437 508.37 4.57682 508.312 4.51527C508.254 4.45372 508.172 4.42353 508.065 4.42472C507.994 4.42472 507.933 4.4407 507.881 4.47266C507.829 4.50343 507.788 4.54427 507.758 4.59517C507.73 4.64489 507.716 4.70052 507.716 4.76207C507.716 4.83783 507.737 4.91477 507.779 4.9929C507.822 5.07102 507.879 5.15388 507.95 5.24148C508.021 5.32789 508.098 5.4214 508.183 5.52202L509.907 7.5H509.118L507.68 5.89844C507.585 5.79072 507.491 5.67827 507.396 5.56108C507.302 5.44271 507.224 5.31723 507.162 5.18466C507.099 5.0509 507.067 4.90589 507.067 4.74964C507.067 4.57327 507.108 4.41465 507.19 4.27379C507.273 4.13293 507.389 4.02166 507.538 3.93999C507.687 3.85713 507.861 3.8157 508.06 3.8157C508.254 3.8157 508.422 3.85535 508.562 3.93466C508.705 4.01278 508.813 4.11695 508.889 4.24716C508.966 4.37618 509.005 4.51823 509.005 4.6733C509.005 4.84493 508.962 5.00059 508.877 5.14027C508.793 5.27876 508.674 5.40305 508.522 5.51314L507.779 6.04759C507.679 6.12098 507.604 6.19614 507.556 6.27308C507.508 6.34884 507.485 6.42164 507.485 6.49148C507.485 6.57789 507.506 6.65542 507.549 6.72408C507.591 6.79273 507.652 6.84718 507.73 6.88743C507.808 6.92649 507.9 6.94602 508.005 6.94602C508.133 6.94602 508.259 6.91702 508.383 6.85902C508.509 6.79983 508.622 6.71638 508.724 6.60866C508.827 6.49976 508.909 6.37074 508.971 6.22159C509.032 6.07244 509.063 5.90732 509.063 5.72621H509.69C509.69 5.94875 509.666 6.14938 509.617 6.32812C509.569 6.50568 509.501 6.66075 509.415 6.79332C509.328 6.92472 509.23 7.03243 509.118 7.11648C509.083 7.13897 509.048 7.16027 509.015 7.1804C508.982 7.20052 508.948 7.22183 508.912 7.24432C508.777 7.35322 508.626 7.43194 508.46 7.48047C508.294 7.529 508.13 7.55327 507.968 7.55327ZM481.789 10.9094C481.775 10.7662 481.714 10.6549 481.606 10.5756C481.498 10.4963 481.352 10.4567 481.167 10.4567C481.042 10.4567 480.936 10.4744 480.849 10.5099C480.763 10.5443 480.697 10.5922 480.651 10.6538C480.606 10.7153 480.583 10.7852 480.583 10.8633C480.581 10.9284 480.594 10.9852 480.624 11.0337C480.655 11.0823 480.697 11.1243 480.75 11.1598C480.803 11.1941 480.865 11.2243 480.935 11.2504C481.004 11.2752 481.079 11.2965 481.158 11.3143L481.485 11.3924C481.644 11.4279 481.789 11.4753 481.922 11.5344C482.054 11.5936 482.169 11.6664 482.266 11.7528C482.363 11.8393 482.439 11.9411 482.492 12.0582C482.546 12.1754 482.574 12.3098 482.575 12.4613C482.574 12.6838 482.517 12.8768 482.405 13.0401C482.294 13.2023 482.133 13.3284 481.922 13.4183C481.712 13.5071 481.46 13.5515 481.164 13.5515C480.87 13.5515 480.614 13.5065 480.397 13.4165C480.18 13.3266 480.011 13.1934 479.889 13.017C479.768 12.8395 479.705 12.6199 479.699 12.3583H480.443C480.451 12.4802 480.486 12.582 480.548 12.6637C480.61 12.7442 480.694 12.8052 480.798 12.8466C480.903 12.8868 481.022 12.907 481.155 12.907C481.285 12.907 481.398 12.888 481.494 12.8501C481.591 12.8123 481.666 12.7596 481.719 12.6921C481.773 12.6246 481.799 12.5471 481.799 12.4595C481.799 12.3778 481.775 12.3092 481.727 12.2536C481.679 12.1979 481.609 12.1506 481.517 12.1115C481.426 12.0724 481.314 12.0369 481.181 12.005L480.786 11.9055C480.479 11.831 480.237 11.7144 480.059 11.5558C479.882 11.3971 479.794 11.1835 479.795 10.9148C479.794 10.6946 479.852 10.5022 479.971 10.3377C480.09 10.1732 480.254 10.0447 480.462 9.95241C480.671 9.86009 480.907 9.81392 481.173 9.81392C481.442 9.81392 481.678 9.86009 481.879 9.95241C482.082 10.0447 482.239 10.1732 482.352 10.3377C482.464 10.5022 482.522 10.6928 482.526 10.9094H481.789ZM482.954 10.4975V9.86364H485.94V10.4975H484.827V13.5H484.067V10.4975H482.954ZM487.201 9.86364V13.5H486.432V9.86364H487.201ZM487.834 13.5V9.86364H488.602V12.8661H490.161V13.5H487.834ZM490.671 13.5V9.86364H491.439V12.8661H492.998V13.5H490.671ZM494.121 13.5L493.08 9.86364H493.92L494.522 12.3903H494.552L495.216 9.86364H495.936L496.598 12.3956H496.63L497.232 9.86364H498.072L497.031 13.5H496.282L495.589 11.1225H495.561L494.87 13.5H494.121ZM498.483 13.5V9.86364H500.933V10.4975H499.252V11.364H500.807V11.9979H499.252V12.8661H500.94V13.5H498.483ZM501.545 13.5V9.86364H502.313V12.8661H503.872V13.5H501.545ZM504.381 13.5V9.86364H505.15V12.8661H506.709V13.5H504.381ZM509.002 13.5H508.179L509.434 9.86364H510.425L511.678 13.5H510.854L509.943 10.6946H509.915L509.002 13.5ZM508.951 12.0707H510.897V12.6708H508.951V12.0707ZM512.319 9.86364L513.198 12.6264H513.231L514.112 9.86364H514.964L513.711 13.5H512.72L511.465 9.86364H512.319Z" fill="white"/>
<path id="BAY 50 ST &#38; STILLWELL AV_2" d="M479.816 226.5V222.864H481.272C481.54 222.864 481.763 222.903 481.941 222.983C482.12 223.062 482.254 223.172 482.344 223.313C482.434 223.453 482.479 223.614 482.479 223.796C482.479 223.938 482.451 224.063 482.394 224.17C482.337 224.277 482.259 224.365 482.16 224.433C482.062 224.501 481.949 224.549 481.822 224.577V224.613C481.961 224.618 482.091 224.658 482.211 224.73C482.333 224.802 482.432 224.903 482.508 225.033C482.584 225.162 482.621 225.316 482.621 225.495C482.621 225.688 482.574 225.86 482.478 226.012C482.383 226.162 482.243 226.281 482.057 226.369C481.871 226.456 481.642 226.5 481.37 226.5H479.816ZM480.585 225.871H481.212C481.426 225.871 481.582 225.831 481.68 225.749C481.779 225.666 481.828 225.556 481.828 225.419C481.828 225.318 481.804 225.229 481.755 225.152C481.706 225.075 481.637 225.015 481.547 224.971C481.458 224.927 481.353 224.906 481.229 224.906H480.585V225.871ZM480.585 224.385H481.155C481.26 224.385 481.354 224.367 481.435 224.33C481.518 224.292 481.583 224.239 481.631 224.17C481.679 224.102 481.703 224.02 481.703 223.924C481.703 223.792 481.657 223.686 481.563 223.606C481.471 223.525 481.339 223.485 481.169 223.485H480.585V224.385ZM483.748 226.5H482.925L484.18 222.864H485.171L486.424 226.5H485.6L484.69 223.695H484.661L483.748 226.5ZM483.697 225.071H485.643V225.671H483.697V225.071ZM486.278 222.864H487.139L487.968 224.43H488.004L488.833 222.864H489.694L488.368 225.214V226.5H487.604V225.214L486.278 222.864ZM492.578 226.55C492.327 226.55 492.103 226.504 491.907 226.411C491.711 226.319 491.556 226.192 491.442 226.029C491.327 225.867 491.267 225.681 491.262 225.472H492.008C492.016 225.613 492.075 225.727 492.186 225.815C492.296 225.902 492.426 225.946 492.578 225.946C492.699 225.946 492.805 225.919 492.898 225.866C492.991 225.812 493.064 225.737 493.116 225.641C493.169 225.544 493.196 225.432 493.196 225.307C493.196 225.179 493.169 225.067 493.114 224.969C493.061 224.872 492.987 224.797 492.892 224.742C492.798 224.688 492.689 224.66 492.567 224.659C492.461 224.659 492.357 224.681 492.257 224.724C492.157 224.768 492.08 224.828 492.024 224.904L491.34 224.781L491.513 222.864H493.736V223.492H492.146L492.052 224.403H492.074C492.138 224.313 492.234 224.239 492.363 224.179C492.492 224.12 492.637 224.091 492.796 224.091C493.015 224.091 493.211 224.142 493.382 224.245C493.554 224.348 493.689 224.489 493.789 224.669C493.888 224.848 493.937 225.054 493.936 225.287C493.937 225.532 493.881 225.75 493.766 225.941C493.652 226.13 493.493 226.279 493.288 226.388C493.085 226.496 492.848 226.55 492.578 226.55ZM495.898 226.58C495.593 226.579 495.33 226.504 495.11 226.354C494.891 226.205 494.722 225.989 494.604 225.706C494.487 225.423 494.429 225.083 494.43 224.685C494.43 224.289 494.488 223.951 494.606 223.672C494.724 223.392 494.893 223.18 495.112 223.034C495.332 222.887 495.594 222.814 495.898 222.814C496.202 222.814 496.464 222.887 496.683 223.034C496.903 223.181 497.073 223.394 497.191 223.673C497.309 223.951 497.368 224.289 497.367 224.685C497.367 225.084 497.307 225.425 497.189 225.708C497.072 225.991 496.904 226.207 496.685 226.356C496.466 226.505 496.204 226.58 495.898 226.58ZM495.898 225.942C496.107 225.942 496.273 225.838 496.397 225.628C496.521 225.419 496.583 225.104 496.582 224.685C496.582 224.41 496.553 224.18 496.497 223.996C496.441 223.813 496.362 223.675 496.259 223.583C496.157 223.49 496.037 223.444 495.898 223.444C495.691 223.444 495.525 223.548 495.401 223.755C495.277 223.962 495.214 224.272 495.213 224.685C495.213 224.965 495.241 225.198 495.296 225.385C495.353 225.571 495.433 225.71 495.536 225.804C495.639 225.896 495.76 225.942 495.898 225.942ZM501.066 223.909C501.052 223.766 500.991 223.655 500.883 223.576C500.775 223.496 500.629 223.457 500.445 223.457C500.319 223.457 500.213 223.474 500.127 223.51C500.04 223.544 499.974 223.592 499.928 223.654C499.883 223.715 499.86 223.785 499.86 223.863C499.858 223.928 499.872 223.985 499.901 224.034C499.932 224.082 499.974 224.124 500.027 224.16C500.081 224.194 500.142 224.224 500.212 224.25C500.282 224.275 500.356 224.297 500.436 224.314L500.762 224.392C500.921 224.428 501.067 224.475 501.199 224.534C501.332 224.594 501.447 224.666 501.544 224.753C501.641 224.839 501.716 224.941 501.769 225.058C501.824 225.175 501.851 225.31 501.853 225.461C501.851 225.684 501.795 225.877 501.682 226.04C501.571 226.202 501.41 226.328 501.199 226.418C500.99 226.507 500.737 226.551 500.441 226.551C500.147 226.551 499.892 226.507 499.674 226.417C499.457 226.327 499.288 226.193 499.166 226.017C499.045 225.839 498.982 225.62 498.976 225.358H499.72C499.728 225.48 499.763 225.582 499.825 225.664C499.888 225.744 499.971 225.805 500.075 225.847C500.181 225.887 500.3 225.907 500.432 225.907C500.562 225.907 500.675 225.888 500.771 225.85C500.868 225.812 500.944 225.76 500.997 225.692C501.05 225.625 501.077 225.547 501.077 225.46C501.077 225.378 501.052 225.309 501.004 225.254C500.957 225.198 500.887 225.151 500.794 225.112C500.703 225.072 500.591 225.037 500.459 225.005L500.063 224.906C499.756 224.831 499.514 224.714 499.337 224.556C499.159 224.397 499.071 224.183 499.072 223.915C499.071 223.695 499.129 223.502 499.248 223.338C499.367 223.173 499.531 223.045 499.74 222.952C499.948 222.86 500.185 222.814 500.45 222.814C500.72 222.814 500.955 222.86 501.157 222.952C501.359 223.045 501.516 223.173 501.629 223.338C501.741 223.502 501.799 223.693 501.803 223.909H501.066ZM502.231 223.498V222.864H505.218V223.498H504.104V226.5H503.345V223.498H502.231ZM507.968 226.553C507.717 226.553 507.5 226.508 507.318 226.418C507.136 226.328 506.995 226.206 506.897 226.053C506.8 225.897 506.751 225.725 506.751 225.534C506.751 225.392 506.78 225.266 506.837 225.156C506.893 225.046 506.973 224.945 507.075 224.852C507.176 224.759 507.295 224.666 507.43 224.574L508.135 224.11C508.226 224.052 508.293 223.991 508.335 223.927C508.378 223.862 508.399 223.792 508.399 223.716C508.399 223.644 508.37 223.577 508.312 223.515C508.254 223.454 508.172 223.424 508.065 223.425C507.994 223.425 507.933 223.441 507.881 223.473C507.829 223.503 507.788 223.544 507.758 223.595C507.73 223.645 507.716 223.701 507.716 223.762C507.716 223.838 507.737 223.915 507.779 223.993C507.822 224.071 507.879 224.154 507.95 224.241C508.021 224.328 508.098 224.421 508.183 224.522L509.907 226.5H509.118L507.68 224.898C507.585 224.791 507.491 224.678 507.396 224.561C507.302 224.443 507.224 224.317 507.162 224.185C507.099 224.051 507.067 223.906 507.067 223.75C507.067 223.573 507.108 223.415 507.19 223.274C507.273 223.133 507.389 223.022 507.538 222.94C507.687 222.857 507.861 222.816 508.06 222.816C508.254 222.816 508.422 222.855 508.562 222.935C508.705 223.013 508.813 223.117 508.889 223.247C508.966 223.376 509.005 223.518 509.005 223.673C509.005 223.845 508.962 224.001 508.877 224.14C508.793 224.279 508.674 224.403 508.522 224.513L507.779 225.048C507.679 225.121 507.604 225.196 507.556 225.273C507.508 225.349 507.485 225.422 507.485 225.491C507.485 225.578 507.506 225.655 507.549 225.724C507.591 225.793 507.652 225.847 507.73 225.887C507.808 225.926 507.9 225.946 508.005 225.946C508.133 225.946 508.259 225.917 508.383 225.859C508.509 225.8 508.622 225.716 508.724 225.609C508.827 225.5 508.909 225.371 508.971 225.222C509.032 225.072 509.063 224.907 509.063 224.726H509.69C509.69 224.949 509.666 225.149 509.617 225.328C509.569 225.506 509.501 225.661 509.415 225.793C509.328 225.925 509.23 226.032 509.118 226.116C509.083 226.139 509.048 226.16 509.015 226.18C508.982 226.201 508.948 226.222 508.912 226.244C508.777 226.353 508.626 226.432 508.46 226.48C508.294 226.529 508.13 226.553 507.968 226.553ZM481.789 229.909C481.775 229.766 481.714 229.655 481.606 229.576C481.498 229.496 481.352 229.457 481.167 229.457C481.042 229.457 480.936 229.474 480.849 229.51C480.763 229.544 480.697 229.592 480.651 229.654C480.606 229.715 480.583 229.785 480.583 229.863C480.581 229.928 480.594 229.985 480.624 230.034C480.655 230.082 480.697 230.124 480.75 230.16C480.803 230.194 480.865 230.224 480.935 230.25C481.004 230.275 481.079 230.297 481.158 230.314L481.485 230.392C481.644 230.428 481.789 230.475 481.922 230.534C482.054 230.594 482.169 230.666 482.266 230.753C482.363 230.839 482.439 230.941 482.492 231.058C482.546 231.175 482.574 231.31 482.575 231.461C482.574 231.684 482.517 231.877 482.405 232.04C482.294 232.202 482.133 232.328 481.922 232.418C481.712 232.507 481.46 232.551 481.164 232.551C480.87 232.551 480.614 232.507 480.397 232.417C480.18 232.327 480.011 232.193 479.889 232.017C479.768 231.839 479.705 231.62 479.699 231.358H480.443C480.451 231.48 480.486 231.582 480.548 231.664C480.61 231.744 480.694 231.805 480.798 231.847C480.903 231.887 481.022 231.907 481.155 231.907C481.285 231.907 481.398 231.888 481.494 231.85C481.591 231.812 481.666 231.76 481.719 231.692C481.773 231.625 481.799 231.547 481.799 231.46C481.799 231.378 481.775 231.309 481.727 231.254C481.679 231.198 481.609 231.151 481.517 231.112C481.426 231.072 481.314 231.037 481.181 231.005L480.786 230.906C480.479 230.831 480.237 230.714 480.059 230.556C479.882 230.397 479.794 230.183 479.795 229.915C479.794 229.695 479.852 229.502 479.971 229.338C480.09 229.173 480.254 229.045 480.462 228.952C480.671 228.86 480.907 228.814 481.173 228.814C481.442 228.814 481.678 228.86 481.879 228.952C482.082 229.045 482.239 229.173 482.352 229.338C482.464 229.502 482.522 229.693 482.526 229.909H481.789ZM482.954 229.498V228.864H485.94V229.498H484.827V232.5H484.067V229.498H482.954ZM487.201 228.864V232.5H486.432V228.864H487.201ZM487.834 232.5V228.864H488.602V231.866H490.161V232.5H487.834ZM490.671 232.5V228.864H491.439V231.866H492.998V232.5H490.671ZM494.121 232.5L493.08 228.864H493.92L494.522 231.39H494.552L495.216 228.864H495.936L496.598 231.396H496.63L497.232 228.864H498.072L497.031 232.5H496.282L495.589 230.123H495.561L494.87 232.5H494.121ZM498.483 232.5V228.864H500.933V229.498H499.252V230.364H500.807V230.998H499.252V231.866H500.94V232.5H498.483ZM501.545 232.5V228.864H502.313V231.866H503.872V232.5H501.545ZM504.381 232.5V228.864H505.15V231.866H506.709V232.5H504.381ZM509.002 232.5H508.179L509.434 228.864H510.425L511.678 232.5H510.854L509.943 229.695H509.915L509.002 232.5ZM508.951 231.071H510.897V231.671H508.951V231.071ZM512.319 228.864L513.198 231.626H513.231L514.112 228.864H514.964L513.711 232.5H512.72L511.465 228.864H512.319Z" fill="white"/>
</g>
<g id="PLATFORMS">
<g id="UPTOWN PLATFORM">
<g id="UPTOWN PLATFORM BASE">
<rect id="UPTOWN PLATFORM REAR" x="300.5" y="185.5" width="616" height="30" fill="#00C8FF"/>
<rect id="UPTOWN PLATFORM MIDDLE" x="915.5" y="185.5" width="616" height="30" fill="#00C8FF"/>
<path id="UPTOWN PLATFORM HEAD" d="M1530.5 185.5H2145.5V203.5L2024.25 215.5H1881H1530.5V185.5Z" fill="#00C8FF"/>
<path id="UPTOWN PLATFORM BASE OUTLINE" d="M300.5 185.5H2145.5V203.5L2024.25 215.5H1881H300.5V185.5Z" stroke="black"/>
</g>
<g id="UPTOWN_TO_MEZZ_STAIRS">
<g id="STAIRS GRAPHIC_7">
<rect id="Rectangle 1_7" x="411.5" y="195.5" width="4" height="20" fill="#FF3538" stroke="black"/>
<rect id="Rectangle 2_7" x="415.5" y="195.5" width="4" height="20" fill="#FF3538" stroke="black"/>
<rect id="Rectangle 3_13" x="419.5" y="195.5" width="4" height="20" fill="#FF3538" stroke="black"/>
<rect id="Rectangle 4_13" x="423.5" y="195.5" width="4" height="20" fill="#FF3538" stroke="black"/>
<rect id="Rectangle 5_13" x="427.5" y="195.5" width="4" height="20" fill="#FF3538" stroke="black"/>
<rect id="Rectangle 6_13" x="431.5" y="195.5" width="4" height="20" fill="#FF3538" stroke="black"/>
<rect id="Rectangle 7_13" x="435.5" y="195.5" width="4" height="20" fill="#FF3538" stroke="black"/>
<rect id="Rectangle 8_13" x="439.5" y="195.5" width="4" height="20" fill="#FF3538" stroke="black"/>
<rect id="Rectangle 9_13" x="443.5" y="195.5" width="4" height="20" fill="#FF3538" stroke="black"/>
<rect id="Rectangle 10_13" x="447.5" y="195.5" width="4" height="20" fill="#FF3538" stroke="black"/>
</g>
<g id="ARROW_7">
<path id="ARROW GRAPHIC_7" d="M413.793 206.207C413.402 205.817 413.402 205.183 413.793 204.793L420.157 198.429C420.547 198.038 421.181 198.038 421.571 198.429C421.962 198.819 421.962 199.453 421.571 199.843L415.914 205.5L421.571 211.157C421.962 211.547 421.962 212.181 421.571 212.571C421.181 212.962 420.547 212.962 420.157 212.571L413.793 206.207ZM444.5 205.5V206.5H414.5V205.5V204.5H444.5V205.5Z" fill="white"/>
<path id="DOWN_5" d="M430.47 203.5H429.181V199.864H430.481C430.847 199.864 431.162 199.936 431.426 200.082C431.69 200.226 431.893 200.434 432.035 200.705C432.178 200.976 432.249 201.301 432.249 201.678C432.249 202.057 432.178 202.383 432.035 202.655C431.893 202.927 431.688 203.136 431.422 203.282C431.157 203.427 430.84 203.5 430.47 203.5ZM429.95 202.841H430.438C430.666 202.841 430.857 202.801 431.012 202.721C431.168 202.639 431.285 202.513 431.363 202.342C431.443 202.171 431.482 201.949 431.482 201.678C431.482 201.41 431.443 201.19 431.363 201.02C431.285 200.849 431.169 200.724 431.014 200.643C430.859 200.563 430.667 200.522 430.44 200.522H429.95V202.841ZM436.161 201.682C436.161 202.078 436.085 202.416 435.935 202.694C435.786 202.972 435.582 203.185 435.324 203.331C435.067 203.477 434.779 203.55 434.458 203.55C434.135 203.55 433.845 203.476 433.588 203.33C433.331 203.183 433.128 202.97 432.979 202.692C432.83 202.414 432.755 202.077 432.755 201.682C432.755 201.285 432.83 200.948 432.979 200.67C433.128 200.392 433.331 200.18 433.588 200.034C433.845 199.887 434.135 199.814 434.458 199.814C434.779 199.814 435.067 199.887 435.324 200.034C435.582 200.18 435.786 200.392 435.935 200.67C436.085 200.948 436.161 201.285 436.161 201.682ZM435.381 201.682C435.381 201.425 435.343 201.208 435.266 201.032C435.19 200.856 435.083 200.722 434.944 200.631C434.806 200.54 434.644 200.494 434.458 200.494C434.272 200.494 434.11 200.54 433.971 200.631C433.833 200.722 433.725 200.856 433.648 201.032C433.572 201.208 433.535 201.425 433.535 201.682C433.535 201.939 433.572 202.155 433.648 202.332C433.725 202.508 433.833 202.642 433.971 202.733C434.11 202.824 434.272 202.87 434.458 202.87C434.644 202.87 434.806 202.824 434.944 202.733C435.083 202.642 435.19 202.508 435.266 202.332C435.343 202.155 435.381 201.939 435.381 201.682ZM437.412 203.5L436.371 199.864H437.211L437.813 202.39H437.843L438.507 199.864H439.227L439.889 202.396H439.921L440.523 199.864H441.363L440.322 203.5H439.573L438.88 201.123H438.852L438.161 203.5H437.412ZM444.816 199.864V203.5H444.152L442.57 201.211H442.543V203.5H441.774V199.864H442.449L444.018 202.151H444.05V199.864H444.816Z" fill="white"/>
</g>
</g>
<g id="MINI KIOSKS">
<circle id="MINI KIOSK" cx="584.5" cy="213.5" r="2" fill="#00FFFF" stroke="black"/>
<circle id="MINI KIOSK_2" cx="1519.5" cy="213.5" r="2" fill="#00FFFF" stroke="black"/>
</g>
<g id="BENCHES">
<rect id="BENCH" x="600.5" y="209.5" width="32" height="6" fill="#FF731C" stroke="black"/>
<rect id="BENCH_2" x="784.5" y="209.5" width="32" height="6" fill="#FF731C" stroke="black"/>
<rect id="BENCH_3" x="869.5" y="209.5" width="32" height="6" fill="#FF731C" stroke="black"/>
</g>
<g id="TRASH BINS_2">
<circle id="TRASH BIN_2" cx="566" cy="211" r="4.5" fill="black" stroke="black"/>
<circle id="TRASH BIN_3" cx="836" cy="211" r="4.5" fill="black" stroke="black"/>
<circle id="TRASH BIN_4" cx="1173" cy="211" r="4.5" fill="black" stroke="black"/>
</g>
<g id="KIOSKS_2">
<rect id="KIOSK_2" x="484.5" y="211.5" width="9" height="4" fill="#00FFFF" stroke="black"/>
<rect id="KIOSK_3" x="751.5" y="211.5" width="9" height="4" fill="#00FFFF" stroke="black"/>
<rect id="KIOSK_4" x="495.5" y="211.5" width="9" height="4" fill="#00FFFF" stroke="black"/>
<rect id="KIOSK_5" x="518.5" y="211.5" width="9" height="4" fill="#00FFFF" stroke="black"/>
</g>
<g id="MISC_3">
<g id="MISC_4">
<path d="M256.5 189.5H300.5V213.5H256.5V189.5Z" fill="#525252"/>
<path d="M300.5 213.5V189.5H256.5V213.5H300.5ZM256.5 189.5L278.211 201.86M300.5 189.5L278.211 201.86M300.5 213.5L278.211 201.86M256.5 213.5L278.211 201.86" stroke="black"/>
</g>
<g id="MISC_5">
<path d="M342.5 195.5H369.5V215.5H342.5V195.5Z" fill="#525252"/>
<path d="M369.5 215.5V195.5H342.5V215.5H369.5ZM342.5 195.5L355.822 205.8M369.5 195.5L355.822 205.8M369.5 215.5L355.822 205.8M342.5 215.5L355.822 205.8" stroke="black"/>
</g>
<g id="MISC_6">
<path d="M392.5 211.5H403.5V215.5H392.5V211.5Z" fill="#525252"/>
<path d="M403.5 215.5V211.5H392.5V215.5H403.5ZM392.5 211.5L397.928 213.56M403.5 211.5L397.928 213.56M403.5 215.5L397.928 213.56M392.5 215.5L397.928 213.56" stroke="black"/>
</g>
<g id="MISC_7">
<path d="M1529.5 206.5H1544.5V215.5H1529.5V206.5Z" fill="#525252"/>
<path d="M1544.5 215.5V206.5H1529.5V215.5H1544.5ZM1529.5 206.5L1536.9 211.135M1544.5 206.5L1536.9 211.135M1544.5 215.5L1536.9 211.135M1529.5 215.5L1536.9 211.135" stroke="black"/>
</g>
<g id="MISC_8">
<path d="M850.5 210.5H856.5V215.5H850.5V210.5Z" fill="#525252"/>
<path d="M856.5 215.5V210.5H850.5V215.5H856.5ZM850.5 210.5L853.461 213.075M856.5 210.5L853.461 213.075M856.5 215.5L853.461 213.075M850.5 215.5L853.461 213.075" stroke="black"/>
</g>
</g>
</g>
<g id="DOWNTOWN PLATFORM">
<g id="DOWNTOWN PLATFORM BASE">
<path id="DOWNTOWN PLATFORM REAR" d="M1845.5 50.5V27.3571L1802.5 20.5H1230.5V50.5H1845.5Z" fill="#00C8FF"/>
<rect id="DOWNTOWN PLATFORM MIDDLE" x="616.5" y="20.5" width="615" height="30" fill="#00C8FF"/>
<rect id="DOWNTOWN PLATFORM HEAD" x="0.5" y="20.5" width="617" height="30" fill="#00C8FF"/>
<path id="DOWNTOWN PLATFORM BASE OUTLINE" d="M1845.5 50.5V27.3571L1801.5 20.5H1749.5H0.5V50.5H1845.5Z" stroke="black"/>
</g>
<g id="DOWNTOWN_TO_MEZZ_STAIRS">
<g id="STAIRS GRAPHIC_8">
<rect id="Rectangle 1_8" x="411.5" y="20.5" width="4" height="20" fill="#FF3538" stroke="black"/>
<rect id="Rectangle 2_8" x="415.5" y="20.5" width="4" height="20" fill="#FF3538" stroke="black"/>
<rect id="Rectangle 3_14" x="419.5" y="20.5" width="4" height="20" fill="#FF3538" stroke="black"/>
<rect id="Rectangle 4_14" x="423.5" y="20.5" width="4" height="20" fill="#FF3538" stroke="black"/>
<rect id="Rectangle 5_14" x="427.5" y="20.5" width="4" height="20" fill="#FF3538" stroke="black"/>
<rect id="Rectangle 6_14" x="431.5" y="20.5" width="4" height="20" fill="#FF3538" stroke="black"/>
<rect id="Rectangle 7_14" x="435.5" y="20.5" width="4" height="20" fill="#FF3538" stroke="black"/>
<rect id="Rectangle 8_14" x="439.5" y="20.5" width="4" height="20" fill="#FF3538" stroke="black"/>
<rect id="Rectangle 9_14" x="443.5" y="20.5" width="4" height="20" fill="#FF3538" stroke="black"/>
<rect id="Rectangle 10_14" x="447.5" y="20.5" width="4" height="20" fill="#FF3538" stroke="black"/>
</g>
<g id="ARROW_8">
<path id="ARROW GRAPHIC_8" d="M413.793 31.2071C413.402 30.8166 413.402 30.1834 413.793 29.7929L420.157 23.4289C420.547 23.0384 421.181 23.0384 421.571 23.4289C421.962 23.8195 421.962 24.4526 421.571 24.8431L415.914 30.5L421.571 36.1569C421.962 36.5474 421.962 37.1805 421.571 37.5711C421.181 37.9616 420.547 37.9616 420.157 37.5711L413.793 31.2071ZM444.5 30.5V31.5H414.5V30.5V29.5H444.5V30.5Z" fill="white"/>
<path id="DOWN_6" d="M430.47 27.5H429.181V23.8636H430.481C430.847 23.8636 431.162 23.9364 431.426 24.082C431.69 24.2264 431.893 24.4342 432.035 24.7053C432.178 24.9763 432.249 25.3007 432.249 25.6783C432.249 26.0571 432.178 26.3826 432.035 26.6548C431.893 26.9271 431.688 27.136 431.422 27.2816C431.157 27.4272 430.84 27.5 430.47 27.5ZM429.95 26.8413H430.438C430.666 26.8413 430.857 26.801 431.012 26.7205C431.168 26.6388 431.285 26.5128 431.363 26.3423C431.443 26.1707 431.482 25.9493 431.482 25.6783C431.482 25.4096 431.443 25.19 431.363 25.0195C431.285 24.8491 431.169 24.7236 431.014 24.6431C430.859 24.5626 430.667 24.5224 430.44 24.5224H429.95V26.8413ZM436.161 25.6818C436.161 26.0784 436.085 26.4157 435.935 26.6939C435.786 26.9721 435.582 27.1845 435.324 27.3313C435.067 27.4769 434.779 27.5497 434.458 27.5497C434.135 27.5497 433.845 27.4763 433.588 27.3295C433.331 27.1828 433.128 26.9703 432.979 26.6921C432.83 26.4139 432.755 26.0772 432.755 25.6818C432.755 25.2853 432.83 24.9479 432.979 24.6697C433.128 24.3916 433.331 24.1797 433.588 24.0341C433.845 23.8873 434.135 23.8139 434.458 23.8139C434.779 23.8139 435.067 23.8873 435.324 24.0341C435.582 24.1797 435.786 24.3916 435.935 24.6697C436.085 24.9479 436.161 25.2853 436.161 25.6818ZM435.381 25.6818C435.381 25.425 435.343 25.2083 435.266 25.032C435.19 24.8556 435.083 24.7218 434.944 24.6307C434.806 24.5395 434.644 24.494 434.458 24.494C434.272 24.494 434.11 24.5395 433.971 24.6307C433.833 24.7218 433.725 24.8556 433.648 25.032C433.572 25.2083 433.535 25.425 433.535 25.6818C433.535 25.9387 433.572 26.1553 433.648 26.3317C433.725 26.508 433.833 26.6418 433.971 26.733C434.11 26.8241 434.272 26.8697 434.458 26.8697C434.644 26.8697 434.806 26.8241 434.944 26.733C435.083 26.6418 435.19 26.508 435.266 26.3317C435.343 26.1553 435.381 25.9387 435.381 25.6818ZM437.412 27.5L436.371 23.8636H437.211L437.813 26.3903H437.843L438.507 23.8636H439.227L439.889 26.3956H439.921L440.523 23.8636H441.363L440.322 27.5H439.573L438.88 25.1225H438.852L438.161 27.5H437.412ZM444.816 23.8636V27.5H444.152L442.57 25.2113H442.543V27.5H441.774V23.8636H442.449L444.018 26.1506H444.05V23.8636H444.816Z" fill="white"/>
</g>
</g>
<g id="MINI KIOSKS_2">
<circle id="MINI KIOSK_3" cx="1383.5" cy="22.5" r="2" fill="#00FFFF" stroke="black"/>
</g>
<g id="BENCHES_2">
<rect id="BENCH_4" x="600.5" y="20.5" width="32" height="6" fill="#FF731C" stroke="black"/>
<rect id="BENCH_5" x="810.5" y="20.5" width="32" height="6" fill="#FF731C" stroke="black"/>
</g>
<g id="TRASH BINS_3">
<circle id="TRASH BIN_5" cx="582" cy="25" r="4.5" fill="black" stroke="black"/>
<circle id="TRASH BIN_6" cx="765" cy="26" r="4.5" fill="black" stroke="black"/>
<circle id="TRASH BIN_7" cx="1173" cy="26" r="4.5" fill="black" stroke="black"/>
</g>
<g id="KIOSKS_3">
<rect id="KIOSK_6" x="484.5" y="20.5" width="9" height="4" fill="#00FFFF" stroke="black"/>
<rect id="KIOSK_7" x="495.5" y="20.5" width="9" height="4" fill="#00FFFF" stroke="black"/>
<rect id="KIOSK_8" x="516.5" y="20.5" width="9" height="4" fill="#00FFFF" stroke="black"/>
<rect id="KIOSK_9" x="784.5" y="20.5" width="9" height="4" fill="#00FFFF" stroke="black"/>
</g>
<g id="MISC_9">
<g id="MISC_10">
<path d="M386.5 20.5H403.5V32.5H386.5V20.5Z" fill="#525252"/>
<path d="M403.5 32.5V20.5H386.5V32.5H403.5ZM386.5 20.5L394.888 26.68M403.5 20.5L394.888 26.68M403.5 32.5L394.888 26.68M386.5 32.5L394.888 26.68" stroke="black"/>
</g>
<g id="MISC_11">
<path d="M1779.5 20.5H1796.5V34.5H1779.5V20.5Z" fill="#525252"/>
<path d="M1796.5 34.5V20.5H1779.5V34.5H1796.5ZM1779.5 20.5L1787.89 27.71M1796.5 20.5L1787.89 27.71M1796.5 34.5L1787.89 27.71M1779.5 34.5L1787.89 27.71" stroke="black"/>
</g>
</g>
</g>
</g>
</g>
</svg>
