<svg width="1807" height="484" viewBox="0 0 1807 484" fill="none" xmlns="http://www.w3.org/2000/svg">
<rect width="1807" height="484" fill="white"/>
<g id="DIAGRAM">
<g id="MEZZANINE">
<g id="MEZZANINE BASE">
<path d="M275 378V321V127V69L275 17L542 17V69L474 69V119H458V127V321V328H483V378H542V430L275 430L275 378Z" fill="#B4F8CA"/>
<path d="M483 378H542V430L275 430L275 378V69M356 127V69H474L542 69V17L275 17L275 69V127H356ZM474 69V119H458V328H483V378M483 378H356V321M275 378V321H356M356 127H416H458M356 127V224V321M356 321H416H458M458 127V321M458 127V119M458 321V328" stroke="black" stroke-width="2"/>
</g>
<g id="MEZZ_TO_DOWNTOWN_STAIRS">
<g id="GRAPHIC">
<path d="M584 69H598.375H612.75H627.125H641.5H655.875H670.25H684.625H699V119H684.625H670.25H655.875H641.5H627.125H612.75H598.375H584V69Z" fill="#8E8E8E"/>
<path d="M469 69H483.375H497.75H512.125H526.5H540.875H555.25H569.625H584V119H569.625H555.25H540.875H526.5H512.125H497.75H483.375H469V69Z" fill="#8E8E8E"/>
<path d="M584 69V119M584 69H598.375M584 69H569.625M584 119H598.375M584 119H569.625M641.5 69H627.125M641.5 69H655.875M641.5 69V119M641.5 119H627.125M641.5 119H655.875M612.75 69H598.375M612.75 69H627.125M612.75 69V119M612.75 119H598.375M612.75 119H627.125M670.25 69H655.875M670.25 69H684.625M670.25 69V119M670.25 119H655.875M670.25 119H684.625M598.375 69V119M627.125 69V119M655.875 69V119M684.625 69H699V119H684.625M684.625 69V119M526.5 69H512.125M526.5 69H540.875M526.5 69V119M526.5 119H512.125M526.5 119H540.875M497.75 69H483.375M497.75 69H512.125M497.75 69V119M497.75 119H483.375M497.75 119H512.125M555.25 69H540.875M555.25 69H569.625M555.25 69V119M555.25 119H540.875M555.25 119H569.625M483.375 69H469V119H483.375M483.375 69V119M512.125 69V119M540.875 69V119M569.625 69V119" stroke="black" stroke-width="2"/>
</g>
<g id="ARROW">
<path id="GRAPHIC_2" d="M612 92.5L598 82V86.75H568V96.25H598V101L612 92.5Z" fill="white" stroke="black" stroke-width="3"/>
<path id="DIRECTION TEXT" d="M624.359 86.0909H626.666V93.1754C626.666 93.9709 626.476 94.6669 626.096 95.2635C625.719 95.8601 625.192 96.3253 624.514 96.6591C623.835 96.9893 623.045 97.1545 622.143 97.1545C621.238 97.1545 620.446 96.9893 619.768 96.6591C619.089 96.3253 618.562 95.8601 618.186 95.2635C617.809 94.6669 617.621 93.9709 617.621 93.1754V86.0909H619.927V92.9783C619.927 93.3938 620.018 93.7631 620.199 94.0863C620.384 94.4094 620.643 94.6634 620.977 94.848C621.311 95.0327 621.699 95.125 622.143 95.125C622.591 95.125 622.98 95.0327 623.31 94.848C623.644 94.6634 623.901 94.4094 624.082 94.0863C624.267 93.7631 624.359 93.3938 624.359 92.9783V86.0909ZM628.563 97V86.0909H632.867C633.695 86.0909 634.4 86.2489 634.982 86.565C635.564 86.8775 636.008 87.3125 636.314 87.87C636.623 88.424 636.777 89.0632 636.777 89.7876C636.777 90.5121 636.621 91.1513 636.308 91.7053C635.996 92.2592 635.543 92.6907 634.95 92.9996C634.361 93.3086 633.647 93.4631 632.809 93.4631H630.066V91.6147H632.436C632.88 91.6147 633.246 91.5384 633.533 91.3857C633.824 91.2294 634.041 91.0146 634.183 90.7411C634.329 90.4641 634.401 90.1463 634.401 89.7876C634.401 89.4254 634.329 89.1094 634.183 88.8395C634.041 88.5661 633.824 88.3548 633.533 88.2056C633.242 88.0529 632.873 87.9766 632.425 87.9766H630.87V97H628.563Z" fill="white"/>
</g>
</g>
<g id="MEZZ_TO_UPTOWN_STAIRS">
<g id="GRAPHIC_3">
<path d="M584 328H598.375H612.75H627.125H641.5H655.875H670.25H684.625H699V378H684.625H670.25H655.875H641.5H627.125H612.75H598.375H584V328Z" fill="#8E8E8E"/>
<path d="M469 328H483.375H497.75H512.125H526.5H540.875H555.25H569.625H584V378H569.625H555.25H540.875H526.5H512.125H497.75H483.375H469V328Z" fill="#8E8E8E"/>
<path d="M584 328V378M584 328H598.375M584 328H569.625M584 378H598.375M584 378H569.625M641.5 328H627.125M641.5 328H655.875M641.5 328V378M641.5 378H627.125M641.5 378H655.875M612.75 328H598.375M612.75 328H627.125M612.75 328V378M612.75 378H598.375M612.75 378H627.125M670.25 328H655.875M670.25 328H684.625M670.25 328V378M670.25 378H655.875M670.25 378H684.625M598.375 328V378M627.125 328V378M655.875 328V378M684.625 328H699V378H684.625M684.625 328V378M526.5 328H512.125M526.5 328H540.875M526.5 328V378M526.5 378H512.125M526.5 378H540.875M497.75 328H483.375M497.75 328H512.125M497.75 328V378M497.75 378H483.375M497.75 378H512.125M555.25 328H540.875M555.25 328H569.625M555.25 328V378M555.25 378H540.875M555.25 378H569.625M483.375 328H469V378H483.375M483.375 328V378M512.125 328V378M540.875 328V378M569.625 328V378" stroke="black" stroke-width="2"/>
</g>
<g id="ARROW_2">
<path id="GRAPHIC_4" d="M612 353.5L598 343V347.75H568V357.25H598V362L612 353.5Z" fill="white" stroke="black" stroke-width="3"/>
<path id="DIRECTION TEXT_2" d="M624.359 347.091H626.666V354.175C626.666 354.971 626.476 355.667 626.096 356.263C625.719 356.86 625.192 357.325 624.514 357.659C623.835 357.989 623.045 358.154 622.143 358.154C621.238 358.154 620.446 357.989 619.768 357.659C619.089 357.325 618.562 356.86 618.186 356.263C617.809 355.667 617.621 354.971 617.621 354.175V347.091H619.927V353.978C619.927 354.394 620.018 354.763 620.199 355.086C620.384 355.409 620.643 355.663 620.977 355.848C621.311 356.033 621.699 356.125 622.143 356.125C622.591 356.125 622.98 356.033 623.31 355.848C623.644 355.663 623.901 355.409 624.082 355.086C624.267 354.763 624.359 354.394 624.359 353.978V347.091ZM628.563 358V347.091H632.867C633.695 347.091 634.4 347.249 634.982 347.565C635.564 347.877 636.008 348.312 636.314 348.87C636.623 349.424 636.777 350.063 636.777 350.788C636.777 351.512 636.621 352.151 636.308 352.705C635.996 353.259 635.543 353.691 634.95 354C634.361 354.309 633.647 354.463 632.809 354.463H630.066V352.615H632.436C632.88 352.615 633.246 352.538 633.533 352.386C633.824 352.229 634.041 352.015 634.183 351.741C634.329 351.464 634.401 351.146 634.401 350.788C634.401 350.425 634.329 350.109 634.183 349.839C634.041 349.566 633.824 349.355 633.533 349.206C633.242 349.053 632.873 348.977 632.425 348.977H630.87V358H628.563Z" fill="white"/>
</g>
</g>
<g id="BAY_50_ST_STILLWELL_AV_1_STAIRS">
<g id="GRAPHIC_5">
<path d="M542 17H556.375H570.75H585.125H599.5H613.875H628.25H642.625H657V61H642.625H628.25H613.875H599.5H585.125H570.75H556.375H542V17Z" fill="#8E8E8E"/>
<path d="M599.5 17H585.125M599.5 17H613.875M599.5 17V61M599.5 61H585.125M599.5 61H613.875M570.75 17H556.375M570.75 17H585.125M570.75 17V61M570.75 61H556.375M570.75 61H585.125M628.25 17H613.875M628.25 17H642.625M628.25 17V61M628.25 61H613.875M628.25 61H642.625M556.375 17H542V61H556.375M556.375 17V61M585.125 17V61M613.875 17V61M642.625 17H657V61H642.625M642.625 17V61" stroke="black" stroke-width="2"/>
</g>
<g id="ARROW_3">
<path id="GRAPHIC_6" d="M596 39.5L582 29V33.75H552V43.25H582V48L596 39.5Z" fill="white" stroke="black" stroke-width="3"/>
<path id="DIRECTION TEXT_3" d="M607.411 44H603.544V33.0909H607.443C608.54 33.0909 609.485 33.3093 610.277 33.7461C611.069 34.1793 611.678 34.8026 612.104 35.6158C612.534 36.429 612.748 37.402 612.748 38.5348C612.748 39.6712 612.534 40.6477 612.104 41.4645C611.678 42.2812 611.065 42.908 610.266 43.3448C609.471 43.7816 608.519 44 607.411 44ZM605.85 42.0238H607.315C607.997 42.0238 608.57 41.9031 609.036 41.6616C609.504 41.4165 609.856 41.0384 610.09 40.527C610.328 40.0121 610.447 39.348 610.447 38.5348C610.447 37.7287 610.328 37.07 610.09 36.5586C609.856 36.0472 609.506 35.6708 609.041 35.4293C608.576 35.1879 608.002 35.0671 607.32 35.0671H605.85V42.0238ZM624.482 38.5455C624.482 39.7351 624.256 40.7472 623.805 41.5817C623.358 42.4162 622.747 43.0536 621.973 43.494C621.202 43.9308 620.336 44.1491 619.373 44.1491C618.404 44.1491 617.534 43.929 616.763 43.4886C615.993 43.0483 615.384 42.4109 614.936 41.5763C614.489 40.7418 614.265 39.7315 614.265 38.5455C614.265 37.3558 614.489 36.3438 614.936 35.5092C615.384 34.6747 615.993 34.0391 616.763 33.6023C617.534 33.1619 618.404 32.9418 619.373 32.9418C620.336 32.9418 621.202 33.1619 621.973 33.6023C622.747 34.0391 623.358 34.6747 623.805 35.5092C624.256 36.3438 624.482 37.3558 624.482 38.5455ZM622.143 38.5455C622.143 37.7749 622.028 37.125 621.797 36.5959C621.57 36.0668 621.248 35.6655 620.833 35.392C620.418 35.1186 619.931 34.9819 619.373 34.9819C618.816 34.9819 618.329 35.1186 617.914 35.392C617.498 35.6655 617.175 36.0668 616.945 36.5959C616.717 37.125 616.604 37.7749 616.604 38.5455C616.604 39.3161 616.717 39.9659 616.945 40.495C617.175 41.0241 617.498 41.4254 617.914 41.6989C618.329 41.9723 618.816 42.109 619.373 42.109C619.931 42.109 620.418 41.9723 620.833 41.6989C621.248 41.4254 621.57 41.0241 621.797 40.495C622.028 39.9659 622.143 39.3161 622.143 38.5455ZM628.236 44L625.114 33.0909H627.634L629.44 40.6708H629.53L631.522 33.0909H633.68L635.667 40.6868H635.762L637.568 33.0909H640.088L636.966 44H634.718L632.641 36.8675H632.556L630.484 44H628.236ZM650.447 33.0909V44H648.455L643.709 37.1339H643.629V44H641.322V33.0909H643.346L648.055 39.9517H648.151V33.0909H650.447Z" fill="white"/>
</g>
</g>
<g id="BAY_50_ST_STILLWELL_AV_2_STAIRS">
<g id="GRAPHIC_7">
<path d="M542 386H556.375H570.75H585.125H599.5H613.875H628.25H642.625H657V430H642.625H628.25H613.875H599.5H585.125H570.75H556.375H542V386Z" fill="#8E8E8E"/>
<path d="M599.5 386H585.125M599.5 386H613.875M599.5 386V430M599.5 430H585.125M599.5 430H613.875M570.75 386H556.375M570.75 386H585.125M570.75 386V430M570.75 430H556.375M570.75 430H585.125M628.25 386H613.875M628.25 386H642.625M628.25 386V430M628.25 430H613.875M628.25 430H642.625M556.375 386H542V430H556.375M556.375 386V430M585.125 386V430M613.875 386V430M642.625 386H657V430H642.625M642.625 386V430" stroke="black" stroke-width="2"/>
</g>
<g id="ARROW_4">
<path id="GRAPHIC_8" d="M596 409.5L582 399V403.75H552V413.25H582V418L596 409.5Z" fill="white" stroke="black" stroke-width="3"/>
<path id="DIRECTION TEXT_4" d="M607.411 414H603.544V403.091H607.443C608.54 403.091 609.485 403.309 610.277 403.746C611.069 404.179 611.678 404.803 612.104 405.616C612.534 406.429 612.748 407.402 612.748 408.535C612.748 409.671 612.534 410.648 612.104 411.464C611.678 412.281 611.065 412.908 610.266 413.345C609.471 413.782 608.519 414 607.411 414ZM605.85 412.024H607.315C607.997 412.024 608.57 411.903 609.036 411.662C609.504 411.417 609.856 411.038 610.09 410.527C610.328 410.012 610.447 409.348 610.447 408.535C610.447 407.729 610.328 407.07 610.09 406.559C609.856 406.047 609.506 405.671 609.041 405.429C608.576 405.188 608.002 405.067 607.32 405.067H605.85V412.024ZM624.482 408.545C624.482 409.735 624.256 410.747 623.805 411.582C623.358 412.416 622.747 413.054 621.973 413.494C621.202 413.931 620.336 414.149 619.373 414.149C618.404 414.149 617.534 413.929 616.763 413.489C615.993 413.048 615.384 412.411 614.936 411.576C614.489 410.742 614.265 409.732 614.265 408.545C614.265 407.356 614.489 406.344 614.936 405.509C615.384 404.675 615.993 404.039 616.763 403.602C617.534 403.162 618.404 402.942 619.373 402.942C620.336 402.942 621.202 403.162 621.973 403.602C622.747 404.039 623.358 404.675 623.805 405.509C624.256 406.344 624.482 407.356 624.482 408.545ZM622.143 408.545C622.143 407.775 622.028 407.125 621.797 406.596C621.57 406.067 621.248 405.665 620.833 405.392C620.418 405.119 619.931 404.982 619.373 404.982C618.816 404.982 618.329 405.119 617.914 405.392C617.498 405.665 617.175 406.067 616.945 406.596C616.717 407.125 616.604 407.775 616.604 408.545C616.604 409.316 616.717 409.966 616.945 410.495C617.175 411.024 617.498 411.425 617.914 411.699C618.329 411.972 618.816 412.109 619.373 412.109C619.931 412.109 620.418 411.972 620.833 411.699C621.248 411.425 621.57 411.024 621.797 410.495C622.028 409.966 622.143 409.316 622.143 408.545ZM628.236 414L625.114 403.091H627.634L629.44 410.671H629.53L631.522 403.091H633.68L635.667 410.687H635.762L637.568 403.091H640.088L636.966 414H634.718L632.641 406.868H632.556L630.484 414H628.236ZM650.447 403.091V414H648.455L643.709 407.134H643.629V414H641.322V403.091H643.346L648.055 409.952H648.151V403.091H650.447Z" fill="white"/>
</g>
</g>
<g id="HARWAY_AV_STILLWELL_AV_1_STAIRS">
<g id="GRAPHIC_9">
<path d="M160 17H174.375H188.75H203.125H217.5H231.875H246.25H260.625H275V61H260.625H246.25H231.875H217.5H203.125H188.75H174.375H160V17Z" fill="#8E8E8E"/>
<path d="M217.5 17H203.125M217.5 17H231.875M217.5 17V61M217.5 61H203.125M217.5 61H231.875M188.75 17H174.375M188.75 17H203.125M188.75 17V61M188.75 61H174.375M188.75 61H203.125M246.25 17H231.875M246.25 17H260.625M246.25 17V61M246.25 61H231.875M246.25 61H260.625M174.375 17H160V61H174.375M174.375 17V61M203.125 17V61M231.875 17V61M260.625 17H275V61H260.625M260.625 17V61" stroke="black" stroke-width="2"/>
</g>
<g id="ARROW_5">
<path id="GRAPHIC_10" d="M221 39.5L235 29V33.75H265V43.25H235V48L221 39.5Z" fill="white" stroke="black" stroke-width="3"/>
<path id="DIRECTION TEXT_5" d="M173.411 44H169.544V33.0909H173.443C174.54 33.0909 175.485 33.3093 176.277 33.7461C177.069 34.1793 177.678 34.8026 178.104 35.6158C178.534 36.429 178.748 37.402 178.748 38.5348C178.748 39.6712 178.534 40.6477 178.104 41.4645C177.678 42.2813 177.065 42.908 176.266 43.3448C175.471 43.7816 174.519 44 173.411 44ZM171.85 42.0238H173.315C173.997 42.0238 174.57 41.9031 175.036 41.6616C175.504 41.4166 175.856 41.0384 176.09 40.527C176.328 40.0121 176.447 39.348 176.447 38.5348C176.447 37.7287 176.328 37.07 176.09 36.5586C175.856 36.0472 175.506 35.6708 175.041 35.4293C174.576 35.1879 174.002 35.0671 173.32 35.0671H171.85V42.0238ZM190.482 38.5455C190.482 39.7351 190.256 40.7472 189.805 41.5817C189.358 42.4162 188.747 43.0536 187.973 43.494C187.202 43.9308 186.336 44.1492 185.373 44.1492C184.404 44.1492 183.534 43.929 182.763 43.4886C181.993 43.0483 181.384 42.4109 180.936 41.5764C180.489 40.7418 180.265 39.7315 180.265 38.5455C180.265 37.3558 180.489 36.3438 180.936 35.5092C181.384 34.6747 181.993 34.0391 182.763 33.6023C183.534 33.1619 184.404 32.9418 185.373 32.9418C186.336 32.9418 187.202 33.1619 187.973 33.6023C188.747 34.0391 189.358 34.6747 189.805 35.5092C190.256 36.3438 190.482 37.3558 190.482 38.5455ZM188.143 38.5455C188.143 37.7749 188.028 37.125 187.797 36.5959C187.57 36.0668 187.248 35.6655 186.833 35.3921C186.418 35.1186 185.931 34.9819 185.373 34.9819C184.816 34.9819 184.329 35.1186 183.914 35.3921C183.498 35.6655 183.175 36.0668 182.945 36.5959C182.717 37.125 182.604 37.7749 182.604 38.5455C182.604 39.3161 182.717 39.9659 182.945 40.495C183.175 41.0242 183.498 41.4254 183.914 41.6989C184.329 41.9723 184.816 42.109 185.373 42.109C185.931 42.109 186.418 41.9723 186.833 41.6989C187.248 41.4254 187.57 41.0242 187.797 40.495C188.028 39.9659 188.143 39.3161 188.143 38.5455ZM194.236 44L191.114 33.0909H193.634L195.44 40.6708H195.53L197.522 33.0909H199.68L201.667 40.6868H201.762L203.568 33.0909H206.088L202.966 44H200.718L198.641 36.8676H198.556L196.484 44H194.236ZM216.447 33.0909V44H214.455L209.709 37.1339H209.629V44H207.322V33.0909H209.346L214.055 39.9517H214.151V33.0909H216.447Z" fill="white"/>
</g>
</g>
<g id="HARWAY_AV_STILLWELL_AV_2_STAIRS">
<g id="GRAPHIC_11">
<path d="M160 386H174.375H188.75H203.125H217.5H231.875H246.25H260.625H275V430H260.625H246.25H231.875H217.5H203.125H188.75H174.375H160V386Z" fill="#8E8E8E"/>
<path d="M217.5 386H203.125M217.5 386H231.875M217.5 386V430M217.5 430H203.125M217.5 430H231.875M188.75 386H174.375M188.75 386H203.125M188.75 386V430M188.75 430H174.375M188.75 430H203.125M246.25 386H231.875M246.25 386H260.625M246.25 386V430M246.25 430H231.875M246.25 430H260.625M174.375 386H160V430H174.375M174.375 386V430M203.125 386V430M231.875 386V430M260.625 386H275V430H260.625M260.625 386V430" stroke="black" stroke-width="2"/>
</g>
<g id="ARROW_6">
<path id="GRAPHIC_12" d="M221 408.5L235 398V402.75H265V412.25H235V417L221 408.5Z" fill="white" stroke="black" stroke-width="3"/>
<path id="DIRECTION TEXT_6" d="M173.411 413H169.544V402.091H173.443C174.54 402.091 175.485 402.309 176.277 402.746C177.069 403.179 177.678 403.803 178.104 404.616C178.534 405.429 178.748 406.402 178.748 407.535C178.748 408.671 178.534 409.648 178.104 410.464C177.678 411.281 177.065 411.908 176.266 412.345C175.471 412.782 174.519 413 173.411 413ZM171.85 411.024H173.315C173.997 411.024 174.57 410.903 175.036 410.662C175.504 410.417 175.856 410.038 176.09 409.527C176.328 409.012 176.447 408.348 176.447 407.535C176.447 406.729 176.328 406.07 176.09 405.559C175.856 405.047 175.506 404.671 175.041 404.429C174.576 404.188 174.002 404.067 173.32 404.067H171.85V411.024ZM190.482 407.545C190.482 408.735 190.256 409.747 189.805 410.582C189.358 411.416 188.747 412.054 187.973 412.494C187.202 412.931 186.336 413.149 185.373 413.149C184.404 413.149 183.534 412.929 182.763 412.489C181.993 412.048 181.384 411.411 180.936 410.576C180.489 409.742 180.265 408.732 180.265 407.545C180.265 406.356 180.489 405.344 180.936 404.509C181.384 403.675 181.993 403.039 182.763 402.602C183.534 402.162 184.404 401.942 185.373 401.942C186.336 401.942 187.202 402.162 187.973 402.602C188.747 403.039 189.358 403.675 189.805 404.509C190.256 405.344 190.482 406.356 190.482 407.545ZM188.143 407.545C188.143 406.775 188.028 406.125 187.797 405.596C187.57 405.067 187.248 404.665 186.833 404.392C186.418 404.119 185.931 403.982 185.373 403.982C184.816 403.982 184.329 404.119 183.914 404.392C183.498 404.665 183.175 405.067 182.945 405.596C182.717 406.125 182.604 406.775 182.604 407.545C182.604 408.316 182.717 408.966 182.945 409.495C183.175 410.024 183.498 410.425 183.914 410.699C184.329 410.972 184.816 411.109 185.373 411.109C185.931 411.109 186.418 410.972 186.833 410.699C187.248 410.425 187.57 410.024 187.797 409.495C188.028 408.966 188.143 408.316 188.143 407.545ZM194.236 413L191.114 402.091H193.634L195.44 409.671H195.53L197.522 402.091H199.68L201.667 409.687H201.762L203.568 402.091H206.088L202.966 413H200.718L198.641 405.868H198.556L196.484 413H194.236ZM216.447 402.091V413H214.455L209.709 406.134H209.629V413H207.322V402.091H209.346L214.055 408.952H214.151V402.091H216.447Z" fill="white"/>
</g>
</g>
<rect id="KIOSK" x="356" y="320" width="30" height="10" transform="rotate(-90 356 320)" fill="#D9D9D9" stroke="black" stroke-width="2"/>
<g id="MISC">
<path d="M432 206H439V232H432V206Z" fill="#525252"/>
<path d="M439 232V206H432V232H439ZM432 206L435.454 219.39M439 206L435.454 219.39M439 232L435.454 219.39M432 232L435.454 219.39" stroke="black" stroke-width="2"/>
</g>
<circle id="TRASH BIN" cx="437" cy="248" r="11" fill="#151515" stroke="black" stroke-width="2"/>
<rect id="TURNSTILE" x="331" y="199" width="40" height="20" fill="#B8B8B8" stroke="black" stroke-width="2"/>
<path id="TURNSTILE_2" d="M331 217H371V237H331V217Z" fill="#B8B8B8" stroke="black" stroke-width="2"/>
<rect id="TURNSTILE_3" x="331" y="235" width="40" height="20" fill="#B8B8B8" stroke="black" stroke-width="2"/>
<path id="BOOTH" d="M275 181H297V251H275V181Z" fill="#929292" stroke="black" stroke-width="2"/>
<path id="DOOR" d="M388 324L388 319L408 319L408 324L388 324Z" fill="#D9D9D9" stroke="black" stroke-width="2"/>
<path id="DOOR_2" d="M408 324L408 319L428 319L428 324L408 324Z" fill="#D9D9D9" stroke="black" stroke-width="2"/>
<path id="DOOR_3" d="M428 324L428 319L448 319L448 324L428 324Z" fill="#D9D9D9" stroke="black" stroke-width="2"/>
<path id="DOOR_4" d="M389 129L389 124L409 124L409 129L389 129Z" fill="#D9D9D9" stroke="black" stroke-width="2"/>
<path id="DOOR_5" d="M409 129L409 124L429 124L429 129L409 129Z" fill="#D9D9D9" stroke="black" stroke-width="2"/>
<path id="DOOR_6" d="M429 129L429 124L449 124L449 129L429 129Z" fill="#D9D9D9" stroke="black" stroke-width="2"/>
<path id="DOOR_7" d="M275 130L275 125L295 125L295 130L275 130Z" fill="#D9D9D9" stroke="black" stroke-width="2"/>
<path id="DOOR_8" d="M295 130L295 125L315 125L315 130L295 130Z" fill="#D9D9D9" stroke="black" stroke-width="2"/>
<path id="DOOR_9" d="M315 130L315 125L335 125L335 130L315 130Z" fill="#D9D9D9" stroke="black" stroke-width="2"/>
<path id="DOOR_10" d="M275 324L275 319L295 319L295 324L275 324Z" fill="#D9D9D9" stroke="black" stroke-width="2"/>
<path id="DOOR_11" d="M295 324L295 319L315 319L315 324L295 324Z" fill="#D9D9D9" stroke="black" stroke-width="2"/>
<path id="DOOR_12" d="M315 324L315 319L335 319L335 324L315 324Z" fill="#D9D9D9" stroke="black" stroke-width="2"/>
<path id="EXIT DOOR" d="M353 168H360V193H353V168Z" fill="#6D6D6D" stroke="black" stroke-width="2"/>
<path id="EXIT DOOR_2" d="M419 72L419 65L444 65L444 72L419 72Z" fill="#6D6D6D" stroke="black" stroke-width="2"/>
<path id="EXIT DOOR_3" d="M419 381L419 374L444 374L444 381L419 381Z" fill="#6D6D6D" stroke="black" stroke-width="2"/>
<path id="EXIT DOOR_4" d="M353 261H360V286H353V261Z" fill="#6D6D6D" stroke="black" stroke-width="2"/>
<path id="DOWNTOWN PLATFORM" d="M718.815 90H714.948V79.0909H718.847C719.945 79.0909 720.889 79.3093 721.681 79.7461C722.473 80.1793 723.082 80.8026 723.508 81.6158C723.938 82.429 724.153 83.402 724.153 84.5348C724.153 85.6712 723.938 86.6477 723.508 87.4645C723.082 88.2812 722.469 88.908 721.67 89.3448C720.875 89.7816 719.923 90 718.815 90ZM717.255 88.0238H718.719C719.401 88.0238 719.975 87.9031 720.44 87.6616C720.909 87.4165 721.26 87.0384 721.495 86.527C721.733 86.0121 721.852 85.348 721.852 84.5348C721.852 83.7287 721.733 83.07 721.495 82.5586C721.26 82.0472 720.911 81.6708 720.445 81.4293C719.98 81.1879 719.407 81.0671 718.725 81.0671H717.255V88.0238ZM735.886 84.5455C735.886 85.7351 735.661 86.7472 735.21 87.5817C734.762 88.4162 734.151 89.0536 733.377 89.494C732.607 89.9308 731.74 90.1491 730.778 90.1491C729.808 90.1491 728.938 89.929 728.168 89.4886C727.397 89.0483 726.788 88.4109 726.341 87.5763C725.893 86.7418 725.669 85.7315 725.669 84.5455C725.669 83.3558 725.893 82.3438 726.341 81.5092C726.788 80.6747 727.397 80.0391 728.168 79.6023C728.938 79.1619 729.808 78.9418 730.778 78.9418C731.74 78.9418 732.607 79.1619 733.377 79.6023C734.151 80.0391 734.762 80.6747 735.21 81.5092C735.661 82.3438 735.886 83.3558 735.886 84.5455ZM733.548 84.5455C733.548 83.7749 733.432 83.125 733.201 82.5959C732.974 82.0668 732.653 81.6655 732.237 81.392C731.822 81.1186 731.335 80.9819 730.778 80.9819C730.22 80.9819 729.734 81.1186 729.318 81.392C728.903 81.6655 728.58 82.0668 728.349 82.5959C728.122 83.125 728.008 83.7749 728.008 84.5455C728.008 85.3161 728.122 85.9659 728.349 86.495C728.58 87.0241 728.903 87.4254 729.318 87.6989C729.734 87.9723 730.22 88.109 730.778 88.109C731.335 88.109 731.822 87.9723 732.237 87.6989C732.653 87.4254 732.974 87.0241 733.201 86.495C733.432 85.9659 733.548 85.3161 733.548 84.5455ZM739.64 90L736.519 79.0909H739.038L740.844 86.6708H740.934L742.927 79.0909H745.084L747.071 86.6868H747.167L748.972 79.0909H751.492L748.371 90H746.123L744.045 82.8675H743.96L741.888 90H739.64ZM761.851 79.0909V90H759.859L755.113 83.1339H755.033V90H752.726V79.0909H754.751L759.459 85.9517H759.555V79.0909H761.851ZM763.341 80.9925V79.0909H772.301V80.9925H768.961V90H766.681V80.9925H763.341ZM783.303 84.5455C783.303 85.7351 783.078 86.7472 782.627 87.5817C782.179 88.4162 781.568 89.0536 780.794 89.494C780.024 89.9308 779.157 90.1491 778.195 90.1491C777.225 90.1491 776.355 89.929 775.585 89.4886C774.814 89.0483 774.205 88.4109 773.758 87.5763C773.31 86.7418 773.086 85.7315 773.086 84.5455C773.086 83.3558 773.31 82.3438 773.758 81.5092C774.205 80.6747 774.814 80.0391 775.585 79.6023C776.355 79.1619 777.225 78.9418 778.195 78.9418C779.157 78.9418 780.024 79.1619 780.794 79.6023C781.568 80.0391 782.179 80.6747 782.627 81.5092C783.078 82.3438 783.303 83.3558 783.303 84.5455ZM780.965 84.5455C780.965 83.7749 780.849 83.125 780.618 82.5959C780.391 82.0668 780.07 81.6655 779.654 81.392C779.239 81.1186 778.752 80.9819 778.195 80.9819C777.637 80.9819 777.151 81.1186 776.735 81.392C776.32 81.6655 775.997 82.0668 775.766 82.5959C775.539 83.125 775.425 83.7749 775.425 84.5455C775.425 85.3161 775.539 85.9659 775.766 86.495C775.997 87.0241 776.32 87.4254 776.735 87.6989C777.151 87.9723 777.637 88.109 778.195 88.109C778.752 88.109 779.239 87.9723 779.654 87.6989C780.07 87.4254 780.391 87.0241 780.618 86.495C780.849 85.9659 780.965 85.3161 780.965 84.5455ZM787.057 90L783.936 79.0909H786.455L788.261 86.6708H788.351L790.344 79.0909H792.501L794.488 86.6868H794.584L796.389 79.0909H798.909L795.788 90H793.54L791.462 82.8675H791.377L789.305 90H787.057ZM809.268 79.0909V90H807.276L802.53 83.1339H802.45V90H800.143V79.0909H802.168L806.876 85.9517H806.972V79.0909H809.268ZM714.948 108V97.0909H719.252C720.08 97.0909 720.784 97.2489 721.367 97.565C721.949 97.8775 722.393 98.3125 722.699 98.87C723.007 99.424 723.162 100.063 723.162 100.788C723.162 101.512 723.006 102.151 722.693 102.705C722.381 103.259 721.928 103.691 721.335 104C720.745 104.309 720.032 104.463 719.194 104.463H716.45V102.615H718.821C719.265 102.615 719.63 102.538 719.918 102.386C720.209 102.229 720.426 102.015 720.568 101.741C720.713 101.464 720.786 101.146 720.786 100.788C720.786 100.425 720.713 100.109 720.568 99.8395C720.426 99.5661 720.209 99.3548 719.918 99.2056C719.627 99.0529 719.257 98.9766 718.81 98.9766H717.255V108H714.948ZM724.66 108V97.0909H726.967V106.098H731.643V108H724.66ZM735.329 108H732.858L736.624 97.0909H739.596L743.357 108H740.885L738.153 99.5838H738.067L735.329 108ZM735.175 103.712H741.013V105.512H735.175V103.712ZM742.921 98.9925V97.0909H751.881V98.9925H748.541V108H746.261V98.9925H742.921ZM753.356 108V97.0909H760.579V98.9925H755.663V101.592H760.1V103.494H755.663V108H753.356ZM772.156 102.545C772.156 103.735 771.93 104.747 771.479 105.582C771.032 106.416 770.421 107.054 769.647 107.494C768.876 107.931 768.01 108.149 767.047 108.149C766.078 108.149 765.208 107.929 764.437 107.489C763.667 107.048 763.058 106.411 762.61 105.576C762.163 104.742 761.939 103.732 761.939 102.545C761.939 101.356 762.163 100.344 762.61 99.5092C763.058 98.6747 763.667 98.0391 764.437 97.6023C765.208 97.1619 766.078 96.9418 767.047 96.9418C768.01 96.9418 768.876 97.1619 769.647 97.6023C770.421 98.0391 771.032 98.6747 771.479 99.5092C771.93 100.344 772.156 101.356 772.156 102.545ZM769.817 102.545C769.817 101.775 769.702 101.125 769.471 100.596C769.244 100.067 768.922 99.6655 768.507 99.392C768.091 99.1186 767.605 98.9819 767.047 98.9819C766.49 98.9819 766.003 99.1186 765.588 99.392C765.172 99.6655 764.849 100.067 764.618 100.596C764.391 101.125 764.277 101.775 764.277 102.545C764.277 103.316 764.391 103.966 764.618 104.495C764.849 105.024 765.172 105.425 765.588 105.699C766.003 105.972 766.49 106.109 767.047 106.109C767.605 106.109 768.091 105.972 768.507 105.699C768.922 105.425 769.244 105.024 769.471 104.495C769.702 103.966 769.817 103.316 769.817 102.545ZM773.864 108V97.0909H778.168C778.992 97.0909 779.695 97.2383 780.278 97.533C780.863 97.8242 781.309 98.2379 781.615 98.7741C781.923 99.3068 782.078 99.9336 782.078 100.654C782.078 101.379 781.922 102.002 781.609 102.524C781.297 103.043 780.844 103.44 780.251 103.717C779.661 103.994 778.948 104.133 778.11 104.133H775.228V102.279H777.737C778.177 102.279 778.543 102.219 778.834 102.098C779.125 101.977 779.342 101.796 779.484 101.555C779.629 101.313 779.702 101.013 779.702 100.654C779.702 100.292 779.629 99.9869 779.484 99.7383C779.342 99.4897 779.123 99.3015 778.829 99.1737C778.537 99.0423 778.17 98.9766 777.726 98.9766H776.171V108H773.864ZM779.756 103.036L782.467 108H779.921L777.268 103.036H779.756ZM783.708 97.0909H786.552L789.557 104.42H789.684L792.689 97.0909H795.533V108H793.296V100.9H793.205L790.382 107.947H788.859L786.036 100.873H785.945V108H783.708V97.0909Z" fill="black"/>
<path id="UPTOWN PLATFORM" d="M721.686 338.091H723.993V345.175C723.993 345.971 723.803 346.667 723.423 347.263C723.047 347.86 722.519 348.325 721.841 348.659C721.163 348.989 720.373 349.154 719.471 349.154C718.565 349.154 717.773 348.989 717.095 348.659C716.417 348.325 715.889 347.86 715.513 347.263C715.136 346.667 714.948 345.971 714.948 345.175V338.091H717.255V344.978C717.255 345.394 717.345 345.763 717.526 346.086C717.711 346.409 717.97 346.663 718.304 346.848C718.638 347.033 719.027 347.125 719.471 347.125C719.918 347.125 720.307 347.033 720.637 346.848C720.971 346.663 721.228 346.409 721.409 346.086C721.594 345.763 721.686 345.394 721.686 344.978V338.091ZM725.891 349V338.091H730.195C731.022 338.091 731.727 338.249 732.309 338.565C732.892 338.877 733.335 339.312 733.641 339.87C733.95 340.424 734.104 341.063 734.104 341.788C734.104 342.512 733.948 343.151 733.636 343.705C733.323 344.259 732.87 344.691 732.277 345C731.688 345.309 730.974 345.463 730.136 345.463H727.393V343.615H729.763C730.207 343.615 730.573 343.538 730.86 343.386C731.152 343.229 731.368 343.015 731.51 342.741C731.656 342.464 731.729 342.146 731.729 341.788C731.729 341.425 731.656 341.109 731.51 340.839C731.368 340.566 731.152 340.355 730.86 340.206C730.569 340.053 730.2 339.977 729.752 339.977H728.197V349H725.891ZM735.187 339.993V338.091H744.146V339.993H740.807V349H738.527V339.993H735.187ZM755.149 343.545C755.149 344.735 754.923 345.747 754.472 346.582C754.025 347.416 753.414 348.054 752.64 348.494C751.869 348.931 751.003 349.149 750.04 349.149C749.071 349.149 748.201 348.929 747.43 348.489C746.66 348.048 746.051 347.411 745.603 346.576C745.156 345.742 744.932 344.732 744.932 343.545C744.932 342.356 745.156 341.344 745.603 340.509C746.051 339.675 746.66 339.039 747.43 338.602C748.201 338.162 749.071 337.942 750.04 337.942C751.003 337.942 751.869 338.162 752.64 338.602C753.414 339.039 754.025 339.675 754.472 340.509C754.923 341.344 755.149 342.356 755.149 343.545ZM752.81 343.545C752.81 342.775 752.695 342.125 752.464 341.596C752.237 341.067 751.915 340.665 751.5 340.392C751.085 340.119 750.598 339.982 750.04 339.982C749.483 339.982 748.996 340.119 748.581 340.392C748.165 340.665 747.842 341.067 747.612 341.596C747.384 342.125 747.271 342.775 747.271 343.545C747.271 344.316 747.384 344.966 747.612 345.495C747.842 346.024 748.165 346.425 748.581 346.699C748.996 346.972 749.483 347.109 750.04 347.109C750.598 347.109 751.085 346.972 751.5 346.699C751.915 346.425 752.237 346.024 752.464 345.495C752.695 344.966 752.81 344.316 752.81 343.545ZM758.903 349L755.781 338.091H758.301L760.107 345.671H760.197L762.189 338.091H764.347L766.334 345.687H766.429L768.235 338.091H770.755L767.633 349H765.385L763.308 341.868H763.223L761.151 349H758.903ZM781.114 338.091V349H779.122L774.376 342.134H774.296V349H771.989V338.091H774.013L778.722 344.952H778.818V338.091H781.114ZM714.948 367V356.091H719.252C720.08 356.091 720.784 356.249 721.367 356.565C721.949 356.877 722.393 357.312 722.699 357.87C723.007 358.424 723.162 359.063 723.162 359.788C723.162 360.512 723.006 361.151 722.693 361.705C722.381 362.259 721.928 362.691 721.335 363C720.745 363.309 720.032 363.463 719.194 363.463H716.45V361.615H718.821C719.265 361.615 719.63 361.538 719.918 361.386C720.209 361.229 720.426 361.015 720.568 360.741C720.713 360.464 720.786 360.146 720.786 359.788C720.786 359.425 720.713 359.109 720.568 358.839C720.426 358.566 720.209 358.355 719.918 358.206C719.627 358.053 719.257 357.977 718.81 357.977H717.255V367H714.948ZM724.66 367V356.091H726.967V365.098H731.643V367H724.66ZM735.329 367H732.858L736.624 356.091H739.596L743.357 367H740.885L738.153 358.584H738.067L735.329 367ZM735.175 362.712H741.013V364.512H735.175V362.712ZM742.921 357.993V356.091H751.881V357.993H748.541V367H746.261V357.993H742.921ZM753.356 367V356.091H760.579V357.993H755.663V360.592H760.1V362.494H755.663V367H753.356ZM772.156 361.545C772.156 362.735 771.93 363.747 771.479 364.582C771.032 365.416 770.421 366.054 769.647 366.494C768.876 366.931 768.01 367.149 767.047 367.149C766.078 367.149 765.208 366.929 764.437 366.489C763.667 366.048 763.058 365.411 762.61 364.576C762.163 363.742 761.939 362.732 761.939 361.545C761.939 360.356 762.163 359.344 762.61 358.509C763.058 357.675 763.667 357.039 764.437 356.602C765.208 356.162 766.078 355.942 767.047 355.942C768.01 355.942 768.876 356.162 769.647 356.602C770.421 357.039 771.032 357.675 771.479 358.509C771.93 359.344 772.156 360.356 772.156 361.545ZM769.817 361.545C769.817 360.775 769.702 360.125 769.471 359.596C769.244 359.067 768.922 358.665 768.507 358.392C768.091 358.119 767.605 357.982 767.047 357.982C766.49 357.982 766.003 358.119 765.588 358.392C765.172 358.665 764.849 359.067 764.618 359.596C764.391 360.125 764.277 360.775 764.277 361.545C764.277 362.316 764.391 362.966 764.618 363.495C764.849 364.024 765.172 364.425 765.588 364.699C766.003 364.972 766.49 365.109 767.047 365.109C767.605 365.109 768.091 364.972 768.507 364.699C768.922 364.425 769.244 364.024 769.471 363.495C769.702 362.966 769.817 362.316 769.817 361.545ZM773.864 367V356.091H778.168C778.992 356.091 779.695 356.238 780.278 356.533C780.863 356.824 781.309 357.238 781.615 357.774C781.923 358.307 782.078 358.934 782.078 359.654C782.078 360.379 781.922 361.002 781.609 361.524C781.297 362.043 780.844 362.44 780.251 362.717C779.661 362.994 778.948 363.133 778.11 363.133H775.228V361.279H777.737C778.177 361.279 778.543 361.219 778.834 361.098C779.125 360.977 779.342 360.796 779.484 360.555C779.629 360.313 779.702 360.013 779.702 359.654C779.702 359.292 779.629 358.987 779.484 358.738C779.342 358.49 779.123 358.301 778.829 358.174C778.537 358.042 778.17 357.977 777.726 357.977H776.171V367H773.864ZM779.756 362.036L782.467 367H779.921L777.268 362.036H779.756ZM783.708 356.091H786.552L789.557 363.42H789.684L792.689 356.091H795.533V367H793.296V359.9H793.205L790.382 366.947H788.859L786.036 359.873H785.945V367H783.708V356.091Z" fill="black"/>
<path id="HARWAY AV &#38; STILWELL AV EXIT" d="M27.6708 35V24.0909H29.9773V28.592H34.6594V24.0909H36.9606V35H34.6594V30.4936H29.9773V35H27.6708ZM40.7425 35H38.271L42.0369 24.0909H45.0092L48.7699 35H46.2983L43.5657 26.5838H43.4805L40.7425 35ZM40.5881 30.712H46.4261V32.5124H40.5881V30.712ZM50.0829 35V24.0909H54.3869C55.2108 24.0909 55.9139 24.2383 56.4963 24.533C57.0822 24.8242 57.5279 25.2379 57.8333 25.7741C58.1422 26.3068 58.2967 26.9336 58.2967 27.6545C58.2967 28.3789 58.1404 29.0021 57.8279 29.5241C57.5154 30.0426 57.0627 30.4403 56.4696 30.7173C55.8801 30.9943 55.1664 31.1328 54.3283 31.1328H51.4466V29.2791H53.9554C54.3958 29.2791 54.7615 29.2187 55.0527 29.098C55.3439 28.9773 55.5605 28.7962 55.7026 28.5547C55.8482 28.3132 55.921 28.0131 55.921 27.6545C55.921 27.2923 55.8482 26.9869 55.7026 26.7383C55.5605 26.4897 55.3422 26.3015 55.0474 26.1737C54.7562 26.0423 54.3887 25.9766 53.9448 25.9766H52.3894V35H50.0829ZM55.9743 30.0355L58.6855 35H56.1394L53.4867 30.0355H55.9743ZM62.3823 35L59.2608 24.0909H61.7804L63.5861 31.6708H63.6767L65.6689 24.0909H67.8262L69.813 31.6868H69.9089L71.7147 24.0909H74.2342L71.1127 35H68.8649L66.7875 27.8675H66.7022L64.6301 35H62.3823ZM76.2504 35H73.7788L77.5447 24.0909H80.517L84.2777 35H81.8061L79.0735 26.5838H78.9883L76.2504 35ZM76.0959 30.712H81.9339V32.5124H76.0959V30.712ZM83.8382 24.0909H86.4217L88.9093 28.7891H89.0158L91.5034 24.0909H94.0868L90.1078 31.1435V35H87.8173V31.1435L83.8382 24.0909ZM100.699 35H98.227L101.993 24.0909H104.965L108.726 35H106.254L103.522 26.5838H103.437L100.699 35ZM100.544 30.712H106.382V32.5124H100.544V30.712ZM110.648 24.0909L113.284 32.3793H113.385L116.028 24.0909H118.584L114.824 35H111.851L108.085 24.0909H110.648ZM126.672 35.1598C125.919 35.1598 125.269 35.0249 124.722 34.755C124.175 34.4851 123.754 34.1193 123.46 33.6577C123.168 33.1925 123.023 32.674 123.023 32.1023C123.023 31.6761 123.108 31.2979 123.278 30.9677C123.449 30.6374 123.687 30.3338 123.992 30.0568C124.298 29.7763 124.653 29.4975 125.058 29.2205L127.172 27.8303C127.446 27.6562 127.646 27.4734 127.774 27.2816C127.902 27.0863 127.966 26.875 127.966 26.6477C127.966 26.4311 127.879 26.2305 127.705 26.0458C127.531 25.8612 127.284 25.7706 126.965 25.7741C126.752 25.7741 126.567 25.8221 126.411 25.918C126.254 26.0103 126.132 26.1328 126.043 26.2855C125.958 26.4347 125.915 26.6016 125.915 26.7862C125.915 27.0135 125.979 27.2443 126.107 27.4787C126.235 27.7131 126.405 27.9616 126.618 28.2244C126.831 28.4837 127.064 28.7642 127.316 29.0661L132.488 35H130.123L125.809 30.1953C125.525 29.8722 125.241 29.5348 124.956 29.1832C124.676 28.8281 124.441 28.4517 124.253 28.054C124.065 27.6527 123.971 27.2177 123.971 26.7489C123.971 26.2198 124.093 25.744 124.339 25.3214C124.587 24.8988 124.935 24.565 125.383 24.32C125.83 24.0714 126.352 23.9471 126.949 23.9471C127.531 23.9471 128.033 24.0661 128.456 24.304C128.882 24.5384 129.209 24.8509 129.436 25.2415C129.667 25.6286 129.782 26.0547 129.782 26.5199C129.782 27.0348 129.655 27.5018 129.399 27.9208C129.147 28.3363 128.792 28.7092 128.334 29.0394L126.107 30.6428C125.805 30.8629 125.581 31.0884 125.436 31.3192C125.294 31.5465 125.223 31.7649 125.223 31.9744C125.223 32.2337 125.287 32.4663 125.415 32.6722C125.542 32.8782 125.723 33.0415 125.958 33.1623C126.192 33.2795 126.467 33.3381 126.783 33.3381C127.167 33.3381 127.545 33.2511 127.918 33.0771C128.294 32.8995 128.635 32.6491 128.941 32.326C129.25 31.9993 129.497 31.6122 129.681 31.1648C129.866 30.7173 129.958 30.2219 129.958 29.6786H131.839C131.839 30.3462 131.766 30.9482 131.62 31.4844C131.475 32.017 131.272 32.4822 131.013 32.88C130.754 33.2741 130.457 33.5973 130.123 33.8494C130.017 33.9169 129.914 33.9808 129.814 34.0412C129.715 34.1016 129.612 34.1655 129.505 34.233C129.101 34.5597 128.648 34.7958 128.147 34.9414C127.65 35.087 127.158 35.1598 126.672 35.1598ZM7.01651 45.2283C6.9739 44.7987 6.79102 44.4648 6.46786 44.2269C6.14471 43.989 5.70614 43.87 5.15217 43.87C4.77575 43.87 4.45792 43.9233 4.19869 44.0298C3.93945 44.1328 3.74059 44.2766 3.6021 44.4613C3.46715 44.646 3.39968 44.8555 3.39968 45.0898C3.39258 45.2852 3.43342 45.4556 3.52219 45.6012C3.61452 45.7468 3.74059 45.8729 3.90039 45.9794C4.06019 46.0824 4.24485 46.1729 4.45437 46.2511C4.66388 46.3256 4.88761 46.3896 5.12553 46.4428L6.10565 46.6772C6.5815 46.7837 7.01829 46.9258 7.41602 47.1033C7.81374 47.2809 8.1582 47.4993 8.4494 47.7585C8.74059 48.0178 8.96609 48.3232 9.12589 48.6747C9.28924 49.0263 9.37269 49.4293 9.37624 49.8839C9.37269 50.5515 9.20224 51.1303 8.86488 51.6204C8.53107 52.1069 8.04812 52.4851 7.41602 52.755C6.78746 53.0213 6.0293 53.1545 5.14151 53.1545C4.26083 53.1545 3.49379 53.0195 2.84038 52.7496C2.19052 52.4798 1.68271 52.0803 1.31694 51.5511C0.954723 51.0185 0.764737 50.3597 0.746982 49.5749H2.97887C3.00373 49.9407 3.10849 50.2461 3.29315 50.4911C3.48136 50.7326 3.73171 50.9155 4.04421 51.0398C4.36026 51.1605 4.71715 51.2209 5.11488 51.2209C5.5055 51.2209 5.84464 51.1641 6.13228 51.0504C6.42347 50.9368 6.64897 50.7788 6.80877 50.5763C6.96857 50.3739 7.04847 50.1413 7.04847 49.8786C7.04847 49.6335 6.97567 49.4276 6.83008 49.2607C6.68803 49.0937 6.47852 48.9517 6.20153 48.8345C5.92809 48.7173 5.59251 48.6108 5.19478 48.5149L4.00692 48.2166C3.08718 47.9929 2.36097 47.6431 1.8283 47.1673C1.29563 46.6914 1.03107 46.0504 1.03462 45.2443C1.03107 44.5838 1.20685 44.0067 1.56197 43.5131C1.92063 43.0195 2.41246 42.6342 3.03746 42.3572C3.66246 42.0803 4.37269 41.9418 5.16815 41.9418C5.97781 41.9418 6.68448 42.0803 7.28817 42.3572C7.89542 42.6342 8.36772 43.0195 8.70508 43.5131C9.04244 44.0067 9.21644 44.5785 9.2271 45.2283H7.01651ZM10.5122 43.9925V42.0909H19.4717V43.9925H16.1318V53H13.852V43.9925H10.5122ZM23.2536 42.0909V53H20.9472V42.0909H23.2536ZM25.1513 53V42.0909H27.4577V51.0984H32.1346V53H25.1513ZM35.5024 53L32.3809 42.0909H34.9005L36.7062 49.6708H36.7968L38.789 42.0909H40.9463L42.9332 49.6868H43.029L44.8348 42.0909H47.3543L44.2329 53H41.985L39.9076 45.8675H39.8224L37.7503 53H35.5024ZM48.5888 53V42.0909H55.9396V43.9925H50.8952V46.592H55.5614V48.4936H50.8952V51.0984H55.9609V53H48.5888ZM57.7733 53V42.0909H60.0798V51.0984H64.7567V53H57.7733ZM66.2841 53V42.0909H68.5906V51.0984H73.2674V53H66.2841ZM80.1468 53H77.6752L81.4412 42.0909H84.4135L88.1742 53H85.7026L82.97 44.5838H82.8848L80.1468 53ZM79.9924 48.712H85.8304V50.5124H79.9924V48.712ZM90.0958 42.0909L92.7325 50.3793H92.8337L95.4758 42.0909H98.0326L94.2719 53H91.2996L87.5336 42.0909H90.0958ZM102.817 53V42.0909H110.168V43.9925H105.124V46.592H109.79V48.4936H105.124V51.0984H110.189V53H102.817ZM114.165 42.0909L116.364 45.8089H116.45L118.66 42.0909H121.265L117.936 47.5455L121.34 53H118.687L116.45 49.2766H116.364L114.127 53H111.485L114.9 47.5455L111.549 42.0909H114.165ZM125.031 42.0909V53H122.725V42.0909H125.031ZM126.513 43.9925V42.0909H135.473V43.9925H132.133V53H129.853V43.9925H126.513Z" fill="black"/>
<path id="HARWAY AV &#38; STILWELL AV EXIT_2" d="M27.6708 404V393.091H29.9773V397.592H34.6594V393.091H36.9606V404H34.6594V399.494H29.9773V404H27.6708ZM40.7425 404H38.271L42.0369 393.091H45.0092L48.7699 404H46.2983L43.5657 395.584H43.4805L40.7425 404ZM40.5881 399.712H46.4261V401.512H40.5881V399.712ZM50.0829 404V393.091H54.3869C55.2108 393.091 55.9139 393.238 56.4963 393.533C57.0822 393.824 57.5279 394.238 57.8333 394.774C58.1422 395.307 58.2967 395.934 58.2967 396.654C58.2967 397.379 58.1404 398.002 57.8279 398.524C57.5154 399.043 57.0627 399.44 56.4696 399.717C55.8801 399.994 55.1664 400.133 54.3283 400.133H51.4466V398.279H53.9554C54.3958 398.279 54.7615 398.219 55.0527 398.098C55.3439 397.977 55.5605 397.796 55.7026 397.555C55.8482 397.313 55.921 397.013 55.921 396.654C55.921 396.292 55.8482 395.987 55.7026 395.738C55.5605 395.49 55.3422 395.301 55.0474 395.174C54.7562 395.042 54.3887 394.977 53.9448 394.977H52.3894V404H50.0829ZM55.9743 399.036L58.6855 404H56.1394L53.4867 399.036H55.9743ZM62.3823 404L59.2608 393.091H61.7804L63.5861 400.671H63.6767L65.6689 393.091H67.8262L69.813 400.687H69.9089L71.7147 393.091H74.2342L71.1127 404H68.8649L66.7875 396.868H66.7022L64.6301 404H62.3823ZM76.2504 404H73.7788L77.5447 393.091H80.517L84.2777 404H81.8061L79.0735 395.584H78.9883L76.2504 404ZM76.0959 399.712H81.9339V401.512H76.0959V399.712ZM83.8382 393.091H86.4217L88.9093 397.789H89.0158L91.5034 393.091H94.0868L90.1078 400.143V404H87.8173V400.143L83.8382 393.091ZM100.699 404H98.227L101.993 393.091H104.965L108.726 404H106.254L103.522 395.584H103.437L100.699 404ZM100.544 399.712H106.382V401.512H100.544V399.712ZM110.648 393.091L113.284 401.379H113.385L116.028 393.091H118.584L114.824 404H111.851L108.085 393.091H110.648ZM126.672 404.16C125.919 404.16 125.269 404.025 124.722 403.755C124.175 403.485 123.754 403.119 123.46 402.658C123.168 402.192 123.023 401.674 123.023 401.102C123.023 400.676 123.108 400.298 123.278 399.968C123.449 399.637 123.687 399.334 123.992 399.057C124.298 398.776 124.653 398.498 125.058 398.221L127.172 396.83C127.446 396.656 127.646 396.473 127.774 396.282C127.902 396.086 127.966 395.875 127.966 395.648C127.966 395.431 127.879 395.23 127.705 395.046C127.531 394.861 127.284 394.771 126.965 394.774C126.752 394.774 126.567 394.822 126.411 394.918C126.254 395.01 126.132 395.133 126.043 395.286C125.958 395.435 125.915 395.602 125.915 395.786C125.915 396.013 125.979 396.244 126.107 396.479C126.235 396.713 126.405 396.962 126.618 397.224C126.831 397.484 127.064 397.764 127.316 398.066L132.488 404H130.123L125.809 399.195C125.525 398.872 125.241 398.535 124.956 398.183C124.676 397.828 124.441 397.452 124.253 397.054C124.065 396.653 123.971 396.218 123.971 395.749C123.971 395.22 124.093 394.744 124.339 394.321C124.587 393.899 124.935 393.565 125.383 393.32C125.83 393.071 126.352 392.947 126.949 392.947C127.531 392.947 128.033 393.066 128.456 393.304C128.882 393.538 129.209 393.851 129.436 394.241C129.667 394.629 129.782 395.055 129.782 395.52C129.782 396.035 129.655 396.502 129.399 396.921C129.147 397.336 128.792 397.709 128.334 398.039L126.107 399.643C125.805 399.863 125.581 400.088 125.436 400.319C125.294 400.547 125.223 400.765 125.223 400.974C125.223 401.234 125.287 401.466 125.415 401.672C125.542 401.878 125.723 402.042 125.958 402.162C126.192 402.279 126.467 402.338 126.783 402.338C127.167 402.338 127.545 402.251 127.918 402.077C128.294 401.9 128.635 401.649 128.941 401.326C129.25 400.999 129.497 400.612 129.681 400.165C129.866 399.717 129.958 399.222 129.958 398.679H131.839C131.839 399.346 131.766 399.948 131.62 400.484C131.475 401.017 131.272 401.482 131.013 401.88C130.754 402.274 130.457 402.597 130.123 402.849C130.017 402.917 129.914 402.981 129.814 403.041C129.715 403.102 129.612 403.165 129.505 403.233C129.101 403.56 128.648 403.796 128.147 403.941C127.65 404.087 127.158 404.16 126.672 404.16ZM7.01651 414.228C6.9739 413.799 6.79102 413.465 6.46786 413.227C6.14471 412.989 5.70614 412.87 5.15217 412.87C4.77575 412.87 4.45792 412.923 4.19869 413.03C3.93945 413.133 3.74059 413.277 3.6021 413.461C3.46715 413.646 3.39968 413.855 3.39968 414.09C3.39258 414.285 3.43342 414.456 3.52219 414.601C3.61452 414.747 3.74059 414.873 3.90039 414.979C4.06019 415.082 4.24485 415.173 4.45437 415.251C4.66388 415.326 4.88761 415.39 5.12553 415.443L6.10565 415.677C6.5815 415.784 7.01829 415.926 7.41602 416.103C7.81374 416.281 8.1582 416.499 8.4494 416.759C8.74059 417.018 8.96609 417.323 9.12589 417.675C9.28924 418.026 9.37269 418.429 9.37624 418.884C9.37269 419.551 9.20224 420.13 8.86488 420.62C8.53107 421.107 8.04812 421.485 7.41602 421.755C6.78746 422.021 6.0293 422.154 5.14151 422.154C4.26083 422.154 3.49379 422.02 2.84038 421.75C2.19052 421.48 1.68271 421.08 1.31694 420.551C0.954723 420.018 0.764737 419.36 0.746982 418.575H2.97887C3.00373 418.941 3.10849 419.246 3.29315 419.491C3.48136 419.733 3.73171 419.915 4.04421 420.04C4.36026 420.161 4.71715 420.221 5.11488 420.221C5.5055 420.221 5.84464 420.164 6.13228 420.05C6.42347 419.937 6.64897 419.779 6.80877 419.576C6.96857 419.374 7.04847 419.141 7.04847 418.879C7.04847 418.634 6.97567 418.428 6.83008 418.261C6.68803 418.094 6.47852 417.952 6.20153 417.835C5.92809 417.717 5.59251 417.611 5.19478 417.515L4.00692 417.217C3.08718 416.993 2.36097 416.643 1.8283 416.167C1.29563 415.691 1.03107 415.05 1.03462 414.244C1.03107 413.584 1.20685 413.007 1.56197 412.513C1.92063 412.02 2.41246 411.634 3.03746 411.357C3.66246 411.08 4.37269 410.942 5.16815 410.942C5.97781 410.942 6.68448 411.08 7.28817 411.357C7.89542 411.634 8.36772 412.02 8.70508 412.513C9.04244 413.007 9.21644 413.578 9.2271 414.228H7.01651ZM10.5122 412.993V411.091H19.4717V412.993H16.1318V422H13.852V412.993H10.5122ZM23.2536 411.091V422H20.9472V411.091H23.2536ZM25.1513 422V411.091H27.4577V420.098H32.1346V422H25.1513ZM35.5024 422L32.3809 411.091H34.9005L36.7062 418.671H36.7968L38.789 411.091H40.9463L42.9332 418.687H43.029L44.8348 411.091H47.3543L44.2329 422H41.985L39.9076 414.868H39.8224L37.7503 422H35.5024ZM48.5888 422V411.091H55.9396V412.993H50.8952V415.592H55.5614V417.494H50.8952V420.098H55.9609V422H48.5888ZM57.7733 422V411.091H60.0798V420.098H64.7567V422H57.7733ZM66.2841 422V411.091H68.5906V420.098H73.2674V422H66.2841ZM80.1468 422H77.6752L81.4412 411.091H84.4135L88.1742 422H85.7026L82.97 413.584H82.8848L80.1468 422ZM79.9924 417.712H85.8304V419.512H79.9924V417.712ZM90.0958 411.091L92.7325 419.379H92.8337L95.4758 411.091H98.0326L94.2719 422H91.2996L87.5336 411.091H90.0958ZM102.817 422V411.091H110.168V412.993H105.124V415.592H109.79V417.494H105.124V420.098H110.189V422H102.817ZM114.165 411.091L116.364 414.809H116.45L118.66 411.091H121.265L117.936 416.545L121.34 422H118.687L116.45 418.277H116.364L114.127 422H111.485L114.9 416.545L111.549 411.091H114.165ZM125.031 411.091V422H122.725V411.091H125.031ZM126.513 412.993V411.091H135.473V412.993H132.133V422H129.853V412.993H126.513Z" fill="black"/>
<path id="BAY 50 ST &#38; STILLWELL AV EXIT" d="M678.948 35V24.0909H683.316C684.119 24.0909 684.788 24.2099 685.324 24.4478C685.86 24.6857 686.263 25.016 686.533 25.4386C686.803 25.8576 686.938 26.3406 686.938 26.8874C686.938 27.3136 686.853 27.6882 686.683 28.0114C686.512 28.331 686.278 28.5937 685.979 28.7997C685.685 29.0021 685.347 29.146 684.967 29.2312V29.3377C685.383 29.3555 685.772 29.4727 686.134 29.6893C686.5 29.9059 686.796 30.2095 687.023 30.6001C687.251 30.9872 687.364 31.4489 687.364 31.9851C687.364 32.5639 687.221 33.0806 686.933 33.5352C686.649 33.9862 686.228 34.343 685.67 34.6058C685.113 34.8686 684.426 35 683.609 35H678.948ZM681.255 33.1143H683.135C683.778 33.1143 684.246 32.9918 684.541 32.7468C684.836 32.4982 684.983 32.168 684.983 31.756C684.983 31.4542 684.911 31.1879 684.765 30.957C684.619 30.7262 684.412 30.5451 684.142 30.4137C683.875 30.2823 683.558 30.2166 683.188 30.2166H681.255V33.1143ZM681.255 28.6559H682.964C683.281 28.6559 683.561 28.6009 683.806 28.4908C684.055 28.3771 684.25 28.2173 684.392 28.0114C684.538 27.8054 684.61 27.5586 684.61 27.271C684.61 26.8768 684.47 26.5589 684.19 26.3175C683.913 26.076 683.518 25.9553 683.007 25.9553H681.255V28.6559ZM690.745 35H688.274L692.04 24.0909H695.012L698.773 35H696.301L693.569 26.5838H693.483L690.745 35ZM690.591 30.712H696.429V32.5124H690.591V30.712ZM698.333 24.0909H700.917L703.404 28.7891H703.511L705.998 24.0909H708.582L704.603 31.1435V35H702.312V31.1435L698.333 24.0909ZM717.234 35.1491C716.481 35.1491 715.81 35.0107 715.22 34.7337C714.634 34.4567 714.169 34.0749 713.825 33.5884C713.48 33.1019 713.301 32.5444 713.287 31.9158H715.524C715.549 32.3384 715.726 32.6811 716.057 32.9439C716.387 33.2067 716.779 33.3381 717.234 33.3381C717.596 33.3381 717.916 33.2582 718.193 33.0984C718.473 32.935 718.692 32.7095 718.848 32.4219C719.008 32.1307 719.088 31.7969 719.088 31.4205C719.088 31.0369 719.006 30.6996 718.843 30.4084C718.683 30.1172 718.461 29.8899 718.177 29.7266C717.893 29.5632 717.568 29.4798 717.202 29.4762C716.882 29.4762 716.572 29.5419 716.27 29.6733C715.971 29.8047 715.739 29.984 715.572 30.2113L713.521 29.8438L714.038 24.0909H720.707V25.9766H715.939L715.657 28.7092H715.721C715.913 28.4393 716.202 28.2156 716.589 28.038C716.976 27.8604 717.41 27.7717 717.889 27.7717C718.546 27.7717 719.132 27.9261 719.647 28.2351C720.162 28.544 720.568 28.9684 720.867 29.5082C721.165 30.0444 721.312 30.6623 721.309 31.3619C721.312 32.0969 721.142 32.7504 720.797 33.3221C720.456 33.8903 719.979 34.3377 719.365 34.6644C718.754 34.9876 718.044 35.1491 717.234 35.1491ZM727.195 35.2397C726.279 35.2362 725.49 35.0107 724.83 34.5632C724.173 34.1158 723.667 33.4677 723.312 32.619C722.96 31.7702 722.786 30.7493 722.79 29.5561C722.79 28.3665 722.965 27.3526 723.317 26.5146C723.672 25.6765 724.178 25.0391 724.835 24.6023C725.496 24.1619 726.282 23.9418 727.195 23.9418C728.107 23.9418 728.892 24.1619 729.549 24.6023C730.21 25.0426 730.718 25.6818 731.073 26.5199C731.428 27.3544 731.604 28.3665 731.6 29.5561C731.6 30.7528 731.422 31.7756 731.067 32.6243C730.716 33.473 730.211 34.1211 729.555 34.5685C728.898 35.016 728.111 35.2397 727.195 35.2397ZM727.195 33.3274C727.82 33.3274 728.319 33.0131 728.692 32.3846C729.064 31.756 729.249 30.8132 729.246 29.5561C729.246 28.7287 729.16 28.0398 728.99 27.4893C728.823 26.9389 728.585 26.5252 728.276 26.2482C727.971 25.9712 727.61 25.8327 727.195 25.8327C726.573 25.8327 726.076 26.1435 725.703 26.7649C725.33 27.3864 725.142 28.3168 725.139 29.5561C725.139 30.3942 725.222 31.0938 725.389 31.6548C725.559 32.2124 725.799 32.6314 726.108 32.9119C726.417 33.1889 726.779 33.3274 727.195 33.3274ZM742.698 27.2283C742.656 26.7987 742.473 26.4648 742.15 26.2269C741.826 25.989 741.388 25.87 740.834 25.87C740.457 25.87 740.14 25.9233 739.88 26.0298C739.621 26.1328 739.422 26.2766 739.284 26.4613C739.149 26.646 739.081 26.8555 739.081 27.0898C739.074 27.2852 739.115 27.4556 739.204 27.6012C739.296 27.7468 739.422 27.8729 739.582 27.9794C739.742 28.0824 739.926 28.1729 740.136 28.2511C740.346 28.3256 740.569 28.3896 740.807 28.4428L741.787 28.6772C742.263 28.7837 742.7 28.9258 743.098 29.1033C743.495 29.2809 743.84 29.4993 744.131 29.7585C744.422 30.0178 744.648 30.3232 744.808 30.6747C744.971 31.0263 745.054 31.4293 745.058 31.8839C745.054 32.5515 744.884 33.1303 744.547 33.6204C744.213 34.1069 743.73 34.4851 743.098 34.755C742.469 35.0213 741.711 35.1545 740.823 35.1545C739.942 35.1545 739.175 35.0195 738.522 34.7496C737.872 34.4798 737.364 34.0803 736.999 33.5511C736.636 33.0185 736.446 32.3597 736.429 31.5749H738.661C738.685 31.9407 738.79 32.2461 738.975 32.4911C739.163 32.7326 739.413 32.9155 739.726 33.0398C740.042 33.1605 740.399 33.2209 740.797 33.2209C741.187 33.2209 741.526 33.1641 741.814 33.0504C742.105 32.9368 742.331 32.7788 742.49 32.5763C742.65 32.3739 742.73 32.1413 742.73 31.8786C742.73 31.6335 742.657 31.4276 742.512 31.2607C742.37 31.0937 742.16 30.9517 741.883 30.8345C741.61 30.7173 741.274 30.6108 740.876 30.5149L739.689 30.2166C738.769 29.9929 738.043 29.6431 737.51 29.1673C736.977 28.6914 736.713 28.0504 736.716 27.2443C736.713 26.5838 736.888 26.0067 737.244 25.5131C737.602 25.0195 738.094 24.6342 738.719 24.3572C739.344 24.0803 740.054 23.9418 740.85 23.9418C741.659 23.9418 742.366 24.0803 742.97 24.3572C743.577 24.6342 744.049 25.0195 744.387 25.5131C744.724 26.0067 744.898 26.5785 744.909 27.2283H742.698ZM746.194 25.9925V24.0909H755.153V25.9925H751.813V35H749.534V25.9925H746.194ZM763.403 35.1598C762.65 35.1598 762 35.0249 761.453 34.755C760.907 34.4851 760.486 34.1193 760.191 33.6577C759.9 33.1925 759.754 32.674 759.754 32.1023C759.754 31.6761 759.839 31.2979 760.01 30.9677C760.18 30.6374 760.418 30.3338 760.724 30.0568C761.029 29.7763 761.384 29.4975 761.789 29.2205L763.904 27.8303C764.177 27.6562 764.378 27.4734 764.506 27.2816C764.634 27.0863 764.697 26.875 764.697 26.6477C764.697 26.4311 764.61 26.2305 764.436 26.0458C764.262 25.8612 764.016 25.7706 763.696 25.7741C763.483 25.7741 763.298 25.8221 763.142 25.918C762.986 26.0103 762.863 26.1328 762.775 26.2855C762.689 26.4347 762.647 26.6016 762.647 26.7862C762.647 27.0135 762.711 27.2443 762.838 27.4787C762.966 27.7131 763.137 27.9616 763.35 28.2244C763.563 28.4837 763.795 28.7642 764.048 29.0661L769.22 35H766.855L762.54 30.1953C762.256 29.8722 761.972 29.5348 761.688 29.1832C761.407 28.8281 761.173 28.4517 760.985 28.054C760.797 27.6527 760.702 27.2177 760.702 26.7489C760.702 26.2198 760.825 25.744 761.07 25.3214C761.319 24.8988 761.667 24.565 762.114 24.32C762.561 24.0714 763.083 23.9471 763.68 23.9471C764.262 23.9471 764.765 24.0661 765.188 24.304C765.614 24.5384 765.94 24.8509 766.168 25.2415C766.398 25.6286 766.514 26.0547 766.514 26.5199C766.514 27.0348 766.386 27.5018 766.13 27.9208C765.878 28.3363 765.523 28.7092 765.065 29.0394L762.838 30.6428C762.537 30.8629 762.313 31.0884 762.167 31.3192C762.025 31.5465 761.954 31.7649 761.954 31.9744C761.954 32.2337 762.018 32.4663 762.146 32.6722C762.274 32.8782 762.455 33.0415 762.689 33.1623C762.924 33.2795 763.199 33.3381 763.515 33.3381C763.898 33.3381 764.277 33.2511 764.65 33.0771C765.026 32.8995 765.367 32.6491 765.672 32.326C765.981 31.9993 766.228 31.6122 766.413 31.1648C766.597 30.7173 766.69 30.2219 766.69 29.6786H768.57C768.57 30.3462 768.497 30.9482 768.352 31.4844C768.206 32.017 768.004 32.4822 767.744 32.88C767.485 33.2741 767.189 33.5973 766.855 33.8494C766.748 33.9169 766.645 33.9808 766.546 34.0412C766.446 34.1016 766.343 34.1655 766.237 34.233C765.832 34.5597 765.379 34.7958 764.879 34.9414C764.381 35.087 763.89 35.1598 763.403 35.1598ZM684.866 45.2283C684.824 44.7987 684.641 44.4648 684.317 44.2269C683.994 43.989 683.556 43.87 683.002 43.87C682.625 43.87 682.308 43.9233 682.048 44.0298C681.789 44.1328 681.59 44.2766 681.452 44.4613C681.317 44.646 681.249 44.8555 681.249 45.0898C681.242 45.2852 681.283 45.4556 681.372 45.6012C681.464 45.7468 681.59 45.8729 681.75 45.9794C681.91 46.0824 682.094 46.1729 682.304 46.2511C682.513 46.3256 682.737 46.3896 682.975 46.4428L683.955 46.6772C684.431 46.7837 684.868 46.9258 685.266 47.1033C685.663 47.2809 686.008 47.4993 686.299 47.7585C686.59 48.0178 686.816 48.3232 686.975 48.6747C687.139 49.0263 687.222 49.4293 687.226 49.8839C687.222 50.5515 687.052 51.1303 686.714 51.6204C686.381 52.1069 685.898 52.4851 685.266 52.755C684.637 53.0213 683.879 53.1545 682.991 53.1545C682.11 53.1545 681.343 53.0195 680.69 52.7496C680.04 52.4798 679.532 52.0803 679.167 51.5511C678.804 51.0185 678.614 50.3597 678.597 49.5749H680.828C680.853 49.9407 680.958 50.2461 681.143 50.4911C681.331 50.7326 681.581 50.9155 681.894 51.0398C682.21 51.1605 682.567 51.2209 682.964 51.2209C683.355 51.2209 683.694 51.1641 683.982 51.0504C684.273 50.9368 684.499 50.7788 684.658 50.5763C684.818 50.3739 684.898 50.1413 684.898 49.8786C684.898 49.6335 684.825 49.4276 684.68 49.2607C684.538 49.0937 684.328 48.9517 684.051 48.8345C683.778 48.7173 683.442 48.6108 683.044 48.5149L681.857 48.2166C680.937 47.9929 680.211 47.6431 679.678 47.1673C679.145 46.6914 678.881 46.0504 678.884 45.2443C678.881 44.5838 679.056 44.0067 679.412 43.5131C679.77 43.0195 680.262 42.6342 680.887 42.3572C681.512 42.0803 682.222 41.9418 683.018 41.9418C683.827 41.9418 684.534 42.0803 685.138 42.3572C685.745 42.6342 686.217 43.0195 686.555 43.5131C686.892 44.0067 687.066 44.5785 687.077 45.2283H684.866ZM688.362 43.9925V42.0909H697.321V43.9925H693.981V53H691.702V43.9925H688.362ZM701.103 42.0909V53H698.797V42.0909H701.103ZM703.001 53V42.0909H705.307V51.0984H709.984V53H703.001ZM711.512 53V42.0909H713.818V51.0984H718.495V53H711.512ZM721.863 53L718.741 42.0909H721.261L723.067 49.6708H723.157L725.149 42.0909H727.307L729.294 49.6868H729.389L731.195 42.0909H733.715L730.593 53H728.345L726.268 45.8675H726.183L724.111 53H721.863ZM734.949 53V42.0909H742.3V43.9925H737.256V46.592H741.922V48.4936H737.256V51.0984H742.321V53H734.949ZM744.134 53V42.0909H746.44V51.0984H751.117V53H744.134ZM752.644 53V42.0909H754.951V51.0984H759.628V53H752.644ZM766.507 53H764.036L767.802 42.0909H770.774L774.535 53H772.063L769.33 44.5838H769.245L766.507 53ZM766.353 48.712H772.191V50.5124H766.353V48.712ZM776.456 42.0909L779.093 50.3793H779.194L781.836 42.0909H784.393L780.632 53H777.66L773.894 42.0909H776.456ZM789.178 53V42.0909H796.528V43.9925H791.484V46.592H796.15V48.4936H791.484V51.0984H796.55V53H789.178ZM800.525 42.0909L802.725 45.8089H802.81L805.021 42.0909H807.625L804.296 47.5455L807.7 53H805.047L802.81 49.2766H802.725L800.488 53H797.846L801.26 47.5455L797.909 42.0909H800.525ZM811.391 42.0909V53H809.085V42.0909H811.391ZM812.873 43.9925V42.0909H821.833V43.9925H818.493V53H816.213V43.9925H812.873Z" fill="black"/>
<path id="BAY 50 ST &#38; STILLWELL AV EXIT_2" d="M674.948 405V394.091H679.316C680.119 394.091 680.788 394.21 681.324 394.448C681.86 394.686 682.263 395.016 682.533 395.439C682.803 395.858 682.938 396.341 682.938 396.887C682.938 397.314 682.853 397.688 682.683 398.011C682.512 398.331 682.278 398.594 681.979 398.8C681.685 399.002 681.347 399.146 680.967 399.231V399.338C681.383 399.355 681.772 399.473 682.134 399.689C682.5 399.906 682.796 400.21 683.023 400.6C683.251 400.987 683.364 401.449 683.364 401.985C683.364 402.564 683.221 403.081 682.933 403.535C682.649 403.986 682.228 404.343 681.67 404.606C681.113 404.869 680.426 405 679.609 405H674.948ZM677.255 403.114H679.135C679.778 403.114 680.246 402.992 680.541 402.747C680.836 402.498 680.983 402.168 680.983 401.756C680.983 401.454 680.911 401.188 680.765 400.957C680.619 400.726 680.412 400.545 680.142 400.414C679.875 400.282 679.558 400.217 679.188 400.217H677.255V403.114ZM677.255 398.656H678.964C679.281 398.656 679.561 398.601 679.806 398.491C680.055 398.377 680.25 398.217 680.392 398.011C680.538 397.805 680.61 397.559 680.61 397.271C680.61 396.877 680.47 396.559 680.19 396.317C679.913 396.076 679.518 395.955 679.007 395.955H677.255V398.656ZM686.745 405H684.274L688.04 394.091H691.012L694.773 405H692.301L689.569 396.584H689.483L686.745 405ZM686.591 400.712H692.429V402.512H686.591V400.712ZM694.333 394.091H696.917L699.404 398.789H699.511L701.998 394.091H704.582L700.603 401.143V405H698.312V401.143L694.333 394.091ZM713.234 405.149C712.481 405.149 711.81 405.011 711.22 404.734C710.634 404.457 710.169 404.075 709.825 403.588C709.48 403.102 709.301 402.544 709.287 401.916H711.524C711.549 402.338 711.726 402.681 712.057 402.944C712.387 403.207 712.779 403.338 713.234 403.338C713.596 403.338 713.916 403.258 714.193 403.098C714.473 402.935 714.692 402.71 714.848 402.422C715.008 402.131 715.088 401.797 715.088 401.42C715.088 401.037 715.006 400.7 714.843 400.408C714.683 400.117 714.461 399.89 714.177 399.727C713.893 399.563 713.568 399.48 713.202 399.476C712.882 399.476 712.572 399.542 712.27 399.673C711.971 399.805 711.739 399.984 711.572 400.211L709.521 399.844L710.038 394.091H716.707V395.977H711.939L711.657 398.709H711.721C711.913 398.439 712.202 398.216 712.589 398.038C712.976 397.86 713.41 397.772 713.889 397.772C714.546 397.772 715.132 397.926 715.647 398.235C716.162 398.544 716.568 398.968 716.867 399.508C717.165 400.044 717.312 400.662 717.309 401.362C717.312 402.097 717.142 402.75 716.797 403.322C716.456 403.89 715.979 404.338 715.365 404.664C714.754 404.988 714.044 405.149 713.234 405.149ZM723.195 405.24C722.279 405.236 721.49 405.011 720.83 404.563C720.173 404.116 719.667 403.468 719.312 402.619C718.96 401.77 718.786 400.749 718.79 399.556C718.79 398.366 718.965 397.353 719.317 396.515C719.672 395.676 720.178 395.039 720.835 394.602C721.496 394.162 722.282 393.942 723.195 393.942C724.107 393.942 724.892 394.162 725.549 394.602C726.21 395.043 726.718 395.682 727.073 396.52C727.428 397.354 727.604 398.366 727.6 399.556C727.6 400.753 727.422 401.776 727.067 402.624C726.716 403.473 726.211 404.121 725.555 404.569C724.898 405.016 724.111 405.24 723.195 405.24ZM723.195 403.327C723.82 403.327 724.319 403.013 724.692 402.385C725.064 401.756 725.249 400.813 725.246 399.556C725.246 398.729 725.16 398.04 724.99 397.489C724.823 396.939 724.585 396.525 724.276 396.248C723.971 395.971 723.61 395.833 723.195 395.833C722.573 395.833 722.076 396.143 721.703 396.765C721.33 397.386 721.142 398.317 721.139 399.556C721.139 400.394 721.222 401.094 721.389 401.655C721.559 402.212 721.799 402.631 722.108 402.912C722.417 403.189 722.779 403.327 723.195 403.327ZM738.698 397.228C738.656 396.799 738.473 396.465 738.15 396.227C737.826 395.989 737.388 395.87 736.834 395.87C736.457 395.87 736.14 395.923 735.88 396.03C735.621 396.133 735.422 396.277 735.284 396.461C735.149 396.646 735.081 396.855 735.081 397.09C735.074 397.285 735.115 397.456 735.204 397.601C735.296 397.747 735.422 397.873 735.582 397.979C735.742 398.082 735.926 398.173 736.136 398.251C736.346 398.326 736.569 398.39 736.807 398.443L737.787 398.677C738.263 398.784 738.7 398.926 739.098 399.103C739.495 399.281 739.84 399.499 740.131 399.759C740.422 400.018 740.648 400.323 740.808 400.675C740.971 401.026 741.054 401.429 741.058 401.884C741.054 402.551 740.884 403.13 740.547 403.62C740.213 404.107 739.73 404.485 739.098 404.755C738.469 405.021 737.711 405.154 736.823 405.154C735.942 405.154 735.175 405.02 734.522 404.75C733.872 404.48 733.364 404.08 732.999 403.551C732.636 403.018 732.446 402.36 732.429 401.575H734.661C734.685 401.941 734.79 402.246 734.975 402.491C735.163 402.733 735.413 402.915 735.726 403.04C736.042 403.161 736.399 403.221 736.797 403.221C737.187 403.221 737.526 403.164 737.814 403.05C738.105 402.937 738.331 402.779 738.49 402.576C738.65 402.374 738.73 402.141 738.73 401.879C738.73 401.634 738.657 401.428 738.512 401.261C738.37 401.094 738.16 400.952 737.883 400.835C737.61 400.717 737.274 400.611 736.876 400.515L735.689 400.217C734.769 399.993 734.043 399.643 733.51 399.167C732.977 398.691 732.713 398.05 732.716 397.244C732.713 396.584 732.888 396.007 733.244 395.513C733.602 395.02 734.094 394.634 734.719 394.357C735.344 394.08 736.054 393.942 736.85 393.942C737.659 393.942 738.366 394.08 738.97 394.357C739.577 394.634 740.049 395.02 740.387 395.513C740.724 396.007 740.898 396.578 740.909 397.228H738.698ZM742.194 395.993V394.091H751.153V395.993H747.813V405H745.534V395.993H742.194ZM759.403 405.16C758.65 405.16 758 405.025 757.453 404.755C756.907 404.485 756.486 404.119 756.191 403.658C755.9 403.192 755.754 402.674 755.754 402.102C755.754 401.676 755.839 401.298 756.01 400.968C756.18 400.637 756.418 400.334 756.724 400.057C757.029 399.776 757.384 399.498 757.789 399.221L759.904 397.83C760.177 397.656 760.378 397.473 760.506 397.282C760.634 397.086 760.697 396.875 760.697 396.648C760.697 396.431 760.61 396.23 760.436 396.046C760.262 395.861 760.016 395.771 759.696 395.774C759.483 395.774 759.298 395.822 759.142 395.918C758.986 396.01 758.863 396.133 758.775 396.286C758.689 396.435 758.647 396.602 758.647 396.786C758.647 397.013 758.711 397.244 758.838 397.479C758.966 397.713 759.137 397.962 759.35 398.224C759.563 398.484 759.795 398.764 760.048 399.066L765.22 405H762.855L758.54 400.195C758.256 399.872 757.972 399.535 757.688 399.183C757.407 398.828 757.173 398.452 756.985 398.054C756.797 397.653 756.702 397.218 756.702 396.749C756.702 396.22 756.825 395.744 757.07 395.321C757.319 394.899 757.667 394.565 758.114 394.32C758.561 394.071 759.083 393.947 759.68 393.947C760.262 393.947 760.765 394.066 761.188 394.304C761.614 394.538 761.94 394.851 762.168 395.241C762.398 395.629 762.514 396.055 762.514 396.52C762.514 397.035 762.386 397.502 762.13 397.921C761.878 398.336 761.523 398.709 761.065 399.039L758.838 400.643C758.537 400.863 758.313 401.088 758.167 401.319C758.025 401.547 757.954 401.765 757.954 401.974C757.954 402.234 758.018 402.466 758.146 402.672C758.274 402.878 758.455 403.042 758.689 403.162C758.924 403.279 759.199 403.338 759.515 403.338C759.898 403.338 760.277 403.251 760.65 403.077C761.026 402.9 761.367 402.649 761.672 402.326C761.981 401.999 762.228 401.612 762.413 401.165C762.597 400.717 762.69 400.222 762.69 399.679H764.57C764.57 400.346 764.497 400.948 764.352 401.484C764.206 402.017 764.004 402.482 763.744 402.88C763.485 403.274 763.189 403.597 762.855 403.849C762.748 403.917 762.645 403.981 762.546 404.041C762.446 404.102 762.343 404.165 762.237 404.233C761.832 404.56 761.379 404.796 760.879 404.941C760.381 405.087 759.89 405.16 759.403 405.16ZM680.866 415.228C680.824 414.799 680.641 414.465 680.317 414.227C679.994 413.989 679.556 413.87 679.002 413.87C678.625 413.87 678.308 413.923 678.048 414.03C677.789 414.133 677.59 414.277 677.452 414.461C677.317 414.646 677.249 414.855 677.249 415.09C677.242 415.285 677.283 415.456 677.372 415.601C677.464 415.747 677.59 415.873 677.75 415.979C677.91 416.082 678.094 416.173 678.304 416.251C678.513 416.326 678.737 416.39 678.975 416.443L679.955 416.677C680.431 416.784 680.868 416.926 681.266 417.103C681.663 417.281 682.008 417.499 682.299 417.759C682.59 418.018 682.816 418.323 682.975 418.675C683.139 419.026 683.222 419.429 683.226 419.884C683.222 420.551 683.052 421.13 682.714 421.62C682.381 422.107 681.898 422.485 681.266 422.755C680.637 423.021 679.879 423.154 678.991 423.154C678.11 423.154 677.343 423.02 676.69 422.75C676.04 422.48 675.532 422.08 675.167 421.551C674.804 421.018 674.614 420.36 674.597 419.575H676.828C676.853 419.941 676.958 420.246 677.143 420.491C677.331 420.733 677.581 420.915 677.894 421.04C678.21 421.161 678.567 421.221 678.964 421.221C679.355 421.221 679.694 421.164 679.982 421.05C680.273 420.937 680.499 420.779 680.658 420.576C680.818 420.374 680.898 420.141 680.898 419.879C680.898 419.634 680.825 419.428 680.68 419.261C680.538 419.094 680.328 418.952 680.051 418.835C679.778 418.717 679.442 418.611 679.044 418.515L677.857 418.217C676.937 417.993 676.211 417.643 675.678 417.167C675.145 416.691 674.881 416.05 674.884 415.244C674.881 414.584 675.056 414.007 675.412 413.513C675.77 413.02 676.262 412.634 676.887 412.357C677.512 412.08 678.222 411.942 679.018 411.942C679.827 411.942 680.534 412.08 681.138 412.357C681.745 412.634 682.217 413.02 682.555 413.513C682.892 414.007 683.066 414.578 683.077 415.228H680.866ZM684.362 413.993V412.091H693.321V413.993H689.981V423H687.702V413.993H684.362ZM697.103 412.091V423H694.797V412.091H697.103ZM699.001 423V412.091H701.307V421.098H705.984V423H699.001ZM707.512 423V412.091H709.818V421.098H714.495V423H707.512ZM717.863 423L714.741 412.091H717.261L719.067 419.671H719.157L721.149 412.091H723.307L725.294 419.687H725.389L727.195 412.091H729.715L726.593 423H724.345L722.268 415.868H722.183L720.111 423H717.863ZM730.949 423V412.091H738.3V413.993H733.256V416.592H737.922V418.494H733.256V421.098H738.321V423H730.949ZM740.134 423V412.091H742.44V421.098H747.117V423H740.134ZM748.644 423V412.091H750.951V421.098H755.628V423H748.644ZM762.507 423H760.036L763.802 412.091H766.774L770.535 423H768.063L765.33 414.584H765.245L762.507 423ZM762.353 418.712H768.191V420.512H762.353V418.712ZM772.456 412.091L775.093 420.379H775.194L777.836 412.091H780.393L776.632 423H773.66L769.894 412.091H772.456ZM785.178 423V412.091H792.528V413.993H787.484V416.592H792.15V418.494H787.484V421.098H792.55V423H785.178ZM796.525 412.091L798.725 415.809H798.81L801.021 412.091H803.625L800.296 417.545L803.7 423H801.047L798.81 419.277H798.725L796.488 423H793.846L797.26 417.545L793.909 412.091H796.525ZM807.391 412.091V423H805.085V412.091H807.391ZM808.873 413.993V412.091H817.833V413.993H814.493V423H812.213V413.993H808.873Z" fill="black"/>
<path id="MEZZANINE_2" d="M535.268 449.818H542.094L549.305 467.409H549.612L556.822 449.818H563.648V476H558.279V458.959H558.062L551.286 475.872H547.63L540.854 458.895H540.637V476H535.268V449.818ZM568.209 476V449.818H585.851V454.382H573.745V460.621H584.944V465.185H573.745V471.436H585.902V476H568.209ZM589.971 476V472.714L603.036 454.382H589.945V449.818H609.991V453.104L596.913 471.436H610.016V476H589.971ZM613.983 476V472.714L627.048 454.382H613.957V449.818H634.002V453.104L620.924 471.436H634.028V476H613.983ZM642.788 476H636.857L645.895 449.818H653.028L662.054 476H656.122L649.564 455.801H649.359L642.788 476ZM642.418 465.709H656.429V470.03H642.418V465.709ZM687.104 449.818V476H682.323L670.933 459.521H670.741V476H665.205V449.818H670.063L681.364 466.284H681.594V449.818H687.104ZM697.213 449.818V476H691.678V449.818H697.213ZM723.667 449.818V476H718.886L707.495 459.521H707.303V476H701.768V449.818H706.626L717.927 466.284H718.157V449.818H723.667ZM728.24 476V449.818H745.882V454.382H733.776V460.621H744.975V465.185H733.776V471.436H745.934V476H728.24Z" fill="black"/>
</g>
<g id="UPTOWN PLATFORM_2">
<path id="PLATFORM BASE" d="M491 378H1442L1523.5 360.5L1577 339.5V305H491V378Z" fill="#C8E6FF" stroke="black" stroke-width="2"/>
<g id="UPTOWN_TO_MEZZ_STAIRS">
<g id="GRAPHIC_13">
<path d="M584 328H598.375H612.75H627.125H641.5H655.875H670.25H684.625H699V378H684.625H670.25H655.875H641.5H627.125H612.75H598.375H584V328Z" fill="#8E8E8E"/>
<path d="M641.5 328H627.125M641.5 328H655.875M641.5 328V378M641.5 378H627.125M641.5 378H655.875M612.75 328H598.375M612.75 328H627.125M612.75 328V378M612.75 378H598.375M612.75 378H627.125M670.25 328H655.875M670.25 328H684.625M670.25 328V378M670.25 378H655.875M670.25 378H684.625M598.375 328H584V378H598.375M598.375 328V378M627.125 328V378M655.875 328V378M684.625 328H699V378H684.625M684.625 328V378" stroke="black" stroke-width="2"/>
</g>
<g id="ARROW_7">
<path id="GRAPHIC_14" d="M645 353.5L659 343V347.75H689V357.25H659V362L645 353.5Z" fill="white" stroke="black" stroke-width="3"/>
<path id="DIRECTION TEXT_7" d="M597.411 358H593.544V347.091H597.443C598.54 347.091 599.485 347.309 600.277 347.746C601.069 348.179 601.678 348.803 602.104 349.616C602.534 350.429 602.748 351.402 602.748 352.535C602.748 353.671 602.534 354.648 602.104 355.464C601.678 356.281 601.065 356.908 600.266 357.345C599.471 357.782 598.519 358 597.411 358ZM595.85 356.024H597.315C597.997 356.024 598.57 355.903 599.036 355.662C599.504 355.417 599.856 355.038 600.09 354.527C600.328 354.012 600.447 353.348 600.447 352.535C600.447 351.729 600.328 351.07 600.09 350.559C599.856 350.047 599.506 349.671 599.041 349.429C598.576 349.188 598.002 349.067 597.32 349.067H595.85V356.024ZM614.482 352.545C614.482 353.735 614.256 354.747 613.805 355.582C613.358 356.416 612.747 357.054 611.973 357.494C611.202 357.931 610.336 358.149 609.373 358.149C608.404 358.149 607.534 357.929 606.763 357.489C605.993 357.048 605.384 356.411 604.936 355.576C604.489 354.742 604.265 353.732 604.265 352.545C604.265 351.356 604.489 350.344 604.936 349.509C605.384 348.675 605.993 348.039 606.763 347.602C607.534 347.162 608.404 346.942 609.373 346.942C610.336 346.942 611.202 347.162 611.973 347.602C612.747 348.039 613.358 348.675 613.805 349.509C614.256 350.344 614.482 351.356 614.482 352.545ZM612.143 352.545C612.143 351.775 612.028 351.125 611.797 350.596C611.57 350.067 611.248 349.665 610.833 349.392C610.418 349.119 609.931 348.982 609.373 348.982C608.816 348.982 608.329 349.119 607.914 349.392C607.498 349.665 607.175 350.067 606.945 350.596C606.717 351.125 606.604 351.775 606.604 352.545C606.604 353.316 606.717 353.966 606.945 354.495C607.175 355.024 607.498 355.425 607.914 355.699C608.329 355.972 608.816 356.109 609.373 356.109C609.931 356.109 610.418 355.972 610.833 355.699C611.248 355.425 611.57 355.024 611.797 354.495C612.028 353.966 612.143 353.316 612.143 352.545ZM618.236 358L615.114 347.091H617.634L619.44 354.671H619.53L621.522 347.091H623.68L625.667 354.687H625.762L627.568 347.091H630.088L626.966 358H624.718L622.641 350.868H622.556L620.484 358H618.236ZM640.447 347.091V358H638.455L633.709 351.134H633.629V358H631.322V347.091H633.346L638.055 353.952H638.151V347.091H640.447Z" fill="white"/>
</g>
</g>
<g id="MISC_2">
<path d="M503 317H559V367H503V317Z" fill="#525252"/>
<path d="M559 367V317H503V367H559ZM503 317L530.632 342.75M559 317L530.632 342.75M559 367L530.632 342.75M503 367L530.632 342.75" stroke="black" stroke-width="2"/>
</g>
<g id="MISC_3">
<path d="M1363 353H1398V378H1363V353Z" fill="#525252"/>
<path d="M1398 378V353H1363V378H1398ZM1363 353L1380.27 365.875M1398 353L1380.27 365.875M1398 378L1380.27 365.875M1363 378L1380.27 365.875" stroke="black" stroke-width="2"/>
</g>
<g id="MISC_4">
<path d="M993 368H1015V378H993V368Z" fill="#525252"/>
<path d="M1015 378V368H993V378H1015ZM993 368L1003.86 373.15M1015 368L1003.86 373.15M1015 378L1003.86 373.15M993 378L1003.86 373.15" stroke="black" stroke-width="2"/>
</g>
<rect id="KIOSK_2" x="715" y="368" width="30" height="10" fill="#D9D9D9" stroke="black" stroke-width="2"/>
<rect id="KIOSK_3" x="743" y="368" width="30" height="10" fill="#D9D9D9" stroke="black" stroke-width="2"/>
<rect id="KIOSK_4" x="791" y="368" width="30" height="10" fill="#D9D9D9" stroke="black" stroke-width="2"/>
<rect id="KIOSK_5" x="927" y="368" width="30" height="10" fill="#D9D9D9" stroke="black" stroke-width="2"/>
<rect id="BENCH" x="837" y="358" width="65" height="20" fill="#979797" stroke="black" stroke-width="2"/>
<path id="BENCH_2" d="M1034 358H1099V378H1034V358Z" fill="#979797" stroke="black" stroke-width="2"/>
<circle id="TRASH BIN_2" cx="976" cy="367" r="11" fill="#151515" stroke="black" stroke-width="2"/>
<circle id="TRASH BIN_3" cx="1146" cy="367" r="11" fill="#151515" stroke="black" stroke-width="2"/>
<circle id="MINI KIOSK" cx="1347" cy="370" r="8" fill="#D9D9D9" stroke="black" stroke-width="2"/>
<path id="UPTOWN PLATFORM_3" d="M1381.11 417.818H1386.65V434.821C1386.65 436.73 1386.19 438.401 1385.28 439.832C1384.38 441.264 1383.11 442.381 1381.48 443.182C1379.86 443.974 1377.96 444.371 1375.8 444.371C1373.62 444.371 1371.72 443.974 1370.09 443.182C1368.47 442.381 1367.2 441.264 1366.3 439.832C1365.39 438.401 1364.94 436.73 1364.94 434.821V417.818H1370.48V434.348C1370.48 435.345 1370.69 436.232 1371.13 437.007C1371.57 437.783 1372.19 438.392 1373 438.835C1373.8 439.278 1374.73 439.5 1375.8 439.5C1376.87 439.5 1377.8 439.278 1378.59 438.835C1379.4 438.392 1380.01 437.783 1380.45 437.007C1380.89 436.232 1381.11 435.345 1381.11 434.348V417.818ZM1391.2 444V417.818H1401.53C1403.52 417.818 1405.21 418.197 1406.61 418.956C1408.01 419.706 1409.07 420.75 1409.8 422.088C1410.55 423.418 1410.92 424.952 1410.92 426.69C1410.92 428.429 1410.54 429.963 1409.79 431.293C1409.04 432.622 1407.95 433.658 1406.53 434.399C1405.12 435.141 1403.4 435.511 1401.39 435.511H1394.81V431.075H1400.5C1401.56 431.075 1402.44 430.892 1403.13 430.526C1403.83 430.151 1404.35 429.635 1404.69 428.979C1405.04 428.314 1405.21 427.551 1405.21 426.69C1405.21 425.821 1405.04 425.062 1404.69 424.415C1404.35 423.759 1403.83 423.251 1403.13 422.893C1402.43 422.527 1401.55 422.344 1400.47 422.344H1396.74V444H1391.2ZM1413.51 422.382V417.818H1435.02V422.382H1427V444H1421.53V422.382H1413.51ZM1461.42 430.909C1461.42 433.764 1460.88 436.193 1459.8 438.196C1458.73 440.199 1457.26 441.729 1455.4 442.786C1453.55 443.834 1451.47 444.358 1449.16 444.358C1446.84 444.358 1444.75 443.83 1442.9 442.773C1441.05 441.716 1439.59 440.186 1438.51 438.183C1437.44 436.18 1436.9 433.756 1436.9 430.909C1436.9 428.054 1437.44 425.625 1438.51 423.622C1439.59 421.619 1441.05 420.094 1442.9 419.045C1444.75 417.989 1446.84 417.46 1449.16 417.46C1451.47 417.46 1453.55 417.989 1455.4 419.045C1457.26 420.094 1458.73 421.619 1459.8 423.622C1460.88 425.625 1461.42 428.054 1461.42 430.909ZM1455.81 430.909C1455.81 429.06 1455.53 427.5 1454.98 426.23C1454.43 424.96 1453.66 423.997 1452.67 423.341C1451.67 422.685 1450.5 422.357 1449.16 422.357C1447.83 422.357 1446.66 422.685 1445.66 423.341C1444.66 423.997 1443.89 424.96 1443.33 426.23C1442.79 427.5 1442.52 429.06 1442.52 430.909C1442.52 432.759 1442.79 434.318 1443.33 435.588C1443.89 436.858 1444.66 437.821 1445.66 438.477C1446.66 439.134 1447.83 439.462 1449.16 439.462C1450.5 439.462 1451.67 439.134 1452.67 438.477C1453.66 437.821 1454.43 436.858 1454.98 435.588C1455.53 434.318 1455.81 432.759 1455.81 430.909ZM1470.43 444L1462.94 417.818H1468.99L1473.32 436.01H1473.54L1478.32 417.818H1483.5L1488.27 436.048H1488.5L1492.83 417.818H1498.88L1491.39 444H1485.99L1481.01 426.882H1480.8L1475.83 444H1470.43ZM1523.74 417.818V444H1518.96L1507.57 427.521H1507.38V444H1501.84V417.818H1506.7L1518 434.284H1518.23V417.818H1523.74ZM1536.64 444V417.818H1546.97C1548.96 417.818 1550.65 418.197 1552.05 418.956C1553.45 419.706 1554.51 420.75 1555.25 422.088C1555.99 423.418 1556.36 424.952 1556.36 426.69C1556.36 428.429 1555.98 429.963 1555.23 431.293C1554.48 432.622 1553.4 433.658 1551.97 434.399C1550.56 435.141 1548.84 435.511 1546.83 435.511H1540.25V431.075H1545.94C1547 431.075 1547.88 430.892 1548.57 430.526C1549.27 430.151 1549.79 429.635 1550.13 428.979C1550.48 428.314 1550.66 427.551 1550.66 426.69C1550.66 425.821 1550.48 425.062 1550.13 424.415C1549.79 423.759 1549.27 423.251 1548.57 422.893C1547.87 422.527 1546.99 422.344 1545.91 422.344H1542.18V444H1536.64ZM1559.95 444V417.818H1565.49V439.436H1576.71V444H1559.95ZM1585.56 444H1579.63L1588.67 417.818H1595.8L1604.83 444H1598.89L1592.34 423.801H1592.13L1585.56 444ZM1585.19 433.709H1599.2V438.03H1585.19V433.709ZM1603.78 422.382V417.818H1625.28V422.382H1617.27V444H1611.8V422.382H1603.78ZM1628.82 444V417.818H1646.16V422.382H1634.36V428.621H1645.01V433.185H1634.36V444H1628.82ZM1673.94 430.909C1673.94 433.764 1673.4 436.193 1672.32 438.196C1671.25 440.199 1669.78 441.729 1667.92 442.786C1666.07 443.834 1663.99 444.358 1661.68 444.358C1659.36 444.358 1657.27 443.83 1655.42 442.773C1653.57 441.716 1652.11 440.186 1651.03 438.183C1649.96 436.18 1649.42 433.756 1649.42 430.909C1649.42 428.054 1649.96 425.625 1651.03 423.622C1652.11 421.619 1653.57 420.094 1655.42 419.045C1657.27 417.989 1659.36 417.46 1661.68 417.46C1663.99 417.46 1666.07 417.989 1667.92 419.045C1669.78 420.094 1671.25 421.619 1672.32 423.622C1673.4 425.625 1673.94 428.054 1673.94 430.909ZM1668.33 430.909C1668.33 429.06 1668.05 427.5 1667.5 426.23C1666.95 424.96 1666.18 423.997 1665.19 423.341C1664.19 422.685 1663.02 422.357 1661.68 422.357C1660.34 422.357 1659.18 422.685 1658.18 423.341C1657.18 423.997 1656.41 424.96 1655.85 426.23C1655.31 427.5 1655.03 429.06 1655.03 430.909C1655.03 432.759 1655.31 434.318 1655.85 435.588C1656.41 436.858 1657.18 437.821 1658.18 438.477C1659.18 439.134 1660.34 439.462 1661.68 439.462C1663.02 439.462 1664.19 439.134 1665.19 438.477C1666.18 437.821 1666.95 436.858 1667.5 435.588C1668.05 434.318 1668.33 432.759 1668.33 430.909ZM1678.04 444V417.818H1688.37C1690.35 417.818 1692.04 418.172 1693.44 418.879C1694.84 419.578 1695.91 420.571 1696.64 421.858C1697.39 423.136 1697.76 424.641 1697.76 426.371C1697.76 428.109 1697.38 429.605 1696.63 430.858C1695.88 432.102 1694.79 433.057 1693.37 433.722C1691.96 434.386 1690.24 434.719 1688.23 434.719H1681.32V430.27H1687.34C1688.39 430.27 1689.27 430.125 1689.97 429.835C1690.67 429.545 1691.19 429.111 1691.53 428.531C1691.88 427.952 1692.05 427.232 1692.05 426.371C1692.05 425.501 1691.88 424.768 1691.53 424.172C1691.19 423.575 1690.67 423.124 1689.96 422.817C1689.26 422.501 1688.38 422.344 1687.31 422.344H1683.58V444H1678.04ZM1692.18 432.085L1698.69 444H1692.58L1686.21 432.085H1692.18ZM1701.67 417.818H1708.49L1715.71 435.409H1716.01L1723.22 417.818H1730.05V444H1724.68V426.959H1724.46L1717.69 443.872H1714.03L1707.25 426.895H1707.04V444H1701.67V417.818Z" fill="black"/>
</g>
<g id="DOWNTOWN PLATFORM_2">
<path id="PLATFORM BASE_2" d="M491 69H1442H1528L1577 90.5V142H491V69Z" fill="#C8E6FF" stroke="black" stroke-width="2"/>
<g id="DOWNTOWN_TO_MEZZ_STAIRS">
<g id="GRAPHIC_15">
<path d="M584 69H598.375H612.75H627.125H641.5H655.875H670.25H684.625H699V119H684.625H670.25H655.875H641.5H627.125H612.75H598.375H584V69Z" fill="#8E8E8E"/>
<path d="M641.5 69H627.125M641.5 69H655.875M641.5 69V119M641.5 119H627.125M641.5 119H655.875M612.75 69H598.375M612.75 69H627.125M612.75 69V119M612.75 119H598.375M612.75 119H627.125M670.25 69H655.875M670.25 69H684.625M670.25 69V119M670.25 119H655.875M670.25 119H684.625M598.375 69H584V119H598.375M598.375 69V119M627.125 69V119M655.875 69V119M684.625 69H699V119H684.625M684.625 69V119" stroke="black" stroke-width="2"/>
</g>
<g id="ARROW_8">
<path id="GRAPHIC_16" d="M645 94.5L659 84V88.75H689V98.25H659V103L645 94.5Z" fill="white" stroke="black" stroke-width="3"/>
<path id="DIRECTION TEXT_8" d="M597.411 99H593.544V88.0909H597.443C598.54 88.0909 599.485 88.3093 600.277 88.7461C601.069 89.1793 601.678 89.8026 602.104 90.6158C602.534 91.429 602.748 92.402 602.748 93.5348C602.748 94.6712 602.534 95.6477 602.104 96.4645C601.678 97.2812 601.065 97.908 600.266 98.3448C599.471 98.7816 598.519 99 597.411 99ZM595.85 97.0238H597.315C597.997 97.0238 598.57 96.9031 599.036 96.6616C599.504 96.4165 599.856 96.0384 600.09 95.527C600.328 95.0121 600.447 94.348 600.447 93.5348C600.447 92.7287 600.328 92.07 600.09 91.5586C599.856 91.0472 599.506 90.6708 599.041 90.4293C598.576 90.1879 598.002 90.0671 597.32 90.0671H595.85V97.0238ZM614.482 93.5455C614.482 94.7351 614.256 95.7472 613.805 96.5817C613.358 97.4162 612.747 98.0536 611.973 98.494C611.202 98.9308 610.336 99.1491 609.373 99.1491C608.404 99.1491 607.534 98.929 606.763 98.4886C605.993 98.0483 605.384 97.4109 604.936 96.5763C604.489 95.7418 604.265 94.7315 604.265 93.5455C604.265 92.3558 604.489 91.3438 604.936 90.5092C605.384 89.6747 605.993 89.0391 606.763 88.6023C607.534 88.1619 608.404 87.9418 609.373 87.9418C610.336 87.9418 611.202 88.1619 611.973 88.6023C612.747 89.0391 613.358 89.6747 613.805 90.5092C614.256 91.3438 614.482 92.3558 614.482 93.5455ZM612.143 93.5455C612.143 92.7749 612.028 92.125 611.797 91.5959C611.57 91.0668 611.248 90.6655 610.833 90.392C610.418 90.1186 609.931 89.9819 609.373 89.9819C608.816 89.9819 608.329 90.1186 607.914 90.392C607.498 90.6655 607.175 91.0668 606.945 91.5959C606.717 92.125 606.604 92.7749 606.604 93.5455C606.604 94.3161 606.717 94.9659 606.945 95.495C607.175 96.0241 607.498 96.4254 607.914 96.6989C608.329 96.9723 608.816 97.109 609.373 97.109C609.931 97.109 610.418 96.9723 610.833 96.6989C611.248 96.4254 611.57 96.0241 611.797 95.495C612.028 94.9659 612.143 94.3161 612.143 93.5455ZM618.236 99L615.114 88.0909H617.634L619.44 95.6708H619.53L621.522 88.0909H623.68L625.667 95.6868H625.762L627.568 88.0909H630.088L626.966 99H624.718L622.641 91.8675H622.556L620.484 99H618.236ZM640.447 88.0909V99H638.455L633.709 92.1339H633.629V99H631.322V88.0909H633.346L638.055 94.9517H638.151V88.0909H640.447Z" fill="white"/>
</g>
</g>
<g id="MISC_5">
<path d="M542 69H577V94H542V69Z" fill="#525252"/>
<path d="M577 94V69H542V94H577ZM542 69L559.27 81.875M577 69L559.27 81.875M577 94L559.27 81.875M542 94L559.27 81.875" stroke="black" stroke-width="2"/>
</g>
<g id="MISC_6">
<path d="M1464 70H1489V89H1464V70Z" fill="#525252"/>
<path d="M1489 89V70H1464V89H1489ZM1464 70L1476.34 79.785M1489 70L1476.34 79.785M1489 89L1476.34 79.785M1464 89L1476.34 79.785" stroke="black" stroke-width="2"/>
</g>
<rect id="KIOSK_6" x="715" y="69" width="30" height="10" fill="#D9D9D9" stroke="black" stroke-width="2"/>
<rect id="KIOSK_7" x="743" y="69" width="30" height="10" fill="#D9D9D9" stroke="black" stroke-width="2"/>
<rect id="KIOSK_8" x="791" y="69" width="30" height="10" fill="#D9D9D9" stroke="black" stroke-width="2"/>
<rect id="KIOSK_9" x="1015" y="69" width="30" height="10" fill="#D9D9D9" stroke="black" stroke-width="2"/>
<circle id="TRASH BIN_4" cx="848" cy="81" r="11" fill="#151515" stroke="black" stroke-width="2"/>
<circle id="TRASH BIN_5" cx="998" cy="81" r="11" fill="#151515" stroke="black" stroke-width="2"/>
<circle id="TRASH BIN_6" cx="1206" cy="81" r="11" fill="#151515" stroke="black" stroke-width="2"/>
<rect id="BENCH_3" x="870" y="69" width="65" height="20" fill="#979797" stroke="black" stroke-width="2"/>
<rect id="BENCH_4" x="1056" y="69" width="65" height="20" fill="#979797" stroke="black" stroke-width="2"/>
<circle id="MINI KIOSK_2" cx="1322" cy="78" r="8" fill="#D9D9D9" stroke="black" stroke-width="2"/>
<path id="DOWNTOWN PLATFORM_3" d="M1340.44 35H1331.16V8.81818H1340.51C1343.15 8.81818 1345.41 9.34233 1347.32 10.3906C1349.22 11.4304 1350.68 12.9261 1351.7 14.8778C1352.73 16.8295 1353.25 19.1648 1353.25 21.8835C1353.25 24.6108 1352.73 26.9545 1351.7 28.9148C1350.68 30.875 1349.21 32.3793 1347.29 33.4276C1345.38 34.4759 1343.1 35 1340.44 35ZM1336.69 30.2571H1340.21C1341.84 30.2571 1343.22 29.9673 1344.34 29.3878C1345.46 28.7997 1346.31 27.892 1346.87 26.6648C1347.44 25.429 1347.72 23.8352 1347.72 21.8835C1347.72 19.9489 1347.44 18.3679 1346.87 17.1406C1346.31 15.9134 1345.47 15.0099 1344.35 14.4304C1343.23 13.8509 1341.86 13.5611 1340.22 13.5611H1336.69V30.2571ZM1381.41 21.9091C1381.41 24.7642 1380.87 27.1932 1379.78 29.196C1378.71 31.1989 1377.24 32.7287 1375.39 33.7855C1373.54 34.8338 1371.46 35.358 1369.15 35.358C1366.82 35.358 1364.73 34.8295 1362.88 33.7727C1361.03 32.7159 1359.57 31.1861 1358.5 29.1832C1357.42 27.1804 1356.89 24.7557 1356.89 21.9091C1356.89 19.054 1357.42 16.625 1358.5 14.6222C1359.57 12.6193 1361.03 11.0937 1362.88 10.0455C1364.73 8.98864 1366.82 8.46023 1369.15 8.46023C1371.46 8.46023 1373.54 8.98864 1375.39 10.0455C1377.24 11.0937 1378.71 12.6193 1379.78 14.6222C1380.87 16.625 1381.41 19.054 1381.41 21.9091ZM1375.8 21.9091C1375.8 20.0597 1375.52 18.5 1374.96 17.2301C1374.42 15.9602 1373.65 14.9972 1372.65 14.3409C1371.65 13.6847 1370.49 13.3565 1369.15 13.3565C1367.81 13.3565 1366.64 13.6847 1365.64 14.3409C1364.65 14.9972 1363.87 15.9602 1363.32 17.2301C1362.77 18.5 1362.5 20.0597 1362.5 21.9091C1362.5 23.7585 1362.77 25.3182 1363.32 26.5881C1363.87 27.858 1364.65 28.821 1365.64 29.4773C1366.64 30.1335 1367.81 30.4616 1369.15 30.4616C1370.49 30.4616 1371.65 30.1335 1372.65 29.4773C1373.65 28.821 1374.42 27.858 1374.96 26.5881C1375.52 25.3182 1375.8 23.7585 1375.8 21.9091ZM1390.42 35L1382.93 8.81818H1388.97L1393.31 27.0099H1393.52L1398.3 8.81818H1403.48L1408.25 27.0483H1408.48L1412.81 8.81818H1418.86L1411.37 35H1405.98L1400.99 17.8821H1400.78L1395.81 35H1390.42ZM1443.72 8.81818V35H1438.94L1427.55 18.5213H1427.36V35H1421.82V8.81818H1426.68L1437.98 25.2841H1438.21V8.81818H1443.72ZM1447.3 13.3821V8.81818H1468.8V13.3821H1460.79V35H1455.32V13.3821H1447.3ZM1495.21 21.9091C1495.21 24.7642 1494.67 27.1932 1493.58 29.196C1492.51 31.1989 1491.04 32.7287 1489.19 33.7855C1487.34 34.8338 1485.26 35.358 1482.95 35.358C1480.62 35.358 1478.53 34.8295 1476.68 33.7727C1474.83 32.7159 1473.37 31.1861 1472.3 29.1832C1471.23 27.1804 1470.69 24.7557 1470.69 21.9091C1470.69 19.054 1471.23 16.625 1472.3 14.6222C1473.37 12.6193 1474.83 11.0937 1476.68 10.0455C1478.53 8.98864 1480.62 8.46023 1482.95 8.46023C1485.26 8.46023 1487.34 8.98864 1489.19 10.0455C1491.04 11.0937 1492.51 12.6193 1493.58 14.6222C1494.67 16.625 1495.21 19.054 1495.21 21.9091ZM1489.6 21.9091C1489.6 20.0597 1489.32 18.5 1488.77 17.2301C1488.22 15.9602 1487.45 14.9972 1486.45 14.3409C1485.45 13.6847 1484.29 13.3565 1482.95 13.3565C1481.61 13.3565 1480.44 13.6847 1479.45 14.3409C1478.45 14.9972 1477.67 15.9602 1477.12 17.2301C1476.57 18.5 1476.3 20.0597 1476.3 21.9091C1476.3 23.7585 1476.57 25.3182 1477.12 26.5881C1477.67 27.858 1478.45 28.821 1479.45 29.4773C1480.44 30.1335 1481.61 30.4616 1482.95 30.4616C1484.29 30.4616 1485.45 30.1335 1486.45 29.4773C1487.45 28.821 1488.22 27.858 1488.77 26.5881C1489.32 25.3182 1489.6 23.7585 1489.6 21.9091ZM1504.22 35L1496.73 8.81818H1502.77L1507.11 27.0099H1507.32L1512.11 8.81818H1517.28L1522.05 27.0483H1522.28L1526.62 8.81818H1532.66L1525.17 35H1519.78L1514.79 17.8821H1514.59L1509.61 35H1504.22ZM1557.52 8.81818V35H1552.74L1541.35 18.5213H1541.16V35H1535.63V8.81818H1540.48L1551.78 25.2841H1552.01V8.81818H1557.52ZM1570.43 35V8.81818H1580.76C1582.75 8.81818 1584.44 9.19744 1585.83 9.95597C1587.23 10.706 1588.3 11.75 1589.03 13.0881C1589.77 14.4176 1590.14 15.9517 1590.14 17.6903C1590.14 19.429 1589.77 20.9631 1589.02 22.2926C1588.27 23.6222 1587.18 24.6577 1585.76 25.3991C1584.34 26.1406 1582.63 26.5114 1580.62 26.5114H1574.03V22.0753H1579.72C1580.79 22.0753 1581.67 21.892 1582.36 21.5256C1583.06 21.1506 1583.58 20.6349 1583.92 19.9787C1584.27 19.3139 1584.44 18.5511 1584.44 17.6903C1584.44 16.821 1584.27 16.0625 1583.92 15.4148C1583.58 14.7585 1583.06 14.2514 1582.36 13.8935C1581.66 13.527 1580.77 13.3438 1579.7 13.3438H1575.97V35H1570.43ZM1593.74 35V8.81818H1599.27V30.4361H1610.5V35H1593.74ZM1619.34 35H1613.41L1622.45 8.81818H1629.59L1638.61 35H1632.68L1626.12 14.8011H1625.92L1619.34 35ZM1618.97 24.7088H1632.99V29.0298H1618.97V24.7088ZM1637.57 13.3821V8.81818H1659.07V13.3821H1651.05V35H1645.58V13.3821H1637.57ZM1662.61 35V8.81818H1679.94V13.3821H1668.15V19.6207H1678.79V24.1847H1668.15V35H1662.61ZM1707.73 21.9091C1707.73 24.7642 1707.19 27.1932 1706.1 29.196C1705.03 31.1989 1703.56 32.7287 1701.71 33.7855C1699.86 34.8338 1697.78 35.358 1695.47 35.358C1693.14 35.358 1691.05 34.8295 1689.2 33.7727C1687.35 32.7159 1685.89 31.1861 1684.82 29.1832C1683.74 27.1804 1683.21 24.7557 1683.21 21.9091C1683.21 19.054 1683.74 16.625 1684.82 14.6222C1685.89 12.6193 1687.35 11.0937 1689.2 10.0455C1691.05 8.98864 1693.14 8.46023 1695.47 8.46023C1697.78 8.46023 1699.86 8.98864 1701.71 10.0455C1703.56 11.0937 1705.03 12.6193 1706.1 14.6222C1707.19 16.625 1707.73 19.054 1707.73 21.9091ZM1702.12 21.9091C1702.12 20.0597 1701.84 18.5 1701.28 17.2301C1700.74 15.9602 1699.97 14.9972 1698.97 14.3409C1697.97 13.6847 1696.81 13.3565 1695.47 13.3565C1694.13 13.3565 1692.96 13.6847 1691.97 14.3409C1690.97 14.9972 1690.19 15.9602 1689.64 17.2301C1689.09 18.5 1688.82 20.0597 1688.82 21.9091C1688.82 23.7585 1689.09 25.3182 1689.64 26.5881C1690.19 27.858 1690.97 28.821 1691.97 29.4773C1692.96 30.1335 1694.13 30.4616 1695.47 30.4616C1696.81 30.4616 1697.97 30.1335 1698.97 29.4773C1699.97 28.821 1700.74 27.858 1701.28 26.5881C1701.84 25.3182 1702.12 23.7585 1702.12 21.9091ZM1711.83 35V8.81818H1722.16C1724.14 8.81818 1725.82 9.17187 1727.22 9.87926C1728.63 10.5781 1729.7 11.571 1730.43 12.858C1731.17 14.1364 1731.54 15.6406 1731.54 17.3707C1731.54 19.1094 1731.17 20.6051 1730.42 21.858C1729.67 23.1023 1728.58 24.0568 1727.16 24.7216C1725.74 25.3864 1724.03 25.7188 1722.02 25.7188H1715.1V21.2699H1721.12C1722.18 21.2699 1723.06 21.125 1723.76 20.8352C1724.45 20.5455 1724.97 20.1108 1725.32 19.5312C1725.66 18.9517 1725.84 18.2315 1725.84 17.3707C1725.84 16.5014 1725.66 15.7685 1725.32 15.1719C1724.97 14.5753 1724.45 14.1236 1723.74 13.8168C1723.04 13.5014 1722.16 13.3438 1721.1 13.3438H1717.36V35H1711.83ZM1725.97 23.0852L1732.47 35H1726.36L1720 23.0852H1725.97ZM1735.45 8.81818H1742.28L1749.49 26.4091H1749.8L1757.01 8.81818H1763.83V35H1758.46V17.9588H1758.25L1751.47 34.8722H1747.82L1741.04 17.8949H1740.82V35H1735.45V8.81818Z" fill="black"/>
</g>
</g>
</svg>
