<svg width="1317" height="148" viewBox="0 0 1317 148" fill="none" xmlns="http://www.w3.org/2000/svg">
<g id="UPTOWN PLATFORM">
<path id="PLATFORM BASE" d="M1 74H952L1033.5 56.5L1087 35.5V1H1V74Z" fill="#C8E6FF" stroke="black" stroke-width="2"/>
<g id="STAIRS">
<g id="GRAPHIC">
<path d="M94 24H108.375H122.75H137.125H151.5H165.875H180.25H194.625H209V74H194.625H180.25H165.875H151.5H137.125H122.75H108.375H94V24Z" fill="#8E8E8E"/>
<path d="M151.5 24H137.125M151.5 24H165.875M151.5 24V74M151.5 74H137.125M151.5 74H165.875M122.75 24H108.375M122.75 24H137.125M122.75 24V74M122.75 74H108.375M122.75 74H137.125M180.25 24H165.875M180.25 24H194.625M180.25 24V74M180.25 74H165.875M180.25 74H194.625M108.375 24H94V74H108.375M108.375 24V74M137.125 24V74M165.875 24V74M194.625 24H209V74H194.625M194.625 24V74" stroke="black" stroke-width="2"/>
</g>
<g id="ARROW">
<path id="GRAPHIC_2" d="M155 49.5L169 39V43.75H199V53.25H169V58L155 49.5Z" fill="white" stroke="black" stroke-width="3"/>
<path id="DIRECTION TEXT" d="M107.411 54H103.544V43.0909H107.443C108.54 43.0909 109.485 43.3093 110.277 43.7461C111.069 44.1793 111.678 44.8026 112.104 45.6158C112.534 46.429 112.748 47.402 112.748 48.5348C112.748 49.6712 112.534 50.6477 112.104 51.4645C111.678 52.2812 111.065 52.908 110.266 53.3448C109.471 53.7816 108.519 54 107.411 54ZM105.85 52.0238H107.315C107.997 52.0238 108.57 51.9031 109.036 51.6616C109.504 51.4165 109.856 51.0384 110.09 50.527C110.328 50.0121 110.447 49.348 110.447 48.5348C110.447 47.7287 110.328 47.07 110.09 46.5586C109.856 46.0472 109.506 45.6708 109.041 45.4293C108.576 45.1879 108.002 45.0671 107.32 45.0671H105.85V52.0238ZM124.482 48.5455C124.482 49.7351 124.256 50.7472 123.805 51.5817C123.358 52.4162 122.747 53.0536 121.973 53.494C121.202 53.9308 120.336 54.1491 119.373 54.1491C118.404 54.1491 117.534 53.929 116.763 53.4886C115.993 53.0483 115.384 52.4109 114.936 51.5763C114.489 50.7418 114.265 49.7315 114.265 48.5455C114.265 47.3558 114.489 46.3438 114.936 45.5092C115.384 44.6747 115.993 44.0391 116.763 43.6023C117.534 43.1619 118.404 42.9418 119.373 42.9418C120.336 42.9418 121.202 43.1619 121.973 43.6023C122.747 44.0391 123.358 44.6747 123.805 45.5092C124.256 46.3438 124.482 47.3558 124.482 48.5455ZM122.143 48.5455C122.143 47.7749 122.028 47.125 121.797 46.5959C121.57 46.0668 121.248 45.6655 120.833 45.392C120.418 45.1186 119.931 44.9819 119.373 44.9819C118.816 44.9819 118.329 45.1186 117.914 45.392C117.498 45.6655 117.175 46.0668 116.945 46.5959C116.717 47.125 116.604 47.7749 116.604 48.5455C116.604 49.3161 116.717 49.9659 116.945 50.495C117.175 51.0241 117.498 51.4254 117.914 51.6989C118.329 51.9723 118.816 52.109 119.373 52.109C119.931 52.109 120.418 51.9723 120.833 51.6989C121.248 51.4254 121.57 51.0241 121.797 50.495C122.028 49.9659 122.143 49.3161 122.143 48.5455ZM128.236 54L125.114 43.0909H127.634L129.44 50.6708H129.53L131.522 43.0909H133.68L135.667 50.6868H135.762L137.568 43.0909H140.088L136.966 54H134.718L132.641 46.8675H132.556L130.484 54H128.236ZM150.447 43.0909V54H148.455L143.709 47.1339H143.629V54H141.322V43.0909H143.346L148.055 49.9517H148.151V43.0909H150.447Z" fill="white"/>
</g>
</g>
<g id="MISC">
<path d="M13 13H69V63H13V13Z" fill="#525252"/>
<path d="M69 63V13H13V63H69ZM13 13L40.6316 38.75M69 13L40.6316 38.75M69 63L40.6316 38.75M13 63L40.6316 38.75" stroke="black" stroke-width="2"/>
</g>
<g id="MISC_2">
<path d="M873 49H908V74H873V49Z" fill="#525252"/>
<path d="M908 74V49H873V74H908ZM873 49L890.27 61.875M908 49L890.27 61.875M908 74L890.27 61.875M873 74L890.27 61.875" stroke="black" stroke-width="2"/>
</g>
<g id="MISC_3">
<path d="M503 64H525V74H503V64Z" fill="#525252"/>
<path d="M525 74V64H503V74H525ZM503 64L513.855 69.15M525 64L513.855 69.15M525 74L513.855 69.15M503 74L513.855 69.15" stroke="black" stroke-width="2"/>
</g>
<rect id="KIOSK" x="225" y="64" width="30" height="10" fill="#D9D9D9" stroke="black" stroke-width="2"/>
<rect id="KIOSK_2" x="253" y="64" width="30" height="10" fill="#D9D9D9" stroke="black" stroke-width="2"/>
<rect id="KIOSK_3" x="301" y="64" width="30" height="10" fill="#D9D9D9" stroke="black" stroke-width="2"/>
<rect id="KIOSK_4" x="437" y="64" width="30" height="10" fill="#D9D9D9" stroke="black" stroke-width="2"/>
<rect id="BENCH" x="347" y="54" width="65" height="20" fill="#979797" stroke="black" stroke-width="2"/>
<path id="BENCH_2" d="M544 54H609V74H544V54Z" fill="#979797" stroke="black" stroke-width="2"/>
<circle id="TRASH BIN" cx="486" cy="63" r="11" fill="#151515" stroke="black" stroke-width="2"/>
<circle id="TRASH BIN_2" cx="656" cy="63" r="11" fill="#151515" stroke="black" stroke-width="2"/>
<circle id="MINI KIOSK" cx="857" cy="66" r="8" fill="#D9D9D9" stroke="black" stroke-width="2"/>
<path id="UPTOWN PLATFORM_2" d="M891.113 113.818H896.649V130.821C896.649 132.73 896.193 134.401 895.281 135.832C894.378 137.264 893.112 138.381 891.484 139.182C889.856 139.974 887.96 140.371 885.795 140.371C883.622 140.371 881.721 139.974 880.094 139.182C878.466 138.381 877.2 137.264 876.297 135.832C875.393 134.401 874.942 132.73 874.942 130.821V113.818H880.477V130.348C880.477 131.345 880.694 132.232 881.129 133.007C881.572 133.783 882.194 134.392 882.996 134.835C883.797 135.278 884.73 135.5 885.795 135.5C886.869 135.5 887.802 135.278 888.595 134.835C889.396 134.392 890.014 133.783 890.449 133.007C890.892 132.232 891.113 131.345 891.113 130.348V113.818ZM901.203 140V113.818H911.533C913.519 113.818 915.21 114.197 916.608 114.956C918.006 115.706 919.071 116.75 919.804 118.088C920.546 119.418 920.916 120.952 920.916 122.69C920.916 124.429 920.541 125.963 919.791 127.293C919.041 128.622 917.955 129.658 916.531 130.399C915.117 131.141 913.404 131.511 911.392 131.511H904.808V127.075H910.497C911.563 127.075 912.441 126.892 913.131 126.526C913.83 126.151 914.35 125.635 914.691 124.979C915.04 124.314 915.215 123.551 915.215 122.69C915.215 121.821 915.04 121.062 914.691 120.415C914.35 119.759 913.83 119.251 913.131 118.893C912.432 118.527 911.546 118.344 910.472 118.344H906.739V140H901.203ZM923.515 118.382V113.818H945.018V118.382H937.002V140H931.53V118.382H923.515ZM971.423 126.909C971.423 129.764 970.882 132.193 969.8 134.196C968.726 136.199 967.26 137.729 965.402 138.786C963.552 139.834 961.473 140.358 959.163 140.358C956.836 140.358 954.748 139.83 952.899 138.773C951.05 137.716 949.588 136.186 948.514 134.183C947.44 132.18 946.903 129.756 946.903 126.909C946.903 124.054 947.44 121.625 948.514 119.622C949.588 117.619 951.05 116.094 952.899 115.045C954.748 113.989 956.836 113.46 959.163 113.46C961.473 113.46 963.552 113.989 965.402 115.045C967.26 116.094 968.726 117.619 969.8 119.622C970.882 121.625 971.423 124.054 971.423 126.909ZM965.811 126.909C965.811 125.06 965.534 123.5 964.98 122.23C964.434 120.96 963.663 119.997 962.666 119.341C961.669 118.685 960.501 118.357 959.163 118.357C957.825 118.357 956.657 118.685 955.66 119.341C954.663 119.997 953.888 120.96 953.334 122.23C952.788 123.5 952.515 125.06 952.515 126.909C952.515 128.759 952.788 130.318 953.334 131.588C953.888 132.858 954.663 133.821 955.66 134.477C956.657 135.134 957.825 135.462 959.163 135.462C960.501 135.462 961.669 135.134 962.666 134.477C963.663 133.821 964.434 132.858 964.98 131.588C965.534 130.318 965.811 128.759 965.811 126.909ZM980.433 140L972.941 113.818H978.988L983.322 132.01H983.539L988.32 113.818H993.498L998.267 132.048H998.497L1002.83 113.818H1008.88L1001.39 140H995.991L991.005 122.882H990.801L985.828 140H980.433ZM1033.74 113.818V140H1028.96L1017.57 123.521H1017.38V140H1011.84V113.818H1016.7L1028 130.284H1028.23V113.818H1033.74ZM1046.64 140V113.818H1056.97C1058.96 113.818 1060.65 114.197 1062.05 114.956C1063.45 115.706 1064.51 116.75 1065.25 118.088C1065.99 119.418 1066.36 120.952 1066.36 122.69C1066.36 124.429 1065.98 125.963 1065.23 127.293C1064.48 128.622 1063.4 129.658 1061.97 130.399C1060.56 131.141 1058.84 131.511 1056.83 131.511H1050.25V127.075H1055.94C1057 127.075 1057.88 126.892 1058.57 126.526C1059.27 126.151 1059.79 125.635 1060.13 124.979C1060.48 124.314 1060.66 123.551 1060.66 122.69C1060.66 121.821 1060.48 121.062 1060.13 120.415C1059.79 119.759 1059.27 119.251 1058.57 118.893C1057.87 118.527 1056.99 118.344 1055.91 118.344H1052.18V140H1046.64ZM1069.95 140V113.818H1075.49V135.436H1086.71V140H1069.95ZM1095.56 140H1089.63L1098.67 113.818H1105.8L1114.83 140H1108.89L1102.34 119.801H1102.13L1095.56 140ZM1095.19 129.709H1109.2V134.03H1095.19V129.709ZM1113.78 118.382V113.818H1135.28V118.382H1127.27V140H1121.8V118.382H1113.78ZM1138.82 140V113.818H1156.16V118.382H1144.36V124.621H1155.01V129.185H1144.36V140H1138.82ZM1183.94 126.909C1183.94 129.764 1183.4 132.193 1182.32 134.196C1181.25 136.199 1179.78 137.729 1177.92 138.786C1176.07 139.834 1173.99 140.358 1171.68 140.358C1169.36 140.358 1167.27 139.83 1165.42 138.773C1163.57 137.716 1162.11 136.186 1161.03 134.183C1159.96 132.18 1159.42 129.756 1159.42 126.909C1159.42 124.054 1159.96 121.625 1161.03 119.622C1162.11 117.619 1163.57 116.094 1165.42 115.045C1167.27 113.989 1169.36 113.46 1171.68 113.46C1173.99 113.46 1176.07 113.989 1177.92 115.045C1179.78 116.094 1181.25 117.619 1182.32 119.622C1183.4 121.625 1183.94 124.054 1183.94 126.909ZM1178.33 126.909C1178.33 125.06 1178.05 123.5 1177.5 122.23C1176.95 120.96 1176.18 119.997 1175.19 119.341C1174.19 118.685 1173.02 118.357 1171.68 118.357C1170.34 118.357 1169.18 118.685 1168.18 119.341C1167.18 119.997 1166.41 120.96 1165.85 122.23C1165.31 123.5 1165.03 125.06 1165.03 126.909C1165.03 128.759 1165.31 130.318 1165.85 131.588C1166.41 132.858 1167.18 133.821 1168.18 134.477C1169.18 135.134 1170.34 135.462 1171.68 135.462C1173.02 135.462 1174.19 135.134 1175.19 134.477C1176.18 133.821 1176.95 132.858 1177.5 131.588C1178.05 130.318 1178.33 128.759 1178.33 126.909ZM1188.04 140V113.818H1198.37C1200.35 113.818 1202.04 114.172 1203.44 114.879C1204.84 115.578 1205.91 116.571 1206.64 117.858C1207.39 119.136 1207.76 120.641 1207.76 122.371C1207.76 124.109 1207.38 125.605 1206.63 126.858C1205.88 128.102 1204.79 129.057 1203.37 129.722C1201.96 130.386 1200.24 130.719 1198.23 130.719H1191.32V126.27H1197.34C1198.39 126.27 1199.27 126.125 1199.97 125.835C1200.67 125.545 1201.19 125.111 1201.53 124.531C1201.88 123.952 1202.05 123.232 1202.05 122.371C1202.05 121.501 1201.88 120.768 1201.53 120.172C1201.19 119.575 1200.67 119.124 1199.96 118.817C1199.26 118.501 1198.38 118.344 1197.31 118.344H1193.58V140H1188.04ZM1202.18 128.085L1208.69 140H1202.58L1196.21 128.085H1202.18ZM1211.67 113.818H1218.49L1225.71 131.409H1226.01L1233.22 113.818H1240.05V140H1234.68V122.959H1234.46L1227.69 139.872H1224.03L1217.25 122.895H1217.04V140H1211.67V113.818Z" fill="black"/>
</g>
</svg>
